<?xml version="1.0" standalone="no"?>
<!DOCTYPE svg PUBLIC "-//W3C//DTD SVG 1.1//EN" "http://www.w3.org/Graphics/SVG/1.1/DTD/svg11.dtd" >
<svg xmlns="http://www.w3.org/2000/svg" xmlns:xlink="http://www.w3.org/1999/xlink" version="1.1">
<metadata>
Created by FontForge 20150804 at Mon Jul 24 00:56:02 2017
 By cloudconvert
Copyright (c) 2015 by Eduardo Manso. All rights reserved.
</metadata>
<defs>
<font id="GeogrotesqueComp-SmBdIt" horiz-adv-x="268" >
  <font-face 
    font-family="GeogrotesqueComp-SmBdIt"
    font-weight="400"
    font-style="italic"
    font-stretch="ultra-condensed"
    units-per-em="1000"
    panose-1="0 0 0 0 0 0 0 0 0 0"
    ascent="787"
    descent="-213"
    x-height="498"
    cap-height="680"
    bbox="-150.667 -249.262 1419 964"
    underline-thickness="77"
    underline-position="-49"
    slope="-7"
    unicode-range="U+000D-FF19"
  />
<missing-glyph horiz-adv-x="809" 
d="M693 94c-69.333 -68 -152.333 -101.999 -249 -101.999c-96 0 -178 34 -246 102c-68.667 67.333 -103 149.666 -103 246.999c0 96 34.333 178.333 103 247c68 68 150 102 246 102c98 0 181 -34 249 -102c68.667 -68.667 103 -151 103 -247s-34.333 -178.333 -103 -247z
M681 106.001c66 66 99 144.332 99 234.999s-33 169 -99 235c-65.333 65.333 -144.333 98 -237 98c-90.667 0 -168.667 -32.667 -234 -98c-66 -66 -99 -144.333 -99 -235c0 -91.333 33 -169.666 99 -234.999c65.333 -65.333 143.333 -98 234 -98
c92.667 0 171.667 32.667 237 98zM550 172l-105.001 105.002l-105 -105c-10.667 -10.667 -21 -10.667 -31 0l-35 36c-10 10.667 -10 20.667 0 30l106 105l-106 105c-11.333 10 -11.666 20.333 -0.999023 31l35 35c10.667 10.667 21.334 10.667 32.001 0l105 -105l106 105
c11.333 10 21.666 10.333 30.999 1l35 -35c10 -10.667 9.66699 -21.334 -1 -32.001l-106 -105l106 -105c10.667 -10.667 10.667 -21.334 0 -32.001l-35 -35c-10 -10 -20.333 -9.66699 -31 1z" />
    <glyph glyph-name="fi" unicode="fi" horiz-adv-x="455" 
d="M436 474l-56 -451c-2 -15.333 -9.66699 -23 -23 -23h-71c-14 0 -20 7.66699 -18 23l46 382h-119l-70 -572c-2 -15.333 -10 -23 -24 -23h-71c-14.667 0 -21 7.66699 -19 23l71 572h-36c-14 0 -20 7.66699 -18 23l4 42c0.666992 12 9 19 25 21l34 5h2l8 68
c11.333 89.333 71 134 179 134h158c14.667 0 21 -7.33301 19 -22l-6 -50c-2 -14.667 -10 -22 -24 -22h-152c-36.667 0 -57 -14.667 -61 -44l-8 -64h211c14.667 0 21 -7.33301 19 -22z" />
    <glyph glyph-name="fl" unicode="fl" horiz-adv-x="460" 
d="M465 676l-80 -653c-2 -15.333 -10 -23 -24 -23h-70c-15.333 0 -22 7.66699 -20 23l72 581h-68c-37.333 0 -57.666 -14.667 -60.999 -44l-8 -64h53c15.333 0 22 -7 20 -21l-6 -47c-2 -15.333 -10 -23 -24 -23h-54l-70 -572c-2 -15.333 -10 -23 -24 -23h-71
c-14.667 0 -21 7.66699 -19 23l71 572h-36c-14 0 -20 7.66699 -18 23l4 42c0.666992 12 9 19 25 21l34 5h2l9 73c11.333 86 70.666 129 177.999 129h166c14.667 0 21 -7.33301 19 -22z" />
    <glyph glyph-name=".notdef" horiz-adv-x="809" 
d="M693 94c-69.333 -68 -152.333 -101.999 -249 -101.999c-96 0 -178 34 -246 102c-68.667 67.333 -103 149.666 -103 246.999c0 96 34.333 178.333 103 247c68 68 150 102 246 102c98 0 181 -34 249 -102c68.667 -68.667 103 -151 103 -247s-34.333 -178.333 -103 -247z
M681 106.001c66 66 99 144.332 99 234.999s-33 169 -99 235c-65.333 65.333 -144.333 98 -237 98c-90.667 0 -168.667 -32.667 -234 -98c-66 -66 -99 -144.333 -99 -235c0 -91.333 33 -169.666 99 -234.999c65.333 -65.333 143.333 -98 234 -98
c92.667 0 171.667 32.667 237 98zM550 172l-105.001 105.002l-105 -105c-10.667 -10.667 -21 -10.667 -31 0l-35 36c-10 10.667 -10 20.667 0 30l106 105l-106 105c-11.333 10 -11.666 20.333 -0.999023 31l35 35c10.667 10.667 21.334 10.667 32.001 0l105 -105l106 105
c11.333 10 21.666 10.333 30.999 1l35 -35c10 -10.667 9.66699 -21.334 -1 -32.001l-106 -105l106 -105c10.667 -10.667 10.667 -21.334 0 -32.001l-35 -35c-10 -10 -20.333 -9.66699 -31 1z" />
    <glyph glyph-name=".null" horiz-adv-x="0" 
 />
    <glyph glyph-name=".null" horiz-adv-x="0" 
 />
    <glyph glyph-name="CR" unicode="&#xd;" horiz-adv-x="0" 
 />
    <glyph glyph-name="space" unicode=" " horiz-adv-x="144" 
 />
    <glyph glyph-name="exclam" unicode="!" horiz-adv-x="207" 
d="M175 390l-35.999 -192c-2.66699 -14.667 -10.334 -22 -23.001 -22h-53c-7.33301 0 -12.333 1.66699 -15 5s-3.66699 9 -3 17l12 192l32 267c2 15.333 10.333 23 25 23h75c14 0 20 -7.66699 18 -23zM137.001 102l-9 -80c-2 -14.667 -10 -22 -24 -22h-74
c-14.667 -0 -21 7.33301 -19 22l10 80c2 14.667 10 22 24 22h74c14 0 20 -7.33301 18 -22z" />
    <glyph glyph-name="quotedbl" unicode="&#x22;" horiz-adv-x="315" 
d="M326 657l-30.002 -165c-2.66699 -14.667 -10.667 -22 -24 -22h-48c-13.333 0 -19.666 7.33301 -18.999 22l12 165c0.666992 15.333 8.33398 23 23.001 23h68c14.667 0 20.667 -7.66699 18 -23zM185.998 657l-30.999 -165c-1.33301 -8.66699 -3.5 -14.5 -6.5 -17.5
s-8.5 -4.5 -16.5 -4.5h-48c-8 0 -13.333 1.66699 -16 5s-3.66699 9 -3 17l11 165c0.666992 15.333 8.66699 23 24 23h67c15.333 0 21.666 -7.66699 18.999 -23z" />
    <glyph glyph-name="numbersign" unicode="#" horiz-adv-x="465" 
d="M215 356l-36 -84h77l35 84h-76zM46 272h43l34 84h-20c-15.333 0 -22 7.33301 -20 22l5 37c2 14 10 21 24 21h44l33 83c6.66699 15.333 17 23 31 23h48c14.667 0 19 -7.66699 13 -23l-34 -83h77l34 83c6.66699 15.333 16.667 23 30 23h48c14 0 18 -7.66699 12 -23l-34 -83
h23c8 0 13.333 -1.5 16 -4.5s3.66699 -8.5 3 -16.5l-4 -37c-2 -14.667 -10 -22 -24 -22h-46l-35 -84h24c15.333 0 22 -7 20 -21l-4 -37c-2 -14.667 -10.667 -22 -26 -22h-46l-34 -83c-6 -15.333 -15.667 -23 -29 -23h-49c-14.667 0 -19 7.66699 -13 23l34 83h-77l-33 -83
c-6 -15.333 -15.667 -23 -29 -23h-49c-14.667 0 -19 7.66699 -13 23l34 83h-20c-14.667 0 -21 7.33301 -19 22l4 37c2 14 10 21 24 21z" />
    <glyph glyph-name="dollar" unicode="$" horiz-adv-x="377" 
d="M189 0h-71.001c-14.667 0 -21 7.66699 -19 23l8 67c-29.333 7.33301 -51.5 19.5 -66.5 36.5s-22.5 36.167 -22.5 57.5c0 3.33301 0.333008 8 1 14l4 34c2 13.333 9.33301 20 22 20h64c13.333 0 19 -6.66699 17 -20l-3 -25c-0.666992 -5.33301 -1 -9.33301 -1 -12
c0 -20.667 16.333 -31 49 -31c36.667 0 56 12.333 58 37l3 32c0.666992 6.66699 1 11 1 13c0 10.667 -8.66699 21.334 -26 32.001l-103 62c-33.333 20 -50 47.333 -50 82c0 4.66699 0.333008 10.667 1 18l5 41c8 63.333 44.333 100.666 109 111.999l8 64
c2 15.333 10 23 24 23h71c14 0 20 -7.66699 18 -23l-9 -68c27.333 -8 47.833 -20.833 61.5 -38.5s20.5 -36.5 20.5 -56.5c0 -2.66699 -0.333008 -7.33398 -1 -14.001l-4 -33c-2 -14 -9.66699 -21 -23 -21h-63c-11.333 0 -16.666 7 -15.999 21l2 24c0.666992 8 1 14 1 18
c0 18.667 -15.333 28 -46 28c-31.333 0 -48 -11.333 -50 -34l-3 -29c-0.666992 -6 -1 -10.333 -1 -13c0 -11.333 8 -21.666 24 -30.999l104 -60c35.333 -20 53 -46 53 -78c0 -4.66699 -0.333008 -10.667 -1 -18l-7 -59c-7.33301 -60 -45 -96 -113 -108l-7 -64
c-2 -15.333 -9.66699 -23 -23 -23z" />
    <glyph glyph-name="percent" unicode="%" horiz-adv-x="683" 
d="M554 665l-326.001 -650c-8 -15.333 -19 -23 -33 -23h-47c-6 0 -9.66699 2.66699 -11 8s-0.666016 10.333 2.00098 15l327 650c8 15.333 18.667 23 32 23h46c14.667 0 18 -7.66699 10 -23zM291.999 584l-23.001 -189c-6.66699 -57.333 -46 -86 -118 -86
c-36.667 0 -64.5 7.5 -83.5 22.5s-28.5 33.167 -28.5 54.5c0 5.33301 0.333008 12 1 20l24 192c6.66699 57.333 46.334 86 119.001 86c36 0 63.5 -7.33301 82.5 -22s28.5 -33 28.5 -55c0 -5.33301 -0.666992 -13 -2 -23zM124.998 410c-0.666992 -4.66699 -1 -8.33301 -1 -11
c0 -14 9.66699 -21 29 -21c18.667 0 29 8.33301 31 25l23 180l1 10c0 14.667 -9.33301 22 -28 22c-19.333 0 -30 -8.33301 -32 -25zM653.998 271.001l-23.001 -189c-6.66699 -57.333 -46 -86 -118 -86c-36.667 0 -64.5 7.5 -83.5 22.5s-28.5 33.167 -28.5 54.5
c0 5.33301 0.333008 12 1 20l24 192c6.66699 57.333 46.334 86 119.001 86c36 0 63.5 -7.33301 82.5 -22s28.5 -33 28.5 -55c0 -5.33301 -0.666992 -13 -2 -23zM486.997 97.001c-0.666992 -4.66699 -1 -8.33301 -1 -11c0 -14 9.66699 -21 29 -21c18.667 0 29 8.33301 31 25
l23 180l1 10c0 14.667 -9.33301 22 -28 22c-19.333 0 -30 -8.33301 -32 -25z" />
    <glyph glyph-name="ampersand" unicode="&#x26;" horiz-adv-x="507" 
d="M412 136c-11.333 -96 -80.667 -144 -208 -144c-64 0 -110.833 11 -140.5 33s-44.5 51.333 -44.5 88c0 7.33301 0.333008 14.666 1 21.999l14 119c6.66699 52 35.334 86.333 86.001 103c-36 8.66699 -54 32.667 -54 72c0 8 0.333008 15.667 1 23l12 95
c5.33301 44 20.833 78.5 46.5 103.5s70.167 37.5 133.5 37.5c54.667 0 95 -11.167 121 -33.5s39 -51.5 39 -87.5c0 -9.33301 -0.333008 -16.666 -1 -21.999l-5 -43c-2 -14.667 -10 -22 -24 -22h-71c-14.667 0 -21 7.33301 -19 22l5 38c0.666992 6 1 11 1 15
c0 26 -17.667 39 -53 39c-34.667 0 -54.334 -17 -59.001 -51l-11 -83c-0.666992 -6.66699 -1 -12.667 -1 -18c0 -28 20 -42 60 -42h240c15.333 0 22 -7 20 -21l-6 -51c-2 -14.667 -10 -22 -24 -22h-38zM211.999 86c53.333 0 82.667 19.667 88 59l20 161h-99
c-44.667 0 -69 -18.333 -73 -55l-12 -99c-0.666992 -6 -1 -12 -1 -18c0 -32 25.667 -48 77 -48z" />
    <glyph glyph-name="quotesingle" unicode="'" horiz-adv-x="174" 
d="M186 657l-30.999 -165c-1.33301 -8.66699 -3.5 -14.5 -6.5 -17.5s-8.5 -4.5 -16.5 -4.5h-48c-8 0 -13.333 1.66699 -16 5s-3.66699 9 -3 17l11 165c0.666992 15.333 8.66699 23 24 23h67c15.333 0 21.666 -7.66699 18.999 -23z" />
    <glyph glyph-name="parenleft" unicode="(" horiz-adv-x="250" 
d="M-2 -77l80.002 656c5.33301 42.667 21.166 74.834 47.499 96.501s66.166 32.5 119.499 32.5h14c15.333 0 22 -7.33301 20 -22l-6 -49c-2 -15.333 -10.333 -23 -25 -23h-6c-28.667 0 -44.667 -12 -48 -36l-81 -661c-0.666992 -4.66699 -1 -8.33398 -1 -11.001
c0 -20 13.333 -30 40 -30h5c15.333 0 22 -7.66699 20 -23l-7 -49c-2 -14.667 -10.333 -22 -25 -22h-8c-46.667 0 -82 9.83301 -106 29.5s-36 46.5 -36 80.5c0 4.66699 1 15 3 31z" />
    <glyph glyph-name="parenright" unicode=")" horiz-adv-x="250" 
d="M241 567l-80 -656c-5.33301 -42.667 -21.333 -74.834 -48 -96.501s-66.667 -32.5 -120 -32.5h-13c-15.333 0 -22 7.33301 -20 22l6 49c2 15.333 10.333 23 25 23h5c29.333 0 45.666 12 48.999 36l80 661c0.666992 5.33301 1 9.33301 1 12c0 19.333 -13 29 -39 29h-5
c-14.667 0 -21 7.66699 -19 23l6 49c2 14.667 10.333 22 25 22h8c46.667 0 81.834 -9.66699 105.501 -29s35.5 -46.333 35.5 -81c0 -7.33301 -0.666992 -17.666 -2 -30.999z" />
    <glyph glyph-name="asterisk" unicode="*" horiz-adv-x="395" 
d="M163 349l19.999 108l-85 -56c-14 -9.33301 -24 -7 -30 7l-14 33c-5.33301 12 -1 21.667 13 29l87 45l-77 46c-11.333 6.66699 -12.666 16.667 -3.99902 30l21 31c9.33301 13.333 19.333 15.666 30 6.99902l72 -56l9 113c0.666992 15.333 8.66699 23 24 23h37
c14.667 0 20.667 -7.66699 18 -23l-21 -113l84 56c13.333 9.33301 23 7.33301 29 -6l15 -32c6 -12.667 2 -22.667 -12 -30l-90 -46l78 -45c12 -6.66699 13.667 -16.667 5 -30l-21 -32c-9.33301 -13.333 -20 -15.666 -32 -6.99902l-70 55l-7 -107
c-0.666992 -15.333 -8.66699 -23 -24 -23h-37c-15.333 0 -21.333 7.66699 -18 23z" />
    <glyph glyph-name="plus" unicode="+" horiz-adv-x="379" 
d="M149 175v117h-95c-14.667 0 -22 7 -22 21v51c0 14 7.33301 21 22 21h95v117c0 15.333 6.66699 23 20 23h50c14.667 0 22 -7.66699 22 -23v-117h96c14.667 0 22 -7 22 -21v-51c0 -14 -7.33301 -21 -22 -21h-96v-117c0 -14.667 -7.33301 -22 -22 -22h-50
c-13.333 0 -20 7.33301 -20 22z" />
    <glyph glyph-name="comma" unicode="," horiz-adv-x="197" 
d="M13 37l8.00098 65.001c2 14.667 10 22 24 22h72c14.667 0 21 -7.33301 19 -22l-9 -71c-4.66699 -36 -15.834 -64.333 -33.501 -85s-45.5 -38 -83.5 -52c-12.667 -5.33301 -21.667 -2 -27 10l-20 43c-6 12 -1.33301 22.667 14 32c20.667 11.333 32.667 30.666 36 57.999z
" />
    <glyph glyph-name="hyphen" unicode="-" horiz-adv-x="321" 
d="M65 335h189c14.667 0 22 -7 22 -21v-50c0 -14.667 -7.33301 -22 -22 -22h-189c-14.667 0 -22 7.33301 -22 22v50c0 14 7.33301 21 22 21z" />
    <glyph glyph-name="period" unicode="." horiz-adv-x="189" 
d="M130 102l-10 -80c-2 -14.667 -10 -22 -24 -22h-72c-14.667 -0 -21 7.33301 -19 22l10 80c2 14.667 10 22 24 22h73c14 0 20 -7.33301 18 -22z" />
    <glyph glyph-name="slash" unicode="/" horiz-adv-x="292" 
d="M321 676l-239.999 -801c-4.66699 -15.333 -14 -23 -28 -23h-72c-13.333 0 -18 7.66699 -14 23l239 801c5.33301 15.333 14.666 23 27.999 23h73c13.333 0 18 -7.66699 14 -23z" />
    <glyph glyph-name="zero" unicode="0" horiz-adv-x="435" 
d="M25 139l50.001 404c11.333 96.667 72.333 145 183 145c55.333 0 96.666 -11.833 123.999 -35.5s41 -53.5 41 -89.5c0 -2.66699 -0.666992 -10 -2 -22l-49 -404c-11.333 -96.667 -73 -145 -185 -145c-55.333 0 -96.5 11.667 -123.5 35s-40.5 53.333 -40.5 90
c0 4 0.666992 11.333 2 22zM255.001 140l48.999 393c0.666992 6.66699 1 12.334 1 17.001c0 28 -17.667 42 -53 42c-37.333 0 -58 -17.333 -62 -52l-48 -391c-0.666992 -6.66699 -1 -13.334 -1 -20.001c0 -27.333 17.333 -41 52 -41c36.667 0 57.334 17.333 62.001 52z" />
    <glyph glyph-name="one" unicode="1" horiz-adv-x="389" 
d="M98 650l192.999 35.999c6 1.33301 10.833 0.5 14.5 -2.5s5.16699 -9.16699 4.5 -18.5l-70 -569h91c8 0 13.333 -1.33301 16 -4s3.66699 -8 3 -16l-6 -54c-2 -14.667 -10.333 -22 -25 -22h-302c-14 0 -20 7.33301 -18 22l6 54c0.666992 8 2.83398 13.333 6.50098 16
s9.5 4 17.5 4h94l59 472l-96 -18c-7.33301 -1.33301 -12.833 -0.666016 -16.5 2.00098s-5.16699 8 -4.5 16l8 57c2 14 10.333 22.333 25 25z" />
    <glyph glyph-name="two" unicode="2" horiz-adv-x="418" 
d="M138 96l198.998 -0.000976562c8.66699 0 14.334 -1.5 17.001 -4.5s3.66699 -8.16699 3 -15.5l-7 -54c-2 -14.667 -10.333 -22 -25 -22h-293c-14.667 0 -21 7.33301 -19 22l20 166c3.33301 30.667 11.5 54.334 24.5 71.001s30.5 32 52.5 46l132 81
c25.333 15.333 39.666 37 42.999 65l10 83c0.666992 8 1 14 1 18c0 26.667 -18 40 -54 40c-37.333 0 -58 -17.333 -62 -52l-9 -70c-2 -14.667 -9.66699 -22 -23 -22h-71c-14.667 0 -21 7.33301 -19 22l9 70c6 45.333 22.333 81.333 49 108s71 40 133 40
c54.667 0 95.334 -11.667 122.001 -35s40 -53.333 40 -90c0 -8.66699 -0.333008 -17 -1 -25l-12 -97c-7.33301 -60 -34.666 -104 -81.999 -132l-124 -75c-26.667 -16 -41.667 -37.667 -45 -65z" />
    <glyph glyph-name="three" unicode="3" horiz-adv-x="420" 
d="M175 400h37c40 0 62 17 66 51l11 89c0.666992 6.66699 1 12 1 16c0 25.333 -16.667 38 -50 38c-35.333 0 -55 -16.333 -59 -49l-5 -43c-2 -14.667 -10.333 -22 -25 -22h-70c-7.33301 0 -12.333 1.66699 -15 5s-3.66699 9 -3 17l4 42c8.66699 96 69 144 181 144
c55.333 0 95.5 -10.833 120.5 -32.5s37.5 -50.5 37.5 -86.5c0 -6 -0.666992 -14.333 -2 -25l-12 -98c-6 -47.333 -29.333 -77 -70 -89c36 -16 54 -43 54 -81c0 -6.66699 -0.333008 -13.667 -1 -21l-15 -122c-5.33301 -43.333 -21.5 -77.666 -48.5 -102.999
s-71.833 -38 -134.5 -38c-56.667 0 -98.167 11.333 -124.5 34s-39.5 52 -39.5 88c0 8 0.333008 15.333 1 22l5 42c2 14.667 10 22 24 22h71c14.667 0 21 -7.33301 19 -22l-5 -37c-0.666992 -6 -1 -11 -1 -15c0 -26.667 18.667 -40 56 -40c38 0 59 17 63 51l14 114
c0.666992 7.33301 1 12.666 1 15.999c0 26 -17.667 39 -53 39h-44c-14.667 0 -21 7.33301 -19 22l6 51c2 14 10 21 24 21z" />
    <glyph glyph-name="four" unicode="4" horiz-adv-x="422" 
d="M247 657l-106 -366h117l45 366c2 15.333 10 23 24 23h73c14 0 20 -7.66699 18 -23l-78 -634c-2 -15.333 -9.66699 -23 -23 -23h-73c-14.667 0 -21 7.66699 -19 23l22 171h-213c-14.667 0 -21 7 -19 21l5 39c1.33301 12 3.33301 23 6 33l108 370c4 15.333 13 23 27 23h71
c14.667 0 19.667 -7.66699 15 -23z" />
    <glyph glyph-name="five" unicode="5" horiz-adv-x="413" 
d="M119 680h266c15.333 0 22 -7 20 -21l-6 -54c-2 -14 -10.333 -21 -25 -21h-172l-19 -153h42c50.667 0 89 -11 115 -33s39 -51 39 -87c0 -6 -0.333008 -13 -1 -21l-19 -155c-5.33301 -44 -21.5 -79 -48.5 -105s-72.5 -39 -136.5 -39c-56 0 -97 11.5 -123 34.5
s-39 52.5 -39 88.5c0 6 0.333008 13 1 21l4 43c0.666992 14.667 9 22 25 22h71c14 0 20 -7.33301 18 -22l-4 -37c-0.666992 -6 -1 -11.333 -1 -16c0 -26.667 18 -40 54 -40c38 0 59 17 63 51l17 147c0.666992 6.66699 1 12 1 16c0 24.667 -18 37 -54 37h-130
c-14 0 -20 7.66699 -18 23l36 298c2 15.333 10 23 24 23z" />
    <glyph glyph-name="six" unicode="6" horiz-adv-x="424" 
d="M25 140l50.002 402c5.33301 43.333 21.166 78.5 47.499 105.5s70.5 40.5 132.5 40.5c54 0 93.667 -11.833 119 -35.5s38 -53.167 38 -88.5c0 -6.66699 -0.333008 -14 -1 -22l-4 -34c-2 -14.667 -10.333 -22 -25 -22h-71c-13.333 0 -19 7.33301 -17 22l3 28
c0.666992 7.33301 1 14 1 20c0 25.333 -16.333 38 -49 38c-34.667 0 -54.334 -16.333 -59.001 -49l-20 -155c22.667 15.333 50 23 82 23c44.667 0 78 -11.333 100 -34s33 -51.334 33 -86.001c0 -5.33301 -0.666992 -14.666 -2 -27.999l-15 -125
c-11.333 -98.667 -72.333 -148 -183 -148c-108 0 -162 40.333 -162 121c0 6 0.666992 15 2 27zM253.002 137l15 125c0.666992 6 1 11 1 15c0 28 -17.667 42 -53 42c-36 0 -56 -15.667 -60 -47l-16 -128c-0.666992 -6 -1 -12 -1 -18c0 -26.667 17.333 -40 52 -40
c37.333 0 58 17 62 51z" />
    <glyph glyph-name="seven" unicode="7" horiz-adv-x="390" 
d="M84 680h316c15.333 0 22 -7 20 -21l-7 -51c-0.666992 -4 -3 -11.333 -7 -22l-238 -563c-7.33301 -15.333 -17 -23 -29 -23h-81c-15.333 0 -20 7.66699 -14 23l238 561h-210c-15.333 0 -22 7 -20 21l7 54c2 14 10.333 21 25 21z" />
    <glyph glyph-name="eight" unicode="8" horiz-adv-x="421" 
d="M67 453l11 87.002c6 46.667 21 83 45 109s66.667 39 128 39c102 0 153 -41 153 -123c0 -8.66699 -0.333008 -17 -1 -25l-10 -89c-5.33301 -49.333 -29.333 -81.333 -72 -96c38 -15.333 57 -42.333 57 -81c0 -4.66699 -0.333008 -10.334 -1 -17.001l-14 -117
c-11.333 -98.667 -72.333 -148 -183 -148c-55.333 0 -96 11.667 -122 35s-39 53.666 -39 90.999c0 8.66699 0.333008 16 1 22l15 119c6 48.667 32.333 80.667 79 96c-32 14.667 -48 40.667 -48 78c0 8 0.333008 14.667 1 20zM279 451.002l11 90c0.666992 6 1 11.333 1 16
c0 24.667 -15 37 -45 37c-18 0 -31.167 -4.16699 -39.5 -12.5s-13.5 -20.833 -15.5 -37.5l-11 -90c-0.666992 -6 -1 -11.333 -1 -16c0 -24.667 15 -37 45 -37c18 0 31.167 4 39.5 12s13.5 20.667 15.5 38zM249 137.002l14 114.999c0.666992 5.33301 1 11 1 17
c0 26 -17.667 39 -53 39c-37.333 0 -58 -17 -62 -51l-15 -116c-0.666992 -5.33301 -1 -10.666 -1 -15.999c0 -26 18 -39 54 -39c37.333 0 58 17 62 51z" />
    <glyph glyph-name="nine" unicode="9" horiz-adv-x="425" 
d="M183 543l-15 -125c-0.666992 -6.66699 -1 -12 -1 -16c0 -27.333 17 -41 51 -41c36.667 0 57 15.667 61 47l17 129c0.666992 6 1 11.667 1 17c0 26.667 -17.333 40 -52 40c-37.333 0 -58 -17 -62 -51zM410 540l-48 -402c-5.33301 -44 -21.333 -79.333 -48 -106
s-70.667 -40 -132 -40c-54 0 -93.667 11.667 -119 35s-38 52.666 -38 87.999c0 7.33301 0.333008 15 1 23l3 34c0.666992 14.667 9 22 25 22h70c14.667 0 21 -7.33301 19 -22l-4 -33c-0.666992 -5.33301 -1 -10.333 -1 -15c0 -25.333 16.333 -38 49 -38
c34.667 0 54.334 16.333 59.001 49l19 155c-22.667 -15.333 -50 -23 -82 -23c-44.667 0 -78 11.333 -100 34s-33 51.334 -33 86.001c0 6.66699 0.666992 16 2 28l16 125c6 45.333 22.333 81.333 49 108s71 40 133 40c55.333 0 96.166 -11.833 122.499 -35.5
s39.5 -54.167 39.5 -91.5c0 -0.666992 -0.666992 -7.66699 -2 -21z" />
    <glyph glyph-name="colon" unicode=":" horiz-adv-x="201" 
d="M180 475l-10 -80c-2 -14.667 -9.66699 -22 -23 -22h-73c-14.667 0 -21 7.33301 -19 22l10 80c2 15.333 10 23 24 23h74c13.333 0 19 -7.66699 17 -23zM135 102l-10 -80c-2 -14.667 -10 -22 -24 -22h-73c-14 -0 -20 7.33301 -18 22l10 80c2 14.667 10 22 24 22h73
c14 0 20 -7.33301 18 -22z" />
    <glyph glyph-name="semicolon" unicode=";" horiz-adv-x="216" 
d="M191 475l-10 -80c-2 -14.667 -10 -22 -24 -22h-72c-14.667 0 -21 7.33301 -19 22l10 80c2 15.333 10 23 24 23h73c14 0 20 -7.66699 18 -23zM22 37l8.00098 65c2 14.667 10 22 24 22h74c13.333 0 19 -7.33301 17 -22l-9 -71c-4.66699 -36 -15.834 -64.167 -33.501 -84.5
s-45.5 -37.833 -83.5 -52.5c-12.667 -4.66699 -21.667 -1.33398 -27 9.99902l-20 43c-6 12.667 -1.33301 23.334 14 32.001c20.667 12 32.667 31.333 36 58z" />
    <glyph glyph-name="less" unicode="&#x3c;" horiz-adv-x="375" 
d="M306 443l-186 -104l186 -103c14.667 -8 22 -18.667 22 -32v-69c0 -8 -2 -13.333 -6 -16s-9.33301 -2 -16 2l-255 155c-13.333 8.66699 -20 18 -20 28v69c0 12 6.66699 22 20 30l255 155c6.66699 4 12 4.5 16 1.5s6 -8.5 6 -16.5v-68c0 -13.333 -7.33301 -24 -22 -32z" />
    <glyph glyph-name="equal" unicode="=" horiz-adv-x="451" 
d="M80 470h296c14.667 0 22 -7.33301 22 -22v-51c0 -14 -7.33301 -21 -22 -21h-296c-14.667 0 -22 7 -22 21v51c0 14.667 7.33301 22 22 22zM80 273h296c14.667 0 22 -7 22 -21v-52c0 -14 -7.33301 -21 -22 -21h-296c-14.667 0 -22 7 -22 21v52c0 14 7.33301 21 22 21z" />
    <glyph glyph-name="greater" unicode="&#x3e;" horiz-adv-x="372" 
d="M264 339l-187 103.999c-14.667 8 -22 18.667 -22 32v68c0 8 2.16699 13.5 6.5 16.5s9.5 2.83301 15.5 -0.5l256 -156c12.667 -8 19 -18 19 -30v-69c0 -12 -6.33301 -21.667 -19 -29l-256 -155c-6 -3.33301 -11.167 -3.66602 -15.5 -0.999023s-6.5 7.66699 -6.5 15v70
c0 13.333 7.33301 24 22 32z" />
    <glyph glyph-name="question" unicode="?" horiz-adv-x="394" 
d="M116 198l10 85.001c4 33.333 20.667 60.666 50 81.999l70 51c18.667 13.333 29 30 31 50l8 71c0.666992 7.33301 1 13 1 17c0 25.333 -18.667 38 -56 38c-39.333 0 -61 -17 -65 -51l-9 -71c-2 -14.667 -9.66699 -22 -23 -22h-70c-14.667 0 -21 7.33301 -19 22l8 73
c10 96.667 71.667 145 185 145c55.333 0 96.5 -11.667 123.5 -35s40.5 -53 40.5 -89c0 -10 -0.333008 -19 -1 -27l-8 -70c-5.33301 -45.333 -28 -83.333 -68 -114l-53 -40c-18 -12.667 -28 -29 -30 -49l-8 -66c-2 -14.667 -10 -22 -24 -22h-73c-15.333 0 -22 7.33301 -20 22
zM221 102.001l-10 -80c-2 -14.667 -10 -22 -24 -22h-73c-14.667 0 -21 7.33301 -19 22l10 80c2 14.667 10 22 24 22h74c14 0 20 -7.33301 18 -22z" />
    <glyph glyph-name="at" unicode="@" horiz-adv-x="724" 
d="M431 -141l-117.997 0.00195312c-200.667 0 -301 58.667 -301 176c0 10 0.666992 21.333 2 34l46 367c4 30 10.833 55.833 20.5 77.5s26 43.167 49 64.5s57.167 37.666 102.5 48.999s101 17 167 17c202 0 303 -58.667 303 -176c0 -8.66699 -0.666992 -19.334 -2 -32.001
l-32 -255c-12.667 -98.667 -67.334 -148 -164.001 -148c-62 0 -101.667 17.667 -119 53c-37.333 -35.333 -75.333 -53 -114 -53c-64.667 0 -97 28.333 -97 85c0 14 1.33301 27.333 4 40l40 181c17.333 79.333 57 119 119 119c37.333 0 70.333 -13.667 99 -41l6 17
c4 10.667 12 16 24 16h63c14 0 19.333 -7.33301 16 -22l-55 -245c-4 -17.333 -6 -29.333 -6 -36c0 -23.333 10.333 -35 31 -35c25.333 0 40.333 20 45 60l32 261c1.33301 12 2 19.333 2 22c0 33.333 -14.833 58.333 -44.5 75s-81.834 25 -156.501 25
c-81.333 0 -138.333 -10 -171 -30s-51.334 -50.333 -56.001 -91l-45 -363c-1.33301 -12 -2 -19.667 -2 -23c0 -34 14.667 -59.333 44 -76s81 -25 155 -25h124c14.667 0 21 -7.33301 19 -22l-5 -44c-2 -14.667 -10.333 -22 -25 -22zM323.003 316.002l-30.999 -137
c-1.33301 -5.33301 -2 -11 -2 -17c0 -16.667 10.667 -25 32 -25c17.333 0 35.666 7.33301 54.999 22c0 4 0.666992 9 2 15l35 160c-14 16 -30 24 -48 24c-22 0 -36.333 -14 -43 -42z" />
    <glyph glyph-name="A" unicode="A" horiz-adv-x="421" 
d="M248 253l-10.001 131c-3.33301 38 -3.66602 82.333 -0.999023 133c-6 -36 -17.667 -80 -35 -132l-43 -132h89zM218.999 680h77c16 0 24.333 -7.33301 25 -22l57 -636c1.33301 -14.667 -5 -22 -19 -22h-73c-14 -0 -21.667 7.33301 -23 22l-9 138h-124l-42 -138
c-4 -14.667 -13.667 -22 -29 -22h-69c-14 -0 -18.333 7.33301 -13 22l212 636c4.66699 14.667 14.667 22 30 22z" />
    <glyph glyph-name="B" unicode="B" horiz-adv-x="446" 
d="M202 0l-165 0.000976562c-14.667 0 -21 7.66699 -19 23l78 634c2 15.333 10 23 24 23h133c58 0 101.333 -10.5 130 -31.5s43 -48.833 43 -83.5c0 -5.33301 -0.666992 -12.666 -2 -21.999l-12 -91c-6.66699 -50.667 -30.667 -82.334 -72 -95.001c22 -6 39 -17.333 51 -34
s18 -35.334 18 -56.001c0 -5.33301 -0.333008 -11 -1 -17l-14 -117c-10.667 -88.667 -74.667 -133 -192 -133zM248 586.001l-44 -0.000976562l-24 -194h47c42.667 0 66 17 70 51l10 88c0.666992 6.66699 1 11.334 1 14.001c0 27.333 -20 41 -60 41zM231 303h-62l-26 -209h65
c44 0 68 16.333 72 49l13 101c0.666992 6 1 10.667 1 14c0 30 -21 45 -63 45z" />
    <glyph glyph-name="C" unicode="C" horiz-adv-x="423" 
d="M384 213l-10.001 -76.001c-6 -44 -22.667 -79.167 -50 -105.5s-72.666 -39.5 -135.999 -39.5c-56.667 0 -98.167 11.5 -124.5 34.5s-39.5 52.833 -39.5 89.5c0 8 0.333008 15.667 1 23l50 404c11.333 96.667 73.333 145 186 145c56.667 0 98.167 -11.5 124.5 -34.5
s39.5 -52.833 39.5 -89.5c0 -3.33301 -0.666992 -11 -2 -23l-7 -60c-1.33301 -8 -3.5 -13.667 -6.5 -17s-8.5 -5 -16.5 -5h-70c-15.333 0 -22 7.33301 -20 22l7 53c0.666992 6.66699 1 12.334 1 17.001c0 27.333 -18.333 41 -55 41c-40 0 -62 -17.333 -66 -52l-48 -393
c-0.666992 -6 -1 -12.333 -1 -19c0 -26.667 18.333 -40 55 -40c38 0 59.667 17.333 65 52l10 73c2 14.667 10 22 24 22h70c14.667 0 21 -7.33301 19 -22z" />
    <glyph glyph-name="D" unicode="D" horiz-adv-x="456" 
d="M202 0h-168.001c-12.667 0 -18 7.66699 -16 23l78 634c2 15.333 10 23 24 23h151c58 0 101.167 -12 129.5 -36s42.5 -54 42.5 -90c0 -7.33301 -0.333008 -15 -1 -23l-47 -386c-11.333 -96.667 -75.666 -145 -192.999 -145zM264.999 584h-62l-60 -488h64
c21.333 0 38.333 4.83301 51 14.5s20 23.167 22 40.5l45 370c0.666992 7.33301 1 13 1 17c0 30.667 -20.333 46 -61 46z" />
    <glyph glyph-name="E" unicode="E" horiz-adv-x="371" 
d="M287 0h-250c-14.667 0 -21 7.66699 -19 23l78 634c2 15.333 10 23 24 23h242c15.333 0 22 -7 20 -21l-7 -54c-2 -14 -10 -21 -24 -21h-148l-22 -184h136c14.667 0 21 -7 19 -21l-6 -51c-2 -14.667 -10 -22 -24 -22h-137l-26 -210h155c8 0 13.5 -1.33301 16.5 -4
s4.16699 -8 3.5 -16l-6 -54c-2 -14.667 -10.333 -22 -25 -22z" />
    <glyph glyph-name="F" unicode="F" horiz-adv-x="379" 
d="M120 680h260c14.667 0 21 -7 19 -21l-7 -54c-2 -14 -10 -21 -24 -21h-165l-22 -184h152c15.333 0 22 -7 20 -21l-7 -55c-2 -14.667 -10.333 -22 -25 -22h-152l-35 -279c-2 -15.333 -9.66699 -23 -23 -23h-74c-14.667 0 -21 7.66699 -19 23l78 634c2 15.333 10 23 24 23z
" />
    <glyph glyph-name="G" unicode="G" horiz-adv-x="435" 
d="M240 348l138.003 -0.000976562c8.66699 0 14.667 -1.66699 18 -5s4.66602 -8.66602 3.99902 -15.999l-24 -190c-6 -44 -22.667 -79.167 -50 -105.5s-73 -39.5 -137 -39.5c-56.667 0 -98.334 11.5 -125.001 34.5s-40 52.833 -40 89.5c0 10 0.333008 17.667 1 23l50 404
c5.33301 44 21.666 79.167 48.999 105.5s73 39.5 137 39.5c57.333 0 99.333 -11.667 126 -35s40 -53.333 40 -90c0 -7.33301 -0.333008 -15 -1 -23l-6 -52c-2 -14.667 -10 -22 -24 -22h-71c-14 0 -20 7.33301 -18 22l5 47c0.666992 6.66699 1 12 1 16
c0 27.333 -18.667 41 -56 41c-40.667 0 -63 -17.333 -67 -52l-48 -393c-0.666992 -6 -1 -12.333 -1 -19c0 -26.667 18.333 -40 55 -40c40.667 0 63 17 67 51l14 113h-50c-14 0 -20 7 -18 21l6 54c2 14 10.333 21 25 21z" />
    <glyph glyph-name="H" unicode="H" horiz-adv-x="464" 
d="M212 657l-31 -256h129l32 256c2 15.333 10 23 24 23h73c14.667 0 21 -7.66699 19 -23l-78 -634c-2 -15.333 -10 -23 -24 -23h-73c-14.667 0 -21 7.66699 -19 23l34 281h-129l-35 -281c-2 -15.333 -9.66699 -23 -23 -23h-74c-14.667 0 -21 7.66699 -19 23l78 634
c2 15.333 10 23 24 23h74c14 0 20 -7.66699 18 -23z" />
    <glyph glyph-name="I" unicode="I" horiz-adv-x="218" 
d="M212 657l-78 -634c-2 -15.333 -9.66699 -23 -23 -23h-74c-14.667 0 -21 7.66699 -19 23l78 634c2 15.333 10 23 24 23h74c14 0 20 -7.66699 18 -23z" />
    <glyph glyph-name="J" unicode="J" horiz-adv-x="394" 
d="M115 206l-8.00098 -64.001c-0.666992 -5.33301 -1 -10.666 -1 -15.999c0 -25.333 15.667 -38 47 -38c33.333 0 52 16.667 56 50l64 519c2 15.333 9.66699 23 23 23h75c14 0 20 -7.66699 18 -23l-64 -520c-5.33301 -44.667 -20.666 -80 -45.999 -106s-68.333 -39 -129 -39
c-54 0 -94 11.5 -120 34.5s-39 52.833 -39 89.5c0 4 0.666992 12 2 24l8 66c2 14.667 10.333 22 25 22h71c14 0 20 -7.33301 18 -22z" />
    <glyph glyph-name="K" unicode="K" horiz-adv-x="433" 
d="M285 348l103 -326c4.66699 -14.667 -1.33301 -22 -18 -22h-83c-12 -0 -20.333 7.33301 -25 22l-82 276h-12l-34 -276c-2 -14.667 -10 -22 -24 -22h-73c-14.667 -0 -21 7.33301 -19 22l78 636c2 14.667 10 22 24 22h73c14.667 0 21 -7.33301 19 -22l-34 -273h10l141 273
c8 14.667 19 22 33 22h77c16 0 20 -7.33301 12 -22z" />
    <glyph glyph-name="L" unicode="L" horiz-adv-x="337" 
d="M212 657l-69 -561h141c8 0 13.5 -1.33301 16.5 -4s4.16699 -8 3.5 -16l-7 -54c-2 -14.667 -10 -22 -24 -22h-239c-12.667 0 -18 7.66699 -16 23l78 634c2 15.333 10 23 24 23h74c14 0 20 -7.66699 18 -23z" />
    <glyph glyph-name="M" unicode="M" horiz-adv-x="581" 
d="M574 658l-78.001 -636c-2 -14.667 -9.66699 -22 -23 -22h-68c-15.333 -0 -22 7.33301 -20 22l51 413c-5.33301 -20 -13.333 -43 -24 -69l-79 -201c-6 -15.333 -16.667 -23 -32 -23h-60c-15.333 0 -24 7.66699 -26 23l-33 206c-2.66699 16.667 -4.66699 37 -6 61l-51 -410
c-2 -14.667 -9.66699 -22 -23 -22h-65c-14.667 -0 -21 7.33301 -19 22l78 636c2 14.667 10 22 24 22h89c11.333 0 18 -6 20 -18l51 -291c4 -22 7 -50.333 9 -85c8.66699 30.667 18.334 59 29.001 85l121 292c4 11.333 12 17 24 17h93c14 0 20 -7.33301 18 -22z" />
    <glyph glyph-name="N" unicode="N" horiz-adv-x="466" 
d="M460 658l-79.001 -636c-2 -14.667 -9.66699 -22 -23 -22h-70c-10.667 0 -17.334 5.66699 -20.001 17l-83 324c-8 32.667 -13 57.667 -15 75l-49 -394c-2 -14.667 -9.66699 -22 -23 -22h-61c-14.667 -0 -21 7.33301 -19 22l78 636c2 14.667 10 22 24 22h70
c10.667 0 17.334 -4.66699 20.001 -14l84 -328c6.66699 -26 11.334 -49 14.001 -69l48 389c2 14.667 10 22 24 22h61c14.667 0 21 -7.33301 19 -22z" />
    <glyph glyph-name="O" unicode="O" horiz-adv-x="450" 
d="M25 139l50.001 404c11.333 96.667 75 145 191 145c57.333 0 100.166 -12 128.499 -36s42.5 -54.333 42.5 -91c0 -6 -0.333008 -12.667 -1 -20l-50 -404c-11.333 -96.667 -75.333 -145 -192 -145c-57.333 0 -100 11.667 -128 35s-42 53.333 -42 90
c0 8.66699 0.333008 16 1 22zM270.001 140l50 393c0.666992 6.66699 1 12 1 16c0 28.667 -20.333 43 -61 43c-42.667 0 -66 -17.333 -70 -52l-48 -393c-0.666992 -5.33301 -1 -10.333 -1 -15c0 -29.333 20 -44 60 -44c42 0 65 17.333 69 52z" />
    <glyph glyph-name="P" unicode="P" horiz-adv-x="433" 
d="M226 247h-64l-28 -224c-2 -15.333 -9.66699 -23 -23 -23h-74c-14.667 0 -21 7.66699 -19 23l78 634c2 15.333 10 23 24 23h146c57.333 0 100 -12.167 128 -36.5s42 -55.166 42 -92.499c0 -6.66699 -0.333008 -14 -1 -22l-16 -138
c-5.33301 -44.667 -22.5 -79.834 -51.5 -105.501s-76.167 -38.5 -141.5 -38.5zM261 584h-58l-30 -240h59c44 0 68 16.333 72 49l16 131c0.666992 6 1 11 1 15c0 30 -20 45 -60 45z" />
    <glyph glyph-name="Q" unicode="Q" horiz-adv-x="450" 
d="M285 -163c-12.667 -8.66699 -22.332 -7.66602 -28.999 3.00098l-107 155c-42 6 -73.333 20 -94 42s-31 48.667 -31 80c0 8 0.333008 15.333 1 22l50 404c11.333 96.667 75 145 191 145c57.333 0 100.166 -12 128.499 -36s42.5 -54.333 42.5 -91
c0 -6.66699 -0.333008 -13.334 -1 -20.001l-50 -404c-8.66699 -73.333 -47.667 -119 -117 -137l68 -98c8.66699 -12 7 -22.333 -5 -31zM270.002 140.001l50 393c0.666992 6.66699 1 12 1 16c0 28.667 -20.333 43 -61 43c-42.667 0 -66 -17.333 -70 -52l-48 -393
c-0.666992 -6 -1 -11 -1 -15c0 -29.333 20 -44 60 -44c42 0 65 17.333 69 52z" />
    <glyph glyph-name="R" unicode="R" horiz-adv-x="443" 
d="M261 584h-59l-27 -223h59c44 0 68 16.667 72 50l14 113c0.666992 6 1 10.667 1 14c0 30.667 -20 46 -60 46zM110 0l-73 0.000976562c-14.667 0 -21 7.66699 -19 23l78 634c2 15.333 10 23 24 23h146c57.333 0 100 -11.833 128 -35.5s42 -54.167 42 -91.5
c0 -6 -0.333008 -13.333 -1 -22l-14 -124c-7.33301 -62.667 -37.333 -104.334 -90 -125.001l44 -259c2 -15.333 -5.66699 -23 -23 -23h-75c-12 0 -19 7.66699 -21 23l-37 241h-55l-31 -241c-2 -15.333 -9.66699 -23 -23 -23z" />
    <glyph glyph-name="S" unicode="S" horiz-adv-x="425" 
d="M298 487l7.00293 52.9971c0.666992 5.33301 1 9.33301 1 12c0 28 -19.333 42 -58 42c-40 0 -62 -16.667 -66 -50l-6 -46c-0.666992 -5.33301 -1 -11.333 -1 -18c0 -17.333 8.66699 -32 26 -44l119 -77c42 -26.667 63 -62.334 63 -107.001
c0 -9.33301 -0.333008 -17.666 -1 -24.999l-11 -90c-11.333 -96.667 -74.333 -145 -189 -145c-57.333 0 -99.833 11.667 -127.5 35s-41.5 53 -41.5 89c0 8 0.333008 15.667 1 23l9 72c2 15.333 10 23 24 23h72c13.333 0 19 -7.66699 17 -23l-8 -64
c-0.666992 -6.66699 -1 -12.667 -1 -18c0 -28.667 20 -43 60 -43c41.333 0 64.666 17.333 69.999 52l9 63c1.33301 10.667 2 17.334 2 20.001c0 10.667 -3.5 19.667 -10.5 27s-17.5 16 -31.5 26l-109 73c-16.667 10.667 -30.334 25.334 -41.001 44.001
s-16 38.334 -16 59.001c0 9.33301 0.333008 17.333 1 24l8 69c5.33301 44 21.666 79.167 48.999 105.5s72.333 39.5 135 39.5c57.333 0 99.333 -11.667 126 -35s40 -53.333 40 -90c0 -6 -0.333008 -12.667 -1 -20l-6 -56c-2 -14.667 -10 -22 -24 -22h-71
c-14.667 0 -21 7.33301 -19 22z" />
    <glyph glyph-name="T" unicode="T" horiz-adv-x="360" 
d="M78 680h297.999c16 0 23 -7 21 -21l-7 -54c-2 -14 -10.333 -21 -25 -21h-91l-69 -561c-2 -15.333 -9.66699 -23 -23 -23h-74c-14.667 0 -21 7.66699 -19 23l69 561h-92c-15.333 0 -22 7 -20 21l8 54c0.666992 8 2.83398 13.5 6.50098 16.5s9.5 4.5 17.5 4.5z" />
    <glyph glyph-name="U" unicode="U" horiz-adv-x="460" 
d="M210 657l-63 -506.001c-0.666992 -5.33301 -1 -11.666 -1 -18.999c0 -29.333 20 -44 60 -44c42.667 0 66 17.333 70 52l64 517c2 15.333 10 23 24 23h74c14 0 20 -7.66699 18 -23l-65 -520c-11.333 -96.667 -75 -145 -191 -145c-56.667 0 -99.167 11.667 -127.5 35
s-42.5 53.333 -42.5 90c0 8 0.333008 16 1 24l63 516c2 15.333 10 23 24 23h74c14 0 20 -7.66699 18 -23z" />
    <glyph glyph-name="V" unicode="V" horiz-adv-x="412" 
d="M131 0c-16 0 -24.332 7.33301 -24.999 22l-51 636c-0.666992 14.667 5.66602 22 18.999 22h75c14.667 0 22.667 -7.33301 24 -22l18 -362c1.33301 -26 1 -66.333 -1 -121c12.667 52 23 92 31 120l110 363c4 14.667 13.333 22 28 22h72c14 0 18.667 -7.33301 14 -22
l-207 -636c-4.66699 -14.667 -14.667 -22 -30 -22h-77z" />
    <glyph glyph-name="W" unicode="W" horiz-adv-x="633" 
d="M428 658l6.99902 -344.998c1.33301 -34.667 1.33301 -61.334 0 -80.001c6.66699 30 13.334 56.667 20.001 80l98 345c4 14.667 13.333 22 28 22h66c13.333 0 18 -7.33301 14 -22l-186 -636c-4 -14.667 -14 -22 -30 -22h-76c-16 0 -24 7.33301 -24 22l-7 376
c0 0.666992 -0.166992 10.167 -0.5 28.5s-0.5 30.5 -0.5 36.5c-1.33301 -10.667 -6.33301 -32.667 -15 -66l-102 -375c-4 -14.667 -14 -22 -30 -22h-76c-15.333 0 -23.333 7.33301 -24 22l-28 636c-0.666992 14.667 5.33301 22 18 22h72c15.333 0 23 -7.33301 23 -22
l12 -338c1.33301 -30.667 1.33301 -58 0 -82c4.66699 21.333 11.667 48.666 21 81.999l92 338c4 14.667 13.333 22 28 22h76c16 0 24 -7.33301 24 -22z" />
    <glyph glyph-name="X" unicode="X" horiz-adv-x="420" 
d="M282 340l91 -318c3.33301 -14.667 -2.33398 -22 -17.001 -22h-81c-14 -0 -22.667 7.33301 -26 22l-53 201l-98 -201c-7.33301 -14.667 -18 -22 -32 -22h-75c-7.33301 0 -11.666 2.66699 -12.999 8s0 11.333 4 18l171 330l-89 299c-4.66699 16.667 0 25 14 25h82
c14.667 0 23.667 -7.33301 27 -22l51 -189l93 189c7.33301 14.667 17.333 22 30 22h76c14.667 0 17.667 -8.33301 9 -25z" />
    <glyph glyph-name="Y" unicode="Y" horiz-adv-x="402" 
d="M174 658l34.999 -216c2 -13.333 3.66699 -29.333 5 -48c7.33301 23.333 13 39.333 17 48l96 216c6.66699 14.667 15.667 22 27 22h69c16.667 0 21.667 -7.33301 15 -22l-182 -393l-30 -243c-2 -14.667 -10 -22 -24 -22h-72c-15.333 -0 -22 7.33301 -20 22l28 229l-84 407
c-3.33301 14.667 3.33398 22 20.001 22h77c13.333 0 21 -7.33301 23 -22z" />
    <glyph glyph-name="Z" unicode="Z" horiz-adv-x="361" 
d="M100 680l257 0.000976562c16 0 23 -7 21 -21l-7 -52c-0.666992 -6 -3.33398 -14.333 -8.00098 -25l-237 -486h170c8 0 13.5 -1.33301 16.5 -4s4.16699 -8 3.5 -16l-6 -54c-2 -14.667 -10.667 -22 -26 -22h-279c-14.667 0 -21 7.33301 -19 22l6 50
c1.33301 9.33301 4 17.666 8 24.999l237 487h-148c-15.333 0 -22 7 -20 21l8 54c0.666992 8 2.83398 13.5 6.50098 16.5s9.16699 4.5 16.5 4.5z" />
    <glyph glyph-name="bracketleft" unicode="[" horiz-adv-x="276" 
d="M-13 -188l106.001 864c2 15.333 10 23 24 23h171c14.667 0 21 -7 19 -21l-6 -54c-2 -14 -10.333 -21 -25 -21h-75l-89 -718h75c15.333 0 22 -7 20 -21l-7 -54c-0.666992 -8 -2.83398 -13.5 -6.50098 -16.5s-9.5 -4.5 -17.5 -4.5h-171c-14 0 -20 7.66699 -18 23z" />
    <glyph glyph-name="backslash" unicode="\" horiz-adv-x="303" 
d="M120 -125l-54.999 801c-1.33301 15.333 5 23 19 23h71c14.667 0 22.334 -7.66699 23.001 -23l55 -801c1.33301 -15.333 -5.33398 -23 -20.001 -23h-70c-14.667 0 -22.334 7.66699 -23.001 23z" />
    <glyph glyph-name="bracketright" unicode="]" horiz-adv-x="276" 
d="M277 676l-107 -864c-2 -15.333 -10 -23 -24 -23h-170c-15.333 0 -22 7 -20 21l7 54c2 14 10.333 21 25 21h75l89 718h-76c-14.667 0 -21 7 -19 21l6 54c2 14 10.333 21 25 21h170c14.667 0 21 -7.66699 19 -23z" />
    <glyph glyph-name="asciicircum" unicode="^" horiz-adv-x="391" 
d="M261 305l-41.002 263l-85 -263c-4.66699 -15.333 -13 -23 -25 -23h-63c-7.33301 0 -13 2 -17 6s-4.66699 9.66699 -2 17l136 355c4.66699 13.333 13.334 20 26.001 20h78c12.667 0 20.334 -6.66699 23.001 -20l77 -355c3.33301 -15.333 -4 -23 -22 -23h-63
c-12.667 0 -20 7.66699 -22 23z" />
    <glyph glyph-name="underscore" unicode="_" horiz-adv-x="310" 
d="M-26 -77h260c14.667 0 22 -7 22 -21v-51c0 -14 -7.33301 -21 -22 -21h-260c-14.667 0 -22 7 -22 21v51c0 14 7.33301 21 22 21z" />
    <glyph glyph-name="grave" unicode="`" horiz-adv-x="225" 
d="M157 577l-38.999 109c-5.33301 14.667 0 22 16 22h72c13.333 0 21.666 -7.33301 24.999 -22l19 -102c2.66699 -14 -2.33301 -21 -15 -21h-54c-13.333 0 -21.333 4.66699 -24 14z" />
    <glyph glyph-name="a" unicode="a" horiz-adv-x="409" 
d="M161 370l-29 -238c-0.666992 -6 -1 -10.667 -1 -14c0 -18 11 -27 33 -27c23.333 0 46 10 68 30l32 256c-18 20 -39.667 30 -65 30c-22 0 -34.667 -12.333 -38 -37zM226 37c-38.667 -30 -76.668 -44.999 -114.001 -44.999c-30.667 0 -54.667 8 -72 24s-26 37.667 -26 65
c0 7.33301 0.666992 16.333 2 27l35 290c4 33.333 15.667 59.666 35 78.999s45.666 29 78.999 29c42.667 0 79.334 -14.333 110.001 -43l4 15c2 7.33301 4.5 12.5 7.5 15.5s8.16699 4.5 15.5 4.5h68c14.667 0 21 -7.66699 19 -23l-56 -453c-2 -14.667 -10 -22 -24 -22h-65
c-13.333 -0 -19.666 7.33301 -18.999 22z" />
    <glyph glyph-name="b" unicode="b" horiz-adv-x="409" 
d="M93 0l-64.999 0.000976562c-14.667 0 -21 7.33301 -19 22l80 650c2 14.667 10 22 24 22h71c14 0 20 -7.33301 18 -22l-25 -209c33.333 28.667 69.666 43 108.999 43c31.333 0 55.666 -8.33301 72.999 -25s26 -39 26 -67c0 -4 -0.666992 -11 -2 -21l-36 -293
c-4 -32.667 -15.667 -58.834 -35 -78.501s-46 -29.5 -80 -29.5c-44 0 -81 15 -111 45l-4 -15c-2 -8 -4.66699 -13.667 -8 -17s-8.66602 -5 -15.999 -5zM237.001 128.001l30 237.999c0.666992 6.66699 1 11.334 1 14.001c0 18 -11 27 -33 27c-22.667 0 -45.667 -10 -69 -30
l-32 -256c20 -20 42 -30 66 -30c12.667 0 21.5 3 26.5 9s8.5 15.333 10.5 28z" />
    <glyph glyph-name="c" unicode="c" horiz-adv-x="376" 
d="M215 506c48 0 84.667 -10.5 110 -31.5s38 -47.833 38 -80.5c0 -5.33301 -0.333008 -11.333 -1 -18l-4 -30c-2 -14 -10 -21 -24 -21h-65c-14.667 0 -21 7 -19 21l3 26c0.666992 6.66699 1 11.334 1 14.001c0 19.333 -14.667 29 -44 29c-30.667 0 -47.334 -13 -50.001 -39
l-30 -244c-1.33301 -9.33301 -2 -15.666 -2 -18.999c0 -20.667 14.667 -31 44 -31c30.667 0 47.667 13.333 51 40l4 39c2 14.667 10.333 22 25 22h64c14.667 0 21 -7.33301 19 -22l-4 -34c-5.33301 -44 -20.5 -77.5 -45.5 -100.5s-65.5 -34.5 -121.5 -34.5
c-49.333 0 -86.333 10 -111 30s-37 47.667 -37 83c0 7.33301 0.333008 14.666 1 21.999l30 250c4.66699 41.333 19.834 73.166 45.501 95.499s66.5 33.5 122.5 33.5z" />
    <glyph glyph-name="d" unicode="d" horiz-adv-x="409" 
d="M161 370l-29 -236c-0.666992 -6 -1 -11.333 -1 -16c0 -18 11 -27 33 -27c23.333 0 46 10 68 30l32 256c-18 20 -39.667 30 -65 30c-22 0 -34.667 -12.333 -38 -37zM225 37c-37.333 -30 -74.999 -44.998 -112.999 -44.998c-30.667 0 -54.667 8.16699 -72 24.5
s-26 38.166 -26 65.499c0 8 0.666992 16.667 2 26l35 290c4 33.333 15.667 59.666 35 78.999s45.666 29 78.999 29c43.333 0 80 -14.333 110 -43l26 209c1.33301 8 3.5 13.667 6.5 17s8.5 5 16.5 5h71c14 0 20 -7.33301 18 -22l-80 -650c-2 -14.667 -10 -22 -24 -22h-65
c-7.33301 0 -12.333 1.66699 -15 5s-4 9 -4 17v15z" />
    <glyph glyph-name="e" unicode="e" horiz-adv-x="383" 
d="M358 372l-13.998 -127.999c-2 -13.333 -9.33301 -20 -22 -20h-183l-13 -98c-0.666992 -5.33301 -1 -11 -1 -17c0 -20.667 15 -31 45 -31c31.333 0 48.666 12.667 51.999 38l4 32c2 14.667 10.333 22 25 22h59c13.333 0 19.666 -7.33301 18.999 -22l-2 -21
c-4 -44.667 -18.167 -78.334 -42.5 -101.001s-64.5 -34 -120.5 -34c-49.333 0 -86.333 10 -111 30s-37 47.667 -37 83c0 8 0.333008 15.333 1 22l29 244c5.33301 44 20.833 77.5 46.5 100.5s66.167 34.5 121.5 34.5c48.667 0 85 -10 109 -30s36 -47.667 36 -83
c0 -6 -0.333008 -13 -1 -21zM158.002 380.001l-10 -77h97l10 71c0.666992 6 1 10.667 1 14c0 20.667 -15.667 31 -47 31c-30.667 0 -47.667 -13 -51 -39z" />
    <glyph glyph-name="f" unicode="f" horiz-adv-x="267" 
d="M93 496l8.99902 75c10 86 69.667 129 179 129h10c14.667 0 21 -7.33301 19 -22l-6 -50c-2 -14.667 -10.333 -22 -25 -22h-7c-35.333 0 -54.666 -15 -57.999 -45l-8 -65h55c14.667 0 21 -7 19 -21l-6 -47c-2 -15.333 -10 -23 -24 -23h-55l-70 -572
c-2 -15.333 -9.66699 -23 -23 -23h-71c-14.667 0 -21 7.66699 -19 23l70 572h-36c-14.667 0 -21 7.66699 -19 23l6 42c1.33301 12 9.33301 19 24 21l34 5h2z" />
    <glyph glyph-name="g" unicode="g" horiz-adv-x="409" 
d="M112 -8c-30.667 0 -54.666 8.33301 -71.999 25s-26 38.334 -26 65.001c0 8 0.333008 15.333 1 22l36 294c4 33.333 15.667 59.666 35 78.999s45.666 29 78.999 29c42.667 0 80.334 -15.333 113.001 -46l3 16c2.66699 14.667 10.667 22 24 22h65
c14.667 0 21 -7.33301 19 -22l-65 -539c-10 -84.667 -70 -127 -180 -127h-103c-15.333 0 -22 7.33301 -20 22l7 51c2 14.667 10.333 22 25 22h97c36.667 0 57 14 61 42l11 87c-34.667 -28 -71.334 -42 -110.001 -42zM161.001 370l-29 -235c-0.666992 -6 -1 -11.333 -1 -16
c0 -18.667 11 -28 33 -28c23.333 0 46 10 68 30l32 256c-18 20 -39.667 30 -65 30c-22 0 -34.667 -12.333 -38 -37z" />
    <glyph glyph-name="h" unicode="h" horiz-adv-x="412" 
d="M202 672l-25 -207.998c34.667 28 71 42 109 42c30 0 54 -8.33301 72 -25s27 -38.334 27 -65.001c0 -2.66699 -0.333008 -7.33398 -1 -14.001l-46 -379c-2 -15.333 -10.333 -23 -25 -23h-69c-14.667 0 -21 7.66699 -19 23l41 342c0.666992 6 1 11 1 15
c0 18 -10.667 27 -32 27c-20.667 0 -43.667 -9.66699 -69 -29l-43 -355c-2 -15.333 -10 -23 -24 -23h-71c-14.667 0 -21 7.66699 -19 23l80 649c2 14.667 10.333 22 25 22h70c14 0 20 -7.33301 18 -22z" />
    <glyph glyph-name="i" unicode="i" horiz-adv-x="198" 
d="M202 672l-11 -88c-2 -14.667 -9.66699 -22 -23 -22h-71c-14.667 0 -21 7.33301 -19 22l11 88c2 14.667 10 22 24 22h71c14 0 20 -7.33301 18 -22zM178 475l-55 -452c-2 -15.333 -10 -23 -24 -23h-71c-14.667 0 -21 7.66699 -19 23l56 452c2 15.333 10 23 24 23h70
c14.667 0 21 -7.66699 19 -23z" />
    <glyph glyph-name="j" unicode="j" horiz-adv-x="197" 
d="M202 672l-11 -88c-2 -14.667 -9.66699 -22 -23 -22h-71c-14.667 0 -21 7.33301 -19 22l11 88c2 14.667 10 22 24 22h71c14 0 20 -7.33301 18 -22zM178 475l-66 -538c-10.667 -84.667 -69.667 -127 -177 -127h-9c-15.333 0 -22 7.33301 -20 22l6 51
c2 14.667 10.333 22 25 22h6c34 0 52.667 13 56 39l66 531c2 15.333 10 23 24 23h70c14.667 0 21 -7.66699 19 -23z" />
    <glyph glyph-name="k" unicode="k" horiz-adv-x="382" 
d="M99 0h-71.001c-14.667 -0 -21 7.33301 -19 22l80 650c2 14.667 10 22 24 22h71c14 0 20 -7.33301 18 -22l-43 -351h11l96 155c8.66699 14.667 20.334 22 35.001 22h74c8 0 13 -2.16699 15 -6.5s0.666992 -9.83301 -4 -16.5l-126 -194l79 -259
c1.33301 -6 0.5 -11.167 -2.5 -15.5s-8.16699 -6.5 -15.5 -6.5h-75c-12 -0 -20.333 7.33301 -25 22l-60 212h-13l-25 -212c-2 -14.667 -10 -22 -24 -22z" />
    <glyph glyph-name="l" unicode="l" horiz-adv-x="198" 
d="M202 672l-79 -649c-2 -15.333 -10 -23 -24 -23h-71c-14.667 0 -21 7.66699 -19 23l80 649c2 14.667 10 22 24 22h71c14 0 20 -7.33301 18 -22z" />
    <glyph glyph-name="m" unicode="m" horiz-adv-x="621" 
d="M9 23l55.998 453c2 14.667 10 22 24 22h65c8 0 13.167 -1.5 15.5 -4.5s3.5 -8.83301 3.5 -17.5v-15c33.333 30 70 45 110 45c22 0 41.333 -4.83301 58 -14.5s28 -22.5 34 -38.5c14 11.333 24.833 19.833 32.5 25.5s19.834 11.667 36.501 18s33.667 9.5 51 9.5
c30 0 54 -8 72 -24s27 -37 27 -63c0 -8.66699 -0.333008 -16 -1 -22l-46 -374c-2 -15.333 -10 -23 -24 -23h-70c-14.667 0 -21 7.66699 -19 23l41 341c0.666992 6.66699 1 12 1 16c0 18 -10.333 27 -31 27c-20 0 -42.333 -9.66699 -67 -29l-43 -355
c-2 -15.333 -10 -23 -24 -23h-70c-14.667 0 -21 7.66699 -19 23l41 343c0.666992 6 1 10.667 1 14c0 18 -10.333 27 -31 27c-21.333 0 -43.666 -9.66699 -66.999 -29l-43 -355c-2 -15.333 -10 -23 -24 -23h-71c-14.667 0 -21 7.66699 -19 23z" />
    <glyph glyph-name="n" unicode="n" horiz-adv-x="412" 
d="M89 498h65c8 0 13.167 -1.5 15.5 -4.5s3.5 -8.83301 3.5 -17.5v-15c35.333 30 73 45 113 45c30 0 54 -8.5 72 -25.5s27 -38.833 27 -65.5c0 -4 -0.333008 -9.33301 -1 -16l-46 -376c-2 -15.333 -10.333 -23 -25 -23h-69c-14.667 0 -21 7.66699 -19 23l41 340
c0.666992 7.33301 1 13 1 17c0 18 -10.667 27 -32 27c-22.667 0 -45.667 -9.66699 -69 -29l-43 -355c-2 -15.333 -10 -23 -24 -23h-71c-14.667 0 -21 7.66699 -19 23l56 453c2 14.667 10 22 24 22z" />
    <glyph glyph-name="o" unicode="o" horiz-adv-x="401" 
d="M16 125l31 246.999c11.333 89.333 69.333 134 174 134c49.333 0 87.5 -10.333 114.5 -31s40.5 -48.667 40.5 -84c0 -5.33301 -0.333008 -11.666 -1 -18.999l-31 -247c-11.333 -88.667 -69.333 -133 -174 -133c-49.333 0 -87.5 10.333 -114.5 31s-40.5 48.667 -40.5 84
c0 6 0.333008 12 1 18zM231 123.999l30.001 246c0.666992 6 1 10.333 1 13c0 21.333 -15.667 32 -47 32c-32.667 0 -51 -13.667 -55 -41l-31 -245c-0.666992 -6 -1 -10.333 -1 -13c0 -22.667 16 -34 48 -34c33.333 0 51.666 14 54.999 42z" />
    <glyph glyph-name="p" unicode="p" horiz-adv-x="409" 
d="M237 128l29 234.999c0.666992 6.66699 1 12.334 1 17.001c0 18 -10.667 27 -32 27c-24 0 -47 -10 -69 -30l-32 -256c18 -20 40 -30 66 -30c12.667 0 21.5 3 26.5 9s8.5 15.333 10.5 28zM89 497.999l65 -0.000976562c8 0 13.167 -1.5 15.5 -4.5s3.5 -8.83301 3.5 -17.5
v-16c36 30.667 73.667 46 113 46c30.667 0 54.667 -8.33301 72 -25s26 -38.667 26 -66c0 -6 -0.333008 -13 -1 -21l-36 -294c-4 -33.333 -15.667 -59.666 -35 -78.999s-45.666 -29 -78.999 -29c-40.667 0 -77.334 14 -110.001 42l-25 -201c-2 -15.333 -9.66699 -23 -23 -23
h-70c-14.667 0 -21 7.66699 -19 23l79 643c2 14.667 10 22 24 22z" />
    <glyph glyph-name="q" unicode="q" horiz-adv-x="409" 
d="M305 498h65.002c14.667 0 21 -7.33301 19 -22l-79 -643c-2 -15.333 -10 -23 -24 -23h-70c-14.667 0 -21 7.66699 -19 23l25 201c-34.667 -28 -71.334 -42 -110.001 -42c-30.667 0 -54.667 8.16699 -72 24.5s-26 37.833 -26 64.5c0 8 0.333008 15.667 1 23l36 294
c9.33301 72 47.333 108 114 108c44 0 81.333 -15.333 112 -46l4 16c2 8.66699 4.66699 14.5 8 17.5s8.66602 4.5 15.999 4.5zM161.002 370l-29 -234.999c-0.666992 -6.66699 -1 -12.334 -1 -17.001c0 -18 11 -27 33 -27c23.333 0 46 10 68 30l32 256
c-18 20 -39.667 30 -65 30c-22 0 -34.667 -12.333 -38 -37z" />
    <glyph glyph-name="r" unicode="r" horiz-adv-x="287" 
d="M281 506c15.333 0 22 -7.33301 20 -22l-6 -55c-1.33301 -12.667 -10 -20 -26 -22c-43.333 -6 -78.333 -22.333 -105 -49l-41 -335c-2 -15.333 -10 -23 -24 -23h-71c-14.667 0 -21 7.66699 -19 23l56 453c2 14.667 10 22 24 22h65c8 0 13.333 -1.66699 16 -5
s3.66699 -9 3 -17l-1 -26c34 37.333 70.333 56 109 56z" />
    <glyph glyph-name="s" unicode="s" horiz-adv-x="369" 
d="M241 356l2 24.999c0.666992 8 1 13.667 1 17c0 18.667 -15.333 28 -46 28s-47.334 -11.333 -50.001 -34l-3 -28c-0.666992 -7.33301 -1 -12.333 -1 -15c0 -10.667 8 -20.667 24 -30l104 -60c35.333 -20 53 -46 53 -78c0 -4.66699 -0.333008 -10.667 -1 -18l-7 -59
c-9.33301 -74.667 -64 -112 -164 -112c-48.667 0 -85.834 9.66699 -111.501 29s-38.5 43.333 -38.5 72c0 3.33301 0.333008 8 1 14l4 34c2 13.333 9.33301 20 22 20h64c12.667 0 18.334 -6.66699 17.001 -20l-3 -26c-0.666992 -6 -1 -10 -1 -12c0 -20 16.333 -30 49 -30
c36 0 55.333 12.333 58 37l3 31c0.666992 7.33301 1 12 1 14c0 10.667 -8.66699 21.334 -26 32.001l-103 62c-33.333 20 -50 47.333 -50 82c0 4.66699 0.333008 10.667 1 18l5 41c9.33301 77.333 62 116 158 116c48 0 84.167 -10.167 108.5 -30.5s36.5 -45.166 36.5 -74.499
c0 -2.66699 -0.333008 -7.33398 -1 -14.001l-4 -31c-2 -14 -9.66699 -21 -23 -21h-63c-11.333 0 -16.666 7 -15.999 21z" />
    <glyph glyph-name="t" unicode="t" horiz-adv-x="277" 
d="M191 406l-33 -264c-0.666992 -6.66699 -1 -12 -1 -16c0 -11.333 3.66699 -19.5 11 -24.5s19.666 -7.5 36.999 -7.5h14c15.333 0 22 -7.66699 20 -23l-6 -49c-2 -14.667 -10.333 -22 -25 -22h-37c-86 -0 -129 33.333 -129 100c0 6.66699 0.666992 16 2 28l34 278h-33
c-14.667 0 -21 7 -19 21l5 43c0.666992 7.33301 2.83398 12.5 6.50098 15.5s9.5 5.16699 17.5 6.5l32 4h2l12 97c2 15.333 10.333 23 25 23h71c13.333 0 19 -7.66699 17 -23l-12 -97h61c14.667 0 21 -7 19 -21l-5 -48c-2 -14 -10.333 -21 -25 -21h-61z" />
    <glyph glyph-name="u" unicode="u" horiz-adv-x="408" 
d="M225 22v15c-35.333 -30 -72 -45 -110 -45c-31.333 0 -55.666 8.16699 -72.999 24.5s-26 37.5 -26 63.5c0 6 0.333008 12.667 1 20l46 375c1.33301 8.66699 3.66602 14.667 6.99902 18s9 5 17 5h70c14.667 0 21 -7.66699 19 -23l-42 -343
c-0.666992 -5.33301 -1 -10 -1 -14c0 -18 11 -27 33 -27s43.667 9.66699 65 29l44 355c2 15.333 10 23 24 23h70c14.667 0 21 -7.66699 19 -23l-55 -453c-2 -14.667 -10 -22 -24 -22h-65c-8 0 -13.167 1.5 -15.5 4.5s-3.5 8.83301 -3.5 17.5z" />
    <glyph glyph-name="v" unicode="v" horiz-adv-x="366" 
d="M187 0l-79.002 0.000976562c-8 0 -13.167 1.33301 -15.5 4s-4.16602 8 -5.49902 16l-56 455c-0.666992 8 1 13.833 5 17.5s10.333 5.5 19 5.5h68c12.667 0 19.667 -7.66699 21 -23l19 -252c2 -24.667 3 -48.334 3 -71.001c2 13.333 8.33301 37 19 71l85 252
c5.33301 15.333 14.333 23 27 23h64c17.333 0 23.333 -7.66699 18 -23l-167 -455c-2.66699 -8 -5.66699 -13.333 -9 -16s-8.66602 -4 -15.999 -4z" />
    <glyph glyph-name="w" unicode="w" horiz-adv-x="540" 
d="M479 498l56.0039 -0.000976562c16.667 0 22.667 -7.66699 18 -23l-149 -455c-4.66699 -13.333 -13.334 -20 -26.001 -20h-73c-13.333 0 -20.333 6.66699 -21 20l-11 232c-1.33301 16.667 -1.33301 32.334 0 47.001c-5.33301 -21.333 -9.66602 -37 -12.999 -47l-75 -232
c-4 -13.333 -12.333 -20 -25 -20h-74c-13.333 0 -20.333 6.66699 -21 20l-32 455c-0.666992 8 1.16602 13.833 5.49902 17.5s10.5 5.5 18.5 5.5h62c13.333 0 20.666 -7.66699 21.999 -23l12 -257c0.666992 -14.667 1 -32.667 1 -54c3.33301 15.333 8 33.333 14 54l74 257
c4 15.333 13 23 27 23h62c14.667 0 22 -7.66699 22 -23l7 -257c0.666992 -17.333 1 -35.333 1 -54c3.33301 18.667 7.66602 36.667 12.999 54l77 257c5.33301 15.333 14.666 23 27.999 23z" />
    <glyph glyph-name="x" unicode="x" horiz-adv-x="371" 
d="M129 498c12.667 0 21.665 -7.66699 26.998 -23l44 -127l71 128c8 14.667 18.333 22 31 22h64c16.667 0 20.334 -7.33301 11.001 -22l-134 -222l81 -232c2 -6 1.66699 -11.167 -1 -15.5s-7.66699 -6.5 -15 -6.5h-71c-12.667 -0 -21.667 7.33301 -27 22l-47 142l-78 -142
c-7.33301 -14.667 -17.666 -22 -30.999 -22h-64c-16 -0 -19.667 7.33301 -11 22l140 235l-78 218c-5.33301 15.333 -0.333008 23 15 23h73z" />
    <glyph glyph-name="y" unicode="y" horiz-adv-x="365" 
d="M378 475l-234.998 -643c-5.33301 -14.667 -14.333 -22 -27 -22h-55c-17.333 0 -23.333 7.33301 -18 22l55 149l-68 494c-0.666992 7.33301 1.16602 13 5.49902 17s10.5 6 18.5 6h67c13.333 0 20.666 -7.66699 21.999 -23l22 -247c1.33301 -12.667 2 -34.667 2 -66
c5.33301 21.333 11.333 41 18 59l85 254c5.33301 15.333 14.666 23 27.999 23h63c16.667 0 22.334 -7.66699 17.001 -23z" />
    <glyph glyph-name="z" unicode="z" horiz-adv-x="334" 
d="M79 498h227.001c15.333 0 22 -7 20 -21l-6 -46c-0.666992 -7.33301 -3 -14.333 -7 -21l-190 -317h146c14.667 0 21 -7 19 -21l-6 -50c-2 -14.667 -10.333 -22 -25 -22h-251c-15.333 -0 -22 7.33301 -20 22l6 46c1.33301 8.66699 3.66602 15.667 6.99902 21l190 316h-121
c-15.333 0 -22 7.33301 -20 22l6 50c2 14 10.333 21 25 21z" />
    <glyph glyph-name="braceleft" unicode="{" horiz-adv-x="285" 
d="M85 343l29.001 236.001c11.333 86 67.666 129 168.999 129h11c15.333 0 22 -7.33301 20 -22l-5 -49c-2 -15.333 -10.333 -23 -25 -23h-5c-29.333 0 -45.666 -12 -48.999 -36l-30 -246c-4.66699 -42.667 -24.667 -70.334 -60 -83.001c26.667 -10 40 -31 40 -63
c0 -7.33301 -0.333008 -14.333 -1 -21l-30 -243c-0.666992 -6.66699 -1 -12.334 -1 -17.001c0 -19.333 13.333 -29 40 -29h5c14.667 0 21 -7.66699 19 -23l-6 -49c-2 -14.667 -10.333 -22 -25 -22h-8c-46.667 0 -81.834 9.5 -105.501 28.5s-35.5 45.833 -35.5 80.5
c0 8.66699 0.666992 18.334 2 29.001l28 234c0.666992 6 1 10.667 1 14c0 22.667 -15 34 -45 34h-1c-15.333 0 -22 7.33301 -20 22l6 49c2 15.333 10 23 24 23h2c18.667 0 32.167 3.83301 40.5 11.5s13.5 19.5 15.5 35.5z" />
    <glyph glyph-name="bar" unicode="|" horiz-adv-x="247" 
d="M175 676v-864c0 -15.333 -6.66699 -23 -20 -23h-74c-14.667 0 -22 7.66699 -22 23v864c0 15.333 7.33301 23 22 23h74c13.333 0 20 -7.66699 20 -23z" />
    <glyph glyph-name="braceright" unicode="}" horiz-adv-x="285" 
d="M240 571l-29.001 -230.001c-0.666992 -5.33301 -1 -10.666 -1 -15.999c0 -22.667 15 -34 45 -34h2c15.333 0 22 -7.33301 20 -22l-6 -50c-2 -15.333 -10 -23 -24 -23h-2c-34 0 -53 -15.333 -57 -46l-28 -239c-10 -86 -66.333 -129 -169 -129h-12
c-14.667 0 -21 7.33301 -19 22l5 49c2 15.333 10.333 23 25 23h5c28.667 0 44.667 12 48 36l31 249c5.33301 42 25.333 69.667 60 83c-27.333 10 -41 32 -41 66c0 2 0.666992 9 2 21l29 242c0.666992 5.33301 1 9.66602 1 12.999c0 18.667 -13 28 -39 28h-5
c-14.667 0 -21 7.66699 -19 23l6 49c2 14.667 10 22 24 22h9c46.667 0 81.834 -9.5 105.501 -28.5s35.5 -45.833 35.5 -80.5c0 -5.33301 -0.666992 -14.666 -2 -27.999z" />
    <glyph glyph-name="asciitilde" unicode="~" horiz-adv-x="393" 
d="M353 322l-4.00195 -37c-2.66699 -21.333 -10 -37.666 -22 -48.999s-27 -17 -45 -17c-14.667 0 -30.667 3.33301 -48 10l-74 28c-14.667 6 -25 9 -31 9c-11.333 0 -17 -6.33301 -17 -19v-9c0 -13.333 -8 -20 -24 -20h-31c-13.333 0 -19.333 8.66699 -18 26l3 39
c1.33301 21.333 8.33301 37.666 21 48.999s28.334 17 47.001 17c12.667 0 27.334 -3.33301 44.001 -10l74 -28c18 -6.66699 29.333 -10 34 -10c10.667 0 16 6.66699 16 20v8c0 12.667 7.66699 19 23 19h33c14.667 0 21 -8.66699 19 -26z" />
    <glyph glyph-name="uni00A0" unicode="&#xa0;" horiz-adv-x="144" 
 />
    <glyph glyph-name="exclamdown" unicode="&#xa1;" horiz-adv-x="202" 
d="M56 396l9 80c2 14.667 10 22 24 22h74c14.667 0 21 -7.33301 19 -22l-10 -80c-2 -14.667 -10 -22 -24 -22h-74c-14 0 -20 7.33301 -18 22zM18 108l35.999 192c2.66699 14.667 10.334 22 23.001 22h53c7.33301 0 12.333 -1.66699 15 -5s3.66699 -9 3 -17l-12 -192
l-32 -267c-2 -15.333 -10.333 -23 -25 -23h-75c-14 0 -20 7.66699 -18 23z" />
    <glyph glyph-name="cent" unicode="&#xa2;" horiz-adv-x="385" 
d="M219 23c-2 -15.333 -10 -23.001 -24 -23.001h-70c-14.667 0 -21 7.66699 -19 23l8 67c-56.667 14.667 -85 50 -85 106c0 7.33301 0.333008 14.666 1 21.999l30 250c8.66699 71.333 47.334 113 116.001 125l8 64c2 15.333 10 23 24 23h70c14 0 20 -7.66699 18 -23l-8 -67
c58.667 -16 88 -51 88 -105c0 -4.66699 -0.333008 -10.667 -1 -18l-4 -30c-2 -14 -10 -21 -24 -21h-65c-14.667 0 -21 7 -19 21l3 26c0.666992 6.66699 1 11.334 1 14.001c0 19.333 -14.667 29 -44 29c-16.667 0 -28.834 -3.16699 -36.501 -9.5
s-12.167 -16.166 -13.5 -29.499l-30 -245c-0.666992 -8 -1 -14.667 -1 -20c0 -19.333 14.333 -29 43 -29c30.667 0 47.667 13.333 51 40l4 39c2 14.667 10.333 22 25 22h64c14.667 0 21 -7.33301 19 -22l-4 -34c-8.66699 -75.333 -47.667 -119 -117 -131z" />
    <glyph glyph-name="sterling" unicode="&#xa3;" horiz-adv-x="475" 
d="M218 383h69.001c15.333 0 22 -7 20 -21l-6 -51c-2 -14 -10.333 -21 -25 -21h-69l-24 -196h88c27.333 0 43.333 19.333 48 58l4 39c2 15.333 10.333 23 25 23h66c14.667 0 21 -7.66699 19 -23l-5 -41c-6.66699 -55.333 -21.334 -94.166 -44.001 -116.499
s-55 -33.5 -97 -33.5h-269c-15.333 0 -22 7.33301 -20 22l6 51c2 14 10.333 21 25 21h37l24 196h-37c-14.667 0 -21 7 -19 21l6 51c2 14 10.333 21 25 21h36l21 163c6 44 22.333 78.667 49 104s71 38 133 38c54 0 93.667 -11 119 -33s38 -50.333 38 -85
c0 -8 -0.333008 -15.667 -1 -23l-5 -47c-2 -14.667 -10 -22 -24 -22h-68c-15.333 0 -22 7.33301 -20 22l5 37c0.666992 7.33301 1 12.666 1 15.999c0 26 -17 39 -51 39c-36.667 0 -57 -16.667 -61 -50z" />
    <glyph glyph-name="currency" unicode="&#xa4;" horiz-adv-x="463" 
d="M369 93c-10 -8.66699 -19.334 -8.33398 -28.001 0.999023l-53 60c-18 -6.66699 -41.333 -10 -70 -10c-29.333 0 -54.333 4 -75 12l-70 -62c-10 -8.66699 -19 -9 -27 -1l-27 29c-8.66699 8.66699 -7 18.334 5 29.001l62 56
c-7.33301 17.333 -9.66602 36.666 -6.99902 57.999l16 130c3.33301 24 9.66602 44 18.999 60l-47 54c-8.66699 9.33301 -7.66699 18.666 3 27.999l34 30c9.33301 8.66699 18.333 8.33398 27 -0.999023l52 -59c20 6 43 9 69 9c30.667 0 56 -4.33301 76 -13l71 63
c10.667 10 19.667 10.333 27 1l26 -30c7.33301 -9.33301 6 -18.666 -4 -27.999l-64 -58c6.66699 -18 8.66699 -36.667 6 -56l-16 -130c-3.33301 -24 -9.33301 -43.333 -18 -58l49 -56c8.66699 -9.33301 7.33398 -19 -3.99902 -29zM193.999 398l-16.998 -133.001
c-3.33301 -30.667 11.667 -46 45 -46c32 0 49.667 13.667 53 41l17 133c1.33301 14.667 -1.33398 25.834 -8.00098 33.501s-19.334 11.5 -38.001 11.5c-32 0 -49.333 -13.333 -52 -40z" />
    <glyph glyph-name="yen" unicode="&#xa5;" horiz-adv-x="435" 
d="M241 22c-2 -14.667 -10.002 -22 -24.002 -22h-72c-15.333 -0 -22 7.33301 -20 22l27 218h-99c-13.333 0 -19.666 7 -18.999 21l3 31c0.666992 14 9 21 25 21h78l-12 61h-59c-15.333 0 -22 7 -20 21l4 30c2 14 10.333 21 25 21h35l-44 212
c-3.33301 14.667 3.33398 22 20.001 22h77c13.333 0 21 -7.33301 23 -22l35 -216c2 -13.333 3.66699 -29.333 5 -48c7.33301 23.333 13 39.333 17 48l96 216c6.66699 14.667 15.667 22 27 22h69c16.667 0 21.667 -7.33301 15 -22l-98 -212h37c14.667 0 21 -7 19 -21l-3 -30
c-2 -14 -10.333 -21 -25 -21h-62l-28 -61h83c8 0 13.333 -1.5 16 -4.5s3.66699 -8.5 3 -16.5l-3 -31c-0.666992 -14 -9 -21 -25 -21h-99z" />
    <glyph glyph-name="brokenbar" unicode="&#xa6;" horiz-adv-x="248" 
d="M173 657v-320c0 -15.333 -7 -23 -21 -23h-70c-14.667 0 -22 7.66699 -22 23v320c0 15.333 7.33301 23 22 23h70c14 0 21 -7.66699 21 -23zM173 132v-320c0 -15.333 -7 -23 -21 -23h-70c-14.667 0 -22 7.66699 -22 23v320c0 15.333 7.33301 23 22 23h70
c14 0 21 -7.66699 21 -23z" />
    <glyph glyph-name="section" unicode="&#xa7;" horiz-adv-x="383" 
d="M323 196c-2 -14 -9.99805 -21 -23.998 -21h-61c-14.667 0 -21 7 -19 21l8 67c1.33301 10.667 2 16.667 2 18c0 17.333 -10.667 32.333 -32 45l-80 49c-36 22 -54 52 -54 90c0 6 0.666992 13.667 2 23l10 77c10 82 64.333 123 163 123
c49.333 0 86.166 -9.83301 110.499 -29.5s36.5 -45.167 36.5 -76.5c0 -2.66699 -0.333008 -7.33398 -1 -14.001l-3 -28c-2 -14.667 -10 -22 -24 -22h-63c-13.333 0 -19 7.33301 -17 22l3 27c0.666992 5.33301 1 9 1 11c0 21.333 -15.333 32 -46 32
c-32.667 0 -50.334 -13 -53.001 -39l-9 -74c-0.666992 -5.33301 -1 -10.333 -1 -15c0 -17.333 10.333 -31.666 31 -42.999l77 -45c37.333 -21.333 56 -51.333 56 -90c0 -4 -1 -13 -3 -27zM38.002 206l10 79.998c2 15.333 9.66699 23 23 23h63c14.667 0 21 -7.66699 19 -23
l-9 -65c-1.33301 -9.33301 -2 -16.333 -2 -21c0 -14.667 10.667 -28.667 32 -42l80 -49c36 -21.333 54 -51.666 54 -90.999c0 -2 -0.666992 -9.66699 -2 -23l-9 -77c-10 -82 -64.667 -123 -164 -123c-48.667 0 -85.167 9.66699 -109.5 29s-36.5 44.333 -36.5 75
c0 4 0.333008 9.33301 1 16l3 29c2 14 9.66699 21 23 21h63c14 0 20 -7 18 -21l-3 -28c-0.666992 -5.33301 -1 -9.66602 -1 -12.999c0 -19.333 15.667 -29 47 -29s48.333 12.333 51 37l10 76c0.666992 5.33301 1 10 1 14c0 18 -10.333 32.667 -31 44l-78 45
c-37.333 20 -56 48.333 -56 85c0 6.66699 1 17 3 31z" />
    <glyph glyph-name="dieresis" unicode="&#xa8;" horiz-adv-x="296" 
d="M330 683l-12 -94c-2 -14.667 -10 -22 -24 -22h-41c-14.667 0 -21 7.33301 -19 22l11 94c2 14.667 10.333 22 25 22h42c14 0 20 -7.33301 18 -22zM217 683l-12 -94c-2 -14.667 -10 -22 -24 -22h-42c-14 0 -20 7.33301 -18 22l12 94c2 14.667 10 22 24 22h42
c14 0 20 -7.33301 18 -22z" />
    <glyph glyph-name="copyright" unicode="&#xa9;" horiz-adv-x="600" 
d="M553 490l-0.000976562 -299.003c0 -21.333 -1.5 -40.666 -4.5 -57.999s-9.66699 -35.166 -20 -53.499s-24.333 -33.5 -42 -45.5s-41.834 -22 -72.501 -30s-66.667 -12 -108 -12c-42 0 -78.5 4 -109.5 12s-55.167 18 -72.5 30s-31.166 27.333 -41.499 46
s-17 36.5 -20 53.5s-4.5 36.167 -4.5 57.5v299c0 27.333 2.83301 51.333 8.5 72s16.667 41.334 33 62.001s41.833 36.5 76.5 47.5s78 16.5 130 16.5c41.333 0 77.333 -4 108 -12s54.834 -18 72.501 -30s31.667 -27.167 42 -45.5s17 -36 20 -53s4.5 -36.167 4.5 -57.5z
M470.999 180.997v319c0 78.667 -55 118 -165 118c-110.667 0 -166 -39.667 -166 -119v-318c0 -78.667 55.333 -118 166 -118c110 0 165 39.333 165 118zM306.999 546.997c45.333 0 77.166 -10 95.499 -30s27.5 -50.333 27.5 -91v-25c0 -14 -7.33301 -21 -22 -21h-49
c-14.667 0 -22 7 -22 21v36c0 22 -10 33 -30 33c-20.667 0 -31 -11 -31 -33v-193c0 -22.667 10.333 -34 31 -34c20 0 30 11.333 30 34v42c0 14.667 7.33301 22 22 22h49c14.667 0 22 -7.33301 22 -22v-33c0 -40.667 -9.33301 -71 -28 -91s-50.667 -30 -96 -30
s-77.166 10 -95.499 30s-27.5 50.333 -27.5 91v173c0 40.667 9.33301 71 28 91s50.667 30 96 30z" />
    <glyph glyph-name="ordfeminine" unicode="&#xaa;" horiz-adv-x="303" 
d="M161 602l-17.001 -135c-0.666992 -4.66699 -1 -8 -1 -10c0 -10 6.33301 -15 19 -15c8.66699 0 19.334 5 32.001 15l18 151c-8 10 -18 15 -30 15s-19 -7 -21 -21zM188.999 405c-25.333 -18 -49.334 -27.001 -72.001 -27.001c-18.667 0 -33.834 5 -45.501 15
s-17.5 23.333 -17.5 40c0 4.66699 0.333008 10.334 1 17.001l21 172c2.66699 20 10.334 35.833 23.001 47.5s29.334 17.5 50.001 17.5c26.667 0 50 -8.33301 70 -25l1 6c1.33301 5.33301 3 9 5 11s5.66699 3 11 3h58c8.66699 0 12.667 -4.66699 12 -14l-33 -271
c-0.666992 -9.33301 -6 -14 -16 -14h-55c-8.66699 0 -13 4.66699 -13 14v8z" />
    <glyph glyph-name="guillemotleft" unicode="&#xab;" horiz-adv-x="429" 
d="M285 246l72.002 -77.0039c10 -10 14.333 -21.333 13 -34l-10 -76c-1.33301 -7.33301 -4.33301 -12.166 -9 -14.499s-9.33398 -1.16602 -14.001 3.50098l-122 132c-11.333 12.667 -16.333 25.334 -15 38.001l6 55c1.33301 14.667 9.66602 28.334 24.999 41.001l155 132
c5.33301 4.66699 10.333 5.66699 15 3s6.66699 -7.66699 6 -15l-10 -77c-1.33301 -12 -8 -23.333 -20 -34zM102.002 245.996l72.002 -77.0039c10 -10 14.333 -21.333 13 -34l-10 -76c-1.33301 -7.33301 -4.33301 -12.166 -9 -14.499s-9.33398 -1.16602 -14.001 3.50098
l-122 132c-11.333 12.667 -16.333 25.334 -15 38.001l6 55c1.33301 14.667 9.66602 28.334 24.999 41.001l155 132c5.33301 4.66699 10.333 5.66699 15 3s6.66699 -7.66699 6 -15l-10 -77c-1.33301 -12 -8 -23.333 -20 -34z" />
    <glyph glyph-name="logicalnot" unicode="&#xac;" horiz-adv-x="307" 
d="M34 319c0 33.333 11.833 62 35.5 86s52.167 36 85.5 36c34 0 63 -12 87 -36s36 -52.667 36 -86c0 -34 -12 -62.833 -36 -86.5s-53 -35.5 -87 -35.5c-33.333 0 -61.833 11.833 -85.5 35.5s-35.5 52.5 -35.5 86.5z" />
    <glyph glyph-name="uni00AD" unicode="&#xad;" horiz-adv-x="321" 
d="M65 335h189c14.667 0 22 -7 22 -21v-51c0 -14 -7.33301 -21 -22 -21h-189c-14.667 0 -22 7 -22 21v51c0 14 7.33301 21 22 21z" />
    <glyph glyph-name="registered" unicode="&#xae;" horiz-adv-x="508" 
d="M478 534v-190c0 -102.667 -68.667 -154 -206 -154c-138 0 -207 51.333 -207 154v190c0 102.667 69 154 207 154c137.333 0 206 -51.333 206 -154zM402 337v204c0 53.333 -43.333 80 -130 80c-88.667 0 -133 -26.667 -133 -80v-203c0 -54 44.333 -81 133 -81
c86.667 0 130 26.667 130 80zM274 518l-22 0.000976562v-69h22c6 0 11.167 1.66699 15.5 5s6.5 7.66602 6.5 12.999v32c0 12.667 -7.33301 19 -22 19zM237 303.001h-42c-10 0 -15 5.33301 -15 16v239c0 10 5 15 15 15h83c60.667 0 91 -24.333 91 -73v-33
c0 -27.333 -9.66699 -47 -29 -59l25 -89c3.33301 -10.667 -1 -16 -13 -16h-45c-8 0 -13.333 5.33301 -16 16l-21 75h-18v-75c0 -10.667 -5 -16 -15 -16z" />
    <glyph glyph-name="macron" unicode="&#xaf;" horiz-adv-x="290" 
d="M147 665h159c8 0 13.333 -1.5 16 -4.5s3.66699 -8.5 3 -16.5l-4 -43c-0.666992 -14.667 -9 -22 -25 -22h-159c-8 0 -13.333 1.66699 -16 5s-3.66699 9 -3 17l4 43c0.666992 14 9 21 25 21z" />
    <glyph glyph-name="degree" unicode="&#xb0;" horiz-adv-x="321" 
d="M58 509l10 85.002c4 31.333 15.667 54.666 35 69.999s53 23 101 23c80 0 120 -27 120 -81c0 -5.33301 -0.333008 -11.666 -1 -18.999l-9 -85c-3.33301 -30.667 -14.833 -53.834 -34.5 -69.501s-53.167 -23.5 -100.5 -23.5c-81.333 0 -122 27 -122 81
c0 7.33301 0.333008 13.666 1 18.999zM224 509.002l9 76c2.66699 19.333 -9.33301 29 -36 29c-24 0 -37 -8.66699 -39 -26l-9 -76c-1.33301 -10.667 1 -18.167 7 -22.5s15.333 -6.5 28 -6.5c24.667 0 38 8.66699 40 26z" />
    <glyph glyph-name="plusminus" unicode="&#xb1;" horiz-adv-x="417" 
d="M156 233v102h-92c-14.667 0 -22 7 -22 21v52c0 13.333 7.33301 20 22 20h92v102c0 14.667 6.66699 22 20 22h51c14 0 21 -7.33301 21 -22v-102h93c14.667 0 22 -6.66699 22 -20v-52c0 -14 -7.33301 -21 -22 -21h-93v-102c0 -15.333 -7 -23 -21 -23h-51
c-13.333 0 -20 7.66699 -20 23zM64 153h277c14.667 0 22 -7 22 -21v-51c0 -14.667 -7.33301 -22 -22 -22h-277c-14.667 0 -22 7.33301 -22 22v51c0 14 7.33301 21 22 21z" />
    <glyph glyph-name="twosuperior" unicode="&#xb2;" 
d="M140 525l122 0.000976562c6 0 10 -1 12 -3s2.66699 -5.66699 2 -11l-5 -40c-0.666992 -10 -6.33398 -15 -17.001 -15h-193c-9.33301 0 -13.666 5 -12.999 15l10 86c3.33301 25.333 18.333 46.666 45 63.999l83 53c6.66699 4 11.167 6.83301 13.5 8.5s4.83301 4.5 7.5 8.5
s4.66699 9.33301 6 16l5 27c0.666992 5.33301 1 9.33301 1 12c0 13.333 -9.66699 20 -29 20s-30 -8 -32 -24l-5 -32c-1.33301 -6 -3 -10.167 -5 -12.5s-5.66699 -3.5 -11 -3.5h-53c-9.33301 0 -13.666 5.33301 -12.999 16l4 37c6.66699 58 46.667 87 120 87
c35.333 0 62.166 -7.5 80.499 -22.5s27.5 -33.5 27.5 -55.5c0 -3.33301 -0.333008 -8.33301 -1 -15l-4 -39c-3.33301 -32 -21 -57.333 -53 -76l-80 -48c-12.667 -7.33301 -20 -17 -22 -29z" />
    <glyph glyph-name="threesuperior" unicode="&#xb3;" 
d="M154 680l25 0.00292969c18 0 28.333 8.66699 31 26l4 31c0.666992 6 1 9.66699 1 11c0 13.333 -8.66699 20 -26 20c-18.667 0 -29 -8 -31 -24l-2 -19c-1.33301 -10 -7.33301 -15 -18 -15h-52c-9.33301 0 -13.333 5 -12 15l2 25c4 56 43.333 84 118 84
c35.333 0 61.833 -6.66699 79.5 -20s26.5 -30.333 26.5 -51c0 -1.33301 -0.666992 -8 -2 -20l-6 -47c-3.33301 -24.667 -17.333 -40.334 -42 -47.001c22.667 -6.66699 34 -21.334 34 -44.001c0 -2.66699 -0.666992 -9.33398 -2 -20.001l-5 -51
c-5.33301 -54.667 -44.666 -82 -117.999 -82c-36 0 -63.5 7.33301 -82.5 22s-28.5 33 -28.5 55c0 2.66699 0.333008 7 1 13l2 20c0.666992 9.33301 6 14 16 14h52c9.33301 0 13.666 -4.66699 12.999 -14l-1 -15c-0.666992 -11.333 1.16602 -19 5.49902 -23s12.5 -6 24.5 -6
c20 0 31 8.33301 33 25l4 37c0.666992 6.66699 1 11.667 1 15c0 14 -9.33301 21 -28 21h-25c-11.333 0 -16 4.66699 -14 14l5 36c0.666992 9.33301 6.33398 14 17.001 14z" />
    <glyph glyph-name="acute" unicode="&#xb4;" horiz-adv-x="224" 
d="M274 686l-65 -109c-5.33301 -9.33301 -14.666 -14 -27.999 -14h-55c-12.667 0 -16 7 -10 21l44 102c6 14.667 16 22 30 22h74c15.333 0 18.666 -7.33301 9.99902 -22z" />
    <glyph glyph-name="mu" unicode="&#xb5;" horiz-adv-x="415" 
d="M228 22l1.00098 15c-32 -24.667 -66.333 -37 -103 -37l-11 1l-15 -168c-1.33301 -15.333 -9 -23 -23 -23h-71c-14 0 -20 7.66699 -18 23l79 642c2 15.333 10 23 24 23h70c14.667 0 21 -7.66699 19 -23l-42 -348c-0.666992 -6 -1 -10 -1 -12c0 -16 9.66699 -24 29 -24
c25.333 0 48.666 9.66699 69.999 29l43 355c1.33301 8.66699 3.66602 14.667 6.99902 18s9 5 17 5h70c14.667 0 21 -7.66699 19 -23l-55 -453c-2 -14.667 -10.333 -22 -25 -22h-65c-13.333 -0 -19.666 7.33301 -18.999 22z" />
    <glyph glyph-name="paragraph" unicode="&#xb6;" horiz-adv-x="487" 
d="M483 657l-104 -837c-2 -15.333 -9.66699 -23 -23 -23h-68c-14 0 -20 7.66699 -18 23l102 837c2 15.333 10 23 24 23h68c14.667 0 21 -7.66699 19 -23zM323 658l-103 -838c-2 -15.333 -9.66699 -23 -23 -23h-68c-14.667 0 -21 7.66699 -19 23l57 462h-14
c-78.667 0 -118 34.333 -118 103c0 4.66699 0.666992 13 2 25l18 152c4.66699 38 17.667 67.167 39 87.5s57.333 30.5 108 30.5h102c14.667 0 21 -7.33301 19 -22z" />
    <glyph glyph-name="periodcentered" unicode="&#xb7;" horiz-adv-x="201" 
d="M161 313l-10 -80c-2 -14.667 -10 -22 -24 -22h-72c-14.667 0 -21 7.33301 -19 22l10 80c2 14.667 10 22 24 22h73c14 0 20 -7.33301 18 -22z" />
    <glyph glyph-name="cedilla" unicode="&#xb8;" horiz-adv-x="212" 
d="M115 -47l10.999 0.000976562c22 0 39.667 -5.83301 53 -17.5s20 -28.834 20 -51.501c0 -31.333 -9.16699 -55 -27.5 -71s-41.166 -24 -68.499 -24h-78c-13.333 0 -19.666 7.33301 -18.999 22l1 18c0.666992 14 9 21 25 21h63c18 0 27 8.33301 27 25
c0 12.667 -7.33301 19 -22 19h-45c-12 0 -19.667 2.33301 -23 7s-3 12 1 22l31 88c5.33301 14.667 15 21 29 19l27 -3c13.333 -1.33301 17.666 -9.33301 12.999 -24z" />
    <glyph glyph-name="onesuperior" unicode="&#xb9;" 
d="M108 815l127.999 18c2.66699 0.666992 5 0.666992 7 0s3.66699 -2 5 -4s1.66602 -5.33301 0.999023 -10l-36 -294h53c9.33301 0 13.666 -4.66699 12.999 -14l-4 -40c-0.666992 -10 -6.66699 -15 -18 -15h-192c-10 0 -14.667 5 -14 15l5 40
c0.666992 9.33301 6.33398 14 17.001 14h55l28 228l-57 -8c-4.66699 -0.666992 -8.16699 -0.166992 -10.5 1.5s-3.16602 5.16699 -2.49902 10.5l5 41c0.666992 10 6.33398 15.667 17.001 17z" />
    <glyph glyph-name="ordmasculine" unicode="&#xba;" horiz-adv-x="296" 
d="M54 468l18.001 132.999c7.33301 58 46.666 87 117.999 87c32.667 0 59 -6.83301 79 -20.5s30 -32.167 30 -55.5c0 -4.66699 -0.333008 -9.66699 -1 -15l-16 -132c-7.33301 -58 -47.333 -87 -120 -87c-33.333 0 -59.833 6.83301 -79.5 20.5s-29.5 32.167 -29.5 55.5
c0 4.66699 0.333008 9.33398 1 14.001zM192.001 466.999l17 126.001c0.666992 5.33301 1 9 1 11c0 10.667 -8 16 -24 16c-14.667 0 -23 -6.66699 -25 -20l-16 -127c-0.666992 -4.66699 -1 -8.33398 -1 -11.001c0 -10 7.66699 -15 23 -15c14.667 0 23 6.66699 25 20z" />
    <glyph glyph-name="guillemotright" unicode="&#xbb;" horiz-adv-x="431" 
d="M318 249l-72.002 77.0039c-10 10 -14.333 21.333 -13 34l10 76c1.33301 7.33301 4.33301 12.166 9 14.499s9.33398 1.16602 14.001 -3.50098l122 -132c11.333 -12.667 16.333 -25.334 15 -38.001l-6 -55c-1.33301 -14.667 -9.66602 -28.334 -24.999 -41.001l-155 -132
c-5.33301 -4.66699 -10.333 -5.66699 -15 -3s-6.66699 7.66699 -6 15l10 77c1.33301 12 8 23.333 20 34zM131.998 249.004l-72.002 77.0039c-10 10 -14.333 21.333 -13 34l10 76c1.33301 7.33301 4.33301 12.166 9 14.499s9.33398 1.16602 14.001 -3.50098l122 -132
c11.333 -12.667 16.333 -25.334 15 -38.001l-6 -55c-1.33301 -14.667 -9.66602 -28.334 -24.999 -41.001l-155 -132c-5.33301 -4.66699 -10.333 -5.66699 -15 -3s-6.66699 7.66699 -6 15l10 77c1.33301 12 8 23.333 20 34z" />
    <glyph glyph-name="onequarter" unicode="&#xbc;" horiz-adv-x="699" 
d="M569 665l-326.001 -650c-8 -15.333 -19 -23 -33 -23h-47c-6 0 -9.66699 2.66699 -11 8s-0.666016 10.333 2.00098 15l327 650c8 15.333 18.667 23 32 23h46c14.667 0 18 -7.66699 10 -23zM87.999 665l127.999 18c2.66699 0.666992 5 0.666992 7 0s3.66699 -2 5 -4
s1.66602 -5.33301 0.999023 -10l-36 -294h53c9.33301 0 13.666 -4.66699 12.999 -14l-4 -40c-0.666992 -10 -6.66699 -15 -18 -15h-192c-10 0 -14.667 5 -14 15l5 40c0.666992 9.33301 6.33398 14 17.001 14h55l28 228l-57 -8
c-4.66699 -0.666992 -8.16699 -0.166992 -10.5 1.5s-3.16602 5.16699 -2.49902 10.5l5 41c0.666992 10 6.33398 15.667 17.001 17zM559.998 359l-56.0029 -193h62l24 193c0.666992 10 6.33398 15 17.001 15h54c8.66699 0 12.667 -5 12 -15l-41 -344
c-0.666992 -10 -6 -15 -16 -15h-55c-9.33301 0 -13.666 5 -12.999 15l10 82h-133c-10 0 -14.333 5 -13 15l3 25c1.33301 10 3 18.333 5 25l58 197c2.66699 10 9 15 19 15h52c10.667 0 14.334 -5 11.001 -15z" />
    <glyph glyph-name="onehalf" unicode="&#xbd;" horiz-adv-x="704" 
d="M569 665l-326.001 -650c-8 -15.333 -19 -23 -33 -23h-47c-6 0 -9.66699 2.66699 -11 8s-0.666016 10.333 2.00098 15l327 650c8 15.333 18.667 23 32 23h46c14.667 0 18 -7.66699 10 -23zM87.999 665l127.999 18c2.66699 0.666992 5 0.666992 7 0s3.66699 -2 5 -4
s1.66602 -5.33301 0.999023 -10l-36 -294h53c9.33301 0 13.666 -4.66699 12.999 -14l-4 -40c-0.666992 -10 -6.66699 -15 -18 -15h-192c-10 0 -14.667 5 -14 15l5 40c0.666992 9.33301 6.33398 14 17.001 14h55l28 228l-57 -8
c-4.66699 -0.666992 -8.16699 -0.166992 -10.5 1.5s-3.16602 5.16699 -2.49902 10.5l5 41c0.666992 10 6.33398 15.667 17.001 17zM513.998 69l122 0.000976562c6 0 10 -1 12 -3s2.66699 -5.66699 2 -11l-5 -40c-0.666992 -10 -6.33398 -15 -17.001 -15h-193
c-9.33301 0 -13.666 5 -12.999 15l10 86c3.33301 25.333 18.333 46.666 45 63.999l83 53c6.66699 4 11.167 6.83301 13.5 8.5s4.83301 4.5 7.5 8.5s4.66699 9.33301 6 16l5 27c0.666992 5.33301 1 9.33301 1 12c0 13.333 -9.66699 20 -29 20s-30 -8 -32 -24l-5 -32
c-1.33301 -6 -3 -10.167 -5 -12.5s-5.66699 -3.5 -11 -3.5h-53c-9.33301 0 -13.666 5.33301 -12.999 16l4 37c6.66699 58 46.667 87 120 87c35.333 0 62.166 -7.5 80.499 -22.5s27.5 -33.5 27.5 -55.5c0 -3.33301 -0.333008 -8.33301 -1 -15l-4 -39
c-3.33301 -32 -21 -57.333 -53 -76l-80 -48c-12.667 -7.33301 -20 -17 -22 -29z" />
    <glyph glyph-name="threequarters" unicode="&#xbe;" horiz-adv-x="685" 
d="M555 665l-326.001 -650c-8 -15.333 -19 -23 -33 -23h-47c-6 0 -9.66699 2.66699 -11 8s-0.666016 10.333 2.00098 15l327 650c8 15.333 18.667 23 32 23h46c14.667 0 18 -7.66699 10 -23zM141.999 530l25 0.00292969c18 0 28.333 8.66699 31 26l4 31
c0.666992 6 1 9.66699 1 11c0 13.333 -8.66699 20 -26 20c-18.667 0 -29 -8 -31 -24l-2 -19c-1.33301 -10 -7.33301 -15 -18 -15h-52c-9.33301 0 -13.333 5 -12 15l2 25c4 56 43.333 84 118 84c35.333 0 61.833 -6.66699 79.5 -20s26.5 -30.333 26.5 -51
c0 -1.33301 -0.666992 -8 -2 -20l-6 -47c-3.33301 -24.667 -17.333 -40.334 -42 -47.001c22.667 -6.66699 34 -21.334 34 -44.001c0 -2.66699 -0.666992 -9.33398 -2 -20.001l-5 -51c-5.33301 -54.667 -44.666 -82 -117.999 -82c-36 0 -63.5 7.33301 -82.5 22
s-28.5 33 -28.5 55c0 2.66699 0.333008 7 1 13l2 20c0.666992 9.33301 6 14 16 14h52c9.33301 0 13.666 -4.66699 12.999 -14l-1 -15c-0.666992 -11.333 1.16602 -19 5.49902 -23s12.5 -6 24.5 -6c20 0 31 8.33301 33 25l4 37c0.666992 6.66699 1 11.667 1 15
c0 14 -9.33301 21 -28 21h-25c-11.333 0 -16 4.66699 -14 14l5 36c0.666992 9.33301 6.33398 14 17.001 14zM546.999 359.003l-56.0029 -193h62l24 193c0.666992 10 6.33398 15 17.001 15h54c8.66699 0 12.667 -5 12 -15l-41 -344c-0.666992 -10 -6 -15 -16 -15h-55
c-9.33301 0 -13.666 5 -12.999 15l10 82h-133c-9.33301 0 -13.666 5 -12.999 15l3 25c1.33301 10 3 18.333 5 25l58 197c3.33301 10 9.66602 15 18.999 15h52c10.667 0 14.334 -5 11.001 -15z" />
    <glyph glyph-name="questiondown" unicode="&#xbf;" horiz-adv-x="391" 
d="M161 396l10 80c2 14.667 10 22 24 22h73c14.667 0 21 -7.33301 19 -22l-10 -80c-2 -14.667 -10 -22 -24 -22h-74c-14 0 -20 7.33301 -18 22zM266 300l-10 -85.001c-4 -33.333 -20.667 -60.666 -50 -81.999l-70 -51c-18.667 -13.333 -29 -30 -31 -50l-8 -71
c-0.666992 -7.33301 -1 -13 -1 -17c0 -25.333 18.667 -38 56 -38c39.333 0 61 17 65 51l9 71c2 14.667 9.66699 22 23 22h70c14.667 0 21 -7.33301 19 -22l-8 -73c-10 -96.667 -71.667 -145 -185 -145c-55.333 0 -96.5 11.667 -123.5 35s-40.5 53 -40.5 89
c0 10 0.333008 19 1 27l8 70c5.33301 45.333 28 83.333 68 114l53 40c18 12.667 28 29 30 49l8 66c2 14.667 10 22 24 22h73c15.333 0 22 -7.33301 20 -22z" />
    <glyph glyph-name="Agrave" unicode="&#xc0;" horiz-adv-x="421" 
d="M211 747l-38.999 109c-5.33301 14.667 -0.333008 22 15 22h72c14 0 22.667 -7.33301 26 -22l19 -102c2.66699 -14 -3 -21 -17 -21h-53c-12.667 0 -20.334 4.66699 -23.001 14zM248.001 253l-10.001 131c-3.33301 38 -3.66602 82.333 -0.999023 133
c-6 -36 -17.667 -80 -35 -132l-43 -132h89zM219 680h77c16 0 24.333 -7.33301 25 -22l57 -636c1.33301 -14.667 -5 -22 -19 -22h-73c-14 -0 -21.667 7.33301 -23 22l-9 138h-124l-42 -138c-4 -14.667 -13.667 -22 -29 -22h-69c-14 -0 -18.333 7.33301 -13 22l212 636
c4.66699 14.667 14.667 22 30 22z" />
    <glyph glyph-name="Aacute" unicode="&#xc1;" horiz-adv-x="421" 
d="M384 856l-65.001 -109c-5.33301 -9.33301 -14.666 -14 -27.999 -14h-55c-12.667 0 -16 7 -10 21l44 102c6 14.667 16.333 22 31 22h73c16 0 19.333 -7.33301 10 -22zM247.999 253l-10.001 131c-3.33301 38 -3.66602 82.333 -0.999023 133c-6 -36 -17.667 -80 -35 -132
l-43 -132h89zM218.998 680h77c16 0 24.333 -7.33301 25 -22l57 -636c1.33301 -14.667 -5 -22 -19 -22h-73c-14 -0 -21.667 7.33301 -23 22l-9 138h-124l-42 -138c-4 -14.667 -13.667 -22 -29 -22h-69c-14 -0 -18.333 7.33301 -13 22l212 636c4.66699 14.667 14.667 22 30 22
z" />
    <glyph glyph-name="Acircumflex" unicode="&#xc2;" horiz-adv-x="421" 
d="M270 809l-28 -55c-6.66699 -14 -16.667 -21 -30 -21h-48c-15.333 0 -18.333 7 -9 21l73 107c8 11.333 18.667 17 32 17h37c13.333 0 22.333 -5.33301 27 -16l48 -108c6 -14 1 -21 -15 -21h-47c-12.667 0 -21 7 -25 21zM248 253l-10.001 131
c-3.33301 38 -3.66602 82.333 -0.999023 133c-6 -36 -17.667 -80 -35 -132l-43 -132h89zM218.999 680h77c16 0 24.333 -7.33301 25 -22l57 -636c1.33301 -14.667 -5 -22 -19 -22h-73c-14 -0 -21.667 7.33301 -23 22l-9 138h-124l-42 -138c-4 -14.667 -13.667 -22 -29 -22
h-69c-14 -0 -18.333 7.33301 -13 22l212 636c4.66699 14.667 14.667 22 30 22z" />
    <glyph glyph-name="Atilde" unicode="&#xc3;" horiz-adv-x="421" 
d="M218 784c-7.33301 0 -12 -5.33203 -14 -15.999l-2 -10c-2.66699 -12.667 -11.334 -19 -26.001 -19h-30c-14 0 -19.333 8.33301 -16 25l8 36c4.66699 20 13.5 35.667 26.5 47s28.5 17 46.5 17c16.667 0 31.334 -4.33301 44.001 -13l28 -18c12 -8 20.333 -12 25 -12
c4 0 6.66699 1.16699 8 3.5s3.33301 7.16602 6 14.499l2 7c3.33301 13.333 12 20 26 20h30c15.333 0 21 -8.33301 17 -25l-8 -34c-4.66699 -20.667 -13.167 -36.667 -25.5 -48s-26.833 -17 -43.5 -17c-18 0 -34.333 4.66699 -49 14l-29 18c-10 6.66699 -18 10 -24 10z
M248 253.001l-10.001 131c-3.33301 38 -3.66602 82.333 -0.999023 133c-6 -36 -17.667 -80 -35 -132l-43 -132h89zM218.999 680.001h77c16 0 24.333 -7.33301 25 -22l57 -636c1.33301 -14.667 -5 -22 -19 -22h-73c-14 0 -21.667 7.33301 -23 22l-9 138h-124l-42 -138
c-4 -14.667 -13.667 -22 -29 -22h-69c-14 0 -18.333 7.33301 -13 22l212 636c4.66699 14.667 14.667 22 30 22z" />
    <glyph glyph-name="Adieresis" unicode="&#xc4;" horiz-adv-x="421" 
d="M375 852l-12 -95c-2 -14 -9.33301 -21 -22 -21h-43c-14 0 -20 7 -18 21l11 95c2 14.667 10 22 24 22h42c14 0 20 -7.33301 18 -22zM262 852l-11 -95c-2 -14 -10 -21 -24 -21h-42c-14 0 -20 7 -18 21l11 95c2 14.667 10 22 24 22h42c14 0 20 -7.33301 18 -22zM248 253
l-10.001 131c-3.33301 38 -3.66602 82.333 -0.999023 133c-6 -36 -17.667 -80 -35 -132l-43 -132h89zM218.999 680h77c16 0 24.333 -7.33301 25 -22l57 -636c1.33301 -14.667 -5 -22 -19 -22h-73c-14 -0 -21.667 7.33301 -23 22l-9 138h-124l-42 -138
c-4 -14.667 -13.667 -22 -29 -22h-69c-14 -0 -18.333 7.33301 -13 22l212 636c4.66699 14.667 14.667 22 30 22z" />
    <glyph glyph-name="Aring" unicode="&#xc5;" horiz-adv-x="421" 
d="M358 825l-5.00098 -45c-2 -18.667 -10.333 -34 -25 -46s-35.667 -18 -63 -18c-24.667 0 -44.667 5.33301 -60 16s-23 24.334 -23 41.001c0 3.33301 0.333008 8 1 14l6 44c6 43.333 35.667 65 89 65c24.667 0 44.334 -5.33301 59.001 -16s22 -24.334 22 -41.001
c0 -4 -0.333008 -8.66699 -1 -14zM293.999 788l3 27.001c0.666992 5.33301 1 10.333 1 15c0 11.333 -8 17 -24 17c-15.333 0 -24 -8 -26 -24l-4 -30c-0.666992 -4.66699 -1 -8.33398 -1 -11.001c0 -12 8 -18 24 -18s25 8 27 24zM247.999 253.001l-10.001 131
c-3.33301 38 -3.66602 82.333 -0.999023 133c-6 -36 -17.667 -80 -35 -132l-43 -132h89zM218.998 680.001h77c16 0 24.333 -7.33301 25 -22l57 -636c1.33301 -14.667 -5 -22 -19 -22h-73c-14 0 -21.667 7.33301 -23 22l-9 138h-124l-42 -138c-4 -14.667 -13.667 -22 -29 -22
h-69c-14 0 -18.333 7.33301 -13 22l212 636c4.66699 14.667 14.667 22 30 22z" />
    <glyph glyph-name="AE" unicode="&#xc6;" horiz-adv-x="603" 
d="M267 390l-72 -141h85l31 257c-15.333 -50 -30 -88.667 -44 -116zM-16 0c-16.667 0 -21.332 7.33301 -13.999 22l323 636c7.33301 14.667 18.333 22 33 22h267c15.333 0 22 -7 20 -21l-7 -54c-2 -14 -10 -21 -24 -21h-147l-23 -185h136c15.333 0 22 -6.66699 20 -20
l-7 -50c-2 -14.667 -10.333 -22 -25 -22h-136l-25 -211h154c16 0 23 -6.66699 21 -20l-7 -54c-2 -14.667 -10.333 -22 -25 -22h-247c-14.667 0 -21 7.66699 -19 23l17 137h-119l-66 -138c-6.66699 -14.667 -16.334 -22 -29.001 -22h-71z" />
    <glyph glyph-name="Ccedilla" unicode="&#xc7;" horiz-adv-x="422" 
d="M274 -116c0 -31.333 -9.16895 -55 -27.502 -71s-41.166 -24 -68.499 -24h-78c-13.333 0 -19.666 7.33301 -18.999 22l1 18c0.666992 14 9 21 25 21h63c18 0 27 8.33301 27 25c0 12.667 -7.33301 19 -22 19h-45c-12 0 -19.667 2.33301 -23 7s-3 12 1 22l26 74
c-38 6.66699 -65.833 20.667 -83.5 42s-26.5 47 -26.5 77c0 8 0.333008 15.667 1 23l50 404c11.333 96.667 73.333 145 186 145c56.667 0 98.167 -11.5 124.5 -34.5s39.5 -52.833 39.5 -89.5c0 -3.33301 -0.666992 -11 -2 -23l-7 -60c-1.33301 -8 -3.5 -13.667 -6.5 -17
s-8.5 -5 -16.5 -5h-70c-15.333 0 -22 7.33301 -20 22l7 53c0.666992 6.66699 1 12.334 1 17.001c0 27.333 -18.333 41 -55 41c-40 0 -62 -17.333 -66 -52l-48 -393c-0.666992 -6 -1 -12.333 -1 -19c0 -26.667 18.333 -40 55 -40c38 0 59.667 17.333 65 52l10 73
c2 14.667 10 22 24 22h70c14.667 0 21 -7.33301 19 -22l-10 -76c-6 -42 -21.5 -76 -46.5 -102s-66.167 -40.333 -123.5 -43l-14 -39h11c22 0 39.667 -5.83301 53 -17.5s20 -28.834 20 -51.501z" />
    <glyph glyph-name="Egrave" unicode="&#xc8;" horiz-adv-x="371" 
d="M195 747l-38.999 109c-5.33301 14.667 -0.333008 22 15 22h72c14 0 22.667 -7.33301 26 -22l19 -102c2.66699 -14 -3 -21 -17 -21h-53c-12.667 0 -20.334 4.66699 -23.001 14zM287.001 0h-250c-14.667 0 -21 7.66699 -19 23l78 634c2 15.333 10 23 24 23h242
c15.333 0 22 -7 20 -21l-7 -54c-2 -14 -10 -21 -24 -21h-148l-22 -184h136c14.667 0 21 -7 19 -21l-6 -51c-2 -14.667 -10 -22 -24 -22h-137l-26 -210h155c8 0 13.5 -1.33301 16.5 -4s4.16699 -8 3.5 -16l-6 -54c-2 -14.667 -10.333 -22 -25 -22z" />
    <glyph glyph-name="Eacute" unicode="&#xc9;" horiz-adv-x="371" 
d="M358 856l-65.001 -109c-5.33301 -9.33301 -14.666 -14 -27.999 -14h-55c-12.667 0 -16 7 -10 21l44 102c6 14.667 16.333 22 31 22h73c16 0 19.333 -7.33301 10 -22zM286.999 0h-250c-14.667 0 -21 7.66699 -19 23l78 634c2 15.333 10 23 24 23h242
c15.333 0 22 -7 20 -21l-7 -54c-2 -14 -10 -21 -24 -21h-148l-22 -184h136c14.667 0 21 -7 19 -21l-6 -51c-2 -14.667 -10 -22 -24 -22h-137l-26 -210h155c8 0 13.5 -1.33301 16.5 -4s4.16699 -8 3.5 -16l-6 -54c-2 -14.667 -10.333 -22 -25 -22z" />
    <glyph glyph-name="Ecircumflex" unicode="&#xca;" horiz-adv-x="371" 
d="M253 809l-28 -55c-7.33301 -14 -17.333 -21 -30 -21h-48c-15.333 0 -18.333 7 -9 21l73 107c8 11.333 18.667 17 32 17h37c13.333 0 22.333 -5.33301 27 -16l48 -108c6 -14 1 -21 -15 -21h-47c-12.667 0 -21 7 -25 21zM287 0h-250c-14.667 0 -21 7.66699 -19 23l78 634
c2 15.333 10 23 24 23h242c15.333 0 22 -7 20 -21l-7 -54c-2 -14 -10 -21 -24 -21h-148l-22 -184h136c14.667 0 21 -7 19 -21l-6 -51c-2 -14.667 -10 -22 -24 -22h-137l-26 -210h155c8 0 13.5 -1.33301 16.5 -4s4.16699 -8 3.5 -16l-6 -54c-2 -14.667 -10.333 -22 -25 -22z
" />
    <glyph glyph-name="Edieresis" unicode="&#xcb;" horiz-adv-x="371" 
d="M359 852l-12 -95c-2 -14 -9.33301 -21 -22 -21h-43c-14 0 -20 7 -18 21l11 95c2 14.667 10 22 24 22h42c14 0 20 -7.33301 18 -22zM246 852l-11 -95c-2 -14 -10 -21 -24 -21h-42c-14 0 -20 7 -18 21l11 95c2 14.667 10 22 24 22h42c14 0 20 -7.33301 18 -22zM287 0h-250
c-14.667 0 -21 7.66699 -19 23l78 634c2 15.333 10 23 24 23h242c15.333 0 22 -7 20 -21l-7 -54c-2 -14 -10 -21 -24 -21h-148l-22 -184h136c14.667 0 21 -7 19 -21l-6 -51c-2 -14.667 -10 -22 -24 -22h-137l-26 -210h155c8 0 13.5 -1.33301 16.5 -4s4.16699 -8 3.5 -16
l-6 -54c-2 -14.667 -10.333 -22 -25 -22z" />
    <glyph glyph-name="Igrave" unicode="&#xcc;" horiz-adv-x="218" 
d="M111 747l-38.999 109c-5.33301 14.667 -0.333008 22 15 22h72c14 0 22.667 -7.33301 26 -22l19 -102c2.66699 -14 -3 -21 -17 -21h-53c-12.667 0 -20.334 4.66699 -23.001 14zM212.001 657l-78 -634c-2 -15.333 -9.66699 -23 -23 -23h-74c-14.667 0 -21 7.66699 -19 23
l78 634c2 15.333 10 23 24 23h74c14 0 20 -7.66699 18 -23z" />
    <glyph glyph-name="Iacute" unicode="&#xcd;" horiz-adv-x="218" 
d="M280 856l-65.001 -109c-5.33301 -9.33301 -14.666 -14 -27.999 -14h-55c-12.667 0 -16 7 -10 21l44 102c6 14.667 16.333 22 31 22h73c16 0 19.333 -7.33301 10 -22zM211.999 657l-78 -634c-2 -15.333 -9.66699 -23 -23 -23h-74c-14.667 0 -21 7.66699 -19 23l78 634
c2 15.333 10 23 24 23h74c14 0 20 -7.66699 18 -23z" />
    <glyph glyph-name="Icircumflex" unicode="&#xce;" horiz-adv-x="218" 
d="M172 809l-28 -55c-6.66699 -14 -16.667 -21 -30 -21h-48c-15.333 0 -18.333 7 -9 21l73 107c8 11.333 18.667 17 32 17h37c13.333 0 22.333 -5.33301 27 -16l48 -108c6 -14 1 -21 -15 -21h-47c-12.667 0 -21 7 -25 21zM212 657l-78 -634c-2 -15.333 -9.66699 -23 -23 -23
h-74c-14.667 0 -21 7.66699 -19 23l78 634c2 15.333 10 23 24 23h74c14 0 20 -7.66699 18 -23z" />
    <glyph glyph-name="Idieresis" unicode="&#xcf;" horiz-adv-x="218" 
d="M276 852l-12 -95c-2 -14 -9.33301 -21 -22 -21h-43c-14 0 -20 7 -18 21l11 95c2 14.667 10 22 24 22h42c14 0 20 -7.33301 18 -22zM163 852l-11 -95c-2 -14 -10 -21 -24 -21h-42c-14 0 -20 7 -18 21l11 95c2 14.667 10 22 24 22h42c14 0 20 -7.33301 18 -22zM212 657
l-78 -634c-2 -15.333 -9.66699 -23 -23 -23h-74c-14.667 0 -21 7.66699 -19 23l78 634c2 15.333 10 23 24 23h74c14 0 20 -7.66699 18 -23z" />
    <glyph glyph-name="Eth" unicode="&#xd0;" horiz-adv-x="466" 
d="M212 0h-168.001c-12.667 0 -18 7.66699 -16 23l34 276h-28c-15.333 0 -22 7.33301 -20 22l6 44c2 14 10.333 21 25 21h28l33 271c2 15.333 10 23 24 23h151c57.333 0 100.333 -12 129 -36s43 -54 43 -90c0 -8 -0.333008 -15.667 -1 -23l-47 -386
c-11.333 -96.667 -75.666 -145 -192.999 -145zM152.999 96l64 -0.000976562c21.333 0 38.333 4.83301 51 14.5s20 23.167 22 40.5l45 370c0.666992 6.66699 1 12.334 1 17.001c0 30.667 -20.333 46 -61 46h-62l-24 -198h42c14.667 0 21 -7 19 -21l-5 -44
c-2 -14.667 -10 -22 -24 -22h-43z" />
    <glyph glyph-name="Ntilde" unicode="&#xd1;" horiz-adv-x="466" 
d="M251 784c-7.33301 0 -11.999 -5.33203 -13.999 -15.999l-2 -10c-2.66699 -12.667 -11.334 -19 -26.001 -19h-30c-14 0 -19.333 8.33301 -16 25l8 36c4.66699 20 13.5 35.667 26.5 47s28.5 17 46.5 17c16 0 30.667 -4.33301 44 -13l28 -18c12 -8 20.333 -12 25 -12
c4 0 6.66699 1.16699 8 3.5s3.33301 7.16602 6 14.499l2 7c3.33301 13.333 12 20 26 20h30c15.333 0 21 -8.33301 17 -25l-8 -34c-4.66699 -20.667 -13.167 -36.667 -25.5 -48s-26.833 -17 -43.5 -17c-18 0 -34.333 4.66699 -49 14l-29 18c-10 6.66699 -18 10 -24 10z
M460.001 658.001l-79.001 -636c-2 -14.667 -9.66699 -22 -23 -22h-70c-10.667 0 -17.334 5.66699 -20.001 17l-83 324c-8 32.667 -13 57.667 -15 75l-49 -394c-2 -14.667 -9.66699 -22 -23 -22h-61c-14.667 0 -21 7.33301 -19 22l78 636c2 14.667 10 22 24 22h70
c10.667 0 17.334 -4.66699 20.001 -14l84 -328c6.66699 -26 11.334 -49 14.001 -69l48 389c2 14.667 10 22 24 22h61c14.667 0 21 -7.33301 19 -22z" />
    <glyph glyph-name="Ograve" unicode="&#xd2;" horiz-adv-x="450" 
d="M227 747l-38.999 109c-5.33301 14.667 -0.333008 22 15 22h72c14 0 22.667 -7.33301 26 -22l19 -102c2.66699 -14 -3 -21 -17 -21h-53c-12.667 0 -20.334 4.66699 -23.001 14zM25.001 139l50.001 404c11.333 96.667 75 145 191 145c57.333 0 100.166 -12 128.499 -36
s42.5 -54.333 42.5 -91c0 -6 -0.333008 -12.667 -1 -20l-50 -404c-11.333 -96.667 -75.333 -145 -192 -145c-57.333 0 -100 11.667 -128 35s-42 53.333 -42 90c0 8.66699 0.333008 16 1 22zM270.002 140l50 393c0.666992 6.66699 1 12 1 16c0 28.667 -20.333 43 -61 43
c-42.667 0 -66 -17.333 -70 -52l-48 -393c-0.666992 -5.33301 -1 -10.333 -1 -15c0 -29.333 20 -44 60 -44c42 0 65 17.333 69 52z" />
    <glyph glyph-name="Oacute" unicode="&#xd3;" horiz-adv-x="450" 
d="M392 856l-65.001 -109c-5.33301 -9.33301 -14.666 -14 -27.999 -14h-55c-12.667 0 -16 7 -10 21l44 102c6 14.667 16.333 22 31 22h73c16 0 19.333 -7.33301 10 -22zM24.999 139l50.001 404c11.333 96.667 75 145 191 145c57.333 0 100.166 -12 128.499 -36
s42.5 -54.333 42.5 -91c0 -6 -0.333008 -12.667 -1 -20l-50 -404c-11.333 -96.667 -75.333 -145 -192 -145c-57.333 0 -100 11.667 -128 35s-42 53.333 -42 90c0 8.66699 0.333008 16 1 22zM270 140l50 393c0.666992 6.66699 1 12 1 16c0 28.667 -20.333 43 -61 43
c-42.667 0 -66 -17.333 -70 -52l-48 -393c-0.666992 -5.33301 -1 -10.333 -1 -15c0 -29.333 20 -44 60 -44c42 0 65 17.333 69 52z" />
    <glyph glyph-name="Ocircumflex" unicode="&#xd4;" horiz-adv-x="450" 
d="M288 809l-28 -55c-6.66699 -14 -16.667 -21 -30 -21h-48c-15.333 0 -18.333 7 -9 21l73 107c8 11.333 18.667 17 32 17h37c13.333 0 22.333 -5.33301 27 -16l48 -108c6 -14 1 -21 -15 -21h-47c-12.667 0 -21 7 -25 21zM25 139l50.001 404c11.333 96.667 75 145 191 145
c57.333 0 100.166 -12 128.499 -36s42.5 -54.333 42.5 -91c0 -6 -0.333008 -12.667 -1 -20l-50 -404c-11.333 -96.667 -75.333 -145 -192 -145c-57.333 0 -100 11.667 -128 35s-42 53.333 -42 90c0 8.66699 0.333008 16 1 22zM270.001 140l50 393
c0.666992 6.66699 1 12 1 16c0 28.667 -20.333 43 -61 43c-42.667 0 -66 -17.333 -70 -52l-48 -393c-0.666992 -5.33301 -1 -10.333 -1 -15c0 -29.333 20 -44 60 -44c42 0 65 17.333 69 52z" />
    <glyph glyph-name="Otilde" unicode="&#xd5;" horiz-adv-x="450" 
d="M242 784c-7.33301 0 -12 -5.33203 -14 -15.999l-2 -10c-2.66699 -12.667 -11.334 -19 -26.001 -19h-30c-14 0 -19.333 8.33301 -16 25l8 36c4.66699 20 13.5 35.667 26.5 47s28.5 17 46.5 17c16.667 0 31.334 -4.33301 44.001 -13l28 -18c12 -8 20.333 -12 25 -12
c4 0 6.66699 1.16699 8 3.5s3.33301 7.16602 6 14.499l2 7c3.33301 13.333 12 20 26 20h30c15.333 0 21 -8.33301 17 -25l-8 -34c-4.66699 -20.667 -13.167 -36.667 -25.5 -48s-26.833 -17 -43.5 -17c-18 0 -34.333 4.66699 -49 14l-29 18c-10 6.66699 -18 10 -24 10z
M25 139.001l50.001 404c11.333 96.667 75 145 191 145c57.333 0 100.166 -12 128.499 -36s42.5 -54.333 42.5 -91c0 -6 -0.333008 -12.667 -1 -20l-50 -404c-11.333 -96.667 -75.333 -145 -192 -145c-57.333 0 -100 11.667 -128 35s-42 53.333 -42 90
c0 8.66699 0.333008 16 1 22zM270.001 140.001l50 393c0.666992 6.66699 1 12 1 16c0 28.667 -20.333 43 -61 43c-42.667 0 -66 -17.333 -70 -52l-48 -393c-0.666992 -5.33301 -1 -10.333 -1 -15c0 -29.333 20 -44 60 -44c42 0 65 17.333 69 52z" />
    <glyph glyph-name="Odieresis" unicode="&#xd6;" horiz-adv-x="450" 
d="M392 852l-12 -95c-2 -14 -9.33301 -21 -22 -21h-43c-14 0 -20 7 -18 21l11 95c2 14.667 10 22 24 22h42c14 0 20 -7.33301 18 -22zM279 852l-11 -95c-2 -14 -10 -21 -24 -21h-42c-14 0 -20 7 -18 21l11 95c2 14.667 10 22 24 22h42c14 0 20 -7.33301 18 -22zM25 139
l50.001 404c11.333 96.667 75 145 191 145c57.333 0 100.166 -12 128.499 -36s42.5 -54.333 42.5 -91c0 -6 -0.333008 -12.667 -1 -20l-50 -404c-11.333 -96.667 -75.333 -145 -192 -145c-57.333 0 -100 11.667 -128 35s-42 53.333 -42 90c0 8.66699 0.333008 16 1 22z
M270.001 140l50 393c0.666992 6.66699 1 12 1 16c0 28.667 -20.333 43 -61 43c-42.667 0 -66 -17.333 -70 -52l-48 -393c-0.666992 -5.33301 -1 -10.333 -1 -15c0 -29.333 20 -44 60 -44c42 0 65 17.333 69 52z" />
    <glyph glyph-name="multiply" unicode="&#xd7;" horiz-adv-x="383" 
d="M131 340l-79.001 78c-12 10.667 -12.667 21 -2 31l36 35c10.667 10.667 21.334 10.667 32.001 0l78 -79l80 79c10.667 10.667 21 11 31 1l35 -36c10.667 -10.667 10.667 -20.667 0 -30l-80 -79l79 -79c10 -10 10 -20.333 0 -31l-35 -36
c-9.33301 -10 -19.333 -9.66699 -30 1l-79 79l-79 -78c-10.667 -10.667 -21 -11.334 -31 -2.00098l-35 36c-10.667 10.667 -10.667 21.334 0 32.001z" />
    <glyph glyph-name="Oslash" unicode="&#xd8;" horiz-adv-x="450" 
d="M187 543l-39.001 -307l165 346c-9.33301 8.66699 -26.666 13 -51.999 13c-45.333 0 -70 -17.333 -74 -52zM199.999 85c45.333 0 70.001 17.333 74.001 52l37 293l-160 -334c11.333 -7.33301 27.666 -11 48.999 -11zM97 -18c-6 -12 -13.999 -17.999 -23.999 -17.999h-40
c-10.667 0 -13 6 -7 18l27 57c-20 20.667 -30 47 -30 79c0 4.66699 0.666992 11.667 2 21l50 404c11.333 96.667 75 145 191 145c36.667 0 67 -5 91 -15l12 25c6 11.333 13.667 17 23 17h41c10 0 12.333 -5.66699 7 -17l-29 -62c17.333 -20 26 -45 26 -75
c0 -6.66699 -0.333008 -13.334 -1 -20.001l-50 -404c-11.333 -96.667 -75.333 -145 -192 -145c-32.667 0 -61.334 4.33301 -86.001 13z" />
    <glyph glyph-name="Ugrave" unicode="&#xd9;" horiz-adv-x="460" 
d="M233 747l-38.999 109c-5.33301 14.667 -0.333008 22 15 22h72c14 0 22.667 -7.33301 26 -22l19 -102c2.66699 -14 -3 -21 -17 -21h-53c-12.667 0 -20.334 4.66699 -23.001 14zM210.001 657l-63 -506.001c-0.666992 -5.33301 -1 -11.666 -1 -18.999
c0 -29.333 20 -44 60 -44c42.667 0 66 17.333 70 52l64 517c2 15.333 10 23 24 23h74c14 0 20 -7.66699 18 -23l-65 -520c-11.333 -96.667 -75 -145 -191 -145c-56.667 0 -99.167 11.667 -127.5 35s-42.5 53.333 -42.5 90c0 8 0.333008 16 1 24l63 516c2 15.333 10 23 24 23
h74c14 0 20 -7.66699 18 -23z" />
    <glyph glyph-name="Uacute" unicode="&#xda;" horiz-adv-x="460" 
d="M400 856l-65.001 -109c-5.33301 -9.33301 -14.666 -14 -27.999 -14h-55c-12.667 0 -16 7 -10 21l44 102c6 14.667 16.333 22 31 22h73c16 0 19.333 -7.33301 10 -22zM209.999 657l-63 -506.001c-0.666992 -5.33301 -1 -11.666 -1 -18.999c0 -29.333 20 -44 60 -44
c42.667 0 66 17.333 70 52l64 517c2 15.333 10 23 24 23h74c14 0 20 -7.66699 18 -23l-65 -520c-11.333 -96.667 -75 -145 -191 -145c-56.667 0 -99.167 11.667 -127.5 35s-42.5 53.333 -42.5 90c0 8 0.333008 16 1 24l63 516c2 15.333 10 23 24 23h74
c14 0 20 -7.66699 18 -23z" />
    <glyph glyph-name="Ucircumflex" unicode="&#xdb;" horiz-adv-x="460" 
d="M291 809l-28 -55c-7.33301 -14 -17.333 -21 -30 -21h-48c-15.333 0 -18.333 7 -9 21l73 107c8 11.333 18.667 17 32 17h37c13.333 0 22.333 -5.33301 27 -16l48 -108c6 -14 1 -21 -15 -21h-47c-12.667 0 -21 7 -25 21zM210 657l-63 -506.001
c-0.666992 -5.33301 -1 -11.666 -1 -18.999c0 -29.333 20 -44 60 -44c42.667 0 66 17.333 70 52l64 517c2 15.333 10 23 24 23h74c14 0 20 -7.66699 18 -23l-65 -520c-11.333 -96.667 -75 -145 -191 -145c-56.667 0 -99.167 11.667 -127.5 35s-42.5 53.333 -42.5 90
c0 8 0.333008 16 1 24l63 516c2 15.333 10 23 24 23h74c14 0 20 -7.66699 18 -23z" />
    <glyph glyph-name="Udieresis" unicode="&#xdc;" horiz-adv-x="460" 
d="M396 852l-12 -95c-2 -14 -9.33301 -21 -22 -21h-43c-14 0 -20 7 -18 21l11 95c2 14.667 10 22 24 22h42c14 0 20 -7.33301 18 -22zM283 852l-11 -95c-2 -14 -10 -21 -24 -21h-42c-14 0 -20 7 -18 21l11 95c2 14.667 10 22 24 22h42c14 0 20 -7.33301 18 -22zM210 657
l-63 -506.001c-0.666992 -5.33301 -1 -11.666 -1 -18.999c0 -29.333 20 -44 60 -44c42.667 0 66 17.333 70 52l64 517c2 15.333 10 23 24 23h74c14 0 20 -7.66699 18 -23l-65 -520c-11.333 -96.667 -75 -145 -191 -145c-56.667 0 -99.167 11.667 -127.5 35
s-42.5 53.333 -42.5 90c0 8 0.333008 16 1 24l63 516c2 15.333 10 23 24 23h74c14 0 20 -7.66699 18 -23z" />
    <glyph glyph-name="Yacute" unicode="&#xdd;" horiz-adv-x="402" 
d="M377 856l-65.001 -109c-5.33301 -9.33301 -14.666 -14 -27.999 -14h-55c-12.667 0 -16 7 -10 21l44 102c6 14.667 16.333 22 31 22h73c16 0 19.333 -7.33301 10 -22zM173.999 658l34.999 -216c2 -13.333 3.66699 -29.333 5 -48c7.33301 23.333 13 39.333 17 48l96 216
c6.66699 14.667 15.667 22 27 22h69c16.667 0 21.667 -7.33301 15 -22l-182 -393l-30 -243c-2 -14.667 -10 -22 -24 -22h-72c-15.333 -0 -22 7.33301 -20 22l28 229l-84 407c-3.33301 14.667 3.33398 22 20.001 22h77c13.333 0 21 -7.33301 23 -22z" />
    <glyph glyph-name="Thorn" unicode="&#xde;" horiz-adv-x="433" 
d="M212 657l-20 -159.999h48c58 0 101.333 -11.833 130 -35.5s43 -53.834 43 -90.501c0 -6 -0.333008 -12.667 -1 -20l-14 -115c-11.333 -96.667 -76.333 -145 -195 -145h-60l-9 -68c-2 -15.333 -9.66699 -23 -23 -23h-74c-14.667 0 -21 7.66699 -19 23l78 634
c2 15.333 10 23 24 23h74c14 0 20 -7.66699 18 -23zM234 400.001h-53l-26 -213h55c44 0 68 17 72 51l14 108c0.666992 5.33301 1 9.33301 1 12c0 28 -21 42 -63 42z" />
    <glyph glyph-name="germandbls" unicode="&#xdf;" horiz-adv-x="488" 
d="M213 568l-67.9941 -544.997c-2 -15.333 -9.66699 -23 -23 -23h-69c-14 0 -20 7.66699 -18 23l47 382h-36c-14.667 0 -21 7.33301 -19 22l6 43c1.33301 12 9.33301 19 24 21l34 5h2l10 75c11.333 87.333 73.333 131 186 131c52.667 0 92.667 -10 120 -30
s41 -47.333 41 -82c0 -5.33301 -0.333008 -12 -1 -20l-8 -66c-4 -28 -20.333 -50.667 -49 -68l-55 -33c-14 -8.66699 -21.333 -18 -22 -28l-1 -12c0 -2 0.166992 -4 0.5 -6s0.833008 -3.66699 1.5 -5s2 -3 4 -5s3.5 -3.33301 4.5 -4l6 -4c3 -2 5.16699 -3.33301 6.5 -4
l66 -44c35.333 -24 53 -50.667 53 -80c0 -4 -0.333008 -10 -1 -18l-9 -81c-4.66699 -38.667 -17.334 -68.334 -38.001 -89.001s-54.334 -31 -101.001 -31c-81.333 0 -122 30 -122 90c0 8 0.333008 15.333 1 22l4 30c1.33301 8 3.66602 13.5 6.99902 16.5s9.33301 4.5 18 4.5
h45c14.667 0 21 -7 19 -21l-5 -33c-0.666992 -4.66699 -1 -8.33398 -1 -11.001c0 -16.667 11 -25 33 -25c21.333 0 33.666 11 36.999 33l9 72c0.666992 6 1 10.667 1 14c0 13.333 -9 25.333 -27 36l-62 38c-12.667 7.33301 -23.667 18 -33 32s-14 28.333 -14 43
c0 7.33301 0.333008 15 1 23l3 26c1.33301 11.333 4.5 21.333 9.5 30s10 15.167 15 19.5s12.5 9.83301 22.5 16.5l41 29c17.333 12 26.666 25 27.999 39l6 47c0.666992 7.33301 1 12.666 1 15.999c0 27.333 -20 41 -60 41c-42.667 0 -66.334 -17.333 -71.001 -52z" />
    <glyph glyph-name="agrave" unicode="&#xe0;" horiz-adv-x="409" 
d="M184 577l-38.999 109c-5.33301 14.667 0 22 16 22h72c13.333 0 21.666 -7.33301 24.999 -22l19 -102c2.66699 -14 -2.33301 -21 -15 -21h-54c-13.333 0 -21.333 4.66699 -24 14zM161.001 370l-29 -238c-0.666992 -6 -1 -10.667 -1 -14c0 -18 11 -27 33 -27
c23.333 0 46 10 68 30l32 256c-18 20 -39.667 30 -65 30c-22 0 -34.667 -12.333 -38 -37zM226.001 37c-38.667 -30 -76.668 -44.999 -114.001 -44.999c-30.667 0 -54.667 8 -72 24s-26 37.667 -26 65c0 7.33301 0.666992 16.333 2 27l35 290
c4 33.333 15.667 59.666 35 78.999s45.666 29 78.999 29c42.667 0 79.334 -14.333 110.001 -43l4 15c2 7.33301 4.5 12.5 7.5 15.5s8.16699 4.5 15.5 4.5h68c14.667 0 21 -7.66699 19 -23l-56 -453c-2 -14.667 -10 -22 -24 -22h-65c-13.333 -0 -19.666 7.33301 -18.999 22z
" />
    <glyph glyph-name="aacute" unicode="&#xe1;" horiz-adv-x="409" 
d="M345 686l-65 -109c-5.33301 -9.33301 -14.666 -14 -27.999 -14h-55c-12.667 0 -16 7 -10 21l44 102c6 14.667 16 22 30 22h74c15.333 0 18.666 -7.33301 9.99902 -22zM161 370l-29 -238c-0.666992 -6 -1 -10.667 -1 -14c0 -18 11 -27 33 -27c23.333 0 46 10 68 30l32 256
c-18 20 -39.667 30 -65 30c-22 0 -34.667 -12.333 -38 -37zM226 37c-38.667 -30 -76.668 -44.999 -114.001 -44.999c-30.667 0 -54.667 8 -72 24s-26 37.667 -26 65c0 7.33301 0.666992 16.333 2 27l35 290c4 33.333 15.667 59.666 35 78.999s45.666 29 78.999 29
c42.667 0 79.334 -14.333 110.001 -43l4 15c2 7.33301 4.5 12.5 7.5 15.5s8.16699 4.5 15.5 4.5h68c14.667 0 21 -7.66699 19 -23l-56 -453c-2 -14.667 -10 -22 -24 -22h-65c-13.333 -0 -19.666 7.33301 -18.999 22z" />
    <glyph glyph-name="acircumflex" unicode="&#xe2;" horiz-adv-x="409" 
d="M239 639l-28 -55c-7.33301 -14 -17 -21 -29 -21h-49c-15.333 0 -18.333 7 -9 21l73 107c8 11.333 18.667 17 32 17h37c14 0 23.333 -5.33301 28 -16l47 -108c6 -14 1 -21 -15 -21h-47c-12.667 0 -21 7 -25 21zM161 370l-29 -238c-0.666992 -6 -1 -10.667 -1 -14
c0 -18 11 -27 33 -27c23.333 0 46 10 68 30l32 256c-18 20 -39.667 30 -65 30c-22 0 -34.667 -12.333 -38 -37zM226 37c-38.667 -30 -76.668 -44.999 -114.001 -44.999c-30.667 0 -54.667 8 -72 24s-26 37.667 -26 65c0 7.33301 0.666992 16.333 2 27l35 290
c4 33.333 15.667 59.666 35 78.999s45.666 29 78.999 29c42.667 0 79.334 -14.333 110.001 -43l4 15c2 7.33301 4.5 12.5 7.5 15.5s8.16699 4.5 15.5 4.5h68c14.667 0 21 -7.66699 19 -23l-56 -453c-2 -14.667 -10 -22 -24 -22h-65c-13.333 -0 -19.666 7.33301 -18.999 22z
" />
    <glyph glyph-name="atilde" unicode="&#xe3;" horiz-adv-x="409" 
d="M194 606c-7.33301 0 -12.002 -5.33301 -14.002 -16l-2 -10c-2.66699 -12.667 -11.334 -19 -26.001 -19h-30c-14.667 0 -20 8.66699 -16 26l8 35c4.66699 20.667 13.5 36.667 26.5 48s28.5 17 46.5 17c15.333 0 30 -4.66699 44 -14l28 -19c10 -7.33301 18.333 -11 25 -11
s11.334 5.66699 14.001 17l2 9c2.66699 12.667 11.334 19 26.001 19h30c14 0 19.333 -8.33301 16 -25l-7 -34c-4.66699 -20.667 -13.167 -36.667 -25.5 -48s-27.166 -17 -44.499 -17c-19.333 0 -35.333 4.33301 -48 13l-29 18c-12 7.33301 -20 11 -24 11zM160.998 370
l-29 -238c-0.666992 -6 -1 -10.667 -1 -14c0 -18 11 -27 33 -27c23.333 0 46 10 68 30l32 256c-18 20 -39.667 30 -65 30c-22 0 -34.667 -12.333 -38 -37zM225.998 37c-38.667 -30 -76.668 -44.999 -114.001 -44.999c-30.667 0 -54.667 8 -72 24s-26 37.667 -26 65
c0 7.33301 0.666992 16.333 2 27l35 290c4 33.333 15.667 59.666 35 78.999s45.666 29 78.999 29c42.667 0 79.334 -14.333 110.001 -43l4 15c2 7.33301 4.5 12.5 7.5 15.5s8.16699 4.5 15.5 4.5h68c14.667 0 21 -7.66699 19 -23l-56 -453c-2 -14.667 -10 -22 -24 -22h-65
c-13.333 -0 -19.666 7.33301 -18.999 22z" />
    <glyph glyph-name="adieresis" unicode="&#xe4;" horiz-adv-x="409" 
d="M345 683l-12 -94c-2 -14.667 -10 -22 -24 -22h-41c-14.667 0 -21 7.33301 -19 22l11 94c2 14.667 10.333 22 25 22h42c14 0 20 -7.33301 18 -22zM232 683l-12 -94c-2 -14.667 -10 -22 -24 -22h-42c-14 0 -20 7.33301 -18 22l12 94c2 14.667 10 22 24 22h42
c14 0 20 -7.33301 18 -22zM161 370l-29 -238c-0.666992 -6 -1 -10.667 -1 -14c0 -18 11 -27 33 -27c23.333 0 46 10 68 30l32 256c-18 20 -39.667 30 -65 30c-22 0 -34.667 -12.333 -38 -37zM226 37c-38.667 -30 -76.668 -44.999 -114.001 -44.999
c-30.667 0 -54.667 8 -72 24s-26 37.667 -26 65c0 7.33301 0.666992 16.333 2 27l35 290c4 33.333 15.667 59.666 35 78.999s45.666 29 78.999 29c42.667 0 79.334 -14.333 110.001 -43l4 15c2 7.33301 4.5 12.5 7.5 15.5s8.16699 4.5 15.5 4.5h68
c14.667 0 21 -7.66699 19 -23l-56 -453c-2 -14.667 -10 -22 -24 -22h-65c-13.333 -0 -19.666 7.33301 -18.999 22z" />
    <glyph glyph-name="aring" unicode="&#xe5;" horiz-adv-x="409" 
d="M328 656l-5.00098 -45c-2 -18.667 -10.333 -34 -25 -46s-35.667 -18 -63 -18c-24.667 0 -44.667 5.33301 -60 16s-23 24.334 -23 41.001c0 3.33301 0.333008 8 1 14l6 44c6 43.333 35.667 65 89 65c24.667 0 44.334 -5.33301 59.001 -16s22 -24.334 22 -41.001
c0 -4 -0.333008 -8.66699 -1 -14zM263.999 619l3 27.001c0.666992 5.33301 1 10.333 1 15c0 11.333 -8 17 -24 17c-15.333 0 -24 -8 -26 -24l-4 -30c-0.666992 -4.66699 -1 -8.33398 -1 -11.001c0 -12 8 -18 24 -18s25 8 27 24zM160.999 370.001l-29 -238
c-0.666992 -6 -1 -10.667 -1 -14c0 -18 11 -27 33 -27c23.333 0 46 10 68 30l32 256c-18 20 -39.667 30 -65 30c-22 0 -34.667 -12.333 -38 -37zM225.999 37.001c-38.667 -30 -76.668 -44.999 -114.001 -44.999c-30.667 0 -54.667 8 -72 24s-26 37.667 -26 65
c0 7.33301 0.666992 16.333 2 27l35 290c4 33.333 15.667 59.666 35 78.999s45.666 29 78.999 29c42.667 0 79.334 -14.333 110.001 -43l4 15c2 7.33301 4.5 12.5 7.5 15.5s8.16699 4.5 15.5 4.5h68c14.667 0 21 -7.66699 19 -23l-56 -453c-2 -14.667 -10 -22 -24 -22h-65
c-13.333 0 -19.666 7.33301 -18.999 22z" />
    <glyph glyph-name="ae" unicode="&#xe6;" horiz-adv-x="580" 
d="M555 363l-13.9971 -119.001c-2 -13.333 -9.33301 -20 -22 -20h-184l-12 -103c-0.666992 -4.66699 -1 -8.66699 -1 -12c0 -20.667 15 -31 45 -31c30.667 0 48 12.667 52 38l5 32c1.33301 8 3.66602 13.667 6.99902 17s9 5 17 5h59c13.333 0 19.666 -7.33301 18.999 -22
l-2 -22c-4 -44 -18.167 -77.333 -42.5 -100s-64.5 -34 -120.5 -34c-68.667 0 -113 17.333 -133 52c-40.667 -34.667 -81 -52 -121 -52c-30.667 0 -55.5 7.83301 -74.5 23.5s-28.5 35.834 -28.5 60.501c0 8 0.333008 15 1 21l10 84c4 30.667 16.667 55.667 38 75s52 29 92 29
h87l11 90c0.666992 6.66699 1 12 1 16c0 20 -13.333 30 -40 30c-28.667 0 -44.334 -12.333 -47.001 -37l-4 -33c-0.666992 -8 -2.83398 -13.5 -6.50098 -16.5s-9.83398 -4.5 -18.501 -4.5h-62c-8 0 -13.167 1.5 -15.5 4.5s-3.16602 8.5 -2.49902 16.5l3 29
c4 41.333 18.167 72.666 42.5 93.999s63.166 32 116.499 32c46.667 0 80.334 -11.333 101.001 -34c26 22.667 61 34 105 34c46.667 0 81.834 -9.83301 105.501 -29.5s35.5 -47.167 35.5 -82.5c0 -9.33301 -0.666992 -19.666 -2 -30.999zM355.003 379.999l-10.001 -77h98
l8 70c0.666992 7.33301 1 12 1 14c0 21.333 -15 32 -45 32c-31.333 0 -48.666 -13 -51.999 -39zM149.002 83.999c20.667 0 41.667 9.66699 63 29l10 90h-59c-23.333 0 -36.333 -11.333 -39 -34l-6 -48c-0.666992 -5.33301 -1 -9.33301 -1 -12c0 -16.667 10.667 -25 32 -25z
" />
    <glyph glyph-name="ccedilla" unicode="&#xe7;" horiz-adv-x="376" 
d="M252 -116c0 -31.333 -9.16797 -54.999 -27.501 -70.999s-41.166 -24 -68.499 -24h-78c-13.333 0 -19.666 7.33301 -18.999 22l1 18c0.666992 14 9 21 25 21h63c18 0 27 8.33301 27 25c0 12.667 -7.33301 19 -22 19h-45c-12 0 -19.667 2.33301 -23 7s-3 12 1 22l26 74
c-64 12.667 -96 48.667 -96 108c0 7.33301 0.333008 14.666 1 21.999l30 250c4.66699 41.333 19.834 73.166 45.501 95.499s66.5 33.5 122.5 33.5c48 0 84.667 -10.5 110 -31.5s38 -47.833 38 -80.5c0 -5.33301 -0.333008 -11.333 -1 -18l-4 -30c-2 -14 -10 -21 -24 -21h-65
c-14.667 0 -21 7 -19 21l3 26c0.666992 6.66699 1 11.334 1 14.001c0 19.333 -14.667 29 -44 29c-30.667 0 -47.334 -13 -50.001 -39l-30 -244c-1.33301 -9.33301 -2 -15.666 -2 -18.999c0 -20.667 14.667 -31 44 -31c30.667 0 47.667 13.333 51 40l4 39
c2 14.667 10.333 22 25 22h64c14.667 0 21 -7.33301 19 -22l-4 -34c-4.66699 -41.333 -18.334 -73.5 -41.001 -96.5s-58.667 -35.833 -108 -38.5l-14 -39h11c22 0 39.667 -5.83301 53 -17.5s20 -28.834 20 -51.501z" />
    <glyph glyph-name="egrave" unicode="&#xe8;" horiz-adv-x="383" 
d="M176 577l-38.999 109c-5.33301 14.667 0 22 16 22h72c13.333 0 21.666 -7.33301 24.999 -22l19 -102c2.66699 -14 -2.33301 -21 -15 -21h-54c-13.333 0 -21.333 4.66699 -24 14zM358.001 372l-13.998 -127.999c-2 -13.333 -9.33301 -20 -22 -20h-183l-13 -98
c-0.666992 -5.33301 -1 -11 -1 -17c0 -20.667 15 -31 45 -31c31.333 0 48.666 12.667 51.999 38l4 32c2 14.667 10.333 22 25 22h59c13.333 0 19.666 -7.33301 18.999 -22l-2 -21c-4 -44.667 -18.167 -78.334 -42.5 -101.001s-64.5 -34 -120.5 -34
c-49.333 0 -86.333 10 -111 30s-37 47.667 -37 83c0 8 0.333008 15.333 1 22l29 244c5.33301 44 20.833 77.5 46.5 100.5s66.167 34.5 121.5 34.5c48.667 0 85 -10 109 -30s36 -47.667 36 -83c0 -6 -0.333008 -13 -1 -21zM158.003 380.001l-10 -77h97l10 71
c0.666992 6 1 10.667 1 14c0 20.667 -15.667 31 -47 31c-30.667 0 -47.667 -13 -51 -39z" />
    <glyph glyph-name="eacute" unicode="&#xe9;" horiz-adv-x="383" 
d="M339 686l-65 -109c-5.33301 -9.33301 -14.666 -14 -27.999 -14h-55c-12.667 0 -16 7 -10 21l44 102c6 14.667 16 22 30 22h74c15.333 0 18.666 -7.33301 9.99902 -22zM358 372l-13.998 -127.999c-2 -13.333 -9.33301 -20 -22 -20h-183l-13 -98
c-0.666992 -5.33301 -1 -11 -1 -17c0 -20.667 15 -31 45 -31c31.333 0 48.666 12.667 51.999 38l4 32c2 14.667 10.333 22 25 22h59c13.333 0 19.666 -7.33301 18.999 -22l-2 -21c-4 -44.667 -18.167 -78.334 -42.5 -101.001s-64.5 -34 -120.5 -34
c-49.333 0 -86.333 10 -111 30s-37 47.667 -37 83c0 8 0.333008 15.333 1 22l29 244c5.33301 44 20.833 77.5 46.5 100.5s66.167 34.5 121.5 34.5c48.667 0 85 -10 109 -30s36 -47.667 36 -83c0 -6 -0.333008 -13 -1 -21zM158.002 380.001l-10 -77h97l10 71
c0.666992 6 1 10.667 1 14c0 20.667 -15.667 31 -47 31c-30.667 0 -47.667 -13 -51 -39z" />
    <glyph glyph-name="ecircumflex" unicode="&#xea;" horiz-adv-x="383" 
d="M233 639l-28 -55c-7.33301 -14 -17 -21 -29 -21h-49c-15.333 0 -18.333 7 -9 21l73 107c8 11.333 18.667 17 32 17h37c14 0 23.333 -5.33301 28 -16l47 -108c6 -14 1 -21 -15 -21h-47c-12.667 0 -21 7 -25 21zM358 372l-13.998 -127.999c-2 -13.333 -9.33301 -20 -22 -20
h-183l-13 -98c-0.666992 -5.33301 -1 -11 -1 -17c0 -20.667 15 -31 45 -31c31.333 0 48.666 12.667 51.999 38l4 32c2 14.667 10.333 22 25 22h59c13.333 0 19.666 -7.33301 18.999 -22l-2 -21c-4 -44.667 -18.167 -78.334 -42.5 -101.001s-64.5 -34 -120.5 -34
c-49.333 0 -86.333 10 -111 30s-37 47.667 -37 83c0 8 0.333008 15.333 1 22l29 244c5.33301 44 20.833 77.5 46.5 100.5s66.167 34.5 121.5 34.5c48.667 0 85 -10 109 -30s36 -47.667 36 -83c0 -6 -0.333008 -13 -1 -21zM158.002 380.001l-10 -77h97l10 71
c0.666992 6 1 10.667 1 14c0 20.667 -15.667 31 -47 31c-30.667 0 -47.667 -13 -51 -39z" />
    <glyph glyph-name="edieresis" unicode="&#xeb;" horiz-adv-x="383" 
d="M336 683l-12 -94c-2 -14.667 -10 -22 -24 -22h-41c-14.667 0 -21 7.33301 -19 22l11 94c2 14.667 10.333 22 25 22h42c14 0 20 -7.33301 18 -22zM223 683l-12 -94c-2 -14.667 -10 -22 -24 -22h-42c-14 0 -20 7.33301 -18 22l12 94c2 14.667 10 22 24 22h42
c14 0 20 -7.33301 18 -22zM358 372l-13.998 -127.999c-2 -13.333 -9.33301 -20 -22 -20h-183l-13 -98c-0.666992 -5.33301 -1 -11 -1 -17c0 -20.667 15 -31 45 -31c31.333 0 48.666 12.667 51.999 38l4 32c2 14.667 10.333 22 25 22h59c13.333 0 19.666 -7.33301 18.999 -22
l-2 -21c-4 -44.667 -18.167 -78.334 -42.5 -101.001s-64.5 -34 -120.5 -34c-49.333 0 -86.333 10 -111 30s-37 47.667 -37 83c0 8 0.333008 15.333 1 22l29 244c5.33301 44 20.833 77.5 46.5 100.5s66.167 34.5 121.5 34.5c48.667 0 85 -10 109 -30s36 -47.667 36 -83
c0 -6 -0.333008 -13 -1 -21zM158.002 380.001l-10 -77h97l10 71c0.666992 6 1 10.667 1 14c0 20.667 -15.667 31 -47 31c-30.667 0 -47.667 -13 -51 -39z" />
    <glyph glyph-name="igrave" unicode="&#xec;" horiz-adv-x="198" 
d="M78 577l-38.999 109c-5.33301 14.667 0 22 16 22h72c13.333 0 21.666 -7.33301 24.999 -22l19 -102c2.66699 -14 -2.33301 -21 -15 -21h-54c-13.333 0 -21.333 4.66699 -24 14zM177.001 475l-55 -452c-2 -15.333 -10 -23 -24 -23h-70c-14.667 0 -21 7.66699 -19 23
l56 452c2 15.333 10 23 24 23h70c14 0 20 -7.66699 18 -23z" />
    <glyph glyph-name="iacute" unicode="&#xed;" horiz-adv-x="197" 
d="M249 686l-65 -109c-5.33301 -9.33301 -14.666 -14 -27.999 -14h-55c-12.667 0 -16 7 -10 21l44 102c6 14.667 16 22 30 22h74c15.333 0 18.666 -7.33301 9.99902 -22zM177 475l-55 -452c-2 -15.333 -10 -23 -24 -23h-70c-14.667 0 -21 7.66699 -19 23l56 452
c2 15.333 10 23 24 23h70c14 0 20 -7.66699 18 -23z" />
    <glyph glyph-name="icircumflex" unicode="&#xee;" horiz-adv-x="198" 
d="M141 639l-28 -55c-7.33301 -14 -17 -21 -29 -21h-49c-15.333 0 -18.333 7 -9 21l73 107c8 11.333 18.667 17 32 17h37c14 0 23.333 -5.33301 28 -16l47 -108c6 -14 1 -21 -15 -21h-47c-12.667 0 -21 7 -25 21zM177 475l-55 -452c-2 -15.333 -10 -23 -24 -23h-70
c-14.667 0 -21 7.66699 -19 23l56 452c2 15.333 10 23 24 23h70c14 0 20 -7.66699 18 -23z" />
    <glyph glyph-name="idieresis" unicode="&#xef;" horiz-adv-x="198" 
d="M247 683l-12 -94c-2 -14.667 -10 -22 -24 -22h-41c-14.667 0 -21 7.33301 -19 22l11 94c2 14.667 10.333 22 25 22h42c14 0 20 -7.33301 18 -22zM134 683l-12 -94c-2 -14.667 -10 -22 -24 -22h-42c-14 0 -20 7.33301 -18 22l12 94c2 14.667 10 22 24 22h42
c14 0 20 -7.33301 18 -22zM177 475l-55 -452c-2 -15.333 -10 -23 -24 -23h-70c-14.667 0 -21 7.66699 -19 23l56 452c2 15.333 10 23 24 23h70c14 0 20 -7.66699 18 -23z" />
    <glyph glyph-name="eth" unicode="&#xf0;" horiz-adv-x="404" 
d="M242 580l39.002 20.999c-6.66699 10.667 -20.334 16 -41.001 16h-59c-15.333 0 -22 7.33301 -20 22l4 35c2 14.667 10.667 22 26 22h60c60 0 102 -14.333 126 -43l30 16c12 6.66699 20.333 4.66699 25 -6l8 -18c5.33301 -10 1 -19 -13 -27l-30 -16
c2 -11.333 2 -24.666 0 -39.999l-54 -434c-5.33301 -44 -21.333 -77.667 -48 -101s-67.667 -35 -123 -35c-50 0 -88.5 10.333 -115.5 31s-40.5 48.667 -40.5 84c0 6.66699 0.333008 12.667 1 18l33 272c4 33.333 15.667 59.833 35 79.5s46 29.5 80 29.5
c44 0 81.667 -15.667 113 -47l10 84l-26 -14c-12 -6.66699 -20.333 -4.66699 -25 6l-8 18c-4.66699 10.667 -0.333984 19.667 12.999 27zM233.002 124.999l31 253c-19.333 19.333 -41 29 -65 29c-22.667 0 -35.667 -12.667 -39 -38l-30 -243
c-0.666992 -5.33301 -1 -9 -1 -11c0 -22 16 -33 48 -33c34 0 52.667 14.333 56 43z" />
    <glyph glyph-name="ntilde" unicode="&#xf1;" horiz-adv-x="412" 
d="M201 606c-7.33301 0 -12.0029 -5.33301 -14.0029 -16l-2 -10c-2.66699 -12.667 -11.334 -19 -26.001 -19h-30c-15.333 0 -20.666 8.66699 -15.999 26l8 35c4.66699 20.667 13.5 36.667 26.5 48s28.5 17 46.5 17c15.333 0 30 -4.66699 44 -14l28 -19
c10 -7.33301 18.333 -11 25 -11s11.334 5.66699 14.001 17l2 9c2.66699 12.667 11.334 19 26.001 19h30c14 0 19.333 -8.33301 16 -25l-7 -34c-4.66699 -20.667 -13.167 -36.667 -25.5 -48s-27.166 -17 -44.499 -17c-18.667 0 -34.667 4.33301 -48 13l-29 18
c-12 7.33301 -20 11 -24 11zM88.9971 498h65c8 0 13.167 -1.5 15.5 -4.5s3.5 -8.83301 3.5 -17.5v-15c35.333 30 73 45 113 45c30 0 54 -8.5 72 -25.5s27 -38.833 27 -65.5c0 -4 -0.333008 -9.33301 -1 -16l-46 -376c-2 -15.333 -10.333 -23 -25 -23h-69
c-14.667 0 -21 7.66699 -19 23l41 340c0.666992 7.33301 1 13 1 17c0 18 -10.667 27 -32 27c-22.667 0 -45.667 -9.66699 -69 -29l-43 -355c-2 -15.333 -10 -23 -24 -23h-71c-14.667 0 -21 7.66699 -19 23l56 453c2 14.667 10 22 24 22z" />
    <glyph glyph-name="ograve" unicode="&#xf2;" horiz-adv-x="401" 
d="M184 577l-38.999 109c-5.33301 14.667 0 22 16 22h72c13.333 0 21.666 -7.33301 24.999 -22l19 -102c2.66699 -14 -2.33301 -21 -15 -21h-54c-13.333 0 -21.333 4.66699 -24 14zM16.001 125l31 246.999c11.333 89.333 69.333 134 174 134
c49.333 0 87.5 -10.333 114.5 -31s40.5 -48.667 40.5 -84c0 -5.33301 -0.333008 -11.666 -1 -18.999l-31 -247c-11.333 -88.667 -69.333 -133 -174 -133c-49.333 0 -87.5 10.333 -114.5 31s-40.5 48.667 -40.5 84c0 6 0.333008 12 1 18zM231.001 123.999l30.001 246
c0.666992 6 1 10.333 1 13c0 21.333 -15.667 32 -47 32c-32.667 0 -51 -13.667 -55 -41l-31 -245c-0.666992 -6 -1 -10.333 -1 -13c0 -22.667 16 -34 48 -34c33.333 0 51.666 14 54.999 42z" />
    <glyph glyph-name="oacute" unicode="&#xf3;" horiz-adv-x="401" 
d="M347 686l-65 -109c-5.33301 -9.33301 -14.666 -14 -27.999 -14h-55c-12.667 0 -16 7 -10 21l44 102c6 14.667 16 22 30 22h74c15.333 0 18.666 -7.33301 9.99902 -22zM16 125l31 246.999c11.333 89.333 69.333 134 174 134c49.333 0 87.5 -10.333 114.5 -31
s40.5 -48.667 40.5 -84c0 -5.33301 -0.333008 -11.666 -1 -18.999l-31 -247c-11.333 -88.667 -69.333 -133 -174 -133c-49.333 0 -87.5 10.333 -114.5 31s-40.5 48.667 -40.5 84c0 6 0.333008 12 1 18zM231 123.999l30.001 246c0.666992 6 1 10.333 1 13
c0 21.333 -15.667 32 -47 32c-32.667 0 -51 -13.667 -55 -41l-31 -245c-0.666992 -6 -1 -10.333 -1 -13c0 -22.667 16 -34 48 -34c33.333 0 51.666 14 54.999 42z" />
    <glyph glyph-name="ocircumflex" unicode="&#xf4;" horiz-adv-x="401" 
d="M243 639l-28 -55c-7.33301 -14 -17 -21 -29 -21h-49c-15.333 0 -18.333 7 -9 21l73 107c8 11.333 18.667 17 32 17h37c14 0 23.333 -5.33301 28 -16l47 -108c6 -14 1 -21 -15 -21h-47c-12.667 0 -21 7 -25 21zM16 125l31 246.999c11.333 89.333 69.333 134 174 134
c49.333 0 87.5 -10.333 114.5 -31s40.5 -48.667 40.5 -84c0 -5.33301 -0.333008 -11.666 -1 -18.999l-31 -247c-11.333 -88.667 -69.333 -133 -174 -133c-49.333 0 -87.5 10.333 -114.5 31s-40.5 48.667 -40.5 84c0 6 0.333008 12 1 18zM231 123.999l30.001 246
c0.666992 6 1 10.333 1 13c0 21.333 -15.667 32 -47 32c-32.667 0 -51 -13.667 -55 -41l-31 -245c-0.666992 -6 -1 -10.333 -1 -13c0 -22.667 16 -34 48 -34c33.333 0 51.666 14 54.999 42z" />
    <glyph glyph-name="otilde" unicode="&#xf5;" horiz-adv-x="401" 
d="M191 606c-7.33301 0 -12.0029 -5.33301 -14.0029 -16l-2 -10c-2.66699 -12.667 -11.334 -19 -26.001 -19h-30c-15.333 0 -20.666 8.66699 -15.999 26l8 35c4.66699 20.667 13.5 36.667 26.5 48s28.5 17 46.5 17c15.333 0 30 -4.66699 44 -14l28 -19
c10 -7.33301 18.333 -11 25 -11s11.334 5.66699 14.001 17l2 9c2.66699 12.667 11.334 19 26.001 19h30c14 0 19.333 -8.33301 16 -25l-7 -34c-4.66699 -20.667 -13.167 -36.667 -25.5 -48s-27.166 -17 -44.499 -17c-18.667 0 -34.667 4.33301 -48 13l-29 18
c-12 7.33301 -20 11 -24 11zM15.9971 125l31 246.999c11.333 89.333 69.333 134 174 134c49.333 0 87.5 -10.333 114.5 -31s40.5 -48.667 40.5 -84c0 -5.33301 -0.333008 -11.666 -1 -18.999l-31 -247c-11.333 -88.667 -69.333 -133 -174 -133
c-49.333 0 -87.5 10.333 -114.5 31s-40.5 48.667 -40.5 84c0 6 0.333008 12 1 18zM230.997 123.999l30.001 246c0.666992 6 1 10.333 1 13c0 21.333 -15.667 32 -47 32c-32.667 0 -51 -13.667 -55 -41l-31 -245c-0.666992 -6 -1 -10.333 -1 -13c0 -22.667 16 -34 48 -34
c33.333 0 51.666 14 54.999 42z" />
    <glyph glyph-name="odieresis" unicode="&#xf6;" horiz-adv-x="401" 
d="M347 683l-12 -94c-2 -14.667 -10 -22 -24 -22h-41c-14.667 0 -21 7.33301 -19 22l11 94c2 14.667 10.333 22 25 22h42c14 0 20 -7.33301 18 -22zM234 683l-12 -94c-2 -14.667 -10 -22 -24 -22h-42c-14 0 -20 7.33301 -18 22l12 94c2 14.667 10 22 24 22h42
c14 0 20 -7.33301 18 -22zM16 125l31 246.999c11.333 89.333 69.333 134 174 134c49.333 0 87.5 -10.333 114.5 -31s40.5 -48.667 40.5 -84c0 -5.33301 -0.333008 -11.666 -1 -18.999l-31 -247c-11.333 -88.667 -69.333 -133 -174 -133c-49.333 0 -87.5 10.333 -114.5 31
s-40.5 48.667 -40.5 84c0 6 0.333008 12 1 18zM231 123.999l30.001 246c0.666992 6 1 10.333 1 13c0 21.333 -15.667 32 -47 32c-32.667 0 -51 -13.667 -55 -41l-31 -245c-0.666992 -6 -1 -10.333 -1 -13c0 -22.667 16 -34 48 -34c33.333 0 51.666 14 54.999 42z" />
    <glyph glyph-name="divide" unicode="&#xf7;" horiz-adv-x="397" 
d="M261 520v-81c0 -8 -1.5 -13.5 -4.5 -16.5s-8.5 -4.5 -16.5 -4.5h-73c-14 0 -21 7 -21 21v81c0 14.667 7 22 21 22h73c14 0 21 -7.33301 21 -22zM52 351h295c14.667 0 22 -6.66699 22 -20v-51c0 -14.667 -7.33301 -22 -22 -22h-295c-14.667 0 -22 7.33301 -22 22v51
c0 13.333 7.33301 20 22 20zM261 170l-0.000976562 -80c0 -8.66699 -1.5 -14.5 -4.5 -17.5s-8.5 -4.5 -16.5 -4.5h-73c-7.33301 0 -12.666 1.66699 -15.999 5s-5 9 -5 17v80c0 14.667 7 22 21 22h73c14 0 21 -7.33301 21 -22z" />
    <glyph glyph-name="oslash" unicode="&#xf8;" horiz-adv-x="401" 
d="M157 379l-27.999 -212l118 249c-8.66699 3.33301 -19.334 5 -32.001 5c-34.667 0 -54 -14 -58 -42zM174.001 78c35.333 0 54.999 13.667 58.999 41l27 199l-112 -237c6.66699 -2 15.334 -3 26.001 -3zM101 -18c-6 -12 -14.667 -18 -26 -18h-28c-10 0 -12 6 -6 18l18 38
c-29.333 20 -44 49 -44 87c0 7.33301 0.333008 13.333 1 18l31 247c11.333 89.333 69.333 134 174 134c23.333 0 45 -2.66699 65 -8l9 20c6 12 14 18 24 18h29c9.33301 0 11.333 -6 6 -18l-20 -42c28 -20 42 -48.333 42 -85c0 -6.66699 -0.333008 -13 -1 -19l-31 -247
c-11.333 -88.667 -69.333 -133 -174 -133c-24 0 -44.333 2.33301 -61 7z" />
    <glyph glyph-name="ugrave" unicode="&#xf9;" horiz-adv-x="408" 
d="M185 577l-38.999 109c-5.33301 14.667 0 22 16 22h72c13.333 0 21.666 -7.33301 24.999 -22l19 -102c2.66699 -14 -2.33301 -21 -15 -21h-54c-13.333 0 -21.333 4.66699 -24 14zM225.001 22v15c-35.333 -30 -72 -45 -110 -45c-31.333 0 -55.666 8.16699 -72.999 24.5
s-26 37.5 -26 63.5c0 6 0.333008 12.667 1 20l46 375c1.33301 8.66699 3.66602 14.667 6.99902 18s9 5 17 5h70c14.667 0 21 -7.66699 19 -23l-42 -343c-0.666992 -5.33301 -1 -10 -1 -14c0 -18 11 -27 33 -27s43.667 9.66699 65 29l44 355c2 15.333 10 23 24 23h70
c14.667 0 21 -7.66699 19 -23l-55 -453c-2 -14.667 -10 -22 -24 -22h-65c-8 0 -13.167 1.5 -15.5 4.5s-3.5 8.83301 -3.5 17.5z" />
    <glyph glyph-name="uacute" unicode="&#xfa;" horiz-adv-x="408" 
d="M351 686l-65 -109c-5.33301 -9.33301 -14.666 -14 -27.999 -14h-55c-12.667 0 -16 7 -10 21l44 102c6 14.667 16 22 30 22h74c15.333 0 18.666 -7.33301 9.99902 -22zM225 22v15c-35.333 -30 -72 -45 -110 -45c-31.333 0 -55.666 8.16699 -72.999 24.5s-26 37.5 -26 63.5
c0 6 0.333008 12.667 1 20l46 375c1.33301 8.66699 3.66602 14.667 6.99902 18s9 5 17 5h70c14.667 0 21 -7.66699 19 -23l-42 -343c-0.666992 -5.33301 -1 -10 -1 -14c0 -18 11 -27 33 -27s43.667 9.66699 65 29l44 355c2 15.333 10 23 24 23h70
c14.667 0 21 -7.66699 19 -23l-55 -453c-2 -14.667 -10 -22 -24 -22h-65c-8 0 -13.167 1.5 -15.5 4.5s-3.5 8.83301 -3.5 17.5z" />
    <glyph glyph-name="ucircumflex" unicode="&#xfb;" horiz-adv-x="408" 
d="M244 639l-27.999 -55c-6.66699 -14 -16.334 -21 -29.001 -21h-49c-15.333 0 -18.333 7 -9 21l73 107c8 11.333 18.667 17 32 17h37c14 0 23.333 -5.33301 28 -16l47 -108c6 -14 1 -21 -15 -21h-47c-12.667 0 -21 7 -25 21zM225.001 22v15c-35.333 -30 -72 -45 -110 -45
c-31.333 0 -55.666 8.16699 -72.999 24.5s-26 37.5 -26 63.5c0 6 0.333008 12.667 1 20l46 375c1.33301 8.66699 3.66602 14.667 6.99902 18s9 5 17 5h70c14.667 0 21 -7.66699 19 -23l-42 -343c-0.666992 -5.33301 -1 -10 -1 -14c0 -18 11 -27 33 -27s43.667 9.66699 65 29
l44 355c2 15.333 10 23 24 23h70c14.667 0 21 -7.66699 19 -23l-55 -453c-2 -14.667 -10 -22 -24 -22h-65c-8 0 -13.167 1.5 -15.5 4.5s-3.5 8.83301 -3.5 17.5z" />
    <glyph glyph-name="udieresis" unicode="&#xfc;" horiz-adv-x="408" 
d="M350 683l-12 -94c-2 -14.667 -10 -22 -24 -22h-41c-14.667 0 -21 7.33301 -19 22l11 94c2 14.667 10.333 22 25 22h42c14 0 20 -7.33301 18 -22zM237 683l-12 -94c-2 -14.667 -10 -22 -24 -22h-42c-14 0 -20 7.33301 -18 22l12 94c2 14.667 10 22 24 22h42
c14 0 20 -7.33301 18 -22zM225 22v15c-35.333 -30 -72 -45 -110 -45c-31.333 0 -55.666 8.16699 -72.999 24.5s-26 37.5 -26 63.5c0 6 0.333008 12.667 1 20l46 375c1.33301 8.66699 3.66602 14.667 6.99902 18s9 5 17 5h70c14.667 0 21 -7.66699 19 -23l-42 -343
c-0.666992 -5.33301 -1 -10 -1 -14c0 -18 11 -27 33 -27s43.667 9.66699 65 29l44 355c2 15.333 10 23 24 23h70c14.667 0 21 -7.66699 19 -23l-55 -453c-2 -14.667 -10 -22 -24 -22h-65c-8 0 -13.167 1.5 -15.5 4.5s-3.5 8.83301 -3.5 17.5z" />
    <glyph glyph-name="yacute" unicode="&#xfd;" horiz-adv-x="365" 
d="M335 686l-65 -109c-5.33301 -9.33301 -14.666 -14 -27.999 -14h-55c-12.667 0 -16 7 -10 21l44 102c6 14.667 16 22 30 22h74c15.333 0 18.666 -7.33301 9.99902 -22zM378 475l-234.998 -643c-5.33301 -14.667 -14.333 -22 -27 -22h-55c-17.333 0 -23.333 7.33301 -18 22
l55 149l-68 494c-0.666992 7.33301 1.16602 13 5.49902 17s10.5 6 18.5 6h67c13.333 0 20.666 -7.66699 21.999 -23l22 -247c1.33301 -12.667 2 -34.667 2 -66c5.33301 21.333 11.333 41 18 59l85 254c5.33301 15.333 14.666 23 27.999 23h63
c16.667 0 22.334 -7.66699 17.001 -23z" />
    <glyph glyph-name="thorn" unicode="&#xfe;" horiz-adv-x="410" 
d="M203 91c21.333 0 33 11 35 33l30 245c0.666992 6 1 10.333 1 13c0 16.667 -10 25 -30 25c-22.667 0 -46.667 -9.66699 -72 -29l-32 -258c19.333 -19.333 42 -29 68 -29zM124 35l-25 -202.001c-2 -15.333 -9.66699 -23 -23 -23h-71c-14.667 0 -21 7.66699 -19 23l103 839
c2 14.667 10.333 22 25 22h70c14.667 0 21 -7.33301 19 -22l-26 -210c36 29.333 74.333 44 115 44c29.333 0 52.333 -7.83301 69 -23.5s25 -36.5 25 -62.5c0 -3.33301 -0.666992 -11 -2 -23l-37 -303c-4 -31.333 -15 -56.166 -33 -74.499s-43 -27.5 -75 -27.5
c-44.667 0 -83 14.333 -115 43z" />
    <glyph glyph-name="ydieresis" unicode="&#xff;" horiz-adv-x="365" 
d="M326 683l-12 -94c-2 -14.667 -10 -22 -24 -22h-41c-14.667 0 -21 7.33301 -19 22l11 94c2 14.667 10.333 22 25 22h42c14 0 20 -7.33301 18 -22zM213 683l-12 -94c-2 -14.667 -10 -22 -24 -22h-42c-14 0 -20 7.33301 -18 22l12 94c2 14.667 10 22 24 22h42
c14 0 20 -7.33301 18 -22zM378 475l-234.998 -643c-5.33301 -14.667 -14.333 -22 -27 -22h-55c-17.333 0 -23.333 7.33301 -18 22l55 149l-68 494c-0.666992 7.33301 1.16602 13 5.49902 17s10.5 6 18.5 6h67c13.333 0 20.666 -7.66699 21.999 -23l22 -247
c1.33301 -12.667 2 -34.667 2 -66c5.33301 21.333 11.333 41 18 59l85 254c5.33301 15.333 14.666 23 27.999 23h63c16.667 0 22.334 -7.66699 17.001 -23z" />
    <glyph glyph-name="Amacron" unicode="&#x100;" horiz-adv-x="421" 
d="M195 843h159c14.667 0 21 -7 19 -21l-5 -44c-2 -14.667 -10.333 -22 -25 -22h-159c-14.667 0 -21 7.33301 -19 22l5 44c2 14 10.333 21 25 21zM248 253l-10.001 131c-3.33301 38 -3.66602 82.333 -0.999023 133c-6 -36 -17.667 -80 -35 -132l-43 -132h89zM218.999 680h77
c16 0 24.333 -7.33301 25 -22l57 -636c1.33301 -14.667 -5 -22 -19 -22h-73c-14 -0 -21.667 7.33301 -23 22l-9 138h-124l-42 -138c-4 -14.667 -13.667 -22 -29 -22h-69c-14 -0 -18.333 7.33301 -13 22l212 636c4.66699 14.667 14.667 22 30 22z" />
    <glyph glyph-name="amacron" unicode="&#x101;" horiz-adv-x="409" 
d="M163 665h159c8 0 13.333 -1.5 16 -4.5s3.66699 -8.5 3 -16.5l-4 -43c-0.666992 -14.667 -9 -22 -25 -22h-159c-8 0 -13.333 1.66699 -16 5s-3.66699 9 -3 17l4 43c0.666992 14 9 21 25 21zM161 370l-29 -238c-0.666992 -6 -1 -10.667 -1 -14c0 -18 11 -27 33 -27
c23.333 0 46 10 68 30l32 256c-18 20 -39.667 30 -65 30c-22 0 -34.667 -12.333 -38 -37zM226 37c-38.667 -30 -76.668 -44.999 -114.001 -44.999c-30.667 0 -54.667 8 -72 24s-26 37.667 -26 65c0 7.33301 0.666992 16.333 2 27l35 290c4 33.333 15.667 59.666 35 78.999
s45.666 29 78.999 29c42.667 0 79.334 -14.333 110.001 -43l4 15c2 7.33301 4.5 12.5 7.5 15.5s8.16699 4.5 15.5 4.5h68c14.667 0 21 -7.66699 19 -23l-56 -453c-2 -14.667 -10 -22 -24 -22h-65c-13.333 -0 -19.666 7.33301 -18.999 22z" />
    <glyph glyph-name="Abreve" unicode="&#x102;" horiz-adv-x="421" 
d="M247 866l-4 -30.999c-0.666992 -4.66699 -1 -9 -1 -13c0 -16 8.66699 -24 26 -24c19.333 0 30 11 32 33l4 35c0.666992 12 7.66699 18 21 18h42c14 0 20 -6 18 -18l-4 -30c-9.33301 -70.667 -49 -106 -119 -106c-30.667 0 -55.167 7.66699 -73.5 23
s-27.5 36.666 -27.5 63.999c0 4.66699 0.333008 10.667 1 18l4 31c2 12 9 18 21 18h43c13.333 0 19 -6 17 -18zM248 253.001l-10.001 131c-3.33301 38 -3.66602 82.333 -0.999023 133c-6 -36 -17.667 -80 -35 -132l-43 -132h89zM218.999 680.001h77
c16 0 24.333 -7.33301 25 -22l57 -636c1.33301 -14.667 -5 -22 -19 -22h-73c-14 0 -21.667 7.33301 -23 22l-9 138h-124l-42 -138c-4 -14.667 -13.667 -22 -29 -22h-69c-14 0 -18.333 7.33301 -13 22l212 636c4.66699 14.667 14.667 22 30 22z" />
    <glyph glyph-name="abreve" unicode="&#x103;" horiz-adv-x="409" 
d="M216 685l-4 -30.999c-0.666992 -4.66699 -1 -9 -1 -13c0 -16 8.66699 -24 26 -24c19.333 0 30 11 32 33l4 35c0.666992 12 7.66699 18 21 18h42c14 0 20 -6 18 -18l-4 -30c-9.33301 -70.667 -49 -106 -119 -106c-30.667 0 -55.167 7.66699 -73.5 23
s-27.5 36.666 -27.5 63.999c0 4.66699 0.333008 10.667 1 18l4 31c2 12 9 18 21 18h43c13.333 0 19 -6 17 -18zM161 370.001l-29 -238c-0.666992 -6 -1 -10.667 -1 -14c0 -18 11 -27 33 -27c23.333 0 46 10 68 30l32 256c-18 20 -39.667 30 -65 30
c-22 0 -34.667 -12.333 -38 -37zM226 37.001c-38.667 -30 -76.668 -44.999 -114.001 -44.999c-30.667 0 -54.667 8 -72 24s-26 37.667 -26 65c0 7.33301 0.666992 16.333 2 27l35 290c4 33.333 15.667 59.666 35 78.999s45.666 29 78.999 29
c42.667 0 79.334 -14.333 110.001 -43l4 15c2 7.33301 4.5 12.5 7.5 15.5s8.16699 4.5 15.5 4.5h68c14.667 0 21 -7.66699 19 -23l-56 -453c-2 -14.667 -10 -22 -24 -22h-65c-13.333 0 -19.666 7.33301 -18.999 22z" />
    <glyph glyph-name="Aogonek" unicode="&#x104;" horiz-adv-x="421" 
d="M219 680h77c16 0 24.333 -7.33301 25 -22l57 -636c1.33301 -14.667 -5 -22 -19 -22h-29c-25.333 -14 -38 -36 -38 -66c0 -18.667 10 -28 30 -28h12c15.333 0 22 -6.66699 20 -20l-3 -30c-2 -14.667 -10.667 -22 -26 -22h-32c-22.667 0 -42.167 6.16699 -58.5 18.5
s-24.5 30.833 -24.5 55.5c0 42 17.333 82 52 120l-8 132h-124l-42 -138c-4 -14.667 -13.667 -22 -29 -22h-69c-14 -0 -18.333 7.33301 -13 22l212 636c4.66699 14.667 14.667 22 30 22zM248 253l-10 131c-3.33301 36.667 -3.66602 81 -0.999023 133
c-12.667 -55.333 -24.334 -99.333 -35.001 -132l-43 -132h89z" />
    <glyph glyph-name="aogonek" unicode="&#x105;" horiz-adv-x="409" 
d="M112 -8c-30.667 0 -54.667 8.16992 -72 24.5029s-26 37.833 -26 64.5c0 6 0.666992 15 2 27l35 290c4 33.333 15.667 59.666 35 78.999s45.666 29 78.999 29c42.667 0 79.334 -14.333 110.001 -43l4 15c2 7.33301 4.5 12.5 7.5 15.5s8.16699 4.5 15.5 4.5h68
c14.667 0 21 -7.66699 19 -23l-56 -453c-2 -14.667 -10 -22 -24 -22h-7c-14.667 -2 -25.667 -10.333 -33 -25s-11 -28.334 -11 -41.001c0 -18.667 10.333 -28 31 -28h7c15.333 0 22 -6.66699 20 -20l-3 -30c-2 -14.667 -11 -22 -27 -22h-26c-23.333 0 -43 6.16699 -59 18.5
s-24 30.5 -24 54.5c0 37.333 16.667 72.666 50 105.999c-0.666992 3.33301 -1 6.33301 -1 9v15c-37.333 -30 -75.333 -45 -114 -45zM161 370.003l-29 -238c-0.666992 -5.33301 -1 -10 -1 -14c0 -18 11 -27 33 -27c23.333 0 46 10 68 30l32 256c-18 20 -39.667 30 -65 30
c-22 0 -34.667 -12.333 -38 -37z" />
    <glyph glyph-name="Cacute" unicode="&#x106;" horiz-adv-x="423" 
d="M387 856l-65.001 -109c-5.33301 -9.33301 -14.666 -14 -27.999 -14h-55c-12.667 0 -16 7 -10 21l44 102c6 14.667 16.333 22 31 22h73c16 0 19.333 -7.33301 10 -22zM383.999 213l-10.001 -76.001c-6 -44 -22.667 -79.167 -50 -105.5s-72.666 -39.5 -135.999 -39.5
c-56.667 0 -98.167 11.5 -124.5 34.5s-39.5 52.833 -39.5 89.5c0 8 0.333008 15.667 1 23l50 404c11.333 96.667 73.333 145 186 145c56.667 0 98.167 -11.5 124.5 -34.5s39.5 -52.833 39.5 -89.5c0 -3.33301 -0.666992 -11 -2 -23l-7 -60
c-1.33301 -8 -3.5 -13.667 -6.5 -17s-8.5 -5 -16.5 -5h-70c-15.333 0 -22 7.33301 -20 22l7 53c0.666992 6.66699 1 12.334 1 17.001c0 27.333 -18.333 41 -55 41c-40 0 -62 -17.333 -66 -52l-48 -393c-0.666992 -6 -1 -12.333 -1 -19c0 -26.667 18.333 -40 55 -40
c38 0 59.667 17.333 65 52l10 73c2 14.667 10 22 24 22h70c14.667 0 21 -7.33301 19 -22z" />
    <glyph glyph-name="cacute" unicode="&#x107;" horiz-adv-x="376" 
d="M338 686l-65 -109c-5.33301 -9.33301 -14.666 -14 -27.999 -14h-55c-12.667 0 -16 7 -10 21l44 102c6 14.667 16 22 30 22h74c15.333 0 18.666 -7.33301 9.99902 -22zM215 506c48 0 84.667 -10.5 110 -31.5s38 -47.833 38 -80.5c0 -5.33301 -0.333008 -11.333 -1 -18
l-4 -30c-2 -14 -10 -21 -24 -21h-65c-14.667 0 -21 7 -19 21l3 26c0.666992 6.66699 1 11.334 1 14.001c0 19.333 -14.667 29 -44 29c-30.667 0 -47.334 -13 -50.001 -39l-30 -244c-1.33301 -9.33301 -2 -15.666 -2 -18.999c0 -20.667 14.667 -31 44 -31
c30.667 0 47.667 13.333 51 40l4 39c2 14.667 10.333 22 25 22h64c14.667 0 21 -7.33301 19 -22l-4 -34c-5.33301 -44 -20.5 -77.5 -45.5 -100.5s-65.5 -34.5 -121.5 -34.5c-49.333 0 -86.333 10 -111 30s-37 47.667 -37 83c0 7.33301 0.333008 14.666 1 21.999l30 250
c4.66699 41.333 19.834 73.166 45.501 95.499s66.5 33.5 122.5 33.5z" />
    <glyph glyph-name="Ccircumflex" unicode="&#x108;" horiz-adv-x="423" 
d="M277 809l-28 -55c-7.33301 -14 -17.333 -21 -30 -21h-48c-15.333 0 -18.333 7 -9 21l73 107c8 11.333 18.667 17 32 17h37c13.333 0 22.333 -5.33301 27 -16l48 -108c6 -14 1 -21 -15 -21h-47c-12.667 0 -21 7 -25 21zM384 213l-10.001 -76.001
c-6 -44 -22.667 -79.167 -50 -105.5s-72.666 -39.5 -135.999 -39.5c-56.667 0 -98.167 11.5 -124.5 34.5s-39.5 52.833 -39.5 89.5c0 8 0.333008 15.667 1 23l50 404c11.333 96.667 73.333 145 186 145c56.667 0 98.167 -11.5 124.5 -34.5s39.5 -52.833 39.5 -89.5
c0 -3.33301 -0.666992 -11 -2 -23l-7 -60c-1.33301 -8 -3.5 -13.667 -6.5 -17s-8.5 -5 -16.5 -5h-70c-15.333 0 -22 7.33301 -20 22l7 53c0.666992 6.66699 1 12.334 1 17.001c0 27.333 -18.333 41 -55 41c-40 0 -62 -17.333 -66 -52l-48 -393
c-0.666992 -6 -1 -12.333 -1 -19c0 -26.667 18.333 -40 55 -40c38 0 59.667 17.333 65 52l10 73c2 14.667 10 22 24 22h70c14.667 0 21 -7.33301 19 -22z" />
    <glyph glyph-name="ccircumflex" unicode="&#x109;" horiz-adv-x="376" 
d="M231 639l-28 -55c-7.33301 -14 -17 -21 -29 -21h-49c-15.333 0 -18.333 7 -9 21l73 107c8 11.333 18.667 17 32 17h37c14 0 23.333 -5.33301 28 -16l47 -108c6 -14 1 -21 -15 -21h-47c-12.667 0 -21 7 -25 21zM215 506c48 0 84.667 -10.5 110 -31.5s38 -47.833 38 -80.5
c0 -5.33301 -0.333008 -11.333 -1 -18l-4 -30c-2 -14 -10 -21 -24 -21h-65c-14.667 0 -21 7 -19 21l3 26c0.666992 6.66699 1 11.334 1 14.001c0 19.333 -14.667 29 -44 29c-30.667 0 -47.334 -13 -50.001 -39l-30 -244c-1.33301 -9.33301 -2 -15.666 -2 -18.999
c0 -20.667 14.667 -31 44 -31c30.667 0 47.667 13.333 51 40l4 39c2 14.667 10.333 22 25 22h64c14.667 0 21 -7.33301 19 -22l-4 -34c-5.33301 -44 -20.5 -77.5 -45.5 -100.5s-65.5 -34.5 -121.5 -34.5c-49.333 0 -86.333 10 -111 30s-37 47.667 -37 83
c0 7.33301 0.333008 14.666 1 21.999l30 250c4.66699 41.333 19.834 73.166 45.501 95.499s66.5 33.5 122.5 33.5z" />
    <glyph glyph-name="Cdotaccent" unicode="&#x10a;" horiz-adv-x="423" 
d="M339 839l-8.99902 -81c-0.666992 -8 -2.83398 -13.5 -6.50098 -16.5s-9.16699 -4.5 -16.5 -4.5h-73c-8 0 -13.333 1.5 -16 4.5s-3.66699 8.5 -3 16.5l10 81c2 14.667 10 22 24 22h73c13.333 0 19 -7.33301 17 -22zM384.001 213l-10.001 -76.001
c-6 -44 -22.667 -79.167 -50 -105.5s-72.666 -39.5 -135.999 -39.5c-56.667 0 -98.167 11.5 -124.5 34.5s-39.5 52.833 -39.5 89.5c0 8 0.333008 15.667 1 23l50 404c11.333 96.667 73.333 145 186 145c56.667 0 98.167 -11.5 124.5 -34.5s39.5 -52.833 39.5 -89.5
c0 -3.33301 -0.666992 -11 -2 -23l-7 -60c-1.33301 -8 -3.5 -13.667 -6.5 -17s-8.5 -5 -16.5 -5h-70c-15.333 0 -22 7.33301 -20 22l7 53c0.666992 6.66699 1 12.334 1 17.001c0 27.333 -18.333 41 -55 41c-40 0 -62 -17.333 -66 -52l-48 -393
c-0.666992 -6 -1 -12.333 -1 -19c0 -26.667 18.333 -40 55 -40c38 0 59.667 17.333 65 52l10 73c2 14.667 10 22 24 22h70c14.667 0 21 -7.33301 19 -22z" />
    <glyph glyph-name="cdotaccent" unicode="&#x10b;" horiz-adv-x="376" 
d="M293 677l-10 -81c-2 -14.667 -10 -22 -24 -22h-72c-14.667 0 -21 7.33301 -19 22l10 81c2 14.667 10 22 24 22h72c14.667 0 21 -7.33301 19 -22zM215 506c48 0 84.667 -10.5 110 -31.5s38 -47.833 38 -80.5c0 -5.33301 -0.333008 -11.333 -1 -18l-4 -30
c-2 -14 -10 -21 -24 -21h-65c-14.667 0 -21 7 -19 21l3 26c0.666992 6.66699 1 11.334 1 14.001c0 19.333 -14.667 29 -44 29c-30.667 0 -47.334 -13 -50.001 -39l-30 -244c-1.33301 -9.33301 -2 -15.666 -2 -18.999c0 -20.667 14.667 -31 44 -31
c30.667 0 47.667 13.333 51 40l4 39c2 14.667 10.333 22 25 22h64c14.667 0 21 -7.33301 19 -22l-4 -34c-5.33301 -44 -20.5 -77.5 -45.5 -100.5s-65.5 -34.5 -121.5 -34.5c-49.333 0 -86.333 10 -111 30s-37 47.667 -37 83c0 7.33301 0.333008 14.666 1 21.999l30 250
c4.66699 41.333 19.834 73.166 45.501 95.499s66.5 33.5 122.5 33.5z" />
    <glyph glyph-name="Ccaron" unicode="&#x10c;" horiz-adv-x="423" 
d="M262 857l15 -55l28 55c7.33301 14 17.333 21 30 21h48c16 0 19 -7.33301 9 -22l-73 -107c-7.33301 -10.667 -18 -16 -32 -16h-37c-13.333 0 -22.333 5.33301 -27 16l-48 107c-3.33301 6.66699 -3.5 12 -0.5 16s8.16699 6 15.5 6h48c12 0 20 -7 24 -21zM384 213
l-10.001 -76.001c-6 -44 -22.667 -79.167 -50 -105.5s-72.666 -39.5 -135.999 -39.5c-56.667 0 -98.167 11.5 -124.5 34.5s-39.5 52.833 -39.5 89.5c0 8 0.333008 15.667 1 23l50 404c11.333 96.667 73.333 145 186 145c56.667 0 98.167 -11.5 124.5 -34.5
s39.5 -52.833 39.5 -89.5c0 -3.33301 -0.666992 -11 -2 -23l-7 -60c-1.33301 -8 -3.5 -13.667 -6.5 -17s-8.5 -5 -16.5 -5h-70c-15.333 0 -22 7.33301 -20 22l7 53c0.666992 6.66699 1 12.334 1 17.001c0 27.333 -18.333 41 -55 41c-40 0 -62 -17.333 -66 -52l-48 -393
c-0.666992 -6 -1 -12.333 -1 -19c0 -26.667 18.333 -40 55 -40c38 0 59.667 17.333 65 52l10 73c2 14.667 10 22 24 22h70c14.667 0 21 -7.33301 19 -22z" />
    <glyph glyph-name="ccaron" unicode="&#x10d;" horiz-adv-x="376" 
d="M217 687l14.001 -55l28 55c7.33301 14 17.666 21 30.999 21h48c16 0 19 -7.33301 9 -22l-73 -107c-7.33301 -10.667 -18.333 -16 -33 -16h-36c-14 0 -23.333 5.33301 -28 16l-47 107c-6.66699 14.667 -2 22 14 22h49c12 0 20 -7 24 -21zM215.001 506
c48 0 84.667 -10.5 110 -31.5s38 -47.833 38 -80.5c0 -5.33301 -0.333008 -11.333 -1 -18l-4 -30c-2 -14 -10 -21 -24 -21h-65c-14.667 0 -21 7 -19 21l3 26c0.666992 6.66699 1 11.334 1 14.001c0 19.333 -14.667 29 -44 29c-30.667 0 -47.334 -13 -50.001 -39l-30 -244
c-1.33301 -9.33301 -2 -15.666 -2 -18.999c0 -20.667 14.667 -31 44 -31c30.667 0 47.667 13.333 51 40l4 39c2 14.667 10.333 22 25 22h64c14.667 0 21 -7.33301 19 -22l-4 -34c-5.33301 -44 -20.5 -77.5 -45.5 -100.5s-65.5 -34.5 -121.5 -34.5
c-49.333 0 -86.333 10 -111 30s-37 47.667 -37 83c0 7.33301 0.333008 14.666 1 21.999l30 250c4.66699 41.333 19.834 73.166 45.501 95.499s66.5 33.5 122.5 33.5z" />
    <glyph glyph-name="Dcaron" unicode="&#x10e;" horiz-adv-x="456" 
d="M261 857l15 -55l28 55c7.33301 14 17.333 21 30 21h48c16 0 19 -7.33301 9 -22l-73 -107c-7.33301 -10.667 -18 -16 -32 -16h-37c-13.333 0 -22.333 5.33301 -27 16l-48 107c-3.33301 6.66699 -3.5 12 -0.5 16s8.16699 6 15.5 6h48c12 0 20 -7 24 -21zM202 0h-168.001
c-12.667 0 -18 7.66699 -16 23l78 634c2 15.333 10 23 24 23h151c58 0 101.167 -12 129.5 -36s42.5 -54 42.5 -90c0 -7.33301 -0.333008 -15 -1 -23l-47 -386c-11.333 -96.667 -75.666 -145 -192.999 -145zM264.999 584h-62l-60 -488h64c21.333 0 38.333 4.83301 51 14.5
s20 23.167 22 40.5l45 370c0.666992 7.33301 1 13 1 17c0 30.667 -20.333 46 -61 46z" />
    <glyph glyph-name="dcaron" unicode="&#x10f;" horiz-adv-x="426" 
d="M466 668l5.99902 46.001c2 13.333 9 20 21 20h58c12.667 0 18 -6.66699 16 -20l-6 -52c-3.33301 -28 -10.333 -50.333 -21 -67s-28 -34.334 -52 -53.001c-10 -8 -18.667 -8.33301 -26 -1l-27 25c-7.33301 6.66699 -6.66602 15.667 2.00098 27
c15.333 19.333 25 44.333 29 75zM160.999 370.001l-29 -236c-0.666992 -6 -1 -11.333 -1 -16c0 -18 11 -27 33 -27c23.333 0 46 10 68 30l32 256c-18 20 -39.667 30 -65 30c-22 0 -34.667 -12.333 -38 -37zM224.999 37.001c-37.333 -30 -74.999 -44.998 -112.999 -44.998
c-30.667 0 -54.667 8.16699 -72 24.5s-26 38.166 -26 65.499c0 8 0.666992 16.667 2 26l35 290c4 33.333 15.667 59.666 35 78.999s45.666 29 78.999 29c43.333 0 80 -14.333 110 -43l26 209c1.33301 8 3.5 13.667 6.5 17s8.5 5 16.5 5h71c14 0 20 -7.33301 18 -22l-80 -650
c-2 -14.667 -10 -22 -24 -22h-65c-7.33301 0 -12.333 1.66699 -15 5s-4 9 -4 17v15z" />
    <glyph glyph-name="Dcroat" unicode="&#x110;" horiz-adv-x="466" 
d="M212 0h-168.001c-12.667 0 -18 7.66699 -16 23l34 276h-29c-14.667 0 -21 7.33301 -19 22l5 44c2 13.333 10.333 20 25 20h29l33 272c2 15.333 10 23 24 23h151c57.333 0 100.333 -12 129 -36s43 -54 43 -90c0 -7.33301 -0.333008 -15 -1 -23l-47 -386
c-11.333 -96.667 -75.666 -145 -192.999 -145zM152.999 96l64 -0.000976562c21.333 0 38.333 4.83301 51 14.5s20 23.167 22 40.5l45 370c0.666992 6.66699 1 12.334 1 17.001c0 30.667 -20.333 46 -61 46h-62l-24 -199h45c15.333 0 22 -6.66699 20 -20l-6 -44
c-2 -14.667 -10.333 -22 -25 -22h-45z" />
    <glyph glyph-name="dcroat" unicode="&#x111;" horiz-adv-x="409" 
d="M161 370l-29 -236c-0.666992 -6 -1 -11.333 -1 -16c0 -18 11 -27 33 -27c23.333 0 46 10 68 30l32 256c-18 20 -39.667 30 -65 30c-22 0 -34.667 -12.333 -38 -37zM225 37c-37.333 -30 -74.999 -44.998 -112.999 -44.998c-30.667 0 -54.667 8.16699 -72 24.5
s-26 38.166 -26 65.499c0 8 0.666992 16.667 2 26l35 290c4 33.333 15.667 59.666 35 78.999s45.666 29 78.999 29c43.333 0 80 -14.333 110 -43l10 83h-64c-16 0 -23 7 -21 21l6 37c2.66699 14.667 10.667 22 24 22h65l6 46c1.33301 8 3.5 13.667 6.5 17s8.5 5 16.5 5h71
c14 0 20 -7.33301 18 -22l-6 -46h26c15.333 0 22 -7.33301 20 -22l-5 -37c-2 -14 -10.333 -21 -25 -21h-26l-64 -524c-2 -14.667 -10 -22 -24 -22h-65c-7.33301 0 -12.333 1.66699 -15 5s-4 9 -4 17v15z" />
    <glyph glyph-name="Emacron" unicode="&#x112;" horiz-adv-x="371" 
d="M179 843h159c14.667 0 21 -7 19 -21l-5 -44c-2 -14.667 -10.333 -22 -25 -22h-159c-14.667 0 -21 7.33301 -19 22l5 44c2 14 10.333 21 25 21zM287 0h-250c-14.667 0 -21 7.66699 -19 23l78 634c2 15.333 10 23 24 23h242c15.333 0 22 -7 20 -21l-7 -54
c-2 -14 -10 -21 -24 -21h-148l-22 -184h136c14.667 0 21 -7 19 -21l-6 -51c-2 -14.667 -10 -22 -24 -22h-137l-26 -210h155c8 0 13.5 -1.33301 16.5 -4s4.16699 -8 3.5 -16l-6 -54c-2 -14.667 -10.333 -22 -25 -22z" />
    <glyph glyph-name="emacron" unicode="&#x113;" horiz-adv-x="383" 
d="M159 665h159c8 0 13.333 -1.5 16 -4.5s3.66699 -8.5 3 -16.5l-4 -43c-0.666992 -14.667 -9 -22 -25 -22h-159c-8 0 -13.333 1.66699 -16 5s-3.66699 9 -3 17l4 43c0.666992 14 9 21 25 21zM358 372l-13.998 -127.999c-2 -13.333 -9.33301 -20 -22 -20h-183l-13 -98
c-0.666992 -5.33301 -1 -11 -1 -17c0 -20.667 15 -31 45 -31c31.333 0 48.666 12.667 51.999 38l4 32c2 14.667 10.333 22 25 22h59c13.333 0 19.666 -7.33301 18.999 -22l-2 -21c-4 -44.667 -18.167 -78.334 -42.5 -101.001s-64.5 -34 -120.5 -34
c-49.333 0 -86.333 10 -111 30s-37 47.667 -37 83c0 8 0.333008 15.333 1 22l29 244c5.33301 44 20.833 77.5 46.5 100.5s66.167 34.5 121.5 34.5c48.667 0 85 -10 109 -30s36 -47.667 36 -83c0 -6 -0.333008 -13 -1 -21zM158.002 380.001l-10 -77h97l10 71
c0.666992 6 1 10.667 1 14c0 20.667 -15.667 31 -47 31c-30.667 0 -47.667 -13 -51 -39z" />
    <glyph glyph-name="Ebreve" unicode="&#x114;" horiz-adv-x="371" 
d="M228 866l-4 -30.999c-0.666992 -4.66699 -1 -9 -1 -13c0 -16 8.66699 -24 26 -24c19.333 0 30 11 32 33l4 35c0.666992 12 7.66699 18 21 18h42c14 0 20 -6 18 -18l-4 -30c-9.33301 -70.667 -49 -106 -119 -106c-30.667 0 -55.167 7.66699 -73.5 23
s-27.5 36.666 -27.5 63.999c0 4.66699 0.333008 10.667 1 18l4 31c2 12 9 18 21 18h43c13.333 0 19 -6 17 -18zM287 0.000976562h-250c-14.667 0 -21 7.66699 -19 23l78 634c2 15.333 10 23 24 23h242c15.333 0 22 -7 20 -21l-7 -54c-2 -14 -10 -21 -24 -21h-148l-22 -184
h136c14.667 0 21 -7 19 -21l-6 -51c-2 -14.667 -10 -22 -24 -22h-137l-26 -210h155c8 0 13.5 -1.33301 16.5 -4s4.16699 -8 3.5 -16l-6 -54c-2 -14.667 -10.333 -22 -25 -22z" />
    <glyph glyph-name="ebreve" unicode="&#x115;" horiz-adv-x="383" 
d="M212 685l-4 -30.999c-0.666992 -4.66699 -1 -9 -1 -13c0 -16 8.66699 -24 26 -24c19.333 0 30 11 32 33l4 35c0.666992 12 7.66699 18 21 18h42c14 0 20 -6 18 -18l-4 -30c-9.33301 -70.667 -49 -106 -119 -106c-30.667 0 -55.167 7.66699 -73.5 23
s-27.5 36.666 -27.5 63.999c0 4.66699 0.333008 10.667 1 18l4 31c2 12 9 18 21 18h43c13.333 0 19 -6 17 -18zM358 372.001l-13.998 -127.999c-2 -13.333 -9.33301 -20 -22 -20h-183l-13 -98c-0.666992 -5.33301 -1 -11 -1 -17c0 -20.667 15 -31 45 -31
c31.333 0 48.666 12.667 51.999 38l4 32c2 14.667 10.333 22 25 22h59c13.333 0 19.666 -7.33301 18.999 -22l-2 -21c-4 -44.667 -18.167 -78.334 -42.5 -101.001s-64.5 -34 -120.5 -34c-49.333 0 -86.333 10 -111 30s-37 47.667 -37 83c0 8 0.333008 15.333 1 22l29 244
c5.33301 44 20.833 77.5 46.5 100.5s66.167 34.5 121.5 34.5c48.667 0 85 -10 109 -30s36 -47.667 36 -83c0 -6 -0.333008 -13 -1 -21zM158.002 380.002l-10 -77h97l10 71c0.666992 6 1 10.667 1 14c0 20.667 -15.667 31 -47 31c-30.667 0 -47.667 -13 -51 -39z" />
    <glyph glyph-name="Edotaccent" unicode="&#x116;" horiz-adv-x="371" 
d="M314 839l-8.99902 -81c-0.666992 -8 -2.83398 -13.5 -6.50098 -16.5s-9.16699 -4.5 -16.5 -4.5h-73c-8 0 -13.333 1.5 -16 4.5s-3.66699 8.5 -3 16.5l10 81c2 14.667 10 22 24 22h73c13.333 0 19 -7.33301 17 -22zM287.001 0h-250c-14.667 0 -21 7.66699 -19 23l78 634
c2 15.333 10 23 24 23h242c15.333 0 22 -7 20 -21l-7 -54c-2 -14 -10 -21 -24 -21h-148l-22 -184h136c14.667 0 21 -7 19 -21l-6 -51c-2 -14.667 -10 -22 -24 -22h-137l-26 -210h155c8 0 13.5 -1.33301 16.5 -4s4.16699 -8 3.5 -16l-6 -54c-2 -14.667 -10.333 -22 -25 -22z
" />
    <glyph glyph-name="edotaccent" unicode="&#x117;" horiz-adv-x="383" 
d="M294 677l-10 -81c-2 -14.667 -10 -22 -24 -22h-72c-14.667 0 -21 7.33301 -19 22l10 81c2 14.667 10 22 24 22h72c14.667 0 21 -7.33301 19 -22zM358 372l-13.998 -127.999c-2 -13.333 -9.33301 -20 -22 -20h-183l-13 -98c-0.666992 -5.33301 -1 -11 -1 -17
c0 -20.667 15 -31 45 -31c31.333 0 48.666 12.667 51.999 38l4 32c2 14.667 10.333 22 25 22h59c13.333 0 19.666 -7.33301 18.999 -22l-2 -21c-4 -44.667 -18.167 -78.334 -42.5 -101.001s-64.5 -34 -120.5 -34c-49.333 0 -86.333 10 -111 30s-37 47.667 -37 83
c0 8 0.333008 15.333 1 22l29 244c5.33301 44 20.833 77.5 46.5 100.5s66.167 34.5 121.5 34.5c48.667 0 85 -10 109 -30s36 -47.667 36 -83c0 -6 -0.333008 -13 -1 -21zM158.002 380.001l-10 -77h97l10 71c0.666992 6 1 10.667 1 14c0 20.667 -15.667 31 -47 31
c-30.667 0 -47.667 -13 -51 -39z" />
    <glyph glyph-name="Eogonek" unicode="&#x118;" horiz-adv-x="371" 
d="M287 0h-20.9971c-14.667 0 -25.334 -7.5 -32.001 -22.5s-10 -29.5 -10 -43.5c0 -18.667 10.333 -28 31 -28h13c15.333 0 22 -6.66699 20 -20l-5 -30c-2.66699 -14.667 -11.334 -22 -26.001 -22h-32c-22.667 0 -42 6.16699 -58 18.5s-24 30.833 -24 55.5
c0 33.333 10 64 30 92h-136c-14.667 0 -21 7.66699 -19 23l78 634c2 15.333 10 23 24 23h243c14.667 0 21 -7 19 -21l-7 -54c-0.666992 -8 -2.83398 -13.5 -6.50098 -16.5s-9.5 -4.5 -17.5 -4.5h-148l-22 -184h136c14.667 0 21 -7 19 -21l-6 -51c-2 -14.667 -10 -22 -24 -22
h-137l-26 -210h155c8 0 13.5 -1.33301 16.5 -4s4.16699 -8 3.5 -16l-6 -54c-2 -14.667 -10.333 -22 -25 -22z" />
    <glyph glyph-name="eogonek" unicode="&#x119;" horiz-adv-x="383" 
d="M358 372l-13.998 -128c-2 -13.333 -9.33301 -20 -22 -20h-183l-13 -98c-0.666992 -6 -1 -11.667 -1 -17c0 -20.667 15 -31 45 -31c31.333 0 48.666 12.667 51.999 38l4 32c2 14.667 10.333 22 25 22h59c13.333 0 19.666 -7.33301 18.999 -22l-2 -21
c-4 -43.333 -20.333 -77 -49 -101c-30.667 -27.333 -46 -56 -46 -86c0 -22.667 11 -34 33 -34h10c15.333 0 22 -6.66699 20 -20l-4 -30c-2 -14.667 -10.667 -22 -26 -22h-30c-23.333 0 -43.333 6.83301 -60 20.5s-25 33.5 -25 59.5c0 27.333 6.66699 53.333 20 78h-13
c-46 0 -81 10.167 -105 30.5s-36 47.833 -36 82.5c0 8 0.333008 15.333 1 22l29 244c5.33301 44 20.833 77.5 46.5 100.5s66.167 34.5 121.5 34.5c48.667 0 85 -10 109 -30s36 -47.667 36 -83c0 -8 -0.333008 -15 -1 -21zM158.002 380l-10 -77h97l10 71
c0.666992 5.33301 1 10 1 14c0 20.667 -15.667 31 -47 31c-30.667 0 -47.667 -13 -51 -39z" />
    <glyph glyph-name="Ecaron" unicode="&#x11a;" horiz-adv-x="371" 
d="M237 857l15 -55l28 55c7.33301 14 17.333 21 30 21h48c16 0 19 -7.33301 9 -22l-73 -107c-7.33301 -10.667 -18 -16 -32 -16h-37c-13.333 0 -22.333 5.33301 -27 16l-48 107c-3.33301 6.66699 -3.5 12 -0.5 16s8.16699 6 15.5 6h48c12 0 20 -7 24 -21zM287 0h-250
c-14.667 0 -21 7.66699 -19 23l78 634c2 15.333 10 23 24 23h242c15.333 0 22 -7 20 -21l-7 -54c-2 -14 -10 -21 -24 -21h-148l-22 -184h136c14.667 0 21 -7 19 -21l-6 -51c-2 -14.667 -10 -22 -24 -22h-137l-26 -210h155c8 0 13.5 -1.33301 16.5 -4s4.16699 -8 3.5 -16
l-6 -54c-2 -14.667 -10.333 -22 -25 -22z" />
    <glyph glyph-name="ecaron" unicode="&#x11b;" horiz-adv-x="383" 
d="M216 687l14.001 -55l28 55c7.33301 14 17.666 21 30.999 21h48c16 0 19 -7.33301 9 -22l-73 -107c-7.33301 -10.667 -18.333 -16 -33 -16h-36c-14 0 -23.333 5.33301 -28 16l-47 107c-6.66699 14.667 -2 22 14 22h49c12 0 20 -7 24 -21zM358.001 372l-13.998 -127.999
c-2 -13.333 -9.33301 -20 -22 -20h-183l-13 -98c-0.666992 -5.33301 -1 -11 -1 -17c0 -20.667 15 -31 45 -31c31.333 0 48.666 12.667 51.999 38l4 32c2 14.667 10.333 22 25 22h59c13.333 0 19.666 -7.33301 18.999 -22l-2 -21c-4 -44.667 -18.167 -78.334 -42.5 -101.001
s-64.5 -34 -120.5 -34c-49.333 0 -86.333 10 -111 30s-37 47.667 -37 83c0 8 0.333008 15.333 1 22l29 244c5.33301 44 20.833 77.5 46.5 100.5s66.167 34.5 121.5 34.5c48.667 0 85 -10 109 -30s36 -47.667 36 -83c0 -6 -0.333008 -13 -1 -21zM158.003 380.001l-10 -77h97
l10 71c0.666992 6 1 10.667 1 14c0 20.667 -15.667 31 -47 31c-30.667 0 -47.667 -13 -51 -39z" />
    <glyph glyph-name="Gcircumflex" unicode="&#x11c;" horiz-adv-x="435" 
d="M280 809l-28 -55c-6.66699 -14 -16.667 -21 -30 -21h-48c-15.333 0 -18.333 7 -9 21l73 107c8 11.333 18.667 17 32 17h37c13.333 0 22.333 -5.33301 27 -16l48 -108c6 -14 1 -21 -15 -21h-47c-12.667 0 -21 7 -25 21zM240 348l138.003 -0.000976562
c8.66699 0 14.667 -1.66699 18 -5s4.66602 -8.66602 3.99902 -15.999l-24 -190c-6 -44 -22.667 -79.167 -50 -105.5s-73 -39.5 -137 -39.5c-56.667 0 -98.334 11.5 -125.001 34.5s-40 52.833 -40 89.5c0 10 0.333008 17.667 1 23l50 404
c5.33301 44 21.666 79.167 48.999 105.5s73 39.5 137 39.5c57.333 0 99.333 -11.667 126 -35s40 -53.333 40 -90c0 -7.33301 -0.333008 -15 -1 -23l-6 -52c-2 -14.667 -10 -22 -24 -22h-71c-14 0 -20 7.33301 -18 22l5 47c0.666992 6.66699 1 12 1 16
c0 27.333 -18.667 41 -56 41c-40.667 0 -63 -17.333 -67 -52l-48 -393c-0.666992 -6 -1 -12.333 -1 -19c0 -26.667 18.333 -40 55 -40c40.667 0 63 17 67 51l14 113h-50c-14 0 -20 7 -18 21l6 54c2 14 10.333 21 25 21z" />
    <glyph glyph-name="gcircumflex" unicode="&#x11d;" horiz-adv-x="409" 
d="M245 639l-28 -55c-7.33301 -14 -17 -21 -29 -21h-49c-15.333 0 -18.333 7 -9 21l73 107c8 11.333 18.667 17 32 17h37c14 0 23.333 -5.33301 28 -16l47 -108c6 -14 1 -21 -15 -21h-47c-12.667 0 -21 7 -25 21zM112 -8c-30.667 0 -54.666 8.33301 -71.999 25
s-26 38.334 -26 65.001c0 8 0.333008 15.333 1 22l36 294c4 33.333 15.667 59.666 35 78.999s45.666 29 78.999 29c42.667 0 80.334 -15.333 113.001 -46l3 16c2.66699 14.667 10.667 22 24 22h65c14.667 0 21 -7.33301 19 -22l-65 -539c-10 -84.667 -70 -127 -180 -127
h-103c-15.333 0 -22 7.33301 -20 22l7 51c2 14.667 10.333 22 25 22h97c36.667 0 57 14 61 42l11 87c-34.667 -28 -71.334 -42 -110.001 -42zM161.001 370l-29 -235c-0.666992 -6 -1 -11.333 -1 -16c0 -18.667 11 -28 33 -28c23.333 0 46 10 68 30l32 256
c-18 20 -39.667 30 -65 30c-22 0 -34.667 -12.333 -38 -37z" />
    <glyph glyph-name="Gbreve" unicode="&#x11e;" horiz-adv-x="435" 
d="M255 866l-4 -30.999c-0.666992 -4.66699 -1 -9 -1 -13c0 -16 8.66699 -24 26 -24c19.333 0 30 11 32 33l4 35c0.666992 12 7.66699 18 21 18h42c14 0 20 -6 18 -18l-4 -30c-9.33301 -70.667 -49 -106 -119 -106c-30.667 0 -55.167 7.66699 -73.5 23
s-27.5 36.666 -27.5 63.999c0 4.66699 0.333008 10.667 1 18l4 31c2 12 9 18 21 18h43c13.333 0 19 -6 17 -18zM240 348.001l138.003 -0.000976562c8.66699 0 14.667 -1.66699 18 -5s4.66602 -8.66602 3.99902 -15.999l-24 -190c-6 -44 -22.667 -79.167 -50 -105.5
s-73 -39.5 -137 -39.5c-56.667 0 -98.334 11.5 -125.001 34.5s-40 52.833 -40 89.5c0 10 0.333008 17.667 1 23l50 404c5.33301 44 21.666 79.167 48.999 105.5s73 39.5 137 39.5c57.333 0 99.333 -11.667 126 -35s40 -53.333 40 -90c0 -7.33301 -0.333008 -15 -1 -23
l-6 -52c-2 -14.667 -10 -22 -24 -22h-71c-14 0 -20 7.33301 -18 22l5 47c0.666992 6.66699 1 12 1 16c0 27.333 -18.667 41 -56 41c-40.667 0 -63 -17.333 -67 -52l-48 -393c-0.666992 -6 -1 -12.333 -1 -19c0 -26.667 18.333 -40 55 -40c40.667 0 63 17 67 51l14 113h-50
c-14 0 -20 7 -18 21l6 54c2 14 10.333 21 25 21z" />
    <glyph glyph-name="gbreve" unicode="&#x11f;" horiz-adv-x="409" 
d="M220 685l-4 -30.999c-0.666992 -4.66699 -1 -9 -1 -13c0 -16 8.66699 -24 26 -24c19.333 0 30 11 32 33l4 35c0.666992 12 7.66699 18 21 18h42c14 0 20 -6 18 -18l-4 -30c-9.33301 -70.667 -49 -106 -119 -106c-30.667 0 -55.167 7.66699 -73.5 23
s-27.5 36.666 -27.5 63.999c0 4.66699 0.333008 10.667 1 18l4 31c2 12 9 18 21 18h43c13.333 0 19 -6 17 -18zM112 -7.99902c-30.667 0 -54.666 8.33301 -71.999 25s-26 38.334 -26 65.001c0 8 0.333008 15.333 1 22l36 294c4 33.333 15.667 59.666 35 78.999
s45.666 29 78.999 29c42.667 0 80.334 -15.333 113.001 -46l3 16c2.66699 14.667 10.667 22 24 22h65c14.667 0 21 -7.33301 19 -22l-65 -539c-10 -84.667 -70 -127 -180 -127h-103c-15.333 0 -22 7.33301 -20 22l7 51c2 14.667 10.333 22 25 22h97c36.667 0 57 14 61 42
l11 87c-34.667 -28 -71.334 -42 -110.001 -42zM161.001 370.001l-29 -235c-0.666992 -6 -1 -11.333 -1 -16c0 -18.667 11 -28 33 -28c23.333 0 46 10 68 30l32 256c-18 20 -39.667 30 -65 30c-22 0 -34.667 -12.333 -38 -37z" />
    <glyph glyph-name="Gdotaccent" unicode="&#x120;" horiz-adv-x="435" 
d="M337 836l-8.99902 -81c-0.666992 -8 -2.83398 -13.5 -6.50098 -16.5s-9.16699 -4.5 -16.5 -4.5h-73c-8 0 -13.333 1.5 -16 4.5s-3.66699 8.5 -3 16.5l10 81c2 14.667 10 22 24 22h73c13.333 0 19 -7.33301 17 -22zM240.001 348l138.003 -0.000976562
c8.66699 0 14.667 -1.66699 18 -5s4.66602 -8.66602 3.99902 -15.999l-24 -190c-6 -44 -22.667 -79.167 -50 -105.5s-73 -39.5 -137 -39.5c-56.667 0 -98.334 11.5 -125.001 34.5s-40 52.833 -40 89.5c0 10 0.333008 17.667 1 23l50 404
c5.33301 44 21.666 79.167 48.999 105.5s73 39.5 137 39.5c57.333 0 99.333 -11.667 126 -35s40 -53.333 40 -90c0 -7.33301 -0.333008 -15 -1 -23l-6 -52c-2 -14.667 -10 -22 -24 -22h-71c-14 0 -20 7.33301 -18 22l5 47c0.666992 6.66699 1 12 1 16
c0 27.333 -18.667 41 -56 41c-40.667 0 -63 -17.333 -67 -52l-48 -393c-0.666992 -6 -1 -12.333 -1 -19c0 -26.667 18.333 -40 55 -40c40.667 0 63 17 67 51l14 113h-50c-14 0 -20 7 -18 21l6 54c2 14 10.333 21 25 21z" />
    <glyph glyph-name="gdotaccent" unicode="&#x121;" horiz-adv-x="409" 
d="M301 677l-10 -81c-2 -14.667 -10 -22 -24 -22h-72c-14.667 0 -21 7.33301 -19 22l10 81c2 14.667 10 22 24 22h72c14.667 0 21 -7.33301 19 -22zM112 -8c-30.667 0 -54.666 8.33301 -71.999 25s-26 38.334 -26 65.001c0 8 0.333008 15.333 1 22l36 294
c4 33.333 15.667 59.666 35 78.999s45.666 29 78.999 29c42.667 0 80.334 -15.333 113.001 -46l3 16c2.66699 14.667 10.667 22 24 22h65c14.667 0 21 -7.33301 19 -22l-65 -539c-10 -84.667 -70 -127 -180 -127h-103c-15.333 0 -22 7.33301 -20 22l7 51
c2 14.667 10.333 22 25 22h97c36.667 0 57 14 61 42l11 87c-34.667 -28 -71.334 -42 -110.001 -42zM161.001 370l-29 -235c-0.666992 -6 -1 -11.333 -1 -16c0 -18.667 11 -28 33 -28c23.333 0 46 10 68 30l32 256c-18 20 -39.667 30 -65 30c-22 0 -34.667 -12.333 -38 -37z
" />
    <glyph glyph-name="Gcommaaccent" unicode="&#x122;" horiz-adv-x="435" 
d="M240 348l138.003 -0.000976562c8.66699 0 14.667 -1.66699 18 -5s4.66602 -8.66602 3.99902 -15.999l-24 -190c-6 -44 -22.667 -79.167 -50 -105.5s-73 -39.5 -137 -39.5c-56.667 0 -98.334 11.5 -125.001 34.5s-40 52.833 -40 89.5c0 10 0.333008 17.667 1 23l50 404
c5.33301 44 21.666 79.167 48.999 105.5s73 39.5 137 39.5c57.333 0 99.333 -11.667 126 -35s40 -53.333 40 -90c0 -7.33301 -0.333008 -15 -1 -23l-6 -52c-2 -14.667 -10 -22 -24 -22h-71c-14 0 -20 7.33301 -18 22l5 47c0.666992 6.66699 1 12 1 16
c0 27.333 -18.667 41 -56 41c-40.667 0 -63 -17.333 -67 -52l-48 -393c-0.666992 -6 -1 -12.333 -1 -19c0 -26.667 18.333 -40 55 -40c40.667 0 63 17 67 51l14 113h-50c-14 0 -20 7 -18 21l6 54c2 14 10.333 21 25 21zM128.003 -116.001l5.99902 46.001
c2 13.333 9 20 21 20h58c12.667 0 18 -6.66699 16 -20l-6 -52c-3.33301 -28 -10.333 -50.333 -21 -67s-28 -34.334 -52 -53.001c-10 -8 -18.667 -8.33301 -26 -1l-27 25c-7.33301 6.66699 -6.66602 15.667 2.00098 27c15.333 19.333 25 44.333 29 75z" />
    <glyph glyph-name="gcommaaccent" unicode="&#x123;" horiz-adv-x="409" 
d="M287 635l-5.99902 -46.001c-2 -13.333 -9 -20 -21 -20h-58c-12.667 0 -18 6.66699 -16 20l6 52c3.33301 28 10.333 50.333 21 67s28 34.334 52 53.001c10 8 18.667 8.33301 26 1l27 -25c7.33301 -6.66699 6.66602 -15.667 -2.00098 -27
c-15.333 -19.333 -25 -44.333 -29 -75zM112.001 -8.00098c-30.667 0 -54.666 8.33301 -71.999 25s-26 38.334 -26 65.001c0 8 0.333008 15.333 1 22l36 294c4 33.333 15.667 59.666 35 78.999s45.666 29 78.999 29c42.667 0 80.334 -15.333 113.001 -46l3 16
c2.66699 14.667 10.667 22 24 22h65c14.667 0 21 -7.33301 19 -22l-65 -539c-10 -84.667 -70 -127 -180 -127h-103c-15.333 0 -22 7.33301 -20 22l7 51c2 14.667 10.333 22 25 22h97c36.667 0 57 14 61 42l11 87c-34.667 -28 -71.334 -42 -110.001 -42zM161.002 369.999
l-29 -235c-0.666992 -6 -1 -11.333 -1 -16c0 -18.667 11 -28 33 -28c23.333 0 46 10 68 30l32 256c-18 20 -39.667 30 -65 30c-22 0 -34.667 -12.333 -38 -37z" />
    <glyph glyph-name="Hcircumflex" unicode="&#x124;" horiz-adv-x="464" 
d="M292 809l-28 -55c-6.66699 -14 -16.667 -21 -30 -21h-48c-15.333 0 -18.333 7 -9 21l73 107c8 11.333 18.667 17 32 17h37c13.333 0 22.333 -5.33301 27 -16l48 -108c6 -14 1 -21 -15 -21h-47c-12.667 0 -21 7 -25 21zM212 657l-31 -256h129l32 256c2 15.333 10 23 24 23
h73c14.667 0 21 -7.66699 19 -23l-78 -634c-2 -15.333 -10 -23 -24 -23h-73c-14.667 0 -21 7.66699 -19 23l34 281h-129l-35 -281c-2 -15.333 -9.66699 -23 -23 -23h-74c-14.667 0 -21 7.66699 -19 23l78 634c2 15.333 10 23 24 23h74c14 0 20 -7.66699 18 -23z" />
    <glyph glyph-name="hcircumflex" unicode="&#x125;" horiz-adv-x="412" 
d="M161 809l-28 -55c-7.33301 -14 -17.333 -21 -30 -21h-48c-15.333 0 -18.333 7 -9 21l73 107c8 11.333 18.667 17 32 17h37c13.333 0 22.333 -5.33301 27 -16l48 -108c6 -14 1 -21 -15 -21h-47c-12.667 0 -21 7 -25 21zM202 672l-25 -207.998c34.667 28 71 42 109 42
c30 0 54 -8.33301 72 -25s27 -38.334 27 -65.001c0 -2.66699 -0.333008 -7.33398 -1 -14.001l-46 -379c-2 -15.333 -10.333 -23 -25 -23h-69c-14.667 0 -21 7.66699 -19 23l41 342c0.666992 6 1 11 1 15c0 18 -10.667 27 -32 27c-20.667 0 -43.667 -9.66699 -69 -29
l-43 -355c-2 -15.333 -10 -23 -24 -23h-71c-14.667 0 -21 7.66699 -19 23l80 649c2 14.667 10.333 22 25 22h70c14 0 20 -7.33301 18 -22z" />
    <glyph glyph-name="Hbar" unicode="&#x126;" horiz-adv-x="475" 
d="M187 401h129l10 80h-129zM140 23c-2 -15.333 -9.66699 -23 -23 -23h-74c-14.667 0 -21 7.66699 -19 23l56 458h-19c-15.333 0 -22 7 -20 21l4 37c2 14 10.333 21 25 21h20l12 97c2 15.333 10 23 24 23h74c14 0 20 -7.66699 18 -23l-12 -97h130l12 97
c2 15.333 10 23 24 23h73c14.667 0 21 -7.66699 19 -23l-12 -97h19c14.667 0 21 -7 19 -21l-4 -37c-2 -14 -10 -21 -24 -21h-20l-56 -458c-2 -15.333 -10 -23 -24 -23h-73c-14.667 0 -21 7.66699 -19 23l34 281h-129z" />
    <glyph glyph-name="hbar" unicode="&#x127;" horiz-adv-x="412" 
d="M123 23c-2 -15.333 -10 -22.998 -24 -22.998h-71c-14.667 0 -21 7.66699 -19 23l64 523h-30c-16.667 0 -23.667 7.33301 -21 22l6 36c2.66699 14.667 10.667 22 24 22h31l6 46c2 14.667 10.333 22 25 22h70c14 0 20 -7.33301 18 -22l-6 -46h59
c15.333 0 22 -7.33301 20 -22l-5 -36c-2 -14.667 -10.333 -22 -25 -22h-58l-10 -82c34.667 28 71 42 109 42c30 0 54 -8.33301 72 -25s27 -38.334 27 -65.001c0 -2.66699 -0.333008 -7.33398 -1 -14.001l-46 -379c-2 -15.333 -10.333 -23 -25 -23h-69
c-14.667 0 -21 7.66699 -19 23l41 342c0.666992 6 1 11 1 15c0 18 -10.667 27 -32 27c-20.667 0 -43.667 -9.66699 -69 -29z" />
    <glyph glyph-name="Itilde" unicode="&#x128;" horiz-adv-x="218" 
d="M123 784c-7.33301 0 -11.999 -5.33203 -13.999 -15.999l-2 -10c-2.66699 -12.667 -11.334 -19 -26.001 -19h-30c-14 0 -19.333 8.33301 -16 25l8 36c4.66699 20 13.5 35.667 26.5 47s28.5 17 46.5 17c16 0 30.667 -4.33301 44 -13l28 -18c12 -8 20.333 -12 25 -12
c4 0 6.66699 1.16699 8 3.5s3.33301 7.16602 6 14.499l2 7c3.33301 13.333 12 20 26 20h30c15.333 0 21 -8.33301 17 -25l-8 -34c-4.66699 -20.667 -13.167 -36.667 -25.5 -48s-26.833 -17 -43.5 -17c-18 0 -34.333 4.66699 -49 14l-29 18c-10 6.66699 -18 10 -24 10z
M212.001 657.001l-78 -634c-2 -15.333 -9.66699 -23 -23 -23h-74c-14.667 0 -21 7.66699 -19 23l78 634c2 15.333 10 23 24 23h74c14 0 20 -7.66699 18 -23z" />
    <glyph glyph-name="itilde" unicode="&#x129;" horiz-adv-x="198" 
d="M93 606c-7.33301 0 -12.0029 -5.33301 -14.0029 -16l-2 -10c-2.66699 -12.667 -11.334 -19 -26.001 -19h-30c-15.333 0 -20.666 8.66699 -15.999 26l8 35c4.66699 20.667 13.5 36.667 26.5 48s28.5 17 46.5 17c15.333 0 30 -4.66699 44 -14l28 -19
c10 -7.33301 18.333 -11 25 -11s11.334 5.66699 14.001 17l2 9c2.66699 12.667 11.334 19 26.001 19h30c14 0 19.333 -8.33301 16 -25l-7 -34c-4.66699 -20.667 -13.167 -36.667 -25.5 -48s-27.166 -17 -44.499 -17c-18.667 0 -34.667 4.33301 -48 13l-29 18
c-12 7.33301 -20 11 -24 11zM176.997 475l-55 -452c-2 -15.333 -10 -23 -24 -23h-70c-14.667 0 -21 7.66699 -19 23l56 452c2 15.333 10 23 24 23h70c14 0 20 -7.66699 18 -23z" />
    <glyph glyph-name="Imacron" unicode="&#x12a;" horiz-adv-x="218" 
d="M96 843h159c14.667 0 21 -7 19 -21l-5 -44c-2 -14.667 -10.333 -22 -25 -22h-159c-14.667 0 -21 7.33301 -19 22l5 44c2 14 10.333 21 25 21zM212 657l-78 -634c-2 -15.333 -9.66699 -23 -23 -23h-74c-14.667 0 -21 7.66699 -19 23l78 634c2 15.333 10 23 24 23h74
c14 0 20 -7.66699 18 -23z" />
    <glyph glyph-name="imacron" unicode="&#x12b;" horiz-adv-x="197" 
d="M65 665h159c8 0 13.333 -1.5 16 -4.5s3.66699 -8.5 3 -16.5l-4 -43c-0.666992 -14.667 -9 -22 -25 -22h-159c-8 0 -13.333 1.66699 -16 5s-3.66699 9 -3 17l4 43c0.666992 14 9 21 25 21zM177 475l-55 -452c-2 -15.333 -10 -23 -24 -23h-70c-14.667 0 -21 7.66699 -19 23
l56 452c2 15.333 10 23 24 23h70c14 0 20 -7.66699 18 -23z" />
    <glyph glyph-name="Ibreve" unicode="&#x12c;" horiz-adv-x="218" 
d="M147 866l-4 -30.999c-0.666992 -4.66699 -1 -9 -1 -13c0 -16 8.66699 -24 26 -24c19.333 0 30 11 32 33l4 35c0.666992 12 7.66699 18 21 18h42c14 0 20 -6 18 -18l-4 -30c-9.33301 -70.667 -49 -106 -119 -106c-30.667 0 -55.167 7.66699 -73.5 23
s-27.5 36.666 -27.5 63.999c0 4.66699 0.333008 10.667 1 18l4 31c2 12 9 18 21 18h43c13.333 0 19 -6 17 -18zM212 657.001l-78 -634c-2 -15.333 -9.66699 -23 -23 -23h-74c-14.667 0 -21 7.66699 -19 23l78 634c2 15.333 10 23 24 23h74c14 0 20 -7.66699 18 -23z" />
    <glyph glyph-name="ibreve" unicode="&#x12d;" horiz-adv-x="198" 
d="M118 685l-4 -30.999c-0.666992 -4.66699 -1 -9 -1 -13c0 -16 8.66699 -24 26 -24c19.333 0 30 11 32 33l4 35c0.666992 12 7.66699 18 21 18h42c14 0 20 -6 18 -18l-4 -30c-9.33301 -70.667 -49 -106 -119 -106c-30.667 0 -55.167 7.66699 -73.5 23
s-27.5 36.666 -27.5 63.999c0 4.66699 0.333008 10.667 1 18l4 31c2 12 9 18 21 18h43c13.333 0 19 -6 17 -18zM177 475.001l-55 -452c-2 -15.333 -10 -23 -24 -23h-70c-14.667 0 -21 7.66699 -19 23l56 452c2 15.333 10 23 24 23h70c14 0 20 -7.66699 18 -23z" />
    <glyph glyph-name="Iogonek" unicode="&#x12e;" horiz-adv-x="219" 
d="M212 657l-77.999 -634c-2 -15.333 -9.66699 -23 -23 -23h-19c-16 -1.33301 -27.333 -9.33301 -34 -24s-10 -28.667 -10 -42c0 -18.667 10 -28 30 -28h12c15.333 0 22 -6.66699 20 -20l-3 -30c-2 -14.667 -10.667 -22 -26 -22h-31c-22.667 0 -42.334 6.16699 -59.001 18.5
s-25 30.833 -25 55.5c0 40.667 17.667 80 53 118l78 631c2 15.333 9.66699 23 23 23h74c14 0 20 -7.66699 18 -23z" />
    <glyph glyph-name="iogonek" unicode="&#x12f;" horiz-adv-x="200" 
d="M205 672l-11 -88c-2 -14.667 -10 -22 -24 -22h-71c-14 0 -20 7.33301 -18 22l10 88c2 14.667 10.333 22 25 22h70c14.667 0 21 -7.33301 19 -22zM181 475l-56 -452c-2 -15.333 -10 -23 -24 -23h-15c-15.333 -2 -26.833 -10 -34.5 -24s-11.5 -28.333 -11.5 -43
c0 -18 10.333 -27 31 -27h12c15.333 0 22 -6.66699 20 -20l-3 -30c-2 -14.667 -10.667 -22 -26 -22h-32c-22.667 0 -42.167 6.16699 -58.5 18.5s-24.5 30.5 -24.5 54.5c0 40.667 17.667 81 53 121l55 447c2 15.333 10 23 24 23h71c14.667 0 21 -7.66699 19 -23z" />
    <glyph glyph-name="Idotaccent" unicode="&#x130;" horiz-adv-x="218" 
d="M233 839l-8.99902 -81c-0.666992 -8 -2.83398 -13.5 -6.50098 -16.5s-9.16699 -4.5 -16.5 -4.5h-73c-8 0 -13.333 1.5 -16 4.5s-3.66699 8.5 -3 16.5l10 81c2 14.667 10 22 24 22h73c13.333 0 19 -7.33301 17 -22zM212.001 657l-78 -634c-2 -15.333 -9.66699 -23 -23 -23
h-74c-14.667 0 -21 7.66699 -19 23l78 634c2 15.333 10 23 24 23h74c14 0 20 -7.66699 18 -23z" />
    <glyph glyph-name="dotlessi" unicode="&#x131;" horiz-adv-x="198" 
d="M177 475l-55 -452c-2 -15.333 -10 -23 -24 -23h-70c-14.667 0 -21 7.66699 -19 23l56 452c2 15.333 10 23 24 23h70c14 0 20 -7.66699 18 -23z" />
    <glyph glyph-name="IJ" unicode="&#x132;" horiz-adv-x="611" 
d="M212 657l-78 -634c-2 -15.333 -9.66699 -23 -23 -23h-74c-14.667 0 -21 7.66699 -19 23l78 634c2 15.333 10 23 24 23h74c14 0 20 -7.66699 18 -23zM332 206l-8.00098 -64.001c-0.666992 -5.33301 -1 -10.666 -1 -15.999c0 -25.333 15.667 -38 47 -38
c33.333 0 52 16.667 56 50l64 519c2 15.333 9.66699 23 23 23h75c14 0 20 -7.66699 18 -23l-64 -520c-5.33301 -44.667 -20.666 -80 -45.999 -106s-68.333 -39 -129 -39c-54 0 -94 11.5 -120 34.5s-39 52.833 -39 89.5c0 4 0.666992 12 2 24l8 66c2 14.667 10.333 22 25 22
h71c14 0 20 -7.33301 18 -22z" />
    <glyph glyph-name="ij" unicode="&#x133;" horiz-adv-x="390" 
d="M395 672l-11 -88c-2 -14.667 -9.66699 -22 -23 -22h-71c-14.667 0 -21 7.33301 -19 22l11 88c2 14.667 10 22 24 22h71c14 0 20 -7.33301 18 -22zM202 672l-11 -88c-2 -14.667 -9.66699 -22 -23 -22h-71c-14.667 0 -21 7.33301 -19 22l11 88c2 14.667 10 22 24 22h71
c14 0 20 -7.33301 18 -22zM371 475l-66.001 -538c-10.667 -84.667 -69.667 -127 -177 -127h-9c-15.333 0 -22 7.33301 -20 22l6 51c2 14.667 10.333 22 25 22h6c34.667 0 53.334 13 56.001 39l66 531c2 15.333 10 23 24 23h70c14.667 0 21 -7.66699 19 -23zM177.999 475
l-55 -452c-2 -15.333 -10 -23 -24 -23h-71c-14.667 0 -21 7.66699 -19 23l56 452c2 15.333 10 23 24 23h70c14.667 0 21 -7.66699 19 -23z" />
    <glyph glyph-name="Jcircumflex" unicode="&#x134;" horiz-adv-x="394" 
d="M346 809l-28 -55c-6.66699 -14 -16.667 -21 -30 -21h-48c-15.333 0 -18.333 7 -9 21l73 107c8 11.333 18.667 17 32 17h37c13.333 0 22.333 -5.33301 27 -16l48 -108c6 -14 1 -21 -15 -21h-47c-12.667 0 -21 7 -25 21zM115 206l-8.00098 -64.001
c-0.666992 -5.33301 -1 -10.666 -1 -15.999c0 -25.333 15.667 -38 47 -38c33.333 0 52 16.667 56 50l64 519c2 15.333 9.66699 23 23 23h75c14 0 20 -7.66699 18 -23l-64 -520c-5.33301 -44.667 -20.666 -80 -45.999 -106s-68.333 -39 -129 -39c-54 0 -94 11.5 -120 34.5
s-39 52.833 -39 89.5c0 4 0.666992 12 2 24l8 66c2 14.667 10.333 22 25 22h71c14 0 20 -7.33301 18 -22z" />
    <glyph glyph-name="jcircumflex" unicode="&#x135;" horiz-adv-x="198" 
d="M139 639l-28 -55c-7.33301 -14 -17 -21 -29 -21h-49c-15.333 0 -18.333 7 -9 21l73 107c8 11.333 18.667 17 32 17h37c14 0 23.333 -5.33301 28 -16l47 -108c6 -14 1 -21 -15 -21h-47c-12.667 0 -21 7 -25 21zM178 475l-66 -538c-10.667 -84.667 -69.667 -127 -177 -127
h-9c-15.333 0 -22 7.33301 -20 22l6 50c2 14.667 10.333 22 25 22h6c34 0 52.667 13.333 56 40l66 531c2 15.333 10 23 24 23h70c14.667 0 21 -7.66699 19 -23z" />
    <glyph glyph-name="Kcommaaccent" unicode="&#x136;" horiz-adv-x="433" 
d="M285 348l103 -326c4.66699 -14.667 -1.33301 -22 -18 -22h-83c-12 -0 -20.333 7.33301 -25 22l-82 276h-12l-34 -276c-2 -14.667 -10 -22 -24 -22h-73c-14.667 -0 -21 7.33301 -19 22l78 636c2 14.667 10 22 24 22h73c14.667 0 21 -7.33301 19 -22l-34 -273h10l141 273
c8 14.667 19 22 33 22h77c16 0 20 -7.33301 12 -22zM132 -116l5.99902 46.001c2 13.333 9 20 21 20h58c12.667 0 18 -6.66699 16 -20l-6 -52c-3.33301 -28 -10.333 -50.333 -21 -67s-28 -34.334 -52 -53.001c-10 -8 -18.667 -8.33301 -26 -1l-27 25
c-7.33301 6.66699 -6.66602 15.667 2.00098 27c15.333 19.333 25 44.333 29 75z" />
    <glyph glyph-name="kcommaaccent" unicode="&#x137;" horiz-adv-x="382" 
d="M99 0h-71.001c-14.667 -0 -21 7.33301 -19 22l80 650c2 14.667 10 22 24 22h71c14 0 20 -7.33301 18 -22l-43 -351h11l96 155c8.66699 14.667 20.334 22 35.001 22h74c8 0 13 -2.16699 15 -6.5s0.666992 -9.83301 -4 -16.5l-126 -194l79 -259
c1.33301 -6 0.5 -11.167 -2.5 -15.5s-8.16699 -6.5 -15.5 -6.5h-75c-12 -0 -20.333 7.33301 -25 22l-60 212h-13l-25 -212c-2 -14.667 -10 -22 -24 -22zM109.999 -116l5.99902 46.001c2 13.333 9 20 21 20h58c12.667 0 18 -6.66699 16 -20l-6 -52
c-3.33301 -28 -10.333 -50.333 -21 -67s-28 -34.334 -52 -53.001c-10 -8 -18.667 -8.33301 -26 -1l-27 25c-7.33301 6.66699 -6.66602 15.667 2.00098 27c15.333 19.333 25 44.333 29 75z" />
    <glyph glyph-name="kgreenlandic" unicode="&#x138;" horiz-adv-x="382" 
d="M99 0h-71.001c-14.667 -0 -21 7.33301 -19 22l56 454c2 14.667 10 22 24 22h70c14.667 0 21 -7.33301 19 -22l-19 -155h11l96 155c8.66699 14.667 20.334 22 35.001 22h74c8 0 13 -2.16699 15 -6.5s0.666992 -9.83301 -4 -16.5l-127 -193l80 -260
c1.33301 -6 0.5 -11.167 -2.5 -15.5s-8.16699 -6.5 -15.5 -6.5h-75c-12 -0 -20.333 7.33301 -25 22l-60 212h-13l-25 -212c-2 -14.667 -10 -22 -24 -22z" />
    <glyph glyph-name="Lacute" unicode="&#x139;" horiz-adv-x="337" 
d="M280 856l-65.001 -109c-5.33301 -9.33301 -14.666 -14 -27.999 -14h-55c-12.667 0 -16 7 -10 21l44 102c6 14.667 16.333 22 31 22h73c16 0 19.333 -7.33301 10 -22zM211.999 657l-69 -561h141c8 0 13.5 -1.33301 16.5 -4s4.16699 -8 3.5 -16l-7 -54
c-2 -14.667 -10 -22 -24 -22h-239c-12.667 0 -18 7.66699 -16 23l78 634c2 15.333 10 23 24 23h74c14 0 20 -7.66699 18 -23z" />
    <glyph glyph-name="lacute" unicode="&#x13a;" horiz-adv-x="198" 
d="M270 856l-65.001 -109c-5.33301 -9.33301 -14.666 -14 -27.999 -14h-55c-12.667 0 -16 7 -10 21l44 102c6 14.667 16.333 22 31 22h73c16 0 19.333 -7.33301 10 -22zM201.999 672l-79 -649c-2 -15.333 -10 -23 -24 -23h-71c-14.667 0 -21 7.66699 -19 23l80 649
c2 14.667 10 22 24 22h71c14 0 20 -7.33301 18 -22z" />
    <glyph glyph-name="Lcommaaccent" unicode="&#x13b;" horiz-adv-x="337" 
d="M212 657l-69 -561h141c8 0 13.5 -1.33301 16.5 -4s4.16699 -8 3.5 -16l-7 -54c-2 -14.667 -10 -22 -24 -22h-239c-12.667 0 -18 7.66699 -16 23l78 634c2 15.333 10 23 24 23h74c14 0 20 -7.66699 18 -23zM96 -116l5.99902 46.001c2 13.333 9 20 21 20h58
c12.667 0 18 -6.66699 16 -20l-6 -52c-3.33301 -28 -10.333 -50.333 -21 -67s-28 -34.334 -52 -53.001c-10 -8 -18.667 -8.33301 -26 -1l-27 25c-7.33301 6.66699 -6.66602 15.667 2.00098 27c15.333 19.333 25 44.333 29 75z" />
    <glyph glyph-name="lcommaaccent" unicode="&#x13c;" horiz-adv-x="198" 
d="M202 672l-79 -649c-2 -15.333 -10 -23 -24 -23h-71c-14.667 0 -21 7.66699 -19 23l80 649c2 14.667 10 22 24 22h71c14 0 20 -7.33301 18 -22zM3 -117l5.99902 46.001c2 13.333 9 20 21 20h58c12.667 0 18 -6.66699 16 -20l-6 -52c-3.33301 -28 -10.333 -50.333 -21 -67
s-28 -34.334 -52 -53.001c-10 -8 -18.667 -8.33301 -26 -1l-27 25c-7.33301 6.66699 -6.66602 15.667 2.00098 27c15.333 19.333 25 44.333 29 75z" />
    <glyph glyph-name="Lcaron" unicode="&#x13d;" horiz-adv-x="361" 
d="M287 662l5.99902 46.001c2 13.333 9 20 21 20h58c12.667 0 18 -6.66699 16 -20l-6 -52c-3.33301 -28 -10.333 -50.333 -21 -67s-28 -34.334 -52 -53.001c-10 -8 -18.667 -8.33301 -26 -1l-27 25c-7.33301 6.66699 -6.66602 15.667 2.00098 27
c15.333 19.333 25 44.333 29 75zM211.999 657.001l-69 -561h141c8 0 13.5 -1.33301 16.5 -4s4.16699 -8 3.5 -16l-7 -54c-2 -14.667 -10 -22 -24 -22h-239c-12.667 0 -18 7.66699 -16 23l78 634c2 15.333 10 23 24 23h74c14 0 20 -7.66699 18 -23z" />
    <glyph glyph-name="lcaron" unicode="&#x13e;" horiz-adv-x="214" 
d="M254 668l5.99902 46.001c2 13.333 9 20 21 20h58c12.667 0 18 -6.66699 16 -20l-6 -52c-3.33301 -28 -10.333 -50.333 -21 -67s-28 -34.334 -52 -53.001c-10 -8 -18.667 -8.33301 -26 -1l-27 25c-7.33301 6.66699 -6.66602 15.667 2.00098 27
c15.333 19.333 25 44.333 29 75zM201.999 672.001l-79 -649c-2 -15.333 -10 -23 -24 -23h-71c-14.667 0 -21 7.66699 -19 23l80 649c2 14.667 10 22 24 22h71c14 0 20 -7.33301 18 -22z" />
    <glyph glyph-name="Ldot" unicode="&#x13f;" horiz-adv-x="367" 
d="M212 657l-69 -561h141c8 0 13.5 -1.33301 16.5 -4s4.16699 -8 3.5 -16l-7 -54c-2 -14.667 -10 -22 -24 -22h-239c-12.667 0 -18 7.66699 -16 23l78 634c2 15.333 10 23 24 23h74c14 0 20 -7.66699 18 -23zM361 393l-10 -80c-2 -14.667 -10 -22 -24 -22h-72
c-14.667 0 -21 7.33301 -19 22l10 80c2 14.667 10 22 24 22h73c14 0 20 -7.33301 18 -22z" />
    <glyph glyph-name="ldot" unicode="&#x140;" horiz-adv-x="301" 
d="M202 672l-79 -649c-2 -15.333 -10 -23 -24 -23h-71c-14.667 0 -21 7.66699 -19 23l80 649c2 14.667 10 22 24 22h71c14 0 20 -7.33301 18 -22zM320 393l-10 -80c-2 -14.667 -10 -22 -24 -22h-72c-14.667 0 -21 7.33301 -19 22l10 80c2 14.667 10 22 24 22h73
c14 0 20 -7.33301 18 -22z" />
    <glyph glyph-name="Lslash" unicode="&#x141;" horiz-adv-x="360" 
d="M297 0l-239 -0.000976562c-12.667 0 -18 7.66699 -16 23l32 258l-35 -14c-13.333 -5.33301 -22.333 -1.66602 -27 11.001l-9 26c-4 12 1.66699 21 17 27l63 26l37 300c2 15.333 10 23 24 23h74c14 0 20 -7.66699 18 -23l-31 -251l39 16c14.667 6 24 2 28 -12l7 -25
c3.33301 -12 -1.66699 -21 -15 -27l-68 -28l-29 -234h141c8 0 13.5 -1.33301 16.5 -4s4.16699 -8 3.5 -16l-7 -54c-2 -14.667 -10 -22 -24 -22z" />
    <glyph glyph-name="lslash" unicode="&#x142;" horiz-adv-x="241" 
d="M117 0h-71c-14.667 0 -21 7.66699 -19 23l31 251l-15 -7c-13.333 -6 -22 -2.33301 -26 11l-8 26c-3.33301 11.333 2 20.333 16 27l42 20l40 321c2 14.667 10 22 24 22h71c14 0 20 -7.33301 18 -22l-32 -263l24 12c14.667 6.66699 24 3 28 -11l7 -25
c3.33301 -11.333 -1.66699 -20.333 -15 -27l-53 -26l-38 -309c-2 -15.333 -10 -23 -24 -23z" />
    <glyph glyph-name="Nacute" unicode="&#x143;" horiz-adv-x="466" 
d="M403 856l-65.001 -109c-5.33301 -9.33301 -14.666 -14 -27.999 -14h-55c-12.667 0 -16 7 -10 21l44 102c6 14.667 16.333 22 31 22h73c16 0 19.333 -7.33301 10 -22zM459.999 658l-79.001 -636c-2 -14.667 -9.66699 -22 -23 -22h-70
c-10.667 0 -17.334 5.66699 -20.001 17l-83 324c-8 32.667 -13 57.667 -15 75l-49 -394c-2 -14.667 -9.66699 -22 -23 -22h-61c-14.667 -0 -21 7.33301 -19 22l78 636c2 14.667 10 22 24 22h70c10.667 0 17.334 -4.66699 20.001 -14l84 -328
c6.66699 -26 11.334 -49 14.001 -69l48 389c2 14.667 10 22 24 22h61c14.667 0 21 -7.33301 19 -22z" />
    <glyph glyph-name="nacute" unicode="&#x144;" horiz-adv-x="412" 
d="M354 686l-65 -109c-5.33301 -9.33301 -14.666 -14 -27.999 -14h-55c-12.667 0 -16 7 -10 21l44 102c6 14.667 16 22 30 22h74c15.333 0 18.666 -7.33301 9.99902 -22zM89 498h65c8 0 13.167 -1.5 15.5 -4.5s3.5 -8.83301 3.5 -17.5v-15c35.333 30 73 45 113 45
c30 0 54 -8.5 72 -25.5s27 -38.833 27 -65.5c0 -4 -0.333008 -9.33301 -1 -16l-46 -376c-2 -15.333 -10.333 -23 -25 -23h-69c-14.667 0 -21 7.66699 -19 23l41 340c0.666992 7.33301 1 13 1 17c0 18 -10.667 27 -32 27c-22.667 0 -45.667 -9.66699 -69 -29l-43 -355
c-2 -15.333 -10 -23 -24 -23h-71c-14.667 0 -21 7.66699 -19 23l56 453c2 14.667 10 22 24 22z" />
    <glyph glyph-name="Ncommaaccent" unicode="&#x145;" horiz-adv-x="466" 
d="M460 658l-79.001 -636c-2 -14.667 -9.66699 -22 -23 -22h-70c-10.667 0 -17.334 5.66699 -20.001 17l-83 324c-8 32.667 -13 57.667 -15 75l-49 -394c-2 -14.667 -9.66699 -22 -23 -22h-61c-14.667 -0 -21 7.33301 -19 22l78 636c2 14.667 10 22 24 22h70
c10.667 0 17.334 -4.66699 20.001 -14l84 -328c6.66699 -26 11.334 -49 14.001 -69l48 389c2 14.667 10 22 24 22h61c14.667 0 21 -7.33301 19 -22zM148.999 -117l5.99902 46.001c2 13.333 9 20 21 20h58c12.667 0 18 -6.66699 16 -20l-6 -52
c-3.33301 -28 -10.333 -50.333 -21 -67s-28 -34.334 -52 -53.001c-10 -8 -18.667 -8.33301 -26 -1l-27 25c-7.33301 6.66699 -6.66602 15.667 2.00098 27c15.333 19.333 25 44.333 29 75z" />
    <glyph glyph-name="ncommaaccent" unicode="&#x146;" horiz-adv-x="412" 
d="M89 498h65c8 0 13.167 -1.5 15.5 -4.5s3.5 -8.83301 3.5 -17.5v-15c35.333 30 73 45 113 45c30 0 54 -8.5 72 -25.5s27 -38.833 27 -65.5c0 -4 -0.333008 -9.33301 -1 -16l-46 -376c-2 -15.333 -10.333 -23 -25 -23h-69c-14.667 0 -21 7.66699 -19 23l41 340
c0.666992 7.33301 1 13 1 17c0 18 -10.667 27 -32 27c-22.667 0 -45.667 -9.66699 -69 -29l-43 -355c-2 -15.333 -10 -23 -24 -23h-71c-14.667 0 -21 7.66699 -19 23l56 453c2 14.667 10 22 24 22zM111 -116l5.99902 46.001c2 13.333 9 20 21 20h58
c12.667 0 18 -6.66699 16 -20l-6 -52c-3.33301 -28 -10.333 -50.333 -21 -67s-28 -34.334 -52 -53.001c-10 -8 -18.667 -8.33301 -26 -1l-27 25c-7.33301 6.66699 -6.66602 15.667 2.00098 27c15.333 19.333 25 44.333 29 75z" />
    <glyph glyph-name="Ncaron" unicode="&#x147;" horiz-adv-x="466" 
d="M279 857l15 -55l28 55c7.33301 14 17.333 21 30 21h48c16 0 19 -7.33301 9 -22l-73 -107c-7.33301 -10.667 -18 -16 -32 -16h-37c-13.333 0 -22.333 5.33301 -27 16l-48 107c-3.33301 6.66699 -3.5 12 -0.5 16s8.16699 6 15.5 6h48c12 0 20 -7 24 -21zM460 658
l-79.001 -636c-2 -14.667 -9.66699 -22 -23 -22h-70c-10.667 0 -17.334 5.66699 -20.001 17l-83 324c-8 32.667 -13 57.667 -15 75l-49 -394c-2 -14.667 -9.66699 -22 -23 -22h-61c-14.667 -0 -21 7.33301 -19 22l78 636c2 14.667 10 22 24 22h70
c10.667 0 17.334 -4.66699 20.001 -14l84 -328c6.66699 -26 11.334 -49 14.001 -69l48 389c2 14.667 10 22 24 22h61c14.667 0 21 -7.33301 19 -22z" />
    <glyph glyph-name="ncaron" unicode="&#x148;" horiz-adv-x="412" 
d="M228 687l14.001 -55l28 55c7.33301 14 17.666 21 30.999 21h48c16 0 19 -7.33301 9 -22l-73 -107c-7.33301 -10.667 -18.333 -16 -33 -16h-36c-14 0 -23.333 5.33301 -28 16l-47 107c-6.66699 14.667 -2 22 14 22h49c12 0 20 -7 24 -21zM89.001 498h65
c8 0 13.167 -1.5 15.5 -4.5s3.5 -8.83301 3.5 -17.5v-15c35.333 30 73 45 113 45c30 0 54 -8.5 72 -25.5s27 -38.833 27 -65.5c0 -4 -0.333008 -9.33301 -1 -16l-46 -376c-2 -15.333 -10.333 -23 -25 -23h-69c-14.667 0 -21 7.66699 -19 23l41 340
c0.666992 7.33301 1 13 1 17c0 18 -10.667 27 -32 27c-22.667 0 -45.667 -9.66699 -69 -29l-43 -355c-2 -15.333 -10 -23 -24 -23h-71c-14.667 0 -21 7.66699 -19 23l56 453c2 14.667 10 22 24 22z" />
    <glyph glyph-name="napostrophe" unicode="&#x149;" horiz-adv-x="412" 
d="M71 668l5.99902 46.001c2 13.333 9 20 21 20h58c12.667 0 18 -6.66699 16 -20l-6 -52c-3.33301 -28 -10.333 -50.333 -21 -67s-28 -34.334 -52 -53.001c-10 -8 -18.667 -8.33301 -26 -1l-27 25c-7.33301 6.66699 -6.66602 15.667 2.00098 27
c15.333 19.333 25 44.333 29 75zM88.999 498.001h65c8 0 13.167 -1.5 15.5 -4.5s3.5 -8.83301 3.5 -17.5v-15c35.333 30 73 45 113 45c30 0 54 -8.5 72 -25.5s27 -38.833 27 -65.5c0 -4 -0.333008 -9.33301 -1 -16l-46 -376c-2 -15.333 -10.333 -23 -25 -23h-69
c-14.667 0 -21 7.66699 -19 23l41 340c0.666992 7.33301 1 13 1 17c0 18 -10.667 27 -32 27c-22.667 0 -45.667 -9.66699 -69 -29l-43 -355c-2 -15.333 -10 -23 -24 -23h-71c-14.667 0 -21 7.66699 -19 23l56 453c2 14.667 10 22 24 22z" />
    <glyph glyph-name="Eng" unicode="&#x14a;" horiz-adv-x="465" 
d="M460 658l-89 -710c-12 -92 -80 -138 -204 -138h-10c-15.333 0 -22 7.33301 -20 22l7 49c2 14.667 10.333 22 25 22h8c56 0 86.667 18.667 92 56l6 48l-90 334c-4 16 -9 41 -15 75l-48 -394c-2 -14.667 -10 -22 -24 -22h-61c-14.667 -0 -21 7.33301 -19 22l78 636
c2 14.667 10 22 24 22h71c10.667 0 17 -3.66699 19 -11l85 -331c4.66699 -18 9 -40.667 13 -68l48 388c2 14.667 10 22 24 22h61c14.667 0 21 -7.33301 19 -22z" />
    <glyph glyph-name="eng" unicode="&#x14b;" horiz-adv-x="412" 
d="M385 416c0 -6 -0.332031 -11.999 -0.999023 -17.999l-57 -461c-10.667 -84.667 -69.334 -127 -176.001 -127h-10c-15.333 0 -22 7.33301 -20 22l6 50c2 14.667 10.333 22 25 22h9c32 0 49.667 11.667 53 35l52 424c0.666992 5.33301 1 11 1 17c0 18 -10.667 27 -32 27
c-22.667 0 -45.667 -9.66699 -69 -29l-44 -355c-2 -15.333 -10 -23 -24 -23h-70c-14.667 0 -21 7.66699 -19 23l56 453c2 14.667 10 22 24 22h65c8 0 13.167 -1.5 15.5 -4.5s3.5 -8.83301 3.5 -17.5v-15c35.333 30 73 45 113 45c30 0 54 -8.33301 72 -25
s27 -38.334 27 -65.001z" />
    <glyph glyph-name="Omacron" unicode="&#x14c;" horiz-adv-x="450" 
d="M213 843h159c14.667 0 21 -7 19 -21l-5 -44c-2 -14.667 -10.333 -22 -25 -22h-159c-14.667 0 -21 7.33301 -19 22l5 44c2 14 10.333 21 25 21zM25 139l50.001 404c11.333 96.667 75 145 191 145c57.333 0 100.166 -12 128.499 -36s42.5 -54.333 42.5 -91
c0 -6 -0.333008 -12.667 -1 -20l-50 -404c-11.333 -96.667 -75.333 -145 -192 -145c-57.333 0 -100 11.667 -128 35s-42 53.333 -42 90c0 8.66699 0.333008 16 1 22zM270.001 140l50 393c0.666992 6.66699 1 12 1 16c0 28.667 -20.333 43 -61 43
c-42.667 0 -66 -17.333 -70 -52l-48 -393c-0.666992 -5.33301 -1 -10.333 -1 -15c0 -29.333 20 -44 60 -44c42 0 65 17.333 69 52z" />
    <glyph glyph-name="omacron" unicode="&#x14d;" horiz-adv-x="401" 
d="M166 665h159c8 0 13.333 -1.5 16 -4.5s3.66699 -8.5 3 -16.5l-4 -43c-0.666992 -14.667 -9 -22 -25 -22h-159c-8 0 -13.333 1.66699 -16 5s-3.66699 9 -3 17l4 43c0.666992 14 9 21 25 21zM16 125l31 246.999c11.333 89.333 69.333 134 174 134
c49.333 0 87.5 -10.333 114.5 -31s40.5 -48.667 40.5 -84c0 -5.33301 -0.333008 -11.666 -1 -18.999l-31 -247c-11.333 -88.667 -69.333 -133 -174 -133c-49.333 0 -87.5 10.333 -114.5 31s-40.5 48.667 -40.5 84c0 6 0.333008 12 1 18zM231 123.999l30.001 246
c0.666992 6 1 10.333 1 13c0 21.333 -15.667 32 -47 32c-32.667 0 -51 -13.667 -55 -41l-31 -245c-0.666992 -6 -1 -10.333 -1 -13c0 -22.667 16 -34 48 -34c33.333 0 51.666 14 54.999 42z" />
    <glyph glyph-name="Obreve" unicode="&#x14e;" horiz-adv-x="450" 
d="M265 866l-4 -30.999c-0.666992 -4.66699 -1 -9 -1 -13c0 -16 8.66699 -24 26 -24c19.333 0 30 11 32 33l4 35c0.666992 12 7.66699 18 21 18h42c14 0 20 -6 18 -18l-4 -30c-9.33301 -70.667 -49 -106 -119 -106c-30.667 0 -55.167 7.66699 -73.5 23
s-27.5 36.666 -27.5 63.999c0 4.66699 0.333008 10.667 1 18l4 31c2 12 9 18 21 18h43c13.333 0 19 -6 17 -18zM25 139.001l50.001 404c11.333 96.667 75 145 191 145c57.333 0 100.166 -12 128.499 -36s42.5 -54.333 42.5 -91c0 -6 -0.333008 -12.667 -1 -20l-50 -404
c-11.333 -96.667 -75.333 -145 -192 -145c-57.333 0 -100 11.667 -128 35s-42 53.333 -42 90c0 8.66699 0.333008 16 1 22zM270.001 140.001l50 393c0.666992 6.66699 1 12 1 16c0 28.667 -20.333 43 -61 43c-42.667 0 -66 -17.333 -70 -52l-48 -393
c-0.666992 -5.33301 -1 -10.333 -1 -15c0 -29.333 20 -44 60 -44c42 0 65 17.333 69 52z" />
    <glyph glyph-name="obreve" unicode="&#x14f;" horiz-adv-x="401" 
d="M220 685l-4 -30.999c-0.666992 -4.66699 -1 -9 -1 -13c0 -16 8.66699 -24 26 -24c19.333 0 30 11 32 33l4 35c0.666992 12 7.66699 18 21 18h42c14 0 20 -6 18 -18l-4 -30c-9.33301 -70.667 -49 -106 -119 -106c-30.667 0 -55.167 7.66699 -73.5 23
s-27.5 36.666 -27.5 63.999c0 4.66699 0.333008 10.667 1 18l4 31c2 12 9 18 21 18h43c13.333 0 19 -6 17 -18zM16 125.001l31 246.999c11.333 89.333 69.333 134 174 134c49.333 0 87.5 -10.333 114.5 -31s40.5 -48.667 40.5 -84c0 -5.33301 -0.333008 -11.666 -1 -18.999
l-31 -247c-11.333 -88.667 -69.333 -133 -174 -133c-49.333 0 -87.5 10.333 -114.5 31s-40.5 48.667 -40.5 84c0 6 0.333008 12 1 18zM231 124l30.001 246c0.666992 6 1 10.333 1 13c0 21.333 -15.667 32 -47 32c-32.667 0 -51 -13.667 -55 -41l-31 -245
c-0.666992 -6 -1 -10.333 -1 -13c0 -22.667 16 -34 48 -34c33.333 0 51.666 14 54.999 42z" />
    <glyph glyph-name="Ohungarumlaut" unicode="&#x150;" horiz-adv-x="450" 
d="M326 856l-57.999 -104c-6.66699 -12.667 -16.334 -19 -29.001 -19h-49c-14 0 -17.667 7 -11 21l46 103c6 14 16.667 21 32 21h57c16 0 20 -7.33301 12 -22zM455.001 856l-68 -103c-8.66699 -13.333 -20 -20 -34 -20h-49c-14 0 -16.667 7 -8 21l58 103
c8 14 19.667 21 35 21h58c15.333 0 18 -7.33301 8 -22zM25.001 139l50.001 404c11.333 96.667 75 145 191 145c57.333 0 100.166 -12 128.499 -36s42.5 -54.333 42.5 -91c0 -6 -0.333008 -12.667 -1 -20l-50 -404c-11.333 -96.667 -75.333 -145 -192 -145
c-57.333 0 -100 11.667 -128 35s-42 53.333 -42 90c0 8.66699 0.333008 16 1 22zM270.002 140l50 393c0.666992 6.66699 1 12 1 16c0 28.667 -20.333 43 -61 43c-42.667 0 -66 -17.333 -70 -52l-48 -393c-0.666992 -5.33301 -1 -10.333 -1 -15c0 -29.333 20 -44 60 -44
c42 0 65 17.333 69 52z" />
    <glyph glyph-name="ohungarumlaut" unicode="&#x151;" horiz-adv-x="401" 
d="M283 686l-57 -104c-6.66699 -12.667 -16.667 -19 -30 -19h-49c-15.333 0 -19.333 7 -12 21l47 103c6 14 16.333 21 31 21h58c16 0 20 -7.33301 12 -22zM412 686l-68 -103c-8.66699 -13.333 -20 -20 -34 -20h-48c-14 0 -17.333 7 -10 21l59 103c8 14 19.333 21 34 21h59
c15.333 0 18 -7.33301 8 -22zM16 125l31 246.999c11.333 89.333 69.333 134 174 134c49.333 0 87.5 -10.333 114.5 -31s40.5 -48.667 40.5 -84c0 -5.33301 -0.333008 -11.666 -1 -18.999l-31 -247c-11.333 -88.667 -69.333 -133 -174 -133c-49.333 0 -87.5 10.333 -114.5 31
s-40.5 48.667 -40.5 84c0 6 0.333008 12 1 18zM231 123.999l30.001 246c0.666992 6 1 10.333 1 13c0 21.333 -15.667 32 -47 32c-32.667 0 -51 -13.667 -55 -41l-31 -245c-0.666992 -6 -1 -10.333 -1 -13c0 -22.667 16 -34 48 -34c33.333 0 51.666 14 54.999 42z" />
    <glyph glyph-name="OE" unicode="&#x152;" horiz-adv-x="610" 
d="M201 88c42 0 65.001 17.333 69.001 52l50 403c2 16.667 -2.33301 29 -13 37s-26.334 12 -47.001 12c-42.667 0 -66 -17.333 -70 -52l-48 -388c-1.33301 -13.333 -2 -20.333 -2 -21c0 -28.667 20.333 -43 61 -43zM275.001 0c-10.667 0 -17 3.33301 -19 10
c-22.667 -12 -49 -18 -79 -18c-51.333 0 -89.833 11.833 -115.5 35.5s-38.5 53.5 -38.5 89.5c0 7.33301 0.666992 16.333 2 27l50 399c11.333 96.667 70 145 176 145c34.667 0 63 -7 85 -21c4 8.66699 11.333 13 22 13h243c15.333 0 22 -7 20 -21l-8 -54
c-2 -14 -10 -21 -24 -21h-148l-22 -184h135c15.333 0 22 -7 20 -21l-6 -51c-2 -14 -10 -21 -24 -21h-136l-27 -211h155c8 0 13.5 -1.33301 16.5 -4s4.16699 -8 3.5 -16l-6 -54c-2 -14.667 -10.333 -22 -25 -22h-250z" />
    <glyph glyph-name="oe" unicode="&#x153;" horiz-adv-x="599" 
d="M380 -8c-48.667 0 -84.667 10.999 -108 32.999c-26 -22 -63.333 -33 -112 -33c-48 0 -84.167 10 -108.5 30s-36.5 47.667 -36.5 83c0 6.66699 0.333008 13.334 1 20.001l31 247c11.333 89.333 68 134 170 134c46.667 0 81.667 -10.667 105 -32
c28.667 21.333 67.667 32 117 32c91.333 0 137 -36.667 137 -110c0 -4 -0.666992 -12 -2 -24l-15 -127c-2 -13.333 -9.33301 -20 -22 -20h-183l-13 -104c-0.666992 -5.33301 -1 -9 -1 -11c0 -21.333 15 -32 45 -32c33.333 0 51 12.667 53 38l3 32
c0.666992 14.667 9 22 25 22h60c14 0 20 -7.33301 18 -22l-2 -22c-8 -89.333 -62 -134 -162 -134zM461 301.999l9 74c0.666992 6 1 9.66699 1 11c0 22 -15 33 -45 33c-32 0 -49.667 -13.333 -53 -40l-9 -78h97zM231 123.999l30 245.999c0.666992 6 1 10.333 1 13
c0 21.333 -15.667 32 -47 32c-34 0 -52.333 -13.333 -55 -40l-31 -246c-0.666992 -5.33301 -1 -9.66602 -1 -12.999c0 -22.667 15.667 -34 47 -34c34 0 52.667 14 56 42z" />
    <glyph glyph-name="Racute" unicode="&#x154;" horiz-adv-x="443" 
d="M378 856l-65.001 -109c-5.33301 -9.33301 -14.666 -14 -27.999 -14h-55c-12.667 0 -16 7 -10 21l44 102c6 14.667 16.333 22 31 22h73c16 0 19.333 -7.33301 10 -22zM260.999 584h-59l-27 -223h59c44 0 68 16.667 72 50l14 113c0.666992 6 1 10.667 1 14
c0 30.667 -20 46 -60 46zM109.999 0l-73 0.000976562c-14.667 0 -21 7.66699 -19 23l78 634c2 15.333 10 23 24 23h146c57.333 0 100 -11.833 128 -35.5s42 -54.167 42 -91.5c0 -6 -0.333008 -13.333 -1 -22l-14 -124c-7.33301 -62.667 -37.333 -104.334 -90 -125.001
l44 -259c2 -15.333 -5.66699 -23 -23 -23h-75c-12 0 -19 7.66699 -21 23l-37 241h-55l-31 -241c-2 -15.333 -9.66699 -23 -23 -23z" />
    <glyph glyph-name="racute" unicode="&#x155;" horiz-adv-x="287" 
d="M296 686l-65 -109c-5.33301 -9.33301 -14.666 -14 -27.999 -14h-55c-12.667 0 -16 7 -10 21l44 102c6 14.667 16 22 30 22h74c15.333 0 18.666 -7.33301 9.99902 -22zM281 506c15.333 0 22 -7.33301 20 -22l-6 -55c-1.33301 -12.667 -10 -20 -26 -22
c-43.333 -6 -78.333 -22.333 -105 -49l-41 -335c-2 -15.333 -10 -23 -24 -23h-71c-14.667 0 -21 7.66699 -19 23l56 453c2 14.667 10 22 24 22h65c8 0 13.333 -1.66699 16 -5s3.66699 -9 3 -17l-1 -26c34 37.333 70.333 56 109 56z" />
    <glyph glyph-name="Rcommaaccent" unicode="&#x156;" horiz-adv-x="443" 
d="M261 584h-59l-27 -223h59c44 0 68 16.667 72 50l14 113c0.666992 6 1 10.667 1 14c0 30.667 -20 46 -60 46zM110 0l-73 0.000976562c-14.667 0 -21 7.66699 -19 23l78 634c2 15.333 10 23 24 23h146c57.333 0 100 -11.833 128 -35.5s42 -54.167 42 -91.5
c0 -6 -0.333008 -13.333 -1 -22l-14 -124c-7.33301 -62.667 -37.333 -104.334 -90 -125.001l44 -259c2 -15.333 -5.66699 -23 -23 -23h-75c-12 0 -19 7.66699 -21 23l-37 241h-55l-31 -241c-2 -15.333 -9.66699 -23 -23 -23zM133 -115.999l5.99902 46.001
c2 13.333 9 20 21 20h58c12.667 0 18 -6.66699 16 -20l-6 -52c-3.33301 -28 -10.333 -50.333 -21 -67s-28 -34.334 -52 -53.001c-10 -8 -18.667 -8.33301 -26 -1l-27 25c-7.33301 6.66699 -6.66602 15.667 2.00098 27c15.333 19.333 25 44.333 29 75z" />
    <glyph glyph-name="rcommaaccent" unicode="&#x157;" horiz-adv-x="287" 
d="M281 506c15.333 0 22 -7.33301 20 -22l-6 -55c-1.33301 -12.667 -10 -20 -26 -22c-43.333 -6 -78.333 -22.333 -105 -49l-41 -335c-2 -15.333 -10 -23 -24 -23h-71c-14.667 0 -21 7.66699 -19 23l56 453c2 14.667 10 22 24 22h65c8 0 13.333 -1.66699 16 -5
s3.66699 -9 3 -17l-1 -26c34 37.333 70.333 56 109 56zM1 -116l5.99902 46.001c2 13.333 9 20 21 20h58c12.667 0 18 -6.66699 16 -20l-6 -52c-3.33301 -28 -10.333 -50.333 -21 -67s-28 -34.334 -52 -53.001c-10 -8 -18.667 -8.33301 -26 -1l-27 25
c-7.33301 6.66699 -6.66602 15.667 2.00098 27c15.333 19.333 25 44.333 29 75z" />
    <glyph glyph-name="Rcaron" unicode="&#x158;" horiz-adv-x="443" 
d="M251 857l15 -55l28 55c7.33301 14 17.333 21 30 21h48c16 0 19 -7.33301 9 -22l-73 -107c-7.33301 -10.667 -18 -16 -32 -16h-37c-13.333 0 -22.333 5.33301 -27 16l-48 107c-3.33301 6.66699 -3.5 12 -0.5 16s8.16699 6 15.5 6h48c12 0 20 -7 24 -21zM261 584h-59
l-27 -223h59c44 0 68 16.667 72 50l14 113c0.666992 6 1 10.667 1 14c0 30.667 -20 46 -60 46zM110 0l-73 0.000976562c-14.667 0 -21 7.66699 -19 23l78 634c2 15.333 10 23 24 23h146c57.333 0 100 -11.833 128 -35.5s42 -54.167 42 -91.5c0 -6 -0.333008 -13.333 -1 -22
l-14 -124c-7.33301 -62.667 -37.333 -104.334 -90 -125.001l44 -259c2 -15.333 -5.66699 -23 -23 -23h-75c-12 0 -19 7.66699 -21 23l-37 241h-55l-31 -241c-2 -15.333 -9.66699 -23 -23 -23z" />
    <glyph glyph-name="rcaron" unicode="&#x159;" horiz-adv-x="287" 
d="M170 687l14.001 -55l28 55c7.33301 14 17.666 21 30.999 21h48c16 0 19 -7.33301 9 -22l-73 -107c-7.33301 -10.667 -18.333 -16 -33 -16h-36c-14 0 -23.333 5.33301 -28 16l-47 107c-6.66699 14.667 -2 22 14 22h49c12 0 20 -7 24 -21zM281.001 506
c15.333 0 22 -7.33301 20 -22l-6 -55c-1.33301 -12.667 -10 -20 -26 -22c-43.333 -6 -78.333 -22.333 -105 -49l-41 -335c-2 -15.333 -10 -23 -24 -23h-71c-14.667 0 -21 7.66699 -19 23l56 453c2 14.667 10 22 24 22h65c8 0 13.333 -1.66699 16 -5s3.66699 -9 3 -17l-1 -26
c34 37.333 70.333 56 109 56z" />
    <glyph glyph-name="Sacute" unicode="&#x15a;" horiz-adv-x="425" 
d="M375 856l-65.001 -109c-5.33301 -9.33301 -14.666 -14 -27.999 -14h-55c-12.667 0 -16 7 -10 21l44 102c6 14.667 16.333 22 31 22h73c16 0 19.333 -7.33301 10 -22zM297.999 487l7.00293 52.9971c0.666992 5.33301 1 9.33301 1 12c0 28 -19.333 42 -58 42
c-40 0 -62 -16.667 -66 -50l-6 -46c-0.666992 -5.33301 -1 -11.333 -1 -18c0 -17.333 8.66699 -32 26 -44l119 -77c42 -26.667 63 -62.334 63 -107.001c0 -9.33301 -0.333008 -17.666 -1 -24.999l-11 -90c-11.333 -96.667 -74.333 -145 -189 -145
c-57.333 0 -99.833 11.667 -127.5 35s-41.5 53 -41.5 89c0 8 0.333008 15.667 1 23l9 72c2 15.333 10 23 24 23h72c13.333 0 19 -7.66699 17 -23l-8 -64c-0.666992 -6.66699 -1 -12.667 -1 -18c0 -28.667 20 -43 60 -43c41.333 0 64.666 17.333 69.999 52l9 63
c1.33301 10.667 2 17.334 2 20.001c0 10.667 -3.5 19.667 -10.5 27s-17.5 16 -31.5 26l-109 73c-16.667 10.667 -30.334 25.334 -41.001 44.001s-16 38.334 -16 59.001c0 9.33301 0.333008 17.333 1 24l8 69c5.33301 44 21.666 79.167 48.999 105.5s72.333 39.5 135 39.5
c57.333 0 99.333 -11.667 126 -35s40 -53.333 40 -90c0 -6 -0.333008 -12.667 -1 -20l-6 -56c-2 -14.667 -10 -22 -24 -22h-71c-14.667 0 -21 7.33301 -19 22z" />
    <glyph glyph-name="sacute" unicode="&#x15b;" horiz-adv-x="369" 
d="M328 686l-65 -109c-5.33301 -9.33301 -14.666 -14 -27.999 -14h-55c-12.667 0 -16 7 -10 21l44 102c6 14.667 16 22 30 22h74c15.333 0 18.666 -7.33301 9.99902 -22zM241 356l2 24.999c0.666992 8 1 13.667 1 17c0 18.667 -15.333 28 -46 28
s-47.334 -11.333 -50.001 -34l-3 -28c-0.666992 -7.33301 -1 -12.333 -1 -15c0 -10.667 8 -20.667 24 -30l104 -60c35.333 -20 53 -46 53 -78c0 -4.66699 -0.333008 -10.667 -1 -18l-7 -59c-9.33301 -74.667 -64 -112 -164 -112c-48.667 0 -85.834 9.66699 -111.501 29
s-38.5 43.333 -38.5 72c0 3.33301 0.333008 8 1 14l4 34c2 13.333 9.33301 20 22 20h64c12.667 0 18.334 -6.66699 17.001 -20l-3 -26c-0.666992 -6 -1 -10 -1 -12c0 -20 16.333 -30 49 -30c36 0 55.333 12.333 58 37l3 31c0.666992 7.33301 1 12 1 14
c0 10.667 -8.66699 21.334 -26 32.001l-103 62c-33.333 20 -50 47.333 -50 82c0 4.66699 0.333008 10.667 1 18l5 41c9.33301 77.333 62 116 158 116c48 0 84.167 -10.167 108.5 -30.5s36.5 -45.166 36.5 -74.499c0 -2.66699 -0.333008 -7.33398 -1 -14.001l-4 -31
c-2 -14 -9.66699 -21 -23 -21h-63c-11.333 0 -16.666 7 -15.999 21z" />
    <glyph glyph-name="Scircumflex" unicode="&#x15c;" horiz-adv-x="425" 
d="M272 809l-28 -55c-6.66699 -14 -16.667 -21 -30 -21h-48c-15.333 0 -18.333 7 -9 21l73 107c8 11.333 18.667 17 32 17h37c13.333 0 22.333 -5.33301 27 -16l48 -108c6 -14 1 -21 -15 -21h-47c-12.667 0 -21 7 -25 21zM298 487l7.00293 52.9971
c0.666992 5.33301 1 9.33301 1 12c0 28 -19.333 42 -58 42c-40 0 -62 -16.667 -66 -50l-6 -46c-0.666992 -5.33301 -1 -11.333 -1 -18c0 -17.333 8.66699 -32 26 -44l119 -77c42 -26.667 63 -62.334 63 -107.001c0 -9.33301 -0.333008 -17.666 -1 -24.999l-11 -90
c-11.333 -96.667 -74.333 -145 -189 -145c-57.333 0 -99.833 11.667 -127.5 35s-41.5 53 -41.5 89c0 8 0.333008 15.667 1 23l9 72c2 15.333 10 23 24 23h72c13.333 0 19 -7.66699 17 -23l-8 -64c-0.666992 -6.66699 -1 -12.667 -1 -18c0 -28.667 20 -43 60 -43
c41.333 0 64.666 17.333 69.999 52l9 63c1.33301 10.667 2 17.334 2 20.001c0 10.667 -3.5 19.667 -10.5 27s-17.5 16 -31.5 26l-109 73c-16.667 10.667 -30.334 25.334 -41.001 44.001s-16 38.334 -16 59.001c0 9.33301 0.333008 17.333 1 24l8 69
c5.33301 44 21.666 79.167 48.999 105.5s72.333 39.5 135 39.5c57.333 0 99.333 -11.667 126 -35s40 -53.333 40 -90c0 -6 -0.333008 -12.667 -1 -20l-6 -56c-2 -14.667 -10 -22 -24 -22h-71c-14.667 0 -21 7.33301 -19 22z" />
    <glyph glyph-name="scircumflex" unicode="&#x15d;" horiz-adv-x="369" 
d="M222 639l-27.999 -55c-6.66699 -14 -16.334 -21 -29.001 -21h-49c-15.333 0 -18.333 7 -9 21l73 107c8 11.333 18.667 17 32 17h37c14 0 23.333 -5.33301 28 -16l47 -108c6 -14 1 -21 -15 -21h-47c-12.667 0 -21 7 -25 21zM241.001 356l2 24.999
c0.666992 8 1 13.667 1 17c0 18.667 -15.333 28 -46 28s-47.334 -11.333 -50.001 -34l-3 -28c-0.666992 -7.33301 -1 -12.333 -1 -15c0 -10.667 8 -20.667 24 -30l104 -60c35.333 -20 53 -46 53 -78c0 -4.66699 -0.333008 -10.667 -1 -18l-7 -59
c-9.33301 -74.667 -64 -112 -164 -112c-48.667 0 -85.834 9.66699 -111.501 29s-38.5 43.333 -38.5 72c0 3.33301 0.333008 8 1 14l4 34c2 13.333 9.33301 20 22 20h64c12.667 0 18.334 -6.66699 17.001 -20l-3 -26c-0.666992 -6 -1 -10 -1 -12c0 -20 16.333 -30 49 -30
c36 0 55.333 12.333 58 37l3 31c0.666992 7.33301 1 12 1 14c0 10.667 -8.66699 21.334 -26 32.001l-103 62c-33.333 20 -50 47.333 -50 82c0 4.66699 0.333008 10.667 1 18l5 41c9.33301 77.333 62 116 158 116c48 0 84.167 -10.167 108.5 -30.5s36.5 -45.166 36.5 -74.499
c0 -2.66699 -0.333008 -7.33398 -1 -14.001l-4 -31c-2 -14 -9.66699 -21 -23 -21h-63c-11.333 0 -16.666 7 -15.999 21z" />
    <glyph glyph-name="Scedilla" unicode="&#x15e;" horiz-adv-x="425" 
d="M177 -211l-77.998 -0.00292969c-13.333 0 -19.666 7.33301 -18.999 22l1 18c0.666992 14 9 21 25 21h63c18 0 27 8.33301 27 25c0 12.667 -7.33301 19 -22 19h-45c-12 0 -19.667 2.33301 -23 7s-3 12 1 22l26 73c-40.667 6 -70.834 19.833 -90.501 41.5
s-29.5 47.834 -29.5 78.501c0 8 0.333008 15.667 1 23l9 72c2 15.333 10 23 24 23h72c13.333 0 19 -7.66699 17 -23l-8 -64c-0.666992 -6.66699 -1 -12.667 -1 -18c0 -28.667 20 -43 60 -43c41.333 0 64.666 17.333 69.999 52l9 63c1.33301 10.667 2 17.334 2 20.001
c0 10.667 -3.5 19.667 -10.5 27s-17.5 16 -31.5 26l-109 73c-16.667 10.667 -30.334 25.334 -41.001 44.001s-16 38.334 -16 59.001c0 9.33301 0.333008 17.333 1 24l8 69c5.33301 44 21.666 79.167 48.999 105.5s72.333 39.5 135 39.5c57.333 0 99.333 -11.667 126 -35
s40 -53.333 40 -90c0 -6 -0.333008 -12.667 -1 -20l-6 -56c-2 -14.667 -10 -22 -24 -22h-71c-14.667 0 -21 7.33301 -19 22l7 53c0.666992 5.33301 1 9.33301 1 12c0 28 -19.333 42 -58 42c-40 0 -62 -16.667 -66 -50l-6 -46c-0.666992 -5.33301 -1 -11.333 -1 -18
c0 -17.333 8.66699 -32 26 -44l119 -77c42 -26.667 63 -62.334 63 -107.001c0 -9.33301 -0.333008 -17.666 -1 -24.999l-11 -90c-11.333 -91.333 -67.333 -139.333 -168 -144l-14 -40h11c22 0 39.667 -5.83301 53 -17.5s20 -28.834 20 -51.501
c0 -31.333 -9.16699 -55 -27.5 -71s-41.166 -24 -68.499 -24z" />
    <glyph glyph-name="scedilla" unicode="&#x15f;" horiz-adv-x="369" 
d="M149 -211h-78.0039c-13.333 0 -19.666 7.33301 -18.999 22l1 18c0.666992 14 9 21 25 21h63c18 0 27 8.33301 27 25c0 12.667 -7.33301 19 -22 19h-45c-12 0 -19.667 2.33301 -23 7s-3 12 1 22l26 73c-33.333 6 -58.666 17.833 -75.999 35.5s-26 38.167 -26 61.5
c0 3.33301 0.333008 8 1 14l4 34c2 13.333 9.33301 20 22 20h64c12.667 0 18.334 -6.66699 17.001 -20l-3 -26c-0.666992 -6 -1 -10 -1 -12c0 -20 16.333 -30 49 -30c36 0 55.333 12.333 58 37l3 31c0.666992 7.33301 1 12 1 14c0 10.667 -8.66699 21.334 -26 32.001
l-103 62c-33.333 20 -50 47.333 -50 82c0 4.66699 0.333008 10.667 1 18l5 41c9.33301 77.333 62 116 158 116c48 0 84.167 -10.167 108.5 -30.5s36.5 -45.166 36.5 -74.499c0 -2.66699 -0.333008 -7.33398 -1 -14.001l-4 -31c-2 -14 -9.66699 -21 -23 -21h-63
c-11.333 0 -16.666 7 -15.999 21l2 25c0.666992 8 1 13.667 1 17c0 18.667 -15.333 28 -46 28s-47.334 -11.333 -50.001 -34l-3 -28c-0.666992 -7.33301 -1 -12.333 -1 -15c0 -10.667 8 -20.667 24 -30l104 -60c35.333 -20 53 -46 53 -78
c0 -4.66699 -0.333008 -10.667 -1 -18l-7 -59c-8.66699 -68.667 -56 -105.667 -142 -111l-14 -40h11c22 0 39.667 -5.83301 53 -17.5s20 -28.834 20 -51.501c0 -31.333 -9.16699 -55 -27.5 -71s-41.166 -24 -68.499 -24z" />
    <glyph glyph-name="Scaron" unicode="&#x160;" horiz-adv-x="425" 
d="M255 857l15 -55l28 55c7.33301 14 17.333 21 30 21h48c16 0 19 -7.33301 9 -22l-73 -107c-7.33301 -10.667 -18 -16 -32 -16h-37c-13.333 0 -22.333 5.33301 -27 16l-48 107c-3.33301 6.66699 -3.5 12 -0.5 16s8.16699 6 15.5 6h48c12 0 20 -7 24 -21zM298 487
l7.00293 52.9971c0.666992 5.33301 1 9.33301 1 12c0 28 -19.333 42 -58 42c-40 0 -62 -16.667 -66 -50l-6 -46c-0.666992 -5.33301 -1 -11.333 -1 -18c0 -17.333 8.66699 -32 26 -44l119 -77c42 -26.667 63 -62.334 63 -107.001c0 -9.33301 -0.333008 -17.666 -1 -24.999
l-11 -90c-11.333 -96.667 -74.333 -145 -189 -145c-57.333 0 -99.833 11.667 -127.5 35s-41.5 53 -41.5 89c0 8 0.333008 15.667 1 23l9 72c2 15.333 10 23 24 23h72c13.333 0 19 -7.66699 17 -23l-8 -64c-0.666992 -6.66699 -1 -12.667 -1 -18c0 -28.667 20 -43 60 -43
c41.333 0 64.666 17.333 69.999 52l9 63c1.33301 10.667 2 17.334 2 20.001c0 10.667 -3.5 19.667 -10.5 27s-17.5 16 -31.5 26l-109 73c-16.667 10.667 -30.334 25.334 -41.001 44.001s-16 38.334 -16 59.001c0 9.33301 0.333008 17.333 1 24l8 69
c5.33301 44 21.666 79.167 48.999 105.5s72.333 39.5 135 39.5c57.333 0 99.333 -11.667 126 -35s40 -53.333 40 -90c0 -6 -0.333008 -12.667 -1 -20l-6 -56c-2 -14.667 -10 -22 -24 -22h-71c-14.667 0 -21 7.33301 -19 22z" />
    <glyph glyph-name="scaron" unicode="&#x161;" horiz-adv-x="369" 
d="M204 687l14.001 -55l28 55c7.33301 14 17.666 21 30.999 21h48c16 0 19 -7.33301 9 -22l-73 -107c-7.33301 -10.667 -18.333 -16 -33 -16h-36c-14 0 -23.333 5.33301 -28 16l-47 107c-6.66699 14.667 -2 22 14 22h49c12 0 20 -7 24 -21zM241.001 356l2 24.999
c0.666992 8 1 13.667 1 17c0 18.667 -15.333 28 -46 28s-47.334 -11.333 -50.001 -34l-3 -28c-0.666992 -7.33301 -1 -12.333 -1 -15c0 -10.667 8 -20.667 24 -30l104 -60c35.333 -20 53 -46 53 -78c0 -4.66699 -0.333008 -10.667 -1 -18l-7 -59
c-9.33301 -74.667 -64 -112 -164 -112c-48.667 0 -85.834 9.66699 -111.501 29s-38.5 43.333 -38.5 72c0 3.33301 0.333008 8 1 14l4 34c2 13.333 9.33301 20 22 20h64c12.667 0 18.334 -6.66699 17.001 -20l-3 -26c-0.666992 -6 -1 -10 -1 -12c0 -20 16.333 -30 49 -30
c36 0 55.333 12.333 58 37l3 31c0.666992 7.33301 1 12 1 14c0 10.667 -8.66699 21.334 -26 32.001l-103 62c-33.333 20 -50 47.333 -50 82c0 4.66699 0.333008 10.667 1 18l5 41c9.33301 77.333 62 116 158 116c48 0 84.167 -10.167 108.5 -30.5s36.5 -45.166 36.5 -74.499
c0 -2.66699 -0.333008 -7.33398 -1 -14.001l-4 -31c-2 -14 -9.66699 -21 -23 -21h-63c-11.333 0 -16.666 7 -15.999 21z" />
    <glyph glyph-name="Tcommaaccent" unicode="&#x162;" horiz-adv-x="360" 
d="M78 680h297.999c16 0 23 -7 21 -21l-7 -54c-2 -14 -10.333 -21 -25 -21h-91l-69 -561c-2 -15.333 -9.66699 -23 -23 -23h-74c-14.667 0 -21 7.66699 -19 23l69 561h-92c-15.333 0 -22 7 -20 21l8 54c0.666992 8 2.83398 13.5 6.50098 16.5s9.5 4.5 17.5 4.5zM81.999 -116
l5.99902 46.001c2 13.333 9 20 21 20h58c12.667 0 18 -6.66699 16 -20l-6 -52c-3.33301 -28 -10.333 -50.333 -21 -67s-28 -34.334 -52 -53.001c-10 -8 -18.667 -8.33301 -26 -1l-27 25c-7.33301 6.66699 -6.66602 15.667 2.00098 27c15.333 19.333 25 44.333 29 75z" />
    <glyph glyph-name="tcommaaccent" unicode="&#x163;" horiz-adv-x="277" 
d="M191 406l-33 -264c-0.666992 -6.66699 -1 -12 -1 -16c0 -11.333 3.66699 -19.5 11 -24.5s19.666 -7.5 36.999 -7.5h14c15.333 0 22 -7.66699 20 -23l-6 -49c-2 -14.667 -10.333 -22 -25 -22h-37c-86 -0 -129 33.333 -129 100c0 6.66699 0.666992 16 2 28l34 278h-33
c-14.667 0 -21 7 -19 21l5 43c0.666992 7.33301 2.83398 12.5 6.50098 15.5s9.5 5.16699 17.5 6.5l32 4h2l12 97c2 15.333 10.333 23 25 23h71c13.333 0 19 -7.66699 17 -23l-12 -97h61c14.667 0 21 -7 19 -21l-5 -48c-2 -14 -10.333 -21 -25 -21h-61zM28 -117
l5.99902 46.001c2 13.333 9 20 21 20h58c12.667 0 18 -6.66699 16 -20l-6 -52c-3.33301 -28 -10.333 -50.333 -21 -67s-28 -34.334 -52 -53.001c-10 -8 -18.667 -8.33301 -26 -1l-27 25c-7.33301 6.66699 -6.66602 15.667 2.00098 27c15.333 19.333 25 44.333 29 75z" />
    <glyph glyph-name="Tcaron" unicode="&#x164;" horiz-adv-x="360" 
d="M224 857l15 -55l28 55c7.33301 14 17.333 21 30 21h48c16 0 19 -7.33301 9 -22l-73 -107c-7.33301 -10.667 -18 -16 -32 -16h-37c-13.333 0 -22.333 5.33301 -27 16l-48 107c-3.33301 6.66699 -3.5 12 -0.5 16s8.16699 6 15.5 6h48c12 0 20 -7 24 -21zM78 680h297.999
c16 0 23 -7 21 -21l-7 -54c-2 -14 -10.333 -21 -25 -21h-91l-69 -561c-2 -15.333 -9.66699 -23 -23 -23h-74c-14.667 0 -21 7.66699 -19 23l69 561h-92c-15.333 0 -22 7 -20 21l8 54c0.666992 8 2.83398 13.5 6.50098 16.5s9.5 4.5 17.5 4.5z" />
    <glyph glyph-name="tcaron" unicode="&#x165;" horiz-adv-x="277" 
d="M277 666l5.99902 46.001c2 13.333 9 20 21 20h58c12.667 0 18 -6.66699 16 -20l-6 -52c-3.33301 -28 -10.333 -50.333 -21 -67s-28 -34.334 -52 -53.001c-10 -8 -18.667 -8.33301 -26 -1l-27 25c-7.33301 6.66699 -6.66602 15.667 2.00098 27
c15.333 19.333 25 44.333 29 75zM190.999 406.001l-33 -264c-0.666992 -6.66699 -1 -12 -1 -16c0 -11.333 3.66699 -19.5 11 -24.5s19.666 -7.5 36.999 -7.5h14c15.333 0 22 -7.66699 20 -23l-6 -49c-2 -14.667 -10.333 -22 -25 -22h-37c-86 0 -129 33.333 -129 100
c0 6.66699 0.666992 16 2 28l34 278h-33c-14.667 0 -21 7 -19 21l5 43c0.666992 7.33301 2.83398 12.5 6.50098 15.5s9.5 5.16699 17.5 6.5l32 4h2l12 97c2 15.333 10.333 23 25 23h71c13.333 0 19 -7.66699 17 -23l-12 -97h61c14.667 0 21 -7 19 -21l-5 -48
c-2 -14 -10.333 -21 -25 -21h-61z" />
    <glyph glyph-name="Tbar" unicode="&#x166;" horiz-adv-x="376" 
d="M212 23c-2 -15.333 -9.66797 -23 -23.001 -23h-74c-14.667 0 -21 7.66699 -19 23l40 328h-61c-15.333 0 -22 7.33301 -20 22l4 36c2 14 10.333 21 25 21h62l19 154h-92c-15.333 0 -22 7 -20 21l8 54c0.666992 8 2.83398 13.5 6.50098 16.5s9.5 4.5 17.5 4.5h298
c16 0 23 -7 21 -21l-7 -54c-2 -14 -10.333 -21 -25 -21h-91l-19 -154h65c14.667 0 21 -7 19 -21l-5 -36c-2 -14.667 -10 -22 -24 -22h-65z" />
    <glyph glyph-name="tbar" unicode="&#x167;" horiz-adv-x="281" 
d="M236 22c-2 -14.667 -10.333 -22.001 -25 -22.001h-37c-86 0 -129 33.333 -129 100c0 6.66699 0.666992 16 2 28l15 120h-33c-15.333 0 -22 7.33301 -20 22l5 36c2 14 10.333 21 25 21h32l10 78h-33c-14.667 0 -21 7.66699 -19 23l5 42c1.33301 12 9.33301 19 24 21l32 5
h2l12 97c2 15.333 10.333 23 25 23h71c13.333 0 19 -7.66699 17 -23l-12 -97h61c14.667 0 21 -7 19 -21l-5 -48c-2 -14.667 -10.333 -22 -25 -22h-61l-10 -78h60c16 0 23 -7 21 -21l-5 -36c-2 -14.667 -10.333 -22 -25 -22h-61l-13 -106
c-0.666992 -5.33301 -1 -10.666 -1 -15.999c0 -21.333 16 -32 48 -32h14c15.333 0 22 -7.66699 20 -23z" />
    <glyph glyph-name="Utilde" unicode="&#x168;" horiz-adv-x="460" 
d="M247 784c-7.33301 0 -11.999 -5.33203 -13.999 -15.999l-2 -10c-2.66699 -12.667 -11.334 -19 -26.001 -19h-30c-14 0 -19.333 8.33301 -16 25l8 36c4.66699 20 13.5 35.667 26.5 47s28.5 17 46.5 17c16 0 30.667 -4.33301 44 -13l28 -18c12 -8 20.333 -12 25 -12
c4 0 6.66699 1.16699 8 3.5s3.33301 7.16602 6 14.499l2 7c3.33301 13.333 12 20 26 20h30c15.333 0 21 -8.33301 17 -25l-8 -34c-4.66699 -20.667 -13.167 -36.667 -25.5 -48s-26.833 -17 -43.5 -17c-18 0 -34.333 4.66699 -49 14l-29 18c-10 6.66699 -18 10 -24 10z
M210.001 657.001l-63 -506.001c-0.666992 -5.33301 -1 -11.666 -1 -18.999c0 -29.333 20 -44 60 -44c42.667 0 66 17.333 70 52l64 517c2 15.333 10 23 24 23h74c14 0 20 -7.66699 18 -23l-65 -520c-11.333 -96.667 -75 -145 -191 -145c-56.667 0 -99.167 11.667 -127.5 35
s-42.5 53.333 -42.5 90c0 8 0.333008 16 1 24l63 516c2 15.333 10 23 24 23h74c14 0 20 -7.66699 18 -23z" />
    <glyph glyph-name="utilde" unicode="&#x169;" horiz-adv-x="408" 
d="M199 606c-7.33301 0 -12.0029 -5.33301 -14.0029 -16l-2 -10c-2.66699 -12.667 -11.334 -19 -26.001 -19h-30c-15.333 0 -20.666 8.66699 -15.999 26l8 35c4.66699 20.667 13.5 36.667 26.5 48s28.5 17 46.5 17c15.333 0 30 -4.66699 44 -14l28 -19
c10 -7.33301 18.333 -11 25 -11s11.334 5.66699 14.001 17l2 9c2.66699 12.667 11.334 19 26.001 19h30c14 0 19.333 -8.33301 16 -25l-7 -34c-4.66699 -20.667 -13.167 -36.667 -25.5 -48s-27.166 -17 -44.499 -17c-18.667 0 -34.667 4.33301 -48 13l-29 18
c-12 7.33301 -20 11 -24 11zM224.997 22v15c-35.333 -30 -72 -45 -110 -45c-31.333 0 -55.666 8.16699 -72.999 24.5s-26 37.5 -26 63.5c0 6 0.333008 12.667 1 20l46 375c1.33301 8.66699 3.66602 14.667 6.99902 18s9 5 17 5h70c14.667 0 21 -7.66699 19 -23l-42 -343
c-0.666992 -5.33301 -1 -10 -1 -14c0 -18 11 -27 33 -27s43.667 9.66699 65 29l44 355c2 15.333 10 23 24 23h70c14.667 0 21 -7.66699 19 -23l-55 -453c-2 -14.667 -10 -22 -24 -22h-65c-8 0 -13.167 1.5 -15.5 4.5s-3.5 8.83301 -3.5 17.5z" />
    <glyph glyph-name="Umacron" unicode="&#x16a;" horiz-adv-x="460" 
d="M217 843h159c14.667 0 21 -7 19 -21l-5 -44c-2 -14.667 -10.333 -22 -25 -22h-159c-14.667 0 -21 7.33301 -19 22l5 44c2 14 10.333 21 25 21zM210 657l-63 -506.001c-0.666992 -5.33301 -1 -11.666 -1 -18.999c0 -29.333 20 -44 60 -44c42.667 0 66 17.333 70 52l64 517
c2 15.333 10 23 24 23h74c14 0 20 -7.66699 18 -23l-65 -520c-11.333 -96.667 -75 -145 -191 -145c-56.667 0 -99.167 11.667 -127.5 35s-42.5 53.333 -42.5 90c0 8 0.333008 16 1 24l63 516c2 15.333 10 23 24 23h74c14 0 20 -7.66699 18 -23z" />
    <glyph glyph-name="umacron" unicode="&#x16b;" horiz-adv-x="408" 
d="M168 665h159c8 0 13.333 -1.5 16 -4.5s3.66699 -8.5 3 -16.5l-4 -43c-0.666992 -14.667 -9 -22 -25 -22h-159c-8 0 -13.333 1.66699 -16 5s-3.66699 9 -3 17l4 43c0.666992 14 9 21 25 21zM225 22v15c-35.333 -30 -72 -45 -110 -45
c-31.333 0 -55.666 8.16699 -72.999 24.5s-26 37.5 -26 63.5c0 6 0.333008 12.667 1 20l46 375c1.33301 8.66699 3.66602 14.667 6.99902 18s9 5 17 5h70c14.667 0 21 -7.66699 19 -23l-42 -343c-0.666992 -5.33301 -1 -10 -1 -14c0 -18 11 -27 33 -27s43.667 9.66699 65 29
l44 355c2 15.333 10 23 24 23h70c14.667 0 21 -7.66699 19 -23l-55 -453c-2 -14.667 -10 -22 -24 -22h-65c-8 0 -13.167 1.5 -15.5 4.5s-3.5 8.83301 -3.5 17.5z" />
    <glyph glyph-name="Ubreve" unicode="&#x16c;" horiz-adv-x="460" 
d="M269 866l-4 -30.999c-0.666992 -4.66699 -1 -9 -1 -13c0 -16 8.66699 -24 26 -24c19.333 0 30 11 32 33l4 35c0.666992 12 7.66699 18 21 18h42c14 0 20 -6 18 -18l-4 -30c-9.33301 -70.667 -49 -106 -119 -106c-30.667 0 -55.167 7.66699 -73.5 23
s-27.5 36.666 -27.5 63.999c0 4.66699 0.333008 10.667 1 18l4 31c2 12 9 18 21 18h43c13.333 0 19 -6 17 -18zM210 657.001l-63 -506.001c-0.666992 -5.33301 -1 -11.666 -1 -18.999c0 -29.333 20 -44 60 -44c42.667 0 66 17.333 70 52l64 517c2 15.333 10 23 24 23h74
c14 0 20 -7.66699 18 -23l-65 -520c-11.333 -96.667 -75 -145 -191 -145c-56.667 0 -99.167 11.667 -127.5 35s-42.5 53.333 -42.5 90c0 8 0.333008 16 1 24l63 516c2 15.333 10 23 24 23h74c14 0 20 -7.66699 18 -23z" />
    <glyph glyph-name="ubreve" unicode="&#x16d;" horiz-adv-x="408" 
d="M222 685l-4 -30.999c-0.666992 -4.66699 -1 -9 -1 -13c0 -16 8.66699 -24 26 -24c19.333 0 30 11 32 33l4 35c0.666992 12 7.66699 18 21 18h42c14 0 20 -6 18 -18l-4 -30c-9.33301 -70.667 -49 -106 -119 -106c-30.667 0 -55.167 7.66699 -73.5 23
s-27.5 36.666 -27.5 63.999c0 4.66699 0.333008 10.667 1 18l4 31c2 12 9 18 21 18h43c13.333 0 19 -6 17 -18zM225 22.001v15c-35.333 -30 -72 -45 -110 -45c-31.333 0 -55.666 8.16699 -72.999 24.5s-26 37.5 -26 63.5c0 6 0.333008 12.667 1 20l46 375
c1.33301 8.66699 3.66602 14.667 6.99902 18s9 5 17 5h70c14.667 0 21 -7.66699 19 -23l-42 -343c-0.666992 -5.33301 -1 -10 -1 -14c0 -18 11 -27 33 -27s43.667 9.66699 65 29l44 355c2 15.333 10 23 24 23h70c14.667 0 21 -7.66699 19 -23l-55 -453
c-2 -14.667 -10 -22 -24 -22h-65c-8 0 -13.167 1.5 -15.5 4.5s-3.5 8.83301 -3.5 17.5z" />
    <glyph glyph-name="Uring" unicode="&#x16e;" horiz-adv-x="460" 
d="M379 825l-5.00098 -45c-2 -18.667 -10.333 -34 -25 -46s-35.667 -18 -63 -18c-24.667 0 -44.667 5.33301 -60 16s-23 24.334 -23 41.001c0 3.33301 0.333008 8 1 14l6 44c6 43.333 35.667 65 89 65c24.667 0 44.334 -5.33301 59.001 -16s22 -24.334 22 -41.001
c0 -4 -0.333008 -8.66699 -1 -14zM314.999 788l3 27.001c0.666992 5.33301 1 10.333 1 15c0 11.333 -8 17 -24 17c-15.333 0 -24 -8 -26 -24l-4 -30c-0.666992 -4.66699 -1 -8.33398 -1 -11.001c0 -12 8 -18 24 -18s25 8 27 24zM209.999 657.001l-63 -506.001
c-0.666992 -5.33301 -1 -11.666 -1 -18.999c0 -29.333 20 -44 60 -44c42.667 0 66 17.333 70 52l64 517c2 15.333 10 23 24 23h74c14 0 20 -7.66699 18 -23l-65 -520c-11.333 -96.667 -75 -145 -191 -145c-56.667 0 -99.167 11.667 -127.5 35s-42.5 53.333 -42.5 90
c0 8 0.333008 16 1 24l63 516c2 15.333 10 23 24 23h74c14 0 20 -7.66699 18 -23z" />
    </font>
</defs>
</svg>
