<?xml version="1.0" standalone="no"?>
<!DOCTYPE svg PUBLIC "-//W3C//DTD SVG 20010904//EN"
 "http://www.w3.org/TR/2001/REC-SVG-20010904/DTD/svg10.dtd">
<svg version="1.0" xmlns="http://www.w3.org/2000/svg"
 width="310.000000pt" height="310.000000pt" viewBox="0 0 310.000000 310.000000"
 preserveAspectRatio="xMidYMid meet">
<metadata>
Created by potrace 1.11, written by Peter Selinger 2001-2013
</metadata>
<g transform="translate(0.000000,310.000000) scale(0.100000,-0.100000)"
fill="#000000" stroke="none">
<path d="M0 1550 l0 -1550 1550 0 1550 0 0 1550 0 1550 -1550 0 -1550 0 0
-1550z m523 808 c12 -13 110 -186 217 -386 l195 -364 3 373 c1 254 6 376 13
386 16 18 439 19 457 1 17 -17 17 -1619 0 -1636 -9 -9 -72 -12 -224 -12 -187
0 -214 2 -232 18 -11 9 -109 183 -218 385 l-199 369 -3 -373 c-1 -254 -6 -376
-13 -386 -16 -18 -439 -19 -457 -1 -17 17 -17 1619 0 1636 9 9 73 12 225 12
209 0 214 -1 236 -22z m1922 -6 c294 -81 489 -274 567 -562 29 -111 32 -357 5
-460 -64 -239 -202 -418 -400 -515 -166 -82 -204 -88 -585 -93 -183 -2 -344
-1 -358 2 l-24 6 0 819 c0 646 3 820 13 825 6 3 167 4 357 2 318 -2 351 -4
425 -24z"/>
<path d="M2110 1550 l0 -403 93 5 c108 6 166 27 222 83 139 140 145 464 11
622 -46 55 -123 85 -232 91 l-94 5 0 -403z"/>
</g>
</svg>
