<?xml version="1.0" encoding="UTF-8"?>
<svg width="480px" height="222px" viewBox="0 0 480 222" version="1.1" xmlns="http://www.w3.org/2000/svg" xmlns:xlink="http://www.w3.org/1999/xlink">
    <!-- Generator: Sketch 52.5 (67469) - http://www.bohemiancoding.com/sketch -->
    <title>Group 30</title>
    <desc>Created with Sketch.</desc>
    <g id="UI-Design" stroke="none" stroke-width="1" fill="none" fill-rule="evenodd">
        <g id="Group-30">
            <path d="M16,213.992337 C16,219.333589 13.3291228,222 8,222 C2.66385965,222 0,219.333589 0,213.992337 L0,10.0076628 C0,4.6734355 2.66385965,2 8,2 C13.3291228,2 16,4.6734355 16,10.0076628 L16,213.992337 Z" id="Fill-1" fill="#5C5028"></path>
            <path d="M279.462633,162.912548 L279.462633,59.5095057 C279.462633,47.4148669 275.190558,37.1406844 266.654804,28.6996198 C258.112052,20.2585551 247.967972,16.0380228 236.209964,16.0380228 C224.170605,16.0380228 213.953737,20.2585551 205.55516,28.6996198 C197.156584,37.1406844 192.957295,47.4148669 192.957295,59.5095057 L192.957295,162.912548 C192.957295,174.730038 197.156584,184.859316 205.55516,193.30038 C213.953737,201.741445 224.170605,205.961977 236.209964,205.961977 C247.967972,205.961977 258.112052,201.741445 266.654804,193.30038 C275.190558,184.859316 279.462633,174.730038 279.462633,162.912548 Z M295,162.912548 C295,179.234753 289.259573,193.161103 277.782918,204.695817 C266.300664,216.23616 252.443013,222 236.209964,222 C219.971317,222 206.040878,216.23616 194.427046,204.695817 C182.806216,193.161103 177,179.234753 177,162.912548 L177,59.5095057 C177,42.9115589 182.806216,28.8445247 194.427046,17.3041825 C206.040878,5.76946768 219.971317,0 236.209964,0 C252.443013,0 266.300664,5.84262357 277.782918,17.5152091 C289.259573,29.1948289 295,43.1943346 295,59.5095057 L295,162.912548 Z" id="Fill-5" fill="#5C5028"></path>
            <path d="M465,162.933333 L465,59.4888889 C465,47.3894074 460.703495,37.1111111 452.118932,28.6666667 C443.52733,20.2222222 433.325243,16 421.5,16 C409.391796,16 399.116505,20.2222222 390.669903,28.6666667 C382.223301,37.1111111 378,47.3894074 378,59.4888889 L378,162.933333 C378,174.755556 382.223301,184.888889 390.669903,193.333333 C399.116505,201.777778 409.391796,206 421.5,206 C433.325243,206 443.52733,201.777778 452.118932,193.333333 C460.703495,184.888889 465,174.755556 465,162.933333 Z M480,162.912548 C480,179.234753 474.259573,193.161103 462.782918,204.695817 C451.300664,216.23616 437.443013,222 421.209964,222 C404.971317,222 391.040878,216.23616 379.427046,204.695817 C367.806216,193.161103 362,179.234753 362,162.912548 L362,59.5095057 C362,42.9115589 367.806216,28.8445247 379.427046,17.3041825 C391.040878,5.76946768 404.971317,0 421.209964,0 C437.443013,0 451.300664,5.84262357 462.782918,17.5152091 C474.259573,29.1948289 480,43.1943346 480,59.5095057 L480,162.912548 Z" id="Fill-7" fill="#5D5128"></path>
        </g>
    </g>
</svg>