<?xml version="1.0" encoding="UTF-8"?>
<svg width="28px" height="111px" viewBox="0 0 28 111" version="1.1" xmlns="http://www.w3.org/2000/svg" xmlns:xlink="http://www.w3.org/1999/xlink">
    <!-- Generator: Sketch 52.5 (67469) - http://www.bohemiancoding.com/sketch -->
    <title>Fill 3</title>
    <desc>Created with Sketch.</desc>
    <g id="UI-Design" stroke="none" stroke-width="1" fill="none" fill-rule="evenodd">
        <path d="M28,97.5454545 C28,106.519356 23.2615385,111 13.7846154,111 C10.0498462,111 6.81907692,109.672765 4.09230769,107.005682 C1.35979487,104.345606 0,101.192197 0,97.5454545 C0,93.9057197 1.35979487,90.6808333 4.09230769,87.875 C6.81907692,85.0775758 10.0498462,83.6704545 13.7846154,83.6704545 C17.8022564,83.6704545 21.1751795,85.004697 23.9076923,87.6647727 C26.6330256,90.3332576 28,93.6240152 28,97.5454545 M28,13.4545455 C28,17.1012879 26.6330256,20.3261742 23.9076923,23.125 C21.1751795,25.9308333 17.8022564,27.3295455 13.7846154,27.3295455 C10.0498462,27.3295455 6.81907692,25.9308333 4.09230769,23.125 C1.35979487,20.3261742 0,17.1012879 0,13.4545455 C0,9.81481061 1.35979487,6.66140152 4.09230769,3.99431818 C6.81907692,1.33424242 10.0498462,0 13.7846154,0 C23.2615385,0 28,4.48765152 28,13.4545455" id="Fill-3" fill="#5D5128"></path>
    </g>
</svg>