<?xml version="1.0" encoding="UTF-8"?>
<svg width="47px" height="69px" viewBox="0 0 47 69" version="1.1" xmlns="http://www.w3.org/2000/svg" xmlns:xlink="http://www.w3.org/1999/xlink">
    <!-- Generator: Sketch 52.5 (67469) - http://www.bohemiancoding.com/sketch -->
    <title>Cheaper_icon</title>
    <desc>Created with Sketch.</desc>
    <g id="UI-Design" stroke="none" stroke-width="1" fill="none" fill-rule="evenodd">
        <g id="Agency-Page" transform="translate(-307.000000, -1326.000000)">
            <g id="Cheaper_icon" transform="translate(306.000000, 1326.000000)">
                <path d="M21.81,13.23 C10.8639613,14.491306 2.26402742,23.1884348 1.12581238,34.1479569 C-0.0124026612,45.1074789 6.61676555,55.3862454 17.07,58.87 C17.5362549,59.0205077 18.0463885,58.938618 18.4421108,58.6497408 C18.837833,58.3608635 19.0712744,57.8999434 19.07,57.41 C19.0652591,56.7413142 18.6348645,56.1500244 18,55.94 C8.49658017,52.7541393 2.70287506,43.1499404 4.31686764,33.2575329 C5.93086021,23.3651255 14.4767921,16.1005054 24.5,16.1005054 C34.5232079,16.1005054 43.0691398,23.3651255 44.6831324,33.2575329 C46.2971249,43.1499404 40.5034198,52.7541393 31,55.94 C30.3698132,56.1386017 29.9383134,56.7193118 29.93,57.38 C29.9261953,57.8697705 30.1601767,58.3309629 30.5576543,58.6171468 C30.9551319,58.9033307 31.4667247,58.9789517 31.93,58.82 C43.3418209,55.0107701 50.0337191,43.1980055 47.434231,31.4514081 C44.834743,19.7048107 33.7835076,11.8185503 21.83,13.18 L21.81,13.23 Z" id="Path" fill="#FFFFFF"></path>
                <rect id="Rectangle" fill="#FFFFFF" x="23.25" y="0" width="2.5" height="9" rx="1"></rect>
                <rect id="Rectangle" fill="#FFFFFF" transform="translate(5.496602, 10.502641) rotate(-45.000000) translate(-5.496602, -10.502641) " x="4.24660172" y="6.00264069" width="2.5" height="9" rx="1"></rect>
                <rect id="Rectangle" fill="#FFFFFF" transform="translate(43.497417, 10.496659) rotate(45.000000) translate(-43.497417, -10.496659) " x="42.247417" y="5.9966594" width="2.5" height="9" rx="1"></rect>
                <path d="M26.07,47 C27.3072793,46.841677 28.4697131,46.3196259 29.41,45.5 C30.3731496,44.6003731 30.8800048,43.3148706 30.79,42 C30.8738765,40.6919476 30.3675324,39.4150799 29.41,38.52 C28.1943185,37.4851246 26.7781022,36.7123334 25.25,36.25 C24.3118685,36.0188402 23.4328428,35.5929557 22.67,35 C22.2011155,34.5450802 21.9467862,33.9128904 21.97,33.26 C21.9467171,32.5715845 22.1986169,31.9022509 22.67,31.4 C23.2284445,30.9336083 23.943651,30.6975902 24.67,30.74 C25.4532779,30.754994 26.188038,31.1223741 26.67,31.74 C26.9878261,32.1010186 27.2141882,32.5331644 27.33,33 C27.5142858,33.7139926 28.1626703,34.2095731 28.9,34.2 L29,34.2 C29.4623507,34.2114576 29.905951,34.0171715 30.211051,33.6695892 C30.516151,33.3220069 30.6512947,32.8569644 30.58,32.4 C30.401947,31.5845461 30.0316712,30.8234235 29.5,30.18 C28.4957955,29.0953064 27.1714893,28.3595808 25.72,28.08 L25.72,24.25 C25.72,23.5596441 25.1603559,23 24.47,23 C23.7796441,23 23.22,23.5596441 23.22,24.25 L23.22,28.44 C22.045039,28.647054 20.9547704,29.1887161 20.08,30 C19.1942353,30.9137061 18.7177915,32.1481288 18.76,33.42 C18.6873319,34.7262567 19.1918605,35.9985463 20.14,36.9 C21.3949654,37.8764882 22.8334795,38.5906441 24.37,39 C25.2689176,39.2359497 26.1052025,39.666039 26.82,40.26 C27.3214735,40.7220325 27.5985986,41.3783815 27.58,42.06 C27.6559815,42.8042797 27.3467616,43.5358488 26.76,44 C26.103906,44.47891 25.3005928,44.7124724 24.49,44.66 C23.6433912,44.6985708 22.8127555,44.4205039 22.16,43.88 C21.7284177,43.534611 21.4370098,43.0441929 21.34,42.5 C21.1769814,41.8058809 20.5422254,41.3266611 19.83,41.36 L19.77,41.36 C19.2990478,41.3439811 18.8476169,41.5487406 18.5494334,41.913623 C18.2512499,42.2785054 18.1405034,42.7616736 18.25,43.22 C18.4811015,44.0854131 18.9404417,44.8728534 19.58,45.5 C20.5556705,46.3126156 21.7413232,46.8326387 23,47 C23.0752236,47.0210254 23.1462626,47.0548534 23.21,47.1 L23.21,64 L22.37,64 C22.090063,63.983444 21.8232592,64.1203851 21.6735136,64.3574823 C21.523768,64.5945794 21.5147606,64.8943394 21.65,65.14 L22.71,66.9 L23.71,68.61 C23.8688143,68.853125 24.1396007,68.999681 24.43,68.999681 C24.7203993,68.999681 24.9911857,68.853125 25.15,68.61 L26.15,66.9 L27.21,65.14 C27.3369097,64.9099295 27.3377414,64.631027 27.2122059,64.4002038 C27.0866705,64.1693806 26.8520994,64.0185041 26.59,64 L25.75,64 L25.75,47.2 C25.8323806,47.1006524 25.9445994,47.0305156 26.07,47 Z" id="Path" fill="#FBC91B"></path>
            </g>
        </g>
    </g>
</svg>