<?xml version="1.0" encoding="UTF-8"?>
<svg width="84px" height="54px" viewBox="0 0 84 54" version="1.1" xmlns="http://www.w3.org/2000/svg" xmlns:xlink="http://www.w3.org/1999/xlink">
    <!-- Generator: Sketch 52.5 (67469) - http://www.bohemiancoding.com/sketch -->
    <title>Faster_icon</title>
    <desc>Created with Sketch.</desc>
    <g id="UI-Design" stroke="none" stroke-width="1" fill="none" fill-rule="evenodd">
        <g id="Agency-Page" transform="translate(-550.000000, -1334.000000)">
            <g id="Faster_icon" transform="translate(550.000000, 1334.000000)">
                <path d="M59.75,5.75 C46.6739099,5.77761591 36.0908534,16.3905155 36.1000587,29.4666314 C36.109264,42.5427474 46.7072526,53.140736 59.7833686,53.1499413 C72.8594845,53.1591466 83.4723841,42.5760901 83.5,29.5 C83.5079747,23.198667 81.0083107,17.153127 76.5525918,12.6974082 C72.096873,8.2416893 66.051333,5.7420253 59.75,5.75 Z M59.75,50.25 C48.2900914,50.25 39,40.9599086 39,29.5 C39,18.0400914 48.2900914,8.75 59.75,8.75 C71.2099086,8.75 80.5,18.0400914 80.5,29.5 C80.4834772,40.9530576 71.2030576,50.2334772 59.75,50.25 Z" id="Shape" fill="#FFFFFF" fill-rule="nonzero"></path>
                <rect id="Rectangle" fill="#FFFFFF" x="57.85" y="2.5" width="3.9" height="3.9"></rect>
                <path d="M44.05,31.1 C43.624013,31.1054272 43.2138858,30.9385997 42.9126431,30.6373569 C42.6114003,30.3361142 42.4445728,29.925987 42.45,29.5 C42.4445728,29.074013 42.6114003,28.6638858 42.9126431,28.3626431 C43.2138858,28.0614003 43.624013,27.8945728 44.05,27.9 C44.475987,27.8945728 44.8861142,28.0614003 45.1873569,28.3626431 C45.4885997,28.6638858 45.6554272,29.074013 45.65,29.5 C45.628912,30.3747718 44.9247718,31.078912 44.05,31.1 Z" id="Path" fill="#FFFFFF"></path>
                <path d="M75.45,31.1 C75.024013,31.1054272 74.6138858,30.9385997 74.3126431,30.6373569 C74.0114003,30.3361142 73.8445728,29.925987 73.85,29.5 C73.8445728,29.074013 74.0114003,28.6638858 74.3126431,28.3626431 C74.6138858,28.0614003 75.024013,27.8945728 75.45,27.9 C75.875987,27.8945728 76.2861142,28.0614003 76.5873569,28.3626431 C76.8885997,28.6638858 77.0554272,29.074013 77.05,29.5 C77.0554272,29.925987 76.8885997,30.3361142 76.5873569,30.6373569 C76.2861142,30.9385997 75.875987,31.1054272 75.45,31.1 Z" id="Path" fill="#FFFFFF"></path>
                <path d="M58.15,13.7 C58.1445728,13.274013 58.3114003,12.8638858 58.6126431,12.5626431 C58.9138858,12.2614003 59.324013,12.0945728 59.75,12.1 C60.175987,12.0945728 60.5861142,12.2614003 60.8873569,12.5626431 C61.1885997,12.8638858 61.3554272,13.274013 61.35,13.7 C61.3554272,14.125987 61.1885997,14.5361142 60.8873569,14.8373569 C60.5861142,15.1385997 60.175987,15.3054272 59.75,15.3 C59.324013,15.3054272 58.9138858,15.1385997 58.6126431,14.8373569 C58.3114003,14.5361142 58.1445728,14.125987 58.15,13.7 Z" id="Path" fill="#FFFFFF"></path>
                <path d="M58.15,45.2 C58.1445728,44.774013 58.3114003,44.3638858 58.6126431,44.0626431 C58.9138858,43.7614003 59.324013,43.5945728 59.75,43.6 C60.175987,43.5945728 60.5861142,43.7614003 60.8873569,44.0626431 C61.1885997,44.3638858 61.3554272,44.774013 61.35,45.2 C61.3554272,45.625987 61.1885997,46.0361142 60.8873569,46.3373569 C60.5861142,46.6385997 60.175987,46.8054272 59.75,46.8 C59.324013,46.8054272 58.9138858,46.6385997 58.6126431,46.3373569 C58.3114003,46.0361142 58.1445728,45.625987 58.15,45.2 Z" id="Path" fill="#FFFFFF"></path>
                <path d="M28.65,16.65 L16.85,16.65 C16.0491871,16.65 15.4,17.2991871 15.4,18.1 C15.4,18.9008129 16.0491871,19.55 16.85,19.55 L28.65,19.55 C29.4508129,19.55 30.1,18.9008129 30.1,18.1 C30.1,17.2991871 29.4508129,16.65 28.65,16.65 Z" id="Path" fill="#FFFFFF"></path>
                <path d="M28.55,27.55 L9,27.55 C8.19918711,27.55 7.55,28.1991871 7.55,29 C7.55,29.8008129 8.19918711,30.45 9,30.45 L28.7,30.45 C29.081715,30.446988 29.4445917,30.2836935 29.7,30 C29.9387499,29.7479012 30.0587732,29.4060165 30.03,29.06 C30.038063,28.6623078 29.8857017,28.2781107 29.6072691,27.9940343 C29.3288365,27.7099578 28.947774,27.5499183 28.55,27.55 Z" id="Path" fill="#FFFFFF"></path>
                <path d="M28.55,38.45 L1.45,38.45 C0.649187113,38.45 6.94653595e-13,39.0991871 6.94555524e-13,39.9 C6.94457453e-13,40.7008129 0.649187113,41.35 1.45,41.35 L28.65,41.35 C29.0339574,41.3382427 29.3959308,41.1681151 29.65,40.88 C29.8794439,40.6451385 30.005463,40.3282904 30,40 C30.0189825,39.6006544 29.8755947,39.2106162 29.6024709,38.9186563 C29.3293471,38.6266963 28.9497232,38.4576531 28.55,38.45 Z" id="Path" fill="#FFFFFF"></path>
                <path d="M65.19,27.85 C65.0979805,27.6994514 64.94436,27.5970378 64.77,27.57 L60,27.38 L61,21.19 C61.0189567,21.0560167 60.9319747,20.9298928 60.8,20.9 C60.6590095,20.8472196 60.5007357,20.907107 60.43,21.04 L55.3,30.55 C55.2252793,30.6942303 55.2252793,30.8657697 55.3,31.01 C55.3887819,31.1653534 55.5432681,31.2720224 55.72,31.3 L55.77,31.3 L60.49,31.51 L59.43,37.71 C59.4157384,37.8428345 59.5007676,37.9661269 59.63,38 C59.7709905,38.0527804 59.9292643,37.992893 60,37.86 L65.18,28.32 C65.2670732,28.1763742 65.2708855,27.9971994 65.19,27.85 Z" id="Path" fill="#FBC91B"></path>
                <rect id="Rectangle" fill="#FFFFFF" x="54.75" y="0" width="10" height="3" rx="1.5"></rect>
            </g>
        </g>
    </g>
</svg>