<?xml version="1.0" encoding="UTF-8"?>
<svg width="57px" height="49px" viewBox="0 0 57 49" version="1.1" xmlns="http://www.w3.org/2000/svg" xmlns:xlink="http://www.w3.org/1999/xlink">
    <!-- Generator: Sketch 52.5 (67469) - http://www.bohemiancoding.com/sketch -->
    <title>Human_icon</title>
    <desc>Created with Sketch.</desc>
    <g id="UI-Design" stroke="none" stroke-width="1" fill="none" fill-rule="evenodd">
        <g id="Agency-Page" transform="translate(-1078.000000, -1337.000000)">
            <g id="Human_icon" transform="translate(1079.000000, 1338.000000)">
                <path d="M4.54,4.22 C1.98499585,6.6672995 0.529441442,10.0446204 0.504951201,13.5825183 C0.48046096,17.1204162 1.88912075,20.5175639 4.41,23 L26.94,45.4 C27.2442525,45.702557 27.7357475,45.702557 28.04,45.4 L50.3,23.33 C55.5505435,18.2271132 55.7418747,9.8574875 50.73,4.52 C48.2377272,1.96579679 44.8277654,0.513952444 41.2591962,0.487657723 C37.690627,0.461363002 34.259641,1.86280036 31.73,4.38 L28.27,7.84 C28.0690664,8.04274945 27.7954499,8.1568068 27.51,8.1568068 C27.2245501,8.1568068 26.9509336,8.04274945 26.75,7.84 L23.54,4.66 C18.3655931,-0.595619959 9.95214763,-0.790457644 4.54,4.22 Z" id="Path" stroke="#FFFFFF" stroke-width="3"></path>
                <path d="M46.53,7.87 C46.0021204,7.34952111 45.4068127,6.9021995 44.76,6.54 C44.3660847,6.32659349 43.8884778,6.33840299 43.505591,6.57101703 C43.1227042,6.80363107 42.8921299,7.22206064 42.9,7.67 C42.8977838,8.11260822 43.1297979,8.5233873 43.51,8.75 C43.960369,9.00264638 44.3741814,9.31552894 44.74,9.68 C45.8975991,10.8091987 46.5503729,12.357865 46.5503729,13.975 C46.5503729,15.592135 45.8975991,17.1408013 44.74,18.27 L27.74,34.15 L19.25,25.72 C19.0116499,25.481125 18.6874424,25.3478397 18.35,25.35 C17.8369242,25.3524371 17.375715,25.6633612 17.1810196,26.1380679 C16.9863242,26.6127746 17.0963931,27.1580017 17.46,27.52 L26.81,36.82 C27.3404566,37.3305106 28.1795434,37.3305106 28.71,36.82 L46.55,20.07 C48.1818576,18.459666 49.1004568,16.2626262 49.1004568,13.97 C49.1004568,11.6773738 48.1818576,9.48033398 46.55,7.87 L46.53,7.87 Z" id="Path" fill="#FBC91B"></path>
            </g>
        </g>
    </g>
</svg>