<?xml version="1.0" encoding="UTF-8"?>
<svg width="22px" height="22px" viewBox="0 0 22 22" version="1.1" xmlns="http://www.w3.org/2000/svg" xmlns:xlink="http://www.w3.org/1999/xlink">
    <!-- Generator: Sketch 52.5 (67469) - http://www.bohemiancoding.com/sketch -->
    <title>instagram copy 2</title>
    <desc>Created with Sketch.</desc>
    <g id="UI-Design" stroke="none" stroke-width="1" fill="none" fill-rule="evenodd">
        <g id="instagram-copy-2" fill="#FFFFFF" fill-rule="nonzero">
            <path d="M11,0 C8.01166667,0 7.63858333,0.01375 6.46525,0.066 C5.29375,0.121 4.49625,0.30525 3.795,0.5775 C3.07175,0.858 2.45758333,1.23475 1.84616667,1.84616667 C1.23475,2.45758333 0.857083333,3.07083333 0.5775,3.795 C0.30525,4.49625 0.120083333,5.29375 0.066,6.46525 C0.011,7.63858333 0,8.01166667 0,11 C0,13.9883333 0.01375,14.3614167 0.066,15.53475 C0.121,16.7053333 0.30525,17.50375 0.5775,18.205 C0.858,18.9273333 1.23475,19.5424167 1.84616667,20.1538333 C2.45758333,20.7643333 3.07083333,21.1429167 3.795,21.4225 C4.49716667,21.6938333 5.29466667,21.8799167 6.46525,21.934 C7.63858333,21.989 8.01166667,22 11,22 C13.9883333,22 14.3614167,21.98625 15.53475,21.934 C16.7053333,21.879 17.50375,21.6938333 18.205,21.4225 C18.9273333,21.142 19.5424167,20.7643333 20.1538333,20.1538333 C20.7643333,19.5424167 21.1429167,18.9300833 21.4225,18.205 C21.6938333,17.50375 21.8799167,16.7053333 21.934,15.53475 C21.989,14.3614167 22,13.9883333 22,11 C22,8.01166667 21.98625,7.63858333 21.934,6.46525 C21.879,5.29466667 21.6938333,4.49533333 21.4225,3.795 C21.142,3.07175 20.7643333,2.45758333 20.1538333,1.84616667 C19.5424167,1.23475 18.9300833,0.857083333 18.205,0.5775 C17.50375,0.30525 16.7053333,0.120083333 15.53475,0.066 C14.3614167,0.011 13.9883333,0 11,0 Z M11,1.98 C13.9360833,1.98 14.28625,1.99466667 15.4458333,2.04508333 C16.5183333,2.0955 17.1004167,2.27333333 17.48725,2.4255 C18.0024167,2.62441667 18.36725,2.86275 18.7540833,3.24683333 C19.1381667,3.63183333 19.3765,3.99758333 19.5754167,4.51275 C19.72575,4.89958333 19.9054167,5.48166667 19.954,6.55416667 C20.00625,7.71466667 20.0181667,8.063 20.0181667,11 C20.0181667,13.937 20.0044167,14.28625 19.9503333,15.4458333 C19.8944167,16.5183333 19.7156667,17.1004167 19.5644167,17.48725 C19.3590833,18.0024167 19.1253333,18.36725 18.7403333,18.7540833 C18.35625,19.1381667 17.985,19.3765 17.4753333,19.5754167 C17.0903333,19.72575 16.4990833,19.9054167 15.4265833,19.954 C14.25875,20.00625 13.915,20.0181667 10.9725,20.0181667 C8.02908333,20.0181667 7.68533333,20.0044167 6.51841667,19.9503333 C5.445,19.8944167 4.85375,19.7156667 4.46875,19.5644167 C3.94716667,19.3590833 3.58875,19.1253333 3.20466667,18.7403333 C2.81875,18.35625 2.57216667,17.985 2.37966667,17.4753333 C2.22841667,17.0903333 2.05058333,16.4990833 1.99466667,15.4265833 C1.95341667,14.2715833 1.93875,13.915 1.93875,10.98625 C1.93875,8.05658333 1.95341667,7.69908333 1.99466667,6.53033333 C2.05058333,5.45783333 2.22841667,4.8675 2.37966667,4.4825 C2.57216667,3.96 2.81875,3.6025 3.20466667,3.21658333 C3.58875,2.8325 3.94716667,2.585 4.46875,2.39341667 C4.85375,2.24125 5.43216667,2.0625 6.50466667,2.0075 C7.67341667,1.96625 8.01716667,1.9525 10.95875,1.9525 L11,1.98 Z M11,5.3515 C7.87875,5.3515 5.3515,7.8815 5.3515,11 C5.3515,14.12125 7.8815,16.6485 11,16.6485 C14.12125,16.6485 16.6485,14.1185 16.6485,11 C16.6485,7.87875 14.1185,5.3515 11,5.3515 Z M11,14.6666667 C8.97416667,14.6666667 7.33333333,13.0258333 7.33333333,11 C7.33333333,8.97416667 8.97416667,7.33333333 11,7.33333333 C13.0258333,7.33333333 14.6666667,8.97416667 14.6666667,11 C14.6666667,13.0258333 13.0258333,14.6666667 11,14.6666667 Z M18.1921667,5.12875 C18.1921667,5.8575 17.6,6.44875 16.8721667,6.44875 C16.1434167,6.44875 15.5521667,5.85658333 15.5521667,5.12875 C15.5521667,4.40091667 16.1443333,3.80966667 16.8721667,3.80966667 C17.5990833,3.80875 18.1921667,4.40091667 18.1921667,5.12875 Z" id="Shape"></path>
        </g>
    </g>
</svg>