<?xml version="1.0" encoding="UTF-8"?>
<svg width="129px" height="16px" viewBox="0 0 129 16" version="1.1" xmlns="http://www.w3.org/2000/svg" xmlns:xlink="http://www.w3.org/1999/xlink">
    <!-- Generator: Sketch 52.5 (67469) - http://www.bohemiancoding.com/sketch -->
    <title>Group 31</title>
    <desc>Created with Sketch.</desc>
    <g id="UI-Design" stroke="none" stroke-width="1" fill="none" fill-rule="evenodd">
        <g id="Group-31">
            <path d="M8.66,1.2 L12.2,1.2 C12.38,1.2 12.5,1.34 12.5,1.5 L12.5,14.72 C12.5,14.86 12.38,15 12.2,15 L8.74,15 C8.6,15 8.42,14.9 8.32,14.74 L4.84,8.52 L4.84,14.72 C4.84,14.86 4.72,15 4.54,15 L1,15 C0.84,15 0.72,14.86 0.72,14.72 L0.72,1.5 C0.72,1.34 0.84,1.2 1,1.2 L4.46,1.2 C4.64,1.2 4.84,1.3 4.92,1.46 L8.38,7.68 L8.38,1.5 C8.38,1.34 8.52,1.2 8.66,1.2 Z" id="Path" fill="#FBC91B"></path>
            <path d="M23.46,1.46 L27.98,14.74 C28.04,14.86 27.96,15 27.8,15 L23.84,15 C23.66,15 23.5,14.9 23.42,14.74 L22.82,12.64 L19.06,12.64 L18.46,14.74 C18.38,14.9 18.22,15 18.04,15 L14.08,15 C13.92,15 13.84,14.86 13.9,14.74 L18.42,1.46 C18.48,1.34 18.7,1.2 18.9,1.2 L22.98,1.2 C23.18,1.2 23.4,1.34 23.46,1.46 Z M22.02,9.78 L20.94,5.98 L19.86,9.78 L22.02,9.78 Z" id="Combined-Shape" fill="#FBC91B"></path>
            <path d="M28.9,13.62 L30.16,10.8 C30.22,10.6 30.36,10.54 30.52,10.64 C31.44,11.16 32.54,11.54 33.3,11.6 C33.94,11.6 34.36,11.3 34.36,10.84 C34.36,9.66 28.74,9.72 28.74,5.36 C28.74,2.68 30.76,0.9 33.8,0.9 C35.22,0.9 37.02,1.48 38.28,2.34 C38.44,2.44 38.5,2.6 38.44,2.7 L37.18,5.52 C37.12,5.72 36.98,5.78 36.82,5.68 C35.84,5.12 34.7,4.7 34,4.64 C33.38,4.64 32.98,4.92 32.98,5.36 C32.98,6.54 38.64,6.46 38.64,10.86 C38.64,13.52 36.58,15.3 33.5,15.3 C31.82,15.3 30.06,14.78 29.06,13.98 C28.9,13.86 28.84,13.72 28.9,13.62 Z" id="Path" fill="#FBC91B"></path>
            <path d="M41.04,1.2 L45.68,1.2 C49.92,1.2 52.74,3.94 52.74,8.1 C52.74,12.22 49.92,15 45.68,15 L41.04,15 C40.9,15 40.76,14.86 40.76,14.7 L40.76,1.5 C40.76,1.34 40.9,1.2 41.04,1.2 Z M44.88,11.4 L45.92,11.4 C47.46,11.4 48.5,10.08 48.5,8.1 C48.5,6.12 47.46,4.8 45.92,4.8 L44.88,4.8 L44.88,11.4 Z" id="Combined-Shape" fill="#FFFFFF"></path>
            <path d="M62.58,1.46 L67.1,14.74 C67.16,14.86 67.08,15 66.92,15 L62.96,15 C62.78,15 62.62,14.9 62.54,14.74 L61.94,12.64 L58.18,12.64 L57.58,14.74 C57.5,14.9 57.34,15 57.16,15 L53.2,15 C53.04,15 52.96,14.86 53.02,14.74 L57.54,1.46 C57.6,1.34 57.82,1.2 58.02,1.2 L62.1,1.2 C62.3,1.2 62.52,1.34 62.58,1.46 Z M61.14,9.78 L60.06,5.98 L58.98,9.78 L61.14,9.78 Z" id="Combined-Shape" fill="#FFFFFF"></path>
            <path d="M68.78,1.2 L72.32,1.2 C72.5,1.2 72.62,1.34 72.62,1.5 L72.62,14.72 C72.62,14.86 72.5,15 72.32,15 L68.78,15 C68.64,15 68.5,14.86 68.5,14.72 L68.5,1.5 C68.5,1.34 68.64,1.2 68.78,1.2 Z" id="Path" fill="#FFFFFF"></path>
            <path d="M79.2,11.4 L82.92,11.4 C83.06,11.4 83.18,11.52 83.18,11.68 L82.9,14.72 C82.88,14.86 82.74,15 82.58,15 L75.36,15 C75.2,15 75.06,14.86 75.06,14.72 L75.06,1.5 C75.06,1.34 75.2,1.2 75.36,1.2 L78.9,1.2 C79.06,1.2 79.2,1.34 79.2,1.5 L79.2,11.4 Z" id="Path" fill="#FFFFFF"></path>
            <path d="M90.72,1.2 L94.88,1.2 C95.06,1.2 95.2,1.34 95.1,1.52 L90.68,9.48 L90.68,14.72 C90.68,14.86 90.54,15 90.38,15 L86.86,15 C86.7,15 86.56,14.86 86.56,14.72 L86.56,9.48 L82.14,1.52 C82.04,1.34 82.18,1.2 82.36,1.2 L86.52,1.2 C86.72,1.2 86.9,1.34 86.98,1.52 L88.62,5.12 L90.26,1.52 C90.34,1.34 90.52,1.2 90.72,1.2 Z" id="Path" fill="#FFFFFF"></path>
            <path d="M98.16,15.28 C97.1,15.28 96.4,14.62 96.4,13.64 C96.4,12.64 97.1,11.96 98.16,11.96 C99.22,11.96 99.92,12.64 99.92,13.64 C99.92,14.62 99.22,15.28 98.16,15.28 Z" id="Path" fill="#FBC91B"></path>
            <path d="M111.72,11 L113.04,13.78 C113.1,13.92 113.02,14.06 112.86,14.14 C111.7,14.86 110.14,15.3 108.66,15.3 C104.54,15.3 101.78,12.42 101.78,8.1 C101.78,3.78 104.54,0.9 108.66,0.9 C110.14,0.9 111.7,1.34 112.86,2.06 C113.02,2.14 113.1,2.28 113.04,2.42 L111.72,5.2 C111.64,5.38 111.5,5.44 111.34,5.36 C110.6,4.94 109.88,4.8 109.02,4.8 C107.22,4.8 106.02,6.12 106.02,8.1 C106.02,10.08 107.22,11.4 109.02,11.4 C109.88,11.4 110.6,11.26 111.34,10.84 C111.5,10.76 111.64,10.82 111.72,11 Z" id="Path" fill="#FFFFFF"></path>
            <path d="M121.44,15.28 C117.18,15.28 114.34,12.4 114.34,8.1 C114.34,3.76 117.18,0.88 121.44,0.88 C125.7,0.88 128.54,3.76 128.54,8.1 C128.54,12.4 125.7,15.28 121.44,15.28 Z M121.44,4.92 C119.8,4.92 118.7,6.2 118.7,8.1 C118.7,10 119.8,11.28 121.44,11.28 C123.08,11.28 124.18,10 124.18,8.1 C124.18,6.2 123.08,4.92 121.44,4.92 Z" id="Combined-Shape" fill="#FFFFFF"></path>
        </g>
    </g>
</svg>