<?xml version="1.0" encoding="UTF-8"?>
<svg width="100px" height="16px" viewBox="0 0 100 16" version="1.1" xmlns="http://www.w3.org/2000/svg" xmlns:xlink="http://www.w3.org/1999/xlink">
    <!-- Generator: Sketch 52.5 (67469) - http://www.bohemiancoding.com/sketch -->
    <title>Group 30</title>
    <desc>Created with Sketch.</desc>
    <g id="UI-Design" stroke="none" stroke-width="1" fill="none" fill-rule="evenodd">
        <g id="Group-30">
            <path d="M8.39475333,1.2 L11.9347533,1.2 C12.1147533,1.2 12.2347533,1.34 12.2347533,1.5 L12.2347533,14.72 C12.2347533,14.86 12.1147533,15 11.9347533,15 L8.47475333,15 C8.33475333,15 8.15475333,14.9 8.05475333,14.74 L4.57475333,8.52 L4.57475333,14.72 C4.57475333,14.86 4.45475333,15 4.27475333,15 L0.734753326,15 C0.574753326,15 0.454753326,14.86 0.454753326,14.72 L0.454753326,1.5 C0.454753326,1.34 0.574753326,1.2 0.734753326,1.2 L4.19475333,1.2 C4.37475333,1.2 4.57475333,1.3 4.65475333,1.46 L8.11475333,7.68 L8.11475333,1.5 C8.11475333,1.34 8.25475333,1.2 8.39475333,1.2 Z" id="Path" fill="#FBC91B"></path>
            <path d="M23.1947533,1.46 L27.7147533,14.74 C27.7747533,14.86 27.6947533,15 27.5347533,15 L23.5747533,15 C23.3947533,15 23.2347533,14.9 23.1547533,14.74 L22.5547533,12.64 L18.7947533,12.64 L18.1947533,14.74 C18.1147533,14.9 17.9547533,15 17.7747533,15 L13.8147533,15 C13.6547533,15 13.5747533,14.86 13.6347533,14.74 L18.1547533,1.46 C18.2147533,1.34 18.4347533,1.2 18.6347533,1.2 L22.7147533,1.2 C22.9147533,1.2 23.1347533,1.34 23.1947533,1.46 Z M21.7547533,9.78 L20.6747533,5.98 L19.5947533,9.78 L21.7547533,9.78 Z" id="Combined-Shape" fill="#FBC91B"></path>
            <path d="M28.6347533,13.62 L29.8947533,10.8 C29.9547533,10.6 30.0947533,10.54 30.2547533,10.64 C31.1747533,11.16 32.2747533,11.54 33.0347533,11.6 C33.6747533,11.6 34.0947533,11.3 34.0947533,10.84 C34.0947533,9.66 28.4747533,9.72 28.4747533,5.36 C28.4747533,2.68 30.4947533,0.9 33.5347533,0.9 C34.9547533,0.9 36.7547533,1.48 38.0147533,2.34 C38.1747533,2.44 38.2347533,2.6 38.1747533,2.7 L36.9147533,5.52 C36.8547533,5.72 36.7147533,5.78 36.5547533,5.68 C35.5747533,5.12 34.4347533,4.7 33.7347533,4.64 C33.1147533,4.64 32.7147533,4.92 32.7147533,5.36 C32.7147533,6.54 38.3747533,6.46 38.3747533,10.86 C38.3747533,13.52 36.3147533,15.3 33.2347533,15.3 C31.5547533,15.3 29.7947533,14.78 28.7947533,13.98 C28.6347533,13.86 28.5747533,13.72 28.6347533,13.62 Z" id="Path" fill="#FBC91B"></path>
            <path d="M40.7747533,1.2 L45.4147533,1.2 C49.6547533,1.2 52.4747533,3.94 52.4747533,8.1 C52.4747533,12.22 49.6547533,15 45.4147533,15 L40.7747533,15 C40.6347533,15 40.4947533,14.86 40.4947533,14.7 L40.4947533,1.5 C40.4947533,1.34 40.6347533,1.2 40.7747533,1.2 Z M44.6147533,11.4 L45.6547533,11.4 C47.1947533,11.4 48.2347533,10.08 48.2347533,8.1 C48.2347533,6.12 47.1947533,4.8 45.6547533,4.8 L44.6147533,4.8 L44.6147533,11.4 Z" id="Combined-Shape" fill="#FFFFFF"></path>
            <path d="M62.3147533,1.46 L66.8347533,14.74 C66.8947533,14.86 66.8147533,15 66.6547533,15 L62.6947533,15 C62.5147533,15 62.3547533,14.9 62.2747533,14.74 L61.6747533,12.64 L57.9147533,12.64 L57.3147533,14.74 C57.2347533,14.9 57.0747533,15 56.8947533,15 L52.9347533,15 C52.7747533,15 52.6947533,14.86 52.7547533,14.74 L57.2747533,1.46 C57.3347533,1.34 57.5547533,1.2 57.7547533,1.2 L61.8347533,1.2 C62.0347533,1.2 62.2547533,1.34 62.3147533,1.46 Z M60.8747533,9.78 L59.7947533,5.98 L58.7147533,9.78 L60.8747533,9.78 Z" id="Combined-Shape" fill="#FFFFFF"></path>
            <path d="M68.5147533,1.2 L72.0547533,1.2 C72.2347533,1.2 72.3547533,1.34 72.3547533,1.5 L72.3547533,14.72 C72.3547533,14.86 72.2347533,15 72.0547533,15 L68.5147533,15 C68.3747533,15 68.2347533,14.86 68.2347533,14.72 L68.2347533,1.5 C68.2347533,1.34 68.3747533,1.2 68.5147533,1.2 Z" id="Path" fill="#FFFFFF"></path>
            <path d="M78.9347533,11.4 L82.6547533,11.4 C82.7947533,11.4 82.9147533,11.52 82.9147533,11.68 L82.6347533,14.72 C82.6147533,14.86 82.4747533,15 82.3147533,15 L75.0947533,15 C74.9347533,15 74.7947533,14.86 74.7947533,14.72 L74.7947533,1.5 C74.7947533,1.34 74.9347533,1.2 75.0947533,1.2 L78.6347533,1.2 C78.7947533,1.2 78.9347533,1.34 78.9347533,1.5 L78.9347533,11.4 Z" id="Path" fill="#FFFFFF"></path>
            <path d="M90.4547533,1.2 L94.6147533,1.2 C94.7947533,1.2 94.9347533,1.34 94.8347533,1.52 L90.4147533,9.48 L90.4147533,14.72 C90.4147533,14.86 90.2747533,15 90.1147533,15 L86.5947533,15 C86.4347533,15 86.2947533,14.86 86.2947533,14.72 L86.2947533,9.48 L81.8747533,1.52 C81.7747533,1.34 81.9147533,1.2 82.0947533,1.2 L86.2547533,1.2 C86.4547533,1.2 86.6347533,1.34 86.7147533,1.52 L88.3547533,5.12 L89.9947533,1.52 C90.0747533,1.34 90.2547533,1.2 90.4547533,1.2 Z" id="Path" fill="#FFFFFF"></path>
            <path d="M97.8947533,15.28 C96.8347533,15.28 96.1347533,14.62 96.1347533,13.64 C96.1347533,12.64 96.8347533,11.96 97.8947533,11.96 C98.9547533,11.96 99.6547533,12.64 99.6547533,13.64 C99.6547533,14.62 98.9547533,15.28 97.8947533,15.28 Z" id="Path" fill="#FBC91B"></path>
        </g>
    </g>
</svg>