<?xml version="1.0" encoding="UTF-8"?>
<svg width="17px" height="17px" viewBox="0 0 17 17" version="1.1" xmlns="http://www.w3.org/2000/svg" xmlns:xlink="http://www.w3.org/1999/xlink">
    <!-- Generator: Sketch 52.5 (67469) - http://www.bohemiancoding.com/sketch -->
    <title>Search icon</title>
    <desc>Created with Sketch.</desc>
    <g id="UI-Design" stroke="none" stroke-width="1" fill="none" fill-rule="evenodd">
        <g id="Search-icon" fill="#FBC91B">
            <path d="M6.5,13 C2.91554545,13 0,10.0832727 0,6.5 C0,2.91554545 2.91554545,0 6.5,0 C10.0832727,0 13,2.91554545 13,6.5 C13,10.0832727 10.0832727,13 6.5,13 Z M6.5,1.18181818 C3.56790909,1.18181818 1.18181818,3.56790909 1.18181818,6.5 C1.18181818,9.43209091 3.56790909,11.8181818 6.5,11.8181818 C9.43209091,11.8181818 11.8181818,9.43209091 11.8181818,6.5 C11.8181818,3.56790909 9.43209091,1.18181818 6.5,1.18181818 Z" id="Shape" fill-rule="nonzero"></path>
            <path d="M16.4513234,17 C16.3106512,17 16.1699789,16.9461464 16.0622768,16.8395384 L11.160729,11.9377662 C10.9464237,11.723451 10.9464237,11.3750515 11.160729,11.1607364 C11.3750343,10.9464212 11.7234179,10.9464212 11.9377232,11.1607364 L16.839271,16.0625086 C17.0535763,16.2768237 17.0535763,16.6252232 16.839271,16.8395384 C16.7326678,16.9461464 16.5919956,17 16.4513234,17 Z" id="Path"></path>
        </g>
    </g>
</svg>