<?xml version="1.0" encoding="UTF-8"?>
<svg width="15px" height="14px" viewBox="0 0 15 14" version="1.1" xmlns="http://www.w3.org/2000/svg" xmlns:xlink="http://www.w3.org/1999/xlink">
    <!-- Generator: Sketch 52.5 (67469) - http://www.bohemiancoding.com/sketch -->
    <title>Shopping_cart_icon</title>
    <desc>Created with Sketch.</desc>
    <g id="UI-Design" stroke="none" stroke-width="1" fill="none" fill-rule="evenodd">
        <g id="Shopping_cart_icon" fill="#FFFFFF">
            <path d="M0.625,1.2173913 C0.27984625,1.2173913 -2.16715534e-13,0.944847826 -2.16715534e-13,0.608695652 C-2.16715534e-13,0.272545913 0.27984625,3.46389584e-14 0.625,3.46389584e-14 L2.3122375,3.46389584e-14 C2.58735625,3.46389584e-14 2.82104375,0.173201913 2.9045125,0.41372313 C2.90954375,0.42791487 2.91405,0.442106609 2.91809375,0.456818783 L3.42003125,2.28134261 L13.6360625,2.28134261 C14.470375,2.28134261 15.0705,3.0621287 14.8354375,3.84179478 L13.550625,8.10265217 C13.3943125,8.62101739 12.9059375,8.97698261 12.35125,8.97698261 L4.86976875,8.97698261 C4.29580625,8.97698261 3.79555,8.59624348 3.65684375,8.05377391 L2.89474375,5.07300957 C2.89184375,5.06409217 2.8891,5.0550287 2.88658125,5.04588609 L1.83319375,1.2173913 L0.625,1.2173913 Z M4.86976875,7.7595913 L12.35125,7.7595913 L13.6360625,3.49873391 L3.7803625,3.49873391 L4.86976875,7.7595913 Z" id="Shape"></path>
            <path d="M5.6184375,13.8465478 C6.8265625,13.8465478 7.8059375,12.8927217 7.8059375,11.716113 C7.8059375,10.5395043 6.8265625,9.58567826 5.6184375,9.58567826 C4.410325,9.58567826 3.4309375,10.5395043 3.4309375,11.716113 C3.4309375,12.8927217 4.410325,13.8465478 5.6184375,13.8465478 Z M5.6184375,12.6291565 C6.13616875,12.6291565 6.5559375,12.2203565 6.5559375,11.716113 C6.5559375,11.2119304 6.13616875,10.8030696 5.6184375,10.8030696 C5.10070625,10.8030696 4.6809375,11.2119304 4.6809375,11.716113 C4.6809375,12.2203565 5.10070625,12.6291565 5.6184375,12.6291565 Z" id="Shape"></path>
            <path d="M13.4309375,11.716113 C13.4309375,12.8927217 12.4515625,13.8465478 11.2434375,13.8465478 C10.0353125,13.8465478 9.0559375,12.8927217 9.0559375,11.716113 C9.0559375,10.5395043 10.0353125,9.58567826 11.2434375,9.58567826 C12.4515625,9.58567826 13.4309375,10.5395043 13.4309375,11.716113 Z M12.1809375,11.716113 C12.1809375,12.2203565 11.7611875,12.6291565 11.2434375,12.6291565 C10.7256875,12.6291565 10.3059375,12.2203565 10.3059375,11.716113 C10.3059375,11.2119304 10.7256875,10.8030696 11.2434375,10.8030696 C11.7611875,10.8030696 12.1809375,11.2119304 12.1809375,11.716113 Z" id="Shape"></path>
        </g>
    </g>
</svg>