<?xml version="1.0" encoding="UTF-8"?>
<svg width="53px" height="62px" viewBox="0 0 53 62" version="1.1" xmlns="http://www.w3.org/2000/svg" xmlns:xlink="http://www.w3.org/1999/xlink">
    <!-- Generator: Sketch 52.5 (67469) - http://www.bohemiancoding.com/sketch -->
    <title>Stronger_icon</title>
    <desc>Created with Sketch.</desc>
    <g id="UI-Design" stroke="none" stroke-width="1" fill="none" fill-rule="evenodd">
        <g id="Agency-Page" transform="translate(-830.000000, -1330.000000)">
            <g id="Stronger_icon" transform="translate(830.000000, 1329.000000)">
                <path d="M51.6,59.65 L48.9,59.65 L48.9,20.47 C48.9000083,18.6458356 47.4241561,17.1655111 45.6,17.16 L39.6,17.16 C37.7758439,17.1655111 36.2999917,18.6458356 36.3,20.47 L36.3,59.65 L32.5,59.65 L32.5,38.22 C32.5,36.3919375 31.0180625,34.91 29.19,34.91 L23.19,34.91 C21.3658439,34.9155111 19.8899917,36.3958356 19.89,38.22 L19.89,59.65 L16.72,59.65 L16.72,48.55 C16.7144889,46.7258439 15.2341644,45.2499917 13.41,45.25 L7.41,45.25 C5.58583561,45.2499917 4.10551107,46.7258439 4.1,48.55 L4.1,59.65 L1.23,59.65 C0.550689758,59.65 8.70498043e-13,60.2006898 8.70414851e-13,60.88 C8.7033166e-13,61.5593102 0.550689758,62.11 1.23,62.11 L51.6,62.11 C52.2793102,62.11 52.83,61.5593102 52.83,60.88 C52.83,60.2006898 52.2793102,59.65 51.6,59.65 Z M14.26,59.65 L6.53,59.65 L6.53,48.55 C6.53547723,48.0844679 6.91443564,47.7099678 7.38,47.71 L13.38,47.71 C13.8455644,47.7099678 14.2245228,48.0844679 14.23,48.55 L14.23,59.65 L14.26,59.65 Z M30.04,59.65 L22.32,59.65 L22.32,38.22 C22.3254001,37.7583361 22.6983361,37.3854001 23.16,37.38 L29.16,37.38 C29.6255644,37.3799678 30.0045228,37.7544679 30.01,38.22 L30.04,59.65 Z M46.44,59.65 L38.72,59.65 L38.72,20.47 C38.7199678,20.0044356 39.0944679,19.6254772 39.56,19.62 L45.56,19.62 C46.0255321,19.6254772 46.4000322,20.0044356 46.4,20.47 L46.4,59.65 L46.44,59.65 Z" id="Shape" fill="#FFFFFF" fill-rule="nonzero"></path>
                <path d="M42.21,11.15 C42.8519096,11.1503627 43.3784233,10.6415469 43.4,10 L43.4,2.25 C43.4159305,1.91590185 43.2928546,1.59011267 43.06,1.35 C42.8191727,1.11087894 42.4889942,0.983887202 42.15,1 L34,1 C33.3427811,1 32.81,1.53278115 32.81,2.19 C32.81,2.84721885 33.3427811,3.38 34,3.38 L39.37,3.38 L25.74,17 L20.64,13.94 C20.4115164,13.7047482 20.0979424,13.5713891 19.77,13.57 C19.4540159,13.5673849 19.1506408,13.6937912 18.93,13.92 L0.82,30 C0.362628549,30.4666122 0.362628549,31.2133878 0.82,31.68 C1.2887493,32.1321079 2.0312507,32.1321079 2.5,31.68 L19.75,16.45 L24.85,19.51 C25.322397,19.981736 26.087603,19.981736 26.56,19.51 L41,5.07 L41,10 C41.0217423,10.6493848 41.5603494,11.161284 42.21,11.15 Z" id="Path" fill="#FBC91B"></path>
            </g>
        </g>
    </g>
</svg>