<?xml version="1.0" standalone="no"?>
<!DOCTYPE svg PUBLIC "-//W3C//DTD SVG 1.1//EN" "http://www.w3.org/Graphics/SVG/1.1/DTD/svg11.dtd" >
<svg xmlns="http://www.w3.org/2000/svg" xmlns:xlink="http://www.w3.org/1999/xlink" version="1.1">
<metadata>
Created by FontForge 20150804 at Mon Jul 24 00:56:10 2017
 By cloudconvert
Copyright (c) 2015 by Eduardo Manso. All rights reserved.
</metadata>
<defs>
<font id="GeogrotesqueComp-Th" horiz-adv-x="225" >
  <font-face 
    font-family="GeogrotesqueComp-Th"
    font-weight="400"
    font-stretch="ultra-condensed"
    units-per-em="1000"
    panose-1="0 0 0 0 0 0 0 0 0 0"
    ascent="779"
    descent="-221"
    x-height="490"
    cap-height="680"
    bbox="-109.571 -218.003 1419 964.001"
    underline-thickness="12"
    underline-position="-113"
    unicode-range="U+000D-FF19"
  />
<missing-glyph horiz-adv-x="822" 
d="M659 94c-69.333 -68 -152.333 -101.999 -249 -101.999c-96 0 -178 34 -246 102c-68.667 67.333 -103 149.666 -103 246.999c0 96 34.333 178.333 103 247c68 68 150 102 246 102c98 0 181 -34 249 -102c68.667 -68.667 103 -151 103 -247s-34.333 -178.333 -103 -247z
M647 106.001c66 66 99 144.332 99 234.999s-33 169 -99 235c-65.333 65.333 -144.333 98 -237 98c-90.667 0 -168.667 -32.667 -234 -98c-66 -66 -99 -144.333 -99 -235c0 -91.333 33 -169.666 99 -234.999c65.333 -65.333 143.333 -98 234 -98
c92.667 0 171.667 32.667 237 98zM545 197l-133 133.002l-132 -132c-4 -4 -7 -4 -9 0l-2 3c-2 3.33301 -2 6 0 8l132 132l-132 133c-2.66699 2.66699 -2.66699 5.33398 0 8.00098l2 2c3.33301 3.33301 6.33301 3.66602 9 0.999023l132 -133l134 133
c2.66699 2.66699 5.33398 2.66699 8.00098 0l3 -3c2.66699 -2.66699 2.66699 -5.33398 0 -8.00098l-134 -133l133 -133c2.66699 -2.66699 2.66699 -5.33398 0 -8.00098l-3 -3c-2.66699 -2.66699 -5.33398 -2.66699 -8.00098 0z" />
    <glyph glyph-name="fi" unicode="fi" horiz-adv-x="364" 
d="M296 482v-476c0 -4 -2 -6 -6 -6h-4c-4 0 -6 2 -6 6v468h-185v-468c0 -4 -2 -6 -6 -6h-4c-4 0 -6 2 -6 6v468h-48c-4 0 -6 2 -6 6v1c0 4 2 6 6 6l37 2h11v107c0 31.333 8.5 55.5 25.5 72.5s47.167 25.5 90.5 25.5h72c4 0 6 -2 6 -6v-3c0 -4 -2 -6 -6 -6h-72
c-37.333 0 -63.333 -7.33301 -78 -22s-22 -35 -22 -61v-107h194c4.66699 0 7 -2.33301 7 -7z" />
    <glyph glyph-name="fl" unicode="fl" horiz-adv-x="367" 
d="M298 688v-682c0 -4 -2 -6 -6 -6h-4c-4 0 -6 2 -6 6v673h-87c-37.333 0 -63.333 -7.33301 -78 -22s-22 -35 -22 -61v-107h84c4 0 6 -2 6 -6v-3c0 -4 -2 -6 -6 -6h-84v-468c0 -4 -2 -6 -6 -6h-4c-4 0 -6 2 -6 6v468h-48c-4 0 -6 2 -6 6v1c0 4 2 6 6 6l37 2h11v107
c0 31.333 8.5 55.5 25.5 72.5s47.167 25.5 90.5 25.5h96c4.66699 0 7 -2 7 -6z" />
    <glyph glyph-name=".notdef" horiz-adv-x="822" 
d="M659 94c-69.333 -68 -152.333 -101.999 -249 -101.999c-96 0 -178 34 -246 102c-68.667 67.333 -103 149.666 -103 246.999c0 96 34.333 178.333 103 247c68 68 150 102 246 102c98 0 181 -34 249 -102c68.667 -68.667 103 -151 103 -247s-34.333 -178.333 -103 -247z
M647 106.001c66 66 99 144.332 99 234.999s-33 169 -99 235c-65.333 65.333 -144.333 98 -237 98c-90.667 0 -168.667 -32.667 -234 -98c-66 -66 -99 -144.333 -99 -235c0 -91.333 33 -169.666 99 -234.999c65.333 -65.333 143.333 -98 234 -98
c92.667 0 171.667 32.667 237 98zM545 197l-133 133.002l-132 -132c-4 -4 -7 -4 -9 0l-2 3c-2 3.33301 -2 6 0 8l132 132l-132 133c-2.66699 2.66699 -2.66699 5.33398 0 8.00098l2 2c3.33301 3.33301 6.33301 3.66602 9 0.999023l132 -133l134 133
c2.66699 2.66699 5.33398 2.66699 8.00098 0l3 -3c2.66699 -2.66699 2.66699 -5.33398 0 -8.00098l-134 -133l133 -133c2.66699 -2.66699 2.66699 -5.33398 0 -8.00098l-3 -3c-2.66699 -2.66699 -5.33398 -2.66699 -8.00098 0z" />
    <glyph glyph-name=".null" horiz-adv-x="0" 
 />
    <glyph glyph-name=".null" horiz-adv-x="0" 
 />
    <glyph glyph-name="CR" unicode="&#xd;" horiz-adv-x="0" 
 />
    <glyph glyph-name="space" unicode=" " horiz-adv-x="180" 
 />
    <glyph glyph-name="exclam" unicode="!" horiz-adv-x="151" 
d="M84 390l-2 -239c0 -4 -2 -6 -6 -6h-2c-4 0 -6 2 -6 6l-2 239v284c0 4 2 6 6 6h6c4 0 6 -2 6 -6v-284zM83 81v-75c0 -4 -2 -6 -6 -6h-4c-4 0 -6 2 -6 6v75c0 4 2 6 6 6h4c4 0 6 -2 6 -6z" />
    <glyph glyph-name="quotedbl" unicode="&#x22;" horiz-adv-x="210" 
d="M150 496c0 -4 -2 -6 -6 -6h-2c-4 0 -6 2 -6 6l-2 178c0 4 2 6 6 6h6c4 0 6 -2 6 -6zM74 496c0 -4 -2 -6 -6 -6h-2c-4 0 -6 2 -6 6l-2 178c0 4 2 6 6 6h6c4 0 6 -2 6 -6z" />
    <glyph glyph-name="numbersign" unicode="#" horiz-adv-x="404" 
d="M165 409l-39 -140h118l39 140h-118zM50 269h58.998l39 140h-61c-4 0 -6 2 -6 6v3c0 4 2 6 6 6h65l31 112c0.666992 4 3.33398 6 8.00098 6h5c4 0 5.33301 -2 4 -6l-31 -112h118l31 112c1.33301 4 4 6 8 6h5c4 0 5.33301 -2 4 -6l-31 -112h53c4 0 6 -2 6 -6v-3
c0 -4 -2 -6 -6 -6h-57l-39 -140h59c4 0 6 -2 6 -6v-3c0 -4 -2 -6 -6 -6h-63l-30 -109c-0.666992 -4 -3 -6 -7 -6h-6c-4 0 -5.33301 2 -4 6l30 109h-118l-30 -109c-1.33301 -4 -3.66602 -6 -6.99902 -6h-6c-4 0 -5.33301 2 -4 6l30 109h-55c-4 0 -6 2 -6 6v3c0 4 2 6 6 6z
" />
    <glyph glyph-name="dollar" unicode="$" horiz-adv-x="342" 
d="M174 0l-3.99805 0.00195312c-4 0 -6 2 -6 6v80c-36.667 0.666992 -64.5 9.16699 -83.5 25.5s-28.5 37.166 -28.5 62.499v41c0 3.33301 2 5 6 5h5c3.33301 0 5 -1.66699 5 -5v-40c0 -22 8.66699 -39.833 26 -53.5s42.666 -20.5 75.999 -20.5
c34.667 0 60.5 6.83301 77.5 20.5s25.5 31.5 25.5 53.5v78c0 32 -17.667 55.333 -53 70l-99 42c-16.667 7.33301 -31.834 18.5 -45.501 33.5s-20.5 33.5 -20.5 55.5v51c0 26.667 9 47.834 27 63.501s45.333 23.5 82 23.5v82c0 4 2 6 6 6h4c4 0 6 -2 6 -6v-82
c34.667 -2 60.5 -10.833 77.5 -26.5s25.5 -35.834 25.5 -60.501v-47c0 -3.33301 -1.66699 -5 -5 -5h-5c-4 0 -6 1.66699 -6 5v47c0 48.667 -33 73 -99 73c-64.667 0 -97 -24.333 -97 -73v-50c0 -34 18.667 -59 56 -75l97 -41c43.333 -18.667 65 -46.334 65 -83.001v-82
c0 -25.333 -9 -46 -27 -62s-45.333 -24.667 -82 -26v-80c0 -4 -2 -6 -6 -6z" />
    <glyph glyph-name="percent" unicode="%" horiz-adv-x="510" 
d="M391 682l-255 -684c-1.33301 -4 -4 -6 -8 -6h-5c-3.33301 0 -4.33301 2 -3 6l255 684c2 4 4.66699 6 8 6h4c4 0 5.33301 -2 4 -6zM51 379v238c0 22 5.5 38.667 16.5 50s31.5 17 61.5 17s50.667 -5.83301 62 -17.5s17 -28.167 17 -49.5v-238
c0 -21.333 -5.66699 -37.833 -17 -49.5s-32 -17.5 -62 -17.5s-50.5 5.66699 -61.5 17s-16.5 28 -16.5 50zM193 378v240c0 16.667 -4.5 29.5 -13.5 38.5s-25.833 13.5 -50.5 13.5c-24 0 -40.5 -4.5 -49.5 -13.5s-13.5 -21.833 -13.5 -38.5v-240
c0 -16.667 4.5 -29.5 13.5 -38.5s25.5 -13.5 49.5 -13.5c24.667 0 41.5 4.5 50.5 13.5s13.5 21.833 13.5 38.5zM302 63v238c0 22 5.5 38.667 16.5 50s31.5 17 61.5 17s50.667 -5.66699 62 -17s17 -28 17 -50v-238c0 -22 -5.66699 -38.667 -17 -50s-32 -17 -62 -17
s-50.5 5.66699 -61.5 17s-16.5 28 -16.5 50zM444 62v240c0 16.667 -4.5 29.5 -13.5 38.5s-25.833 13.5 -50.5 13.5c-24 0 -40.5 -4.5 -49.5 -13.5s-13.5 -21.833 -13.5 -38.5v-240c0 -16.667 4.5 -29.5 13.5 -38.5s25.5 -13.5 49.5 -13.5c24.667 0 41.5 4.5 50.5 13.5
s13.5 21.833 13.5 38.5z" />
    <glyph glyph-name="ampersand" unicode="&#x26;" horiz-adv-x="451" 
d="M356 107c0 -76.667 -48.998 -115.001 -146.998 -115.001s-147 38.333 -147 115v156c0 30 5.66699 53.333 17 70s33.333 28.334 66 35.001c-30.667 6.66699 -51.334 18.167 -62.001 34.5s-16 39.5 -16 69.5v101c0 37.333 9.16699 65.833 27.5 85.5s51.5 29.5 99.5 29.5
c48.667 0 82.167 -9.83301 100.5 -29.5s27.5 -48.167 27.5 -85.5v-26c0 -4 -2 -6 -6 -6h-4c-4 0 -6 2 -6 6v26c0 32.667 -7.83301 57.5 -23.5 74.5s-45.167 25.5 -88.5 25.5c-42.667 0 -71.834 -8.5 -87.501 -25.5s-23.5 -41.833 -23.5 -74.5v-101
c0 -33.333 8.16699 -57.833 24.5 -73.5s49.833 -23.5 100.5 -23.5h204c4 0 6 -2 6 -6v-3c0 -4 -2 -6 -6 -6h-56v-253zM209.002 6.99902c87.333 0 131 33.333 131 100v253h-137c-50.667 0 -84.167 -7.83301 -100.5 -23.5s-24.5 -40.167 -24.5 -73.5v-156
c0 -66.667 43.667 -100 131 -100z" />
    <glyph glyph-name="quotesingle" unicode="'" horiz-adv-x="133" 
d="M76 674l-2 -178c0 -4 -2 -6 -6 -6h-2c-4 0 -6 2 -6 6l-2 178c0 4 2 6 6 6h6c4 0 6 -2 6 -6z" />
    <glyph glyph-name="parenleft" unicode="(" horiz-adv-x="208" 
d="M65 -119v728.002c0 31.333 8.5 55.666 25.5 72.999s46.5 26 88.5 26h3c4 0 6 -2 6 -6v-3c0 -4 -2 -6 -6 -6h-3c-65.333 0 -98 -28 -98 -84v-728c0 -56 32.667 -84 98 -84h3c4 0 6 -2 6 -6v-3c0 -4 -2 -6 -6 -6h-3c-42 0 -71.5 8.66699 -88.5 26
s-25.5 41.666 -25.5 72.999z" />
    <glyph glyph-name="parenright" unicode=")" horiz-adv-x="208" 
d="M143 609v-728.002c0 -31.333 -8.5 -55.666 -25.5 -72.999s-46.5 -26 -88.5 -26h-3c-4 0 -6 2 -6 6v3c0 4 2 6 6 6h3c65.333 0 98 28 98 84v728c0 56 -32.667 84 -98 84h-3c-4 0 -6 2 -6 6v3c0 4 2 6 6 6h3c42 0 71.5 -8.66699 88.5 -26s25.5 -41.666 25.5 -72.999z" />
    <glyph glyph-name="asterisk" unicode="*" horiz-adv-x="321" 
d="M159 407c-4 0 -6.00098 2.00098 -6.00098 6.00098l2 134l-83 -77c-2.66699 -2.66699 -5.66699 -2.33398 -9 0.999023l-2 2c-2 2 -1.66699 4.66699 1 8l90 78l-91 79c-3.33301 2 -3.33301 4.66699 0 8l2 2c2.66699 2.66699 5.33398 3 8.00098 1l84 -79l-2 135c0 4 2 6 6 6
h3c4 0 6 -2 6 -6l-3 -135l84 79c4 4 7 3.66699 9 -1l1 -2c2 -3.33301 2 -6 0 -8l-91 -79l91 -78c2 -2 2 -4.66699 0 -8l-1 -2c-2 -4.66699 -5 -5 -9 -1l-84 77l3 -134c0 -4 -2 -6 -6 -6h-3z" />
    <glyph glyph-name="plus" unicode="+" horiz-adv-x="373" 
d="M178 144v188h-130c-4 0 -6 2 -6 6v3c0 4 2 6 6 6h130v188c0 4 2 6 6 6h3c4 0 6 -2 6 -6v-188h132c4 0 6 -2 6 -6v-3c0 -4 -2 -6 -6 -6h-132v-188c0 -4 -2 -6 -6 -6h-3c-4 0 -6 2 -6 6z" />
    <glyph glyph-name="comma" unicode="," horiz-adv-x="135" 
d="M60 26v54.999c0 4 2 6 6 6h4c4 0 6 -2 6 -6v-55c0 -50.667 -16.333 -83 -49 -97c-4 -1.33301 -6.66699 -0.666016 -8 2.00098l-2 4c-1.33301 3.33301 -0.333008 6 3 8c15.333 9.33301 25.833 20 31.5 32s8.5 29 8.5 51z" />
    <glyph glyph-name="hyphen" unicode="-" horiz-adv-x="310" 
d="M60 297h190c4 0 6 -2 6 -6v-3c0 -4 -2 -6 -6 -6h-190c-4 0 -6 2 -6 6v3c0 4 2 6 6 6z" />
    <glyph glyph-name="period" unicode="." horiz-adv-x="134" 
d="M75 81v-75c0 -4 -2 -6 -6 -6h-4c-4 0 -6 2 -6 6v75c0 4 2 6 6 6h4c4 0 6 -2 6 -6z" />
    <glyph glyph-name="slash" unicode="/" horiz-adv-x="246" 
d="M214 693l-167 -835c-0.666992 -4 -3 -6 -7 -6h-4c-4 0 -5.33301 2 -4 6l166 835c1.33301 4 4 6 8 6h4c4 0 5.33301 -2 4 -6z" />
    <glyph glyph-name="zero" unicode="0" horiz-adv-x="396" 
d="M66 110v460c0 38 9.33301 67.167 28 87.5s53 30.5 103 30.5c51.333 0 86.333 -10.167 105 -30.5s28 -49.5 28 -87.5v-460c0 -38 -9.33301 -67.167 -28 -87.5s-53.667 -30.5 -105 -30.5c-50 0 -84.333 10.167 -103 30.5s-28 49.5 -28 87.5zM314 110v460
c0 33.333 -8.16699 58.833 -24.5 76.5s-47.166 26.5 -92.499 26.5c-44.667 0 -75 -8.83301 -91 -26.5s-24 -43.167 -24 -76.5v-460c0 -33.333 8 -58.833 24 -76.5s46.333 -26.5 91 -26.5c45.333 0 76.166 8.83301 92.499 26.5s24.5 43.167 24.5 76.5z" />
    <glyph glyph-name="one" unicode="1" horiz-adv-x="346" 
d="M50 640l135 40c4 1.33301 6 0 6 -4v-661h127c4 0 6 -2 6 -6v-3c0 -4 -2 -6 -6 -6h-269c-4 0 -6 2 -6 6v3c0 4 2 6 6 6h126v647l-125 -37c-4 -1.33301 -6 0 -6 4v3c0 4 2 6.66699 6 8z" />
    <glyph glyph-name="two" unicode="2" horiz-adv-x="378" 
d="M80 15h236c4 0 6 -2 6 -6v-3c0 -4 -2 -6 -6 -6h-246c-4 0 -6 2 -6 6v203c0 28.667 9.33301 51.5 28 68.5s38 29.167 58 36.5l96 36c14 4.66699 27.167 14.334 39.5 29.001s18.5 34 18.5 58v133c0 33.333 -7.83301 58.833 -23.5 76.5s-46.167 26.5 -91.5 26.5
c-44 0 -74 -8.83301 -90 -26.5s-24 -43.167 -24 -76.5v-67c0 -4 -2 -6 -6 -6h-4c-4 0 -6 2 -6 6v67c0 38 9.16699 67.167 27.5 87.5s52.5 30.5 102.5 30.5c50.667 0 85.167 -10 103.5 -30s27.5 -49.333 27.5 -88v-135c0 -20 -4.83301 -37.833 -14.5 -53.5
s-19 -26.5 -28 -32.5s-18.167 -11 -27.5 -15l-100 -39c-8.66699 -3.33301 -17.5 -7.83301 -26.5 -13.5s-18.5 -15.334 -28.5 -29.001s-15 -28.5 -15 -44.5v-193z" />
    <glyph glyph-name="three" unicode="3" horiz-adv-x="376" 
d="M128 375l54 0.00195312c44.667 0 74.5 8.5 89.5 25.5s22.5 42.833 22.5 77.5v95c0 32.667 -7.83301 57.5 -23.5 74.5s-44.834 25.5 -87.501 25.5c-42 0 -70.833 -8.5 -86.5 -25.5s-23.5 -41.833 -23.5 -74.5v-26c0 -4 -2 -6 -6 -6h-4c-4 0 -6 2 -6 6v26
c0 37.333 9 65.833 27 85.5s51 29.5 99 29.5s81.167 -9.83301 99.5 -29.5s27.5 -48.167 27.5 -85.5v-95c0 -31.333 -4.83301 -55.833 -14.5 -73.5s-28.167 -29.834 -55.5 -36.501c28.667 -6.66699 48 -18.834 58 -36.501s15 -42.5 15 -74.5v-150
c0 -37.333 -9.5 -65.833 -28.5 -85.5s-52.833 -29.5 -101.5 -29.5s-82.5 9.83301 -101.5 29.5s-28.5 48.167 -28.5 85.5v26c0 4 2 6 6 6h4c4 0 6 -2 6 -6v-26c0 -32 8.33301 -56.667 25 -74s46.334 -26 89.001 -26c44 0 74 8.5 90 25.5s24 41.833 24 74.5v150
c0 35.333 -7.33301 61.333 -22 78s-45 25 -91 25h-56c-4 0 -6 2 -6 6v4c0 3.33301 2 5 6 5z" />
    <glyph glyph-name="four" unicode="4" horiz-adv-x="369" 
d="M160 674l-110 -415.999h234v416c0 4 2 6 6 6h4c4 0 6 -2 6 -6v-668c0 -4 -2 -6 -6 -6h-4c-4 0 -6 2 -6 6v237h-245c-4 0 -6 1.66699 -6 5v2c0 1.33301 0.333008 3.66602 1 6.99902l110 417c1.33301 4 4 6 8 6h4c4 0 5.33301 -2 4 -6z" />
    <glyph glyph-name="five" unicode="5" horiz-adv-x="368" 
d="M71 680h223c4 0 6 -2 6 -6v-3c0 -4 -2 -6 -6 -6h-213v-270h100c87.333 0 131 -33 131 -99v-188c0 -38.667 -8.66699 -67.667 -26 -87s-51 -29 -101 -29c-49.333 0 -82.666 9.83301 -99.999 29.5s-26 48.5 -26 86.5v25c0 4 2 6 6 6h4c4 0 6 -2 6 -6v-25
c0 -33.333 7.16699 -58.5 21.5 -75.5s43.833 -25.5 88.5 -25.5c45.333 0 75.166 8.33301 89.499 25s21.5 42 21.5 76v188c0 56 -38.333 84 -115 84h-110c-4 0 -6 2 -6 6v288c0 4 2 6 6 6z" />
    <glyph glyph-name="six" unicode="6" horiz-adv-x="388" 
d="M66 110v469c0 32.667 9 59 27 79s52 30 102 30c85.333 0 128 -36.333 128 -109v-24c0 -4 -2 -6 -6 -6h-4c-4 0 -6 2 -6 6v24c0 62.667 -37.333 94 -112 94c-44 0 -73.833 -8.5 -89.5 -25.5s-23.5 -39.833 -23.5 -68.5v-237c12.667 36 51 54 115 54
c51.333 0 86.166 -10 104.499 -30s27.5 -49.333 27.5 -88v-168c0 -38.667 -9.16699 -68 -27.5 -88s-53.166 -30 -104.499 -30c-50.667 0 -85.167 10 -103.5 30s-27.5 49.333 -27.5 88zM313 110v167.999c0 33.333 -8 58.833 -24 76.5s-46.667 26.5 -92 26.5
c-42.667 0 -72.5 -8.16699 -89.5 -24.5s-25.5 -39.166 -25.5 -68.499v-178c0 -33.333 8 -58.833 24 -76.5s46.333 -26.5 91 -26.5c45.333 0 76 8.83301 92 26.5s24 43.167 24 76.5z" />
    <glyph glyph-name="seven" unicode="7" horiz-adv-x="342" 
d="M34 680h279c4 0 6 -1.66699 6 -5v-3c0 -2 -0.666992 -5 -2 -9l-191 -657c-1.33301 -4 -4 -6 -8 -6h-6c-4 0 -5.66699 2 -5 6l193 659h-266c-4 0 -6 2 -6 6v3c0 4 2 6 6 6z" />
    <glyph glyph-name="eight" unicode="8" horiz-adv-x="387" 
d="M67 480v90c0 39.333 8.5 68.833 25.5 88.5s50.5 29.5 100.5 29.5c50.667 0 84.334 -9.83301 101.001 -29.5s25 -49.167 25 -88.5v-90c0 -32 -5.16699 -57.167 -15.5 -75.5s-30.833 -30.166 -61.5 -35.499c31.333 -5.33301 52.833 -17.166 64.5 -35.499
s17.5 -43.166 17.5 -74.499v-149c0 -38.667 -9.16699 -68 -27.5 -88s-52.833 -30 -103.5 -30s-85.167 10 -103.5 30s-27.5 49.333 -27.5 88v149c0 31.333 5.66699 56.166 17 74.499s32.666 30.166 63.999 35.499c-30 5.33301 -50.167 17.166 -60.5 35.499
s-15.5 43.5 -15.5 75.5zM303 480v90c0 34 -7.33301 59.667 -22 77s-44 26 -88 26s-73.333 -8.66699 -88 -26s-22 -43 -22 -77v-90c0 -34 7.33301 -59.667 22 -77s44 -26 88 -26s73.333 8.66699 88 26s22 43 22 77zM308 110v149c0 33.333 -7.83301 58.833 -23.5 76.5
s-46.167 26.5 -91.5 26.5s-75.833 -8.83301 -91.5 -26.5s-23.5 -43.167 -23.5 -76.5v-149c0 -33.333 7.83301 -58.833 23.5 -76.5s46.167 -26.5 91.5 -26.5s75.833 8.83301 91.5 26.5s23.5 43.167 23.5 76.5z" />
    <glyph glyph-name="nine" unicode="9" horiz-adv-x="388" 
d="M306 570c0 33.333 -8 58.834 -24 76.501s-46.333 26.5 -91 26.5c-45.333 0 -76 -8.83301 -92 -26.5s-24 -43.167 -24 -76.5v-168c0 -33.333 8 -58.833 24 -76.5s46.667 -26.5 92 -26.5c42.667 0 72.5 8.16699 89.5 24.5s25.5 39.166 25.5 68.499v178zM322 570.001
l-0.000976562 -469c0 -32.667 -9 -59 -27 -79s-52 -30 -102 -30c-85.333 0 -128 36.333 -128 109v24c0 4 2 6 6 6h4c4 0 6 -2 6 -6v-24c0 -62.667 37.333 -94 112 -94c43.333 0 73 8.66699 89 26s24 40 24 68v236c-13.333 -35.333 -51.666 -53 -114.999 -53
c-51.333 0 -86.166 10 -104.499 30s-27.5 49.333 -27.5 88v168c0 38.667 9.16699 68 27.5 88s53.166 30 104.499 30c50.667 0 85.167 -10 103.5 -30s27.5 -49.333 27.5 -88z" />
    <glyph glyph-name="colon" unicode=":" horiz-adv-x="141" 
d="M79 484v-75c0 -4 -2 -6 -6 -6h-4c-4 0 -6 2 -6 6v75c0 4 2 6 6 6h4c4 0 6 -2 6 -6zM79 81v-75c0 -4 -2 -6 -6 -6h-4c-4 0 -6 2 -6 6v75c0 4 2 6 6 6h4c4 0 6 -2 6 -6z" />
    <glyph glyph-name="semicolon" unicode=";" horiz-adv-x="166" 
d="M95 484v-75c0 -4 -2 -6 -6 -6h-4c-4 0 -6 2 -6 6v75c0 4 2 6 6 6h4c4 0 6 -2 6 -6zM79 26v54.998c0 4 2 6 6 6h4c4 0 6 -2 6 -6v-55c0 -50.667 -16.333 -83 -49 -97c-4 -1.33301 -6.66699 -0.666016 -8 2.00098l-2 4c-1.33301 4 -0.333008 6.66699 3 8
c15.333 8.66699 25.833 19.334 31.5 32.001s8.5 29.667 8.5 51z" />
    <glyph glyph-name="less" unicode="&#x3c;" horiz-adv-x="360" 
d="M293 497l-238.999 -155.997l239 -156c4 -2.66699 6 -5.33398 6 -8.00098v-7c0 -1.33301 -0.833008 -2.33301 -2.5 -3s-2.83398 -0.333984 -3.50098 0.999023l-249 164c-3.33301 2.66699 -5 5 -5 7v3c0 3.33301 1.66699 6 5 8l249 164
c2.66699 1.33301 4.66699 0.666016 6 -2.00098v-6c0 -3.33301 -2 -6.33301 -6 -9z" />
    <glyph glyph-name="equal" unicode="=" horiz-adv-x="419" 
d="M71 425h277c4 0 6 -2 6 -6v-3c0 -4 -2 -6 -6 -6h-277c-4 0 -6 2 -6 6v3c0 4 2 6 6 6zM71 270h277c4 0 6 -2 6 -6v-3c0 -4 -2 -6 -6 -6h-277c-4 0 -6 2 -6 6v3c0 4 2 6 6 6z" />
    <glyph glyph-name="greater" unicode="&#x3e;" horiz-adv-x="360" 
d="M306 341l-239 156c-4 2.66699 -6 5.66699 -6 9v6c0 4 2 4.66699 6 2l249 -164c3.33301 -2.66699 5 -5.33398 5 -8.00098v-3c0 -2 -1.66699 -4.33301 -5 -7l-249 -164c-4 -2.66699 -6 -2 -6 2v7c0 2.66699 2 5.33398 6 8.00098z" />
    <glyph glyph-name="question" unicode="?" horiz-adv-x="356" 
d="M165 151v111.999c0 35.333 15.667 64.333 47 87l42 31c27.333 20 41 45 41 75v114c0 32.667 -8.66699 58 -26 76s-48.666 27 -93.999 27c-46.667 0 -78.334 -8.83301 -95.001 -26.5s-25 -43.167 -25 -76.5v-67c0 -4 -2 -6 -6 -6h-4c-4 0 -6 2 -6 6v67
c0 38.667 9.5 68 28.5 88s54.833 30 107.5 30c51.333 0 86.833 -10.167 106.5 -30.5s29.5 -49.5 29.5 -87.5v-114c0 -34.667 -17.667 -65 -53 -91l-42 -32c-23.333 -17.333 -35 -40.666 -35 -69.999v-112c0 -4 -2 -6 -6 -6h-4c-4 0 -6 2 -6 6zM181 80.999v-75
c0 -4 -2 -6 -6 -6h-4c-4 0 -6 2 -6 6v75c0 4 2 6 6 6h4c4 0 6 -2 6 -6z" />
    <glyph glyph-name="at" unicode="@" horiz-adv-x="526" 
d="M398 -96h-145c-69.333 0 -118 10.333 -146 31s-42 49.667 -42 87v460c0 37.333 14.833 66.333 44.5 87s80.834 31 153.501 31c73.333 0 124.5 -10.333 153.5 -31s43.5 -49.667 43.5 -87v-366c0 -55.333 -20.667 -83 -62 -83c-35.333 0 -57.333 19 -66 57
c-36 -38 -74.333 -57 -115 -57c-52 0 -75 28 -69 84l26 256c6 57.333 34.333 86 85 86c35.333 0 68.333 -16.333 99 -49l6 35c0.666992 4 3 6 7 6h2c3.33301 0 5 -2 5 -6l-31 -306c-3.33301 -28 -0.333008 -50.167 9 -66.5s23.666 -24.5 42.999 -24.5c30 0 45 22.667 45 68
v366c0 68.667 -60.333 103 -181 103c-121.333 0 -182 -34.333 -182 -103v-460c0 -68.667 57.333 -103 172 -103h145c4 0 6 -2 6 -6v-3c0 -4 -2 -6 -6 -6zM190 373l-28 -255.999c-2 -20.667 1.5 -37.334 10.5 -50.001s24.167 -19 45.5 -19c22 0 43.333 6.66699 64 20
s36.667 26.333 48 39c0 15.333 0.333008 26 1 32l25 251c-29.333 36 -62.333 54 -99 54c-40 0 -62.333 -23.667 -67 -71z" />
    <glyph glyph-name="A" unicode="A" horiz-adv-x="379" 
d="M283 247l-79 340c-8 36 -12.667 59.333 -14 70c-4 -20 -9 -43 -15 -69l-79 -341h187zM187 680h4.99805c4 0 6.66699 -2 8 -6l155 -668c0.666992 -4 -1 -6 -5 -6h-4c-4 0 -6.33301 2 -7 6l-52 226h-195l-52 -226c-1.33301 -4 -3.66602 -6 -6.99902 -6h-4
c-4 0 -5.66699 2 -5 6l155 668c0.666992 4 3.33398 6 8.00098 6z" />
    <glyph glyph-name="B" unicode="B" horiz-adv-x="413" 
d="M216 0l-131.999 -0.00195312c-4 0 -6 2 -6 6v668c0 4 2 6 6 6h114c51.333 0 87.666 -10.333 108.999 -31s32 -49.667 32 -87v-98c0 -59.333 -25.667 -95.666 -77 -108.999c62.667 -11.333 94 -48.666 94 -111.999v-125c0 -37.333 -10.5 -66.333 -31.5 -87
s-57.167 -31 -108.5 -31zM198.001 664.998h-104v-304h106c82 0 123 34.333 123 103v98c0 68.667 -41.667 103 -125 103zM202.001 345.998h-107.999v-331h122c46 0 78.167 9.16699 96.5 27.5s27.5 43.5 27.5 75.5v125c0 32.667 -9.83301 58 -29.5 76s-55.834 27 -108.501 27z
" />
    <glyph glyph-name="C" unicode="C" horiz-adv-x="389" 
d="M344 188v-78c0 -37.333 -10.167 -66.333 -30.5 -87s-56.166 -31 -107.499 -31c-50.667 0 -86.167 10.333 -106.5 31s-30.5 49.667 -30.5 87v460c0 37.333 10.167 66.333 30.5 87s55.833 31 106.5 31c51.333 0 87.166 -10.333 107.499 -31s30.5 -49.667 30.5 -87v-67
c0 -4 -2 -6 -6 -6h-4c-4 0 -6 2 -6 6v67c0 32 -9 57.167 -27 75.5s-49.667 27.5 -95 27.5c-44.667 0 -76 -9.16699 -94 -27.5s-27 -43.5 -27 -75.5v-460c0 -32 9 -57.167 27 -75.5s49.333 -27.5 94 -27.5c45.333 0 77 9.16699 95 27.5s27 43.5 27 75.5v78c0 4 2 6 6 6h4
c4 0 6 -2 6 -6z" />
    <glyph glyph-name="D" unicode="D" horiz-adv-x="425" 
d="M216 0h-132c-4 0 -6 2 -6 6v668c0 4 1.66699 6 5 6h133c51.333 0 87.5 -10.333 108.5 -31s31.5 -49.667 31.5 -87v-444c0 -37.333 -10.5 -66.333 -31.5 -87s-57.167 -31 -108.5 -31zM216 665h-122v-650h122c46 0 78.167 9.16699 96.5 27.5s27.5 43.5 27.5 75.5v444
c0 32 -9.16699 57.167 -27.5 75.5s-50.5 27.5 -96.5 27.5z" />
    <glyph glyph-name="E" unicode="E" horiz-adv-x="380" 
d="M335 0h-252c-3.33301 0 -5 2 -5 6v668c0 4 2 6 6 6h242c4 0 6 -2 6 -6v-3c0 -4 -2 -6 -6 -6h-232v-297h218c4 0 6 -2 6 -6v-3c0 -4 -2 -6 -6 -6h-218v-338h241c4 0 6 -2 6 -6v-3c0 -4 -2 -6 -6 -6z" />
    <glyph glyph-name="F" unicode="F" horiz-adv-x="386" 
d="M84 680h261c4 0 6 -2 6 -6v-3c0 -4 -2 -6 -6 -6h-251v-300h238c4 0 6 -2 6 -6v-3c0 -4 -2 -6 -6 -6h-238v-344c0 -4 -2 -6 -6 -6h-4c-4 0 -6 2 -6 6v668c0 4 2 6 6 6z" />
    <glyph glyph-name="G" unicode="G" horiz-adv-x="406" 
d="M216 301h122c4 0 6 -2 6 -6v-185c0 -37.333 -10.167 -66.333 -30.5 -87s-56.166 -31 -107.499 -31c-50.667 0 -86.167 10.333 -106.5 31s-30.5 49.667 -30.5 87v460c0 37.333 10.167 66.333 30.5 87s55.833 31 106.5 31c51.333 0 87.166 -10.333 107.499 -31
s30.5 -49.667 30.5 -87v-67c0 -4 -2 -6 -6 -6h-4c-4 0 -6 2 -6 6v67c0 32.667 -9 58 -27 76s-49.667 27 -95 27c-44.667 0 -76 -9 -94 -27s-27 -43.333 -27 -76v-460c0 -32 9 -57.167 27 -75.5s49.333 -27.5 94 -27.5c81.333 0 122 33.667 122 101v178h-112c-4 0 -6 2 -6 6
v3c0 4 2 6 6 6z" />
    <glyph glyph-name="H" unicode="H" horiz-adv-x="434" 
d="M94 674v-297h246v297c0 4 2 6 6 6h4c4 0 6 -2 6 -6v-668c0 -4 -2 -6 -6 -6h-4c-4 0 -6 2 -6 6v356h-246v-356c0 -4 -2 -6 -6 -6h-4c-4 0 -6 2 -6 6v668c0 4 2 6 6 6h4c4 0 6 -2 6 -6z" />
    <glyph glyph-name="I" unicode="I" horiz-adv-x="172" 
d="M94 674v-668c0 -4 -2 -6 -6 -6h-4c-4 0 -6 2 -6 6v668c0 4 2 6 6 6h4c4 0 6 -2 6 -6z" />
    <glyph glyph-name="J" unicode="J" horiz-adv-x="347" 
d="M44 155v-45c0 -32.667 7.5 -58 22.5 -76s42.833 -27 83.5 -27c40 0 67.5 8.83301 82.5 26.5s22.5 43.167 22.5 76.5v564c0 4 2 6 6 6h4c4 0 6 -2 6 -6v-564c0 -38 -8.83301 -67.167 -26.5 -87.5s-49.167 -30.5 -94.5 -30.5c-46 0 -77.833 10.167 -95.5 30.5
s-26.5 49.5 -26.5 87.5v45c0 4 2 6 6 6h4c4 0 6 -2 6 -6z" />
    <glyph glyph-name="K" unicode="K" horiz-adv-x="380" 
d="M134 344l224.001 -338c2.66699 -4 1.66699 -6 -3 -6h-6c-4.66699 0 -8.33398 2 -11.001 6l-219 329h-25v-329c0 -4 -2 -6 -6 -6h-4c-4 0 -6 2 -6 6v668c0 4 2 6 6 6h4c4 0 6 -2 6 -6v-324h25l203 326c2 2.66699 5 4 9 4h5c4.66699 0 6 -2 4 -6z" />
    <glyph glyph-name="L" unicode="L" horiz-adv-x="348" 
d="M94 674v-659h230c4 0 6 -2 6 -6v-3c0 -4 -2 -6 -6 -6h-241c-3.33301 0 -5 2 -5 6v668c0 4 2 6 6 6h4c4 0 6 -2 6 -6z" />
    <glyph glyph-name="M" unicode="M" horiz-adv-x="528" 
d="M450 674l0.000976562 -667.998c0 -4 -2 -6 -6 -6h-4c-4 0 -6 2 -6 6v626c-4 -19.333 -8 -36 -12 -50l-146 -472c-1.33301 -4 -4 -6 -8 -6h-7c-4.66699 0 -7.33398 2 -8.00098 6l-148 472c-4.66699 17.333 -8.66699 33.666 -12 48.999v-625c0 -4 -2 -6 -6 -6h-3
c-4 0 -6 2 -6 6v668c0 4 2 6 6 6h3c3.33301 0 5.33301 -1.33301 6 -4l159 -508c4.66699 -16 9 -32.333 13 -49c0.666992 5.33301 5 21.666 13 48.999l156 508c0.666992 2.66699 2.66699 4 6 4h4c4 0 6 -2 6 -6z" />
    <glyph glyph-name="N" unicode="N" horiz-adv-x="437" 
d="M359 674v-668.001c0 -4 -2 -6 -6 -6h-3c-2.66699 0 -4.66699 1 -6 3l-228 571c-9.33301 22.667 -17 44 -23 64v-632c0 -4 -2 -6 -6 -6h-3c-4 0 -6 2 -6 6v668c0 4 2 6 6 6h3c2 0 3.66699 -1 5 -3l231 -578c12.667 -31.333 19.667 -50.666 21 -57.999v633c0 4 2 6 6 6h3
c4 0 6 -2 6 -6z" />
    <glyph glyph-name="O" unicode="O" horiz-adv-x="418" 
d="M69 110v460c0 37.333 10.5 66.333 31.5 87s56.833 31 107.5 31c51.333 0 87.5 -10.333 108.5 -31s31.5 -49.667 31.5 -87v-460c0 -37.333 -10.5 -66.333 -31.5 -87s-57.167 -31 -108.5 -31c-50.667 0 -86.5 10.333 -107.5 31s-31.5 49.667 -31.5 87zM332 110v460
c0 32.667 -9.16699 58 -27.5 76s-50.5 27 -96.5 27c-82 0 -123 -34.333 -123 -103v-460c0 -68.667 41 -103 123 -103c46 0 78.167 9.16699 96.5 27.5s27.5 43.5 27.5 75.5z" />
    <glyph glyph-name="P" unicode="P" horiz-adv-x="404" 
d="M216 282h-122v-276c0 -4 -2 -6 -6 -6h-4c-4 0 -6 2 -6 6v668c0 4 1.66699 6 5 6h133c51.333 0 87.5 -10.333 108.5 -31s31.5 -49.667 31.5 -87v-162c0 -37.333 -10.5 -66.333 -31.5 -87s-57.167 -31 -108.5 -31zM216 665h-122v-368h122c46 0 78.167 9.16699 96.5 27.5
s27.5 43.5 27.5 75.5v162c0 32 -9.16699 57.167 -27.5 75.5s-50.5 27.5 -96.5 27.5z" />
    <glyph glyph-name="Q" unicode="Q" horiz-adv-x="418" 
d="M343 -156c-3.33301 -2 -6 -1.66699 -8 1l-116 147h-11c-50.667 0 -86.5 10.333 -107.5 31s-31.5 49.667 -31.5 87v460c0 37.333 10.5 66.333 31.5 87s56.833 31 107.5 31c51.333 0 87.5 -10.333 108.5 -31s31.5 -49.667 31.5 -87v-460
c0 -71.333 -37.333 -110.333 -112 -117l111 -138c3.33301 -3.33301 3.33301 -6 0 -8zM332 110v460c0 32.667 -9.16699 58 -27.5 76s-50.5 27 -96.5 27c-82 0 -123 -34.333 -123 -103v-460c0 -68.667 41 -103 123 -103c46 0 78.167 9.16699 96.5 27.5s27.5 43.5 27.5 75.5z
" />
    <glyph glyph-name="R" unicode="R" horiz-adv-x="417" 
d="M216 665h-122v-358h122c46 0 78.167 9.16699 96.5 27.5s27.5 43.5 27.5 75.5v152c0 32 -9.16699 57.167 -27.5 75.5s-50.5 27.5 -96.5 27.5zM94 6c0 -4 -2 -6 -6 -6h-4c-4 0 -6 2 -6 6v668c0 4 1.66699 6 5 6h133c51.333 0 87.5 -10.333 108.5 -31s31.5 -49.667 31.5 -87
v-152c0 -66 -32.667 -104.333 -98 -115l108 -289c2 -4 0.333008 -6 -5 -6h-5c-5.33301 0 -8.33301 2 -9 6l-105 287c-5.33301 -0.666992 -14 -1 -26 -1h-122v-286z" />
    <glyph glyph-name="S" unicode="S" horiz-adv-x="391" 
d="M314 504l-0.00195312 65.999c0 32.667 -8.66699 58 -26 76s-48.333 27 -93 27c-45.333 0 -76.666 -9 -93.999 -27s-26 -43.333 -26 -76v-67c0 -50.667 20.667 -86.334 62 -107.001l118 -61c52 -27.333 78 -66.666 78 -117.999v-107c0 -37.333 -10.5 -66.333 -31.5 -87
s-57.167 -31 -108.5 -31s-87.333 10.333 -108 31s-31 49.667 -31 87v60c0 4 2 6 6 6h4c4 0 6 -2 6 -6v-60c0 -32 9 -57.167 27 -75.5s50 -27.5 96 -27.5s78.167 9.16699 96.5 27.5s27.5 43.5 27.5 75.5v107c0 44.667 -23.333 79.334 -70 104.001l-119 61
c-46 24 -69 64.333 -69 121v67c0 38 9.83301 67.167 29.5 87.5s55.167 30.5 106.5 30.5c50.667 0 85.834 -10.167 105.501 -30.5s29.5 -49.5 29.5 -87.5v-66c0 -4 -2 -6 -6 -6h-4c-4 0 -6 2 -6 6z" />
    <glyph glyph-name="T" unicode="T" horiz-adv-x="347" 
d="M26 680h295c4 0 6 -2 6 -6v-3c0 -4 -2 -6 -6 -6h-139v-659c0 -4 -2 -6 -6 -6h-4c-4 0 -6 2 -6 6v659h-140c-4 0 -6 2 -6 6v3c0 4 2 6 6 6z" />
    <glyph glyph-name="U" unicode="U" horiz-adv-x="430" 
d="M91 674v-564c0 -68.667 41 -103 123 -103c46 0 78.167 9 96.5 27s27.5 43.333 27.5 76v564c0 4 2 6 6 6h4c4 0 6 -2 6 -6v-564c0 -37.333 -10.5 -66.333 -31.5 -87s-57.167 -31 -108.5 -31c-50.667 0 -86.5 10.333 -107.5 31s-31.5 49.667 -31.5 87v564c0 4 2 6 6 6h4
c4 0 6 -2 6 -6z" />
    <glyph glyph-name="V" unicode="V" horiz-adv-x="368" 
d="M187 0l-4.99902 0.000976562c-4 0 -6.66699 2 -8 6l-149 668c-0.666992 4 1 6 5 6h4c4 0 6.33301 -2 7 -6l128 -581c4.66699 -20.667 9.66699 -44.334 15 -71.001c2 12.667 7 36 15 70l128 582c0.666992 4 3 6 7 6h4c4 0 5.66699 -2 5 -6l-148 -668
c-0.666992 -4 -3.33398 -6 -8.00098 -6z" />
    <glyph glyph-name="W" unicode="W" horiz-adv-x="573" 
d="M296 674l103.999 -579c6.66699 -33.333 10.334 -56.333 11.001 -69c0.666992 12 4.33398 35 11.001 69l105 579c0.666992 4 3 6 7 6h4c4 0 5.66699 -2 5 -6l-121 -668c-1.33301 -4 -4 -6 -8 -6h-5c-4.66699 0 -7.33398 2 -8.00098 6l-108 597
c-3.33301 22 -5.66602 37 -6.99902 45c-1.33301 -14.667 -3.33301 -30 -6 -46l-108 -596c-1.33301 -4 -4 -6 -8 -6h-5c-4.66699 0 -7.33398 2 -8.00098 6l-122 668c-0.666992 4 1.33301 6 6 6h4c3.33301 0 5.33301 -2 6 -6l105 -579c6 -34 9.66699 -57.333 11 -70
c0.666992 8.66699 4.66699 32 12 70l104 579c0.666992 4 3 6 7 6h5c4 0 6.33301 -2 7 -6z" />
    <glyph glyph-name="X" unicode="X" horiz-adv-x="373" 
d="M196 345l149 -339c1.33301 -4 0 -6 -4 -6h-6c-4 0 -6.66699 2 -8 6l-140 318l-138 -318c-1.33301 -4 -4 -6 -8 -6h-6c-4.66699 0 -6 2 -4 6l147 338l-145 330c-1.33301 4 -0.333008 6 3 6h7c4 0 6.66699 -2 8 -6l137 -310l128 310c1.33301 4 4 6 8 6h6
c4.66699 0 6 -2 4 -6z" />
    <glyph glyph-name="Y" unicode="Y" horiz-adv-x="363" 
d="M37 674l135.999 -343.001c3.33301 -8 6.33301 -16.333 9 -25c2.66699 10.667 5.33398 19.334 8.00098 26.001l136 342c1.33301 4 3.66602 6 6.99902 6h4c4.66699 0 6.33398 -2 5.00098 -6l-152 -382v-286c0 -4 -2 -6 -6 -6h-4c-4 0 -6 2 -6 6v285l-153 383
c-1.33301 4 0 6 4 6h4c3.33301 0 6 -2 8 -6z" />
    <glyph glyph-name="Z" unicode="Z" horiz-adv-x="331" 
d="M45 680h244c4 0 6 -2 6 -6v-1c0 -1.33301 -0.666992 -4 -2 -8l-249 -650h255c4 0 6 -2 6 -6v-3c0 -4 -2 -6 -6 -6h-268c-4 0 -6 2 -6 6v1c0 1.33301 0.666992 4 2 8l248 650h-230c-4 0 -6 2 -6 6v3c0 4 2 6 6 6z" />
    <glyph glyph-name="bracketleft" unicode="[" horiz-adv-x="201" 
d="M66 -205v898c0 4 2 6 6 6h105c4 0 6 -2 6 -6v-3c0 -4 -2 -6 -6 -6h-95v-880h95c4 0 6 -2 6 -6v-3c0 -4 -2 -6 -6 -6h-105c-4 0 -6 2 -6 6z" />
    <glyph glyph-name="backslash" unicode="\" horiz-adv-x="246" 
d="M199 -142l-166.999 835c-1.33301 4 0 6 4 6h5c3.33301 0 5.66602 -2 6.99902 -6l167 -835c1.33301 -4 0 -6 -4 -6h-5c-4 0 -6.33301 2 -7 6z" />
    <glyph glyph-name="bracketright" unicode="]" horiz-adv-x="201" 
d="M135 693v-898c0 -4 -2 -6 -6 -6h-104c-4 0 -6 2 -6 6v3c0 4 2 6 6 6h94v880h-94c-4 0 -6 2 -6 6v3c0 4 2 6 6 6h104c4 0 6 -2 6 -6z" />
    <glyph glyph-name="asciicircum" unicode="^" horiz-adv-x="339" 
d="M278 325l-108.999 337l-109 -337c-1.33301 -4 -3.33301 -6 -6 -6h-6c-4 0 -5.33301 2 -4 6l116 349c1.33301 4 3.66602 6 6.99902 6h4c3.33301 0 5.66602 -2 6.99902 -6l116 -349c1.33301 -4 0.333008 -6 -3 -6h-6c-3.33301 0 -5.66602 2 -6.99902 6z" />
    <glyph glyph-name="underscore" unicode="_" horiz-adv-x="262" 
d="M6 -94h250c4 0 6 -2 6 -6v-3c0 -4 -2 -6 -6 -6h-250c-4 0 -6 2 -6 6v3c0 4 2 6 6 6z" />
    <glyph glyph-name="grave" unicode="`" horiz-adv-x="254" 
d="M150 577l-61.999 125c-1.33301 4 -0.333008 6 3 6h7c4 0 6.33301 -1.33301 7 -4l60 -125c1.33301 -3.33301 0.666016 -5 -2.00098 -5h-7c-2.66699 0 -4.66699 1 -6 3z" />
    <glyph glyph-name="a" unicode="a" horiz-adv-x="354" 
d="M152 7c44.667 0 84.667 17.666 120 52.999v194h-124c-26 0 -45.833 -7.66699 -59.5 -23s-20.5 -35.333 -20.5 -60v-80c0 -25.333 7 -45.666 21 -60.999s35 -23 63 -23zM56 364.999l0.000976562 34c0 31.333 8.5 55.666 25.5 72.999s47.167 26 90.5 26
s73.5 -8.66699 90.5 -26s25.5 -41.666 25.5 -72.999v-393c0 -4 -2 -6 -6 -6h-2c-4 0 -6 2 -6 6l-2 36c-35.333 -33.333 -75.333 -50 -120 -50c-34 0 -59.167 9 -75.5 27s-24.5 42 -24.5 72v80c0 29.333 8.16699 53 24.5 71s40.166 27 71.499 27h124v130
c0 26.667 -7.33301 47.334 -22 62.001s-40.667 22 -78 22s-63.333 -7.33301 -78 -22s-22 -35.334 -22 -62.001v-34c0 -4 -2 -6 -6 -6h-4c-4 0 -6 2 -6 6z" />
    <glyph glyph-name="b" unicode="b" horiz-adv-x="366" 
d="M76 0h-1.99902c-4 0 -6 2 -6 6v682c0 4 2 6 6 6h4c4 0 6 -2 6 -6v-240c36.667 33.333 79 50 127 50c30.667 0 54 -8.33301 70 -25s24 -39 24 -67v-322c0 -28 -8 -50.333 -24 -67s-39.333 -25 -70 -25c-44.667 0 -87.334 16.667 -128.001 50l-1 -36c0 -4 -2 -6 -6 -6z
M289.001 84v322c0 22.667 -6.5 41.167 -19.5 55.5s-32.5 21.5 -58.5 21.5c-46.667 0 -89 -18 -127 -54v-369c40 -35.333 82.333 -53 127 -53c26 0 45.5 7.16699 58.5 21.5s19.5 32.833 19.5 55.5z" />
    <glyph glyph-name="c" unicode="c" horiz-adv-x="339" 
d="M177 498c44 0 74.499 -8.83301 91.499 -26.5s25.5 -42.834 25.5 -75.501v-31c0 -4 -2 -6 -6 -6h-4c-4 0 -6 2 -6 6v31c0 28 -7.16699 49.5 -21.5 64.5s-40.833 22.5 -79.5 22.5s-65 -7.5 -79 -22.5s-21 -36.5 -21 -64.5v-302c0 -28 7 -49.5 21 -64.5
s40.333 -22.5 79 -22.5c39.333 0 66 7.5 80 22.5s21 36.5 21 64.5v39c0 4 2 6 6 6h4c4 0 6 -2 6 -6v-39c0 -32.667 -8.66699 -57.834 -26 -75.501s-47.666 -26.5 -90.999 -26.5c-44 0 -74.333 8.83301 -91 26.5s-25 42.834 -25 75.501v302
c0 32.667 8.33301 57.834 25 75.501s47 26.5 91 26.5z" />
    <glyph glyph-name="d" unicode="d" horiz-adv-x="366" 
d="M77 406v-322c0 -22.667 6.66699 -41.167 20 -55.5s32.666 -21.5 57.999 -21.5c46.667 0 89 17.667 127 53v369c-36 36 -78.333 54 -127 54c-25.333 0 -44.666 -7.16699 -57.999 -21.5s-20 -32.833 -20 -55.5zM284 6l-0.999023 36
c-38.667 -33.333 -81.334 -50 -128.001 -50c-30.667 0 -54 8.33301 -70 25s-24 39 -24 67v322c0 28 8 50.333 24 67s39.333 25 70 25c48 0 90.333 -16.667 127 -50v240c0 4 2 6 6 6h4c4 0 6 -2 6 -6v-682c0 -4 -2 -6 -6 -6h-2c-4 0 -6 2 -6 6z" />
    <glyph glyph-name="e" unicode="e" horiz-adv-x="354" 
d="M298 399v-138.998c0 -4 -2 -6 -6 -6h-215v-163c0 -56 34.333 -84 103 -84c68 0 102 28 102 84v42c0 4 2 6 6 6h4c4 0 6 -2 6 -6v-42c0 -66 -39.333 -99 -118 -99c-43.333 0 -74 8.66699 -92 26s-27 41.666 -27 72.999v308c0 31.333 9 55.666 27 72.999s48.667 26 92 26
c78.667 0 118 -33 118 -99zM77 399.002v-130h205v130c0 56 -34 84 -102 84c-68.667 0 -103 -28 -103 -84z" />
    <glyph glyph-name="f" unicode="f" horiz-adv-x="206" 
d="M68 489h11.001v111c0 65.333 38.333 98 115 98h3c4 0 6 -2 6 -6v-3c0 -4 -2 -6 -6 -6h-3c-36.667 0 -62.334 -7.33301 -77.001 -22s-22 -35 -22 -61v-111h89c4 0 6 -2 6 -6v-3c0 -4 -2 -6 -6 -6h-89v-468c0 -4 -2 -6 -6 -6h-4c-4 0 -6 2 -6 6v468h-48c-4 0 -6 2 -6 6v1
c0 4 2 6 6 6z" />
    <glyph glyph-name="g" unicode="g" horiz-adv-x="366" 
d="M155 -8c-30.667 0 -54 8.33105 -70 24.998s-24 39 -24 67v322c0 28 7.83301 50.333 23.5 67s39.167 25 70.5 25c47.333 0 90 -17 128 -51l1 37c0 4 2 6 6 6h2c4 0 6 -2 6 -6v-583c0 -31.333 -8.66699 -55.666 -26 -72.999s-47.333 -26 -90 -26h-94c-4 0 -6 2 -6 6v3
c0 4 2 6 6 6h94c38.667 0 65 7.33301 79 22s21 35.334 21 62.001v141c-36.667 -33.333 -79 -50 -127 -50zM77 405.998l-0.000976562 -322c0 -22 6.5 -40.333 19.5 -55s32.5 -22 58.5 -22c46.667 0 89 17.667 127 53v369c-36 36 -78.333 54 -127 54
c-25.333 0 -44.666 -7.16699 -57.999 -21.5s-20 -32.833 -20 -55.5z" />
    <glyph glyph-name="h" unicode="h" horiz-adv-x="372" 
d="M84 688v-240c36.667 33.333 79 50 127 50c31.333 0 54.833 -8.33301 70.5 -25s23.5 -39 23.5 -67v-400c0 -4 -2 -6 -6 -6h-4c-4 0 -6 2 -6 6v400c0 22.667 -6.5 41.167 -19.5 55.5s-32.5 21.5 -58.5 21.5c-46.667 0 -89 -18 -127 -54v-423c0 -4 -2 -6 -6 -6h-4
c-4 0 -6 2 -6 6v682c0 4 2 6 6 6h4c4 0 6 -2 6 -6z" />
    <glyph glyph-name="i" unicode="i" horiz-adv-x="153" 
d="M84 688v-99c0 -4 -2 -6 -6 -6h-4c-4 0 -6 2 -6 6v99c0 4 2 6 6 6h4c4 0 6 -2 6 -6zM84 484v-478c0 -4 -2 -6 -6 -6h-4c-4 0 -6 2 -6 6v478c0 4 2 6 6 6h4c4 0 6 -2 6 -6z" />
    <glyph glyph-name="j" unicode="j" horiz-adv-x="153" 
d="M84 688v-99c0 -4 -2 -6 -6 -6h-4c-4 0 -6 2 -6 6v99c0 4 2 6 6 6h4c4 0 6 -2 6 -6zM84 484l-0.000976562 -583c0 -31.333 -8.5 -55.666 -25.5 -72.999s-46.833 -26 -89.5 -26h-3c-4 0 -6 2 -6 6v3c0 4 2 6 6 6h3c36.667 0 62.334 7.16699 77.001 21.5
s22 35.166 22 62.499v583c0 4 2 6 6 6h4c4 0 6 -2 6 -6z" />
    <glyph glyph-name="k" unicode="k" horiz-adv-x="317" 
d="M127 278l175 -272c2.66699 -4 2 -6 -2 -6h-6c-4 0 -7.66699 2 -11 6l-170 263h-29v-263c0 -4 -2 -6 -6 -6h-4c-4 0 -6 2 -6 6v682c0 4 2 6 6 6h4c4 0 6 -2 6 -6v-404h29l155 201c2.66699 3.33301 6 5 10 5h5c6 0 7.33301 -2 4 -6z" />
    <glyph glyph-name="l" unicode="l" horiz-adv-x="153" 
d="M84 688v-682c0 -4 -2 -6 -6 -6h-4c-4 0 -6 2 -6 6v682c0 4 2 6 6 6h4c4 0 6 -2 6 -6z" />
    <glyph glyph-name="m" unicode="m" horiz-adv-x="590" 
d="M74 490l2 -0.000976562c4 0 6 -2 6 -6l1 -36c40.667 33.333 83 50 127 50c45.333 0 74.666 -18.333 87.999 -55c38.667 36.667 82.334 55 131.001 55c31.333 0 54.833 -8.33301 70.5 -25s23.5 -39 23.5 -67v-400c0 -4 -2 -6 -6 -6h-4c-4 0 -6 2 -6 6v400
c0 22.667 -6.5 41.167 -19.5 55.5s-32.5 21.5 -58.5 21.5c-46 0 -88.333 -18.333 -127 -55c1.33301 -9.33301 2 -16.666 2 -21.999v-400c0 -4 -2 -6 -6 -6h-4c-4 0 -6 2 -6 6v400c0 22.667 -6.5 41.167 -19.5 55.5s-32.5 21.5 -58.5 21.5c-48 0 -90 -18 -126 -54v-423
c0 -4 -2 -6 -6 -6h-4c-4 0 -6 2 -6 6v478c0 4 2 6 6 6z" />
    <glyph glyph-name="n" unicode="n" horiz-adv-x="372" 
d="M74 490h2c4 0 6 -2 6 -6l1 -37c39.333 34 82 51 128 51c31.333 0 54.833 -8.33301 70.5 -25s23.5 -39 23.5 -67v-400c0 -4 -2 -6 -6 -6h-4c-4 0 -6 2 -6 6v400c0 22.667 -6.5 41.167 -19.5 55.5s-32.5 21.5 -58.5 21.5c-46.667 0 -89 -18 -127 -54v-423c0 -4 -2 -6 -6 -6
h-4c-4 0 -6 2 -6 6v478c0 4 2 6 6 6z" />
    <glyph glyph-name="o" unicode="o" horiz-adv-x="358" 
d="M61 94v302c0 32 8.83301 57 26.5 75s48.167 27 91.5 27s73.833 -9 91.5 -27s26.5 -43 26.5 -75v-302c0 -32 -8.83301 -57 -26.5 -75s-48.167 -27 -91.5 -27s-73.833 9 -91.5 27s-26.5 43 -26.5 75zM281 94v302c0 58 -34 87 -102 87s-102 -29 -102 -87v-302
c0 -58 34 -87 102 -87s102 29 102 87z" />
    <glyph glyph-name="p" unicode="p" horiz-adv-x="366" 
d="M289 84v322c0 22.667 -6.5 41.167 -19.5 55.5s-32.5 21.5 -58.5 21.5c-46.667 0 -89 -18 -127 -54v-369c40 -35.333 82.333 -53 127 -53c26 0 45.5 7.16699 58.5 21.5s19.5 32.833 19.5 55.5zM74 490h2c4 0 6 -2 6 -6l1 -37c39.333 34 82 51 128 51
c30.667 0 54 -8.33301 70 -25s24 -39 24 -67v-322c0 -28 -8 -50.333 -24 -67s-39.333 -25 -70 -25c-48 0 -90.333 16.667 -127 50v-234c0 -4 -2 -6 -6 -6h-4c-4 0 -6 2 -6 6v676c0 4 2 6 6 6z" />
    <glyph glyph-name="q" unicode="q" horiz-adv-x="366" 
d="M283 447l0.999023 37c0 4 2 6 6 6h2c4 0 6 -2 6 -6v-676c0 -4 -2 -6 -6 -6h-4c-4 0 -6 2 -6 6v234c-36.667 -33.333 -79 -50 -127 -50c-30.667 0 -54 8.33301 -70 25s-24 39 -24 67v322c0 28 8 50.333 24 67s39.333 25 70 25c44.667 0 87.334 -17 128.001 -51z
M76.999 406v-322c0 -22.667 6.66699 -41.167 20 -55.5s32.666 -21.5 57.999 -21.5c46.667 0 89 17.667 127 53v369c-36 36 -78.333 54 -127 54c-25.333 0 -44.666 -7.16699 -57.999 -21.5s-20 -32.833 -20 -55.5z" />
    <glyph glyph-name="r" unicode="r" horiz-adv-x="232" 
d="M209 497c4.66699 0 7 -1.66797 7 -5.00098v-6c0 -3.33301 -2.33301 -5 -7 -5c-23.333 0 -46.5 -7 -69.5 -21s-41.5 -28.333 -55.5 -43v-411c0 -4 -2 -6 -6 -6h-4c-4 0 -6 2 -6 6v478c0 4 2 6 6 6h3c3.33301 0 5 -2 5 -6l2 -50c14 14.667 32.333 28.834 55 42.501
s46 20.5 70 20.5z" />
    <glyph glyph-name="s" unicode="s" horiz-adv-x="337" 
d="M265 364l0.00195312 47.001c0 48.667 -33 73 -99 73c-64.667 0 -97 -24.333 -97 -73v-50c0 -34 18.667 -59 56 -75l97 -41c43.333 -18.667 65 -46.334 65 -83.001v-82c0 -26.667 -9.83301 -48 -29.5 -64s-49.5 -24 -89.5 -24c-38.667 0 -68 8.16699 -88 24.5
s-30 37.5 -30 63.5v41c0 3.33301 2 5 6 5h5c3.33301 0 5 -1.66699 5 -5v-40c0 -22 8.66699 -39.833 26 -53.5s42.666 -20.5 75.999 -20.5c34.667 0 60.5 6.83301 77.5 20.5s25.5 31.5 25.5 53.5v78c0 32 -17.667 55.333 -53 70l-99 42
c-16.667 7.33301 -31.834 18.5 -45.501 33.5s-20.5 33.5 -20.5 55.5v51c0 26.667 9.16699 47.834 27.5 63.501s46.833 23.5 85.5 23.5s67.5 -7.83301 86.5 -23.5s28.5 -36.834 28.5 -63.501v-47c0 -3.33301 -1.66699 -5 -5 -5h-5c-4 0 -6 1.66699 -6 5z" />
    <glyph glyph-name="t" unicode="t" horiz-adv-x="218" 
d="M93 489l89 0.000976562c4 0 6 -2 6 -6v-3c0 -4 -2 -6 -6 -6h-89v-375c0 -56 32.333 -84 97 -84h13c4 0 6 -2 6 -6v-3c0 -4 -2 -6 -6 -6h-13c-42 0 -71.333 8.66699 -88 26s-25 41.666 -25 72.999v375h-48c-4 0 -6 2 -6 6v1c0 4 2 6 6 6l38 2h10v114c0 4 2 6 6 6h4
c4 0 6 -2 6 -6v-114z" />
    <glyph glyph-name="u" unicode="u" horiz-adv-x="368" 
d="M285 6l-1 36c-38.667 -33.333 -80 -50 -124 -50c-31.333 0 -54.833 8.33301 -70.5 25s-23.5 39 -23.5 67v400c0 4 2 6 6 6h4c4 0 6 -2 6 -6v-400c0 -22.667 6.5 -41.167 19.5 -55.5s32.5 -21.5 58.5 -21.5c46.667 0 87.667 17.667 123 53v424c0 4 2 6 6 6h4
c4 0 6 -2 6 -6v-478c0 -4 -2 -6 -6 -6h-2c-4 0 -6 2 -6 6z" />
    <glyph glyph-name="v" unicode="v" horiz-adv-x="303" 
d="M154 0h-5c-3.33301 0 -5.33301 2 -6 6l-117 478c-1.33301 4 0.333984 6 5.00098 6h6c2 0 3.66699 -2 5 -6l103 -421c3.33301 -13.333 5.66602 -25.333 6.99902 -36c0.666992 4.66699 3.33398 16.667 8.00098 36l100 421c1.33301 4 3.66602 6 6.99902 6h6
c3.33301 0 4.33301 -2 3 -6l-115 -478c-0.666992 -4 -3 -6 -7 -6z" />
    <glyph glyph-name="w" unicode="w" horiz-adv-x="459" 
d="M431 484l-94.999 -478.001c-1.33301 -4 -3.66602 -6 -6.99902 -6h-4c-3.33301 0 -5.66602 2 -6.99902 6l-82 420c-2 10 -4 22.333 -6 37c-2.66699 -16 -5 -28.333 -7 -37l-82 -420c-0.666992 -4 -3 -6 -7 -6h-4c-4 0 -6.33301 2 -7 6l-94 478
c-0.666992 4 0.666016 6 3.99902 6h6c3.33301 0 5.33301 -2 6 -6l81 -421c3.33301 -15.333 5.66602 -27.333 6.99902 -36c0.666992 8 2.66699 20 6 36l81 421c0.666992 4 2.66699 6 6 6h8c3.33301 0 5.33301 -2 6 -6l81 -421l7 -35
c0.666992 8.66699 2.66699 20.334 6 35.001l81 421c0.666992 4 2.66699 6 6 6h6c3.33301 0 4.66602 -2 3.99902 -6z" />
    <glyph glyph-name="x" unicode="x" horiz-adv-x="320" 
d="M170 250l122 -243c2.66699 -4.66699 1.66699 -7 -3 -7h-5c-4 0 -7 2 -9 6l-115 228l-114 -228c-2 -4 -4.66699 -6 -8 -6h-5c-4.66699 0 -6 2 -4 6l122 245l-117 233c-2 4 -0.666992 6 4 6h6c3.33301 0 6 -2 8 -6l109 -216l106 216c2 4 4.66699 6 8 6h6c4 0 5 -2 3 -6z
" />
    <glyph glyph-name="y" unicode="y" horiz-adv-x="304" 
d="M43 484l103.001 -421c4.66699 -19.333 7.33398 -31.333 8.00098 -36c0 4 2.33301 16 7 36l100 421c0.666992 4 2.66699 6 6 6h6c3.33301 0 4.66602 -2 3.99902 -6l-163 -676c-1.33301 -4 -3.33301 -6 -6 -6h-6c-4 0 -5.33301 2 -4 6l47 193l-118 483
c-0.666992 4 0.666016 6 3.99902 6h6c3.33301 0 5.33301 -2 6 -6z" />
    <glyph glyph-name="z" unicode="z" horiz-adv-x="298" 
d="M44 490h210c4 0 6 -1.66699 6 -5v-2c0 -2.66699 -0.666992 -5.33398 -2 -8.00098l-209 -460h213c4 0 6 -2 6 -6v-3c0 -4 -2 -6 -6 -6h-226c-4 0 -6 1.66699 -6 5v2c0 2.66699 0.666992 5.33398 2 8.00098l209 460h-197c-4 0 -6 2 -6 6v3c0 4 2 6 6 6z" />
    <glyph glyph-name="braceleft" unicode="{" horiz-adv-x="255" 
d="M111 340v269.004c0 31.333 8.5 55.666 25.5 72.999s46.5 26 88.5 26h4c4 0 6 -2 6 -6v-3c0 -4 -2 -6 -6 -6h-4c-36.667 0 -62.167 -7.33301 -76.5 -22s-21.5 -35.334 -21.5 -62.001v-269c0 -51.333 -22.333 -82 -67 -92c44.667 -8 67 -38.333 67 -91v-276
c0 -26.667 7.16699 -47.334 21.5 -62.001s39.833 -22 76.5 -22h4c4 0 6 -2 6 -6v-3c0 -4 -2 -6 -6 -6h-4c-42 0 -71.5 8.66699 -88.5 26s-25.5 41.666 -25.5 72.999v276c0 56 -30.667 84 -92 84h-1c-4 0 -6 1.66699 -6 5v4c0 4 2 6 6 6h1c61.333 0 92 28 92 84z" />
    <glyph glyph-name="bar" unicode="|" horiz-adv-x="148" 
d="M82 693v-898c0 -4 -2 -6 -6 -6h-4c-4 0 -6 2 -6 6v898c0 4 2 6 6 6h4c4 0 6 -2 6 -6z" />
    <glyph glyph-name="braceright" unicode="}" horiz-adv-x="255" 
d="M144 609v-269.004c0 -56 30.667 -84 92 -84h1c4 0 6 -2 6 -6v-4c0 -3.33301 -2 -5 -6 -5h-1c-61.333 0 -92 -28 -92 -84v-276c0 -31.333 -8.5 -55.666 -25.5 -72.999s-46.5 -26 -88.5 -26h-4c-4 0 -6 2 -6 6v3c0 4 2 6 6 6h4c36.667 0 62.167 7.33301 76.5 22
s21.5 35.334 21.5 62.001v276c0 52.667 22.333 83 67 91c-44.667 10 -67 40.667 -67 92v269c0 26.667 -7.16699 47.334 -21.5 62.001s-39.833 22 -76.5 22h-4c-4 0 -6 2 -6 6v3c0 4 2 6 6 6h4c42 0 71.5 -8.66699 88.5 -26s25.5 -41.666 25.5 -72.999z" />
    <glyph glyph-name="asciitilde" unicode="~" horiz-adv-x="332" 
d="M267 306l-0.000976562 -4c0 -23.333 -3.66699 -39.833 -11 -49.5s-18.333 -14.5 -33 -14.5c-12 0 -28 7.33301 -48 22l-33 23c-15.333 10 -26 15 -32 15c-10.667 0 -18 -3.33301 -22 -10s-6 -19.667 -6 -39v-4c0 -4 -2 -6 -6 -6h-4c-4 0 -6 2 -6 6v4
c0 42.667 14.667 64 44 64c10 0 25.333 -7.33301 46 -22l33 -23c14.667 -10 26.334 -15 35.001 -15c10 0 17 3.33301 21 10s6 19.667 6 39v4c0 4 2 6 6 6h4c4 0 6 -2 6 -6z" />
    <glyph glyph-name="uni00A0" unicode="&#xa0;" horiz-adv-x="180" 
 />
    <glyph glyph-name="exclamdown" unicode="&#xa1;" horiz-adv-x="145" 
d="M65 409v75c0 4 2 6 6 6h4c4 0 6 -2 6 -6v-75c0 -4 -2 -6 -6 -6h-4c-4 0 -6 2 -6 6zM64 100l2 239c0 4 2 6 6 6h2c4 0 6 -2 6 -6l2 -239v-284c0 -4 -2 -6 -6 -6h-6c-4 0 -6 2 -6 6v284z" />
    <glyph glyph-name="cent" unicode="&#xa2;" horiz-adv-x="348" 
d="M185 6c0 -4 -1.99902 -6 -5.99902 -6h-4c-4 0 -6 2 -6 6v80c-40.667 1.33301 -68.834 10.833 -84.501 28.5s-23.5 42.167 -23.5 73.5v302c0 32.667 8 57.834 24 75.501s44 26.5 84 26.5v82c0 4 2 6 6 6h4c4 0 6 -2 6 -6v-82
c41.333 -0.666992 69.833 -9.83398 85.5 -27.501s23.5 -42.5 23.5 -74.5v-31c0 -4 -2 -6 -6 -6h-4c-4 0 -6 2 -6 6v31c0 28 -7.16699 49.5 -21.5 64.5s-40.833 22.5 -79.5 22.5s-65 -7.5 -79 -22.5s-21 -36.5 -21 -64.5v-302c0 -28 7 -49.5 21 -64.5s40.333 -22.5 79 -22.5
c39.333 0 66 7.5 80 22.5s21 36.5 21 64.5v39c0 4 2 6 6 6h4c4 0 6 -2 6 -6v-39c0 -32 -8.16699 -57 -24.5 -75s-44.5 -27 -84.5 -27v-80z" />
    <glyph glyph-name="sterling" unicode="&#xa3;" horiz-adv-x="419" 
d="M110 353l134 0.000976562c4 0 6 -2 6 -6v-3c0 -4 -2 -6 -6 -6h-134v-323h167c24.667 0 44 8.66699 58 26s21 50 21 98v16c0 4 2 6 6 6h3c4 0 6 -2 6 -6v-16c0 -54 -8.16699 -90.667 -24.5 -110s-39.5 -29 -69.5 -29h-225c-4 0 -6 2 -6 6v3c0 4 2 6 6 6h42v323h-42
c-4 0 -6 2 -6 6v3c0 4 2 6 6 6h42v227c0 37.333 8.5 64.666 25.5 81.999s51.5 26 103.5 26s86.5 -8.5 103.5 -25.5s25.5 -44.5 25.5 -82.5v-37c0 -4 -2 -6 -6 -6h-4c-4 0 -6 2 -6 6v37c0 32.667 -7.33301 56.334 -22 71.001s-45 22 -91 22s-76.333 -7.33301 -91 -22
s-22 -38.334 -22 -71.001v-227z" />
    <glyph glyph-name="currency" unicode="&#xa4;" horiz-adv-x="466" 
d="M334 276v127c0 58 -33.667 87 -101 87c-66.667 0 -100 -29 -100 -87v-127c0 -58 33.333 -87 100 -87c67.333 0 101 29 101 87zM71 121c-3.33301 -3.33301 -6.33496 -3.33301 -9.00195 0l-2 2c-2.66699 3.33301 -2.66699 6.33301 0 9l77 76c-13.333 15.333 -20 38 -20 68
v127c0 30 6.66699 52.667 20 68l-76 76c-3.33301 3.33301 -3.33301 6.33301 0 9l2 2c2.66699 2.66699 5.33398 2.66699 8.00098 0l77 -76c18.667 15.333 47 23 85 23c38.667 0 67.334 -7.66699 86.001 -23l77 76c2.66699 2.66699 5.33398 2.66699 8.00098 0l2 -2
c2.66699 -2.66699 2.66699 -5.66699 0 -9l-76 -76c13.333 -16 20 -38.667 20 -68v-127c0 -28.667 -6.66699 -51.667 -20 -69l76 -75c2.66699 -2.66699 2.66699 -5.66699 0 -9l-2 -2c-2.66699 -2.66699 -5.33398 -2.66699 -8.00098 0l-76 76
c-20.667 -15.333 -49.667 -23 -87 -23c-38 0 -66.667 8 -86 24z" />
    <glyph glyph-name="yen" unicode="&#xa5;" horiz-adv-x="384" 
d="M201 6c0 -4 -2.00098 -6.00098 -6.00098 -6.00098h-4c-4 0 -6 2 -6 6v285h-117c-4 0 -6 2 -6 6v3c0 4 2 6 6 6h111l-38 96h-73c-4 0 -6 2 -6 6v3c0 4 2 6 6 6h67l-103 257c-1.33301 4 0 6 4 6h4c3.33301 0 6 -2 8 -6l136 -343c3.33301 -8 6.33301 -16.333 9 -25
c2.66699 10.667 5.33398 19.334 8.00098 26.001l136 342c1.33301 4 3.66602 6 6.99902 6h4c4.66699 0 6.33398 -2 5.00098 -6l-102 -257h67c4 0 6 -2 6 -6v-3c0 -4 -2 -6 -6 -6h-73l-38 -96h111c4 0 6 -2 6 -6v-3c0 -4 -2 -6 -6 -6h-117v-285z" />
    <glyph glyph-name="brokenbar" unicode="&#xa6;" horiz-adv-x="156" 
d="M86 674v-354c0 -4 -2 -6 -6 -6h-4c-4 0 -6 2 -6 6v354c0 4 2 6 6 6h4c4 0 6 -2 6 -6zM86 149v-354c0 -4 -2 -6 -6 -6h-4c-4 0 -6 2 -6 6v354c0 4 2 6 6 6h4c4 0 6 -2 6 -6z" />
    <glyph glyph-name="section" unicode="&#xa7;" horiz-adv-x="357" 
d="M293 273v-126.999c0 -4 -2 -6 -6 -6h-4c-4 0 -6 2 -6 6v127c0 35.333 -18.333 60.666 -55 75.999l-89 38c-47.333 20.667 -71 50.667 -71 90v112c0 66 39.333 99 118 99s118 -33 118 -99v-29c0 -4 -2 -6 -6 -6h-4c-4 0 -6 2 -6 6v29c0 56 -34 84 -102 84
s-102 -28 -102 -84v-112c0 -11.333 2 -21.5 6 -30.5s10 -16.667 18 -23s14.333 -10.833 19 -13.5s11 -5.66699 19 -9l90 -38c8 -3.33301 16 -7.5 24 -12.5s16.5 -14.667 25.5 -29s13.5 -30.5 13.5 -48.5zM63 197.001v127.002c0 4 2 6 6 6h4c4 0 6 -2 6 -6v-127
c0 -34.667 18.333 -60 55 -76l90 -38c47.333 -20.667 71 -50.667 71 -90v-112c0 -66 -39.333 -99 -118 -99c-43.333 0 -74 8.66699 -92 26s-27 41.666 -27 72.999v29c0 4 2 6 6 6h4c4 0 6 -2 6 -6v-29c0 -56 34.333 -84 103 -84c68 0 102 28 102 84v112
c0 33.333 -20.667 58.666 -62 75.999l-90 38c-42.667 18.667 -64 48.667 -64 90z" />
    <glyph glyph-name="dieresis" unicode="&#xa8;" horiz-adv-x="207" 
d="M142 694v-100c0 -4 -2 -6 -6 -6h-4c-4 0 -6 2 -6 6v100c0 4 2 6 6 6h4c4 0 6 -2 6 -6zM81 694v-100c0 -4 -2 -6 -6 -6h-4c-4 0 -6 2 -6 6v100c0 4 2 6 6 6h4c4 0 6 -2 6 -6z" />
    <glyph glyph-name="copyright" unicode="&#xa9;" horiz-adv-x="473" 
d="M407 570v-460c0 -38 -12.167 -67.167 -36.5 -87.5s-69.166 -30.5 -134.499 -30.5s-110 10.167 -134 30.5s-36 49.5 -36 87.5v460c0 38 12 67.167 36 87.5s68.667 30.5 134 30.5s110.166 -10.167 134.499 -30.5s36.5 -49.5 36.5 -87.5zM391 110v460
c0 32.667 -11.167 58 -33.5 76s-62.833 27 -121.5 27c-58 0 -98.167 -9 -120.5 -27s-33.5 -43.333 -33.5 -76v-460c0 -32.667 11.167 -58 33.5 -76s62.5 -27 120.5 -27c58.667 0 99.167 9 121.5 27s33.5 43.333 33.5 76zM236 553c36 0 59.833 -8.16699 71.5 -24.5
s17.5 -41.166 17.5 -74.499v-34c0 -4 -2 -6 -6 -6h-4c-4 0 -6 2 -6 6v34c0 28 -4.5 49 -13.5 63s-28.833 21 -59.5 21c-30 0 -49.5 -7 -58.5 -21s-13.5 -35 -13.5 -63v-229c0 -28 4.5 -49 13.5 -63s28.5 -21 58.5 -21c30.667 0 50.5 7 59.5 21s13.5 35 13.5 63v42
c0 4 2 6 6 6h4c4 0 6 -2 6 -6v-42c0 -33.333 -5.83301 -58.166 -17.5 -74.499s-35.5 -24.5 -71.5 -24.5s-59.667 8.16699 -71 24.5s-17 41.166 -17 74.499v229c0 33.333 5.66699 58.166 17 74.499s35 24.5 71 24.5z" />
    <glyph glyph-name="ordfeminine" unicode="&#xaa;" horiz-adv-x="265" 
d="M117 396c27.333 0 51 11.001 71 33.001v110h-70c-16 0 -28.167 -4.33301 -36.5 -13s-12.5 -20.334 -12.5 -35.001v-46c0 -32.667 16 -49 48 -49zM59 608.001v25c0 36.667 24 55 72 55c47.333 0 71 -18.333 71 -55v-239c0 -3.33301 -1.33301 -5 -4 -5h-4
c-2.66699 0 -4 1.66699 -4 5l-2 21c-20.667 -20.667 -45 -31 -73 -31c-40 0 -60 20.333 -60 61v46c0 18 5.33301 32.5 16 43.5s26 16.5 46 16.5h71v82c0 28.667 -19 43 -57 43c-39.333 0 -59 -14.333 -59 -43v-25c0 -3.33301 -1 -5 -3 -5h-6c-2.66699 0 -4 1.66699 -4 5z
" />
    <glyph glyph-name="guillemotleft" unicode="&#xab;" horiz-adv-x="368" 
d="M303 378l-122.999 -133l125 -135c2.66699 -2.66699 4 -5.66699 4 -9v-6c0 -2 -0.833008 -3.16699 -2.5 -3.5s-2.83398 0.166992 -3.50098 1.5l-133 143c-2.66699 3.33301 -4 6 -4 8v2c0 2 1.33301 4.66699 4 8l133 143c4 4 6 3.66699 6 -1v-7c0 -3.33301 -2 -7 -6 -11z
M170.001 378l-123.001 -133l125 -135c2.66699 -2.66699 4 -5.66699 4 -9v-6c0 -2 -0.666992 -3.16699 -2 -3.5s-2.66602 0.166992 -3.99902 1.5l-133 143c-2.66699 3.33301 -4 6 -4 8v2c0 2 1.33301 4.66699 4 8l133 143c4 4 6 3.66699 6 -1v-7c0 -3.33301 -2 -7 -6 -11z
" />
    <glyph glyph-name="logicalnot" unicode="&#xac;" horiz-adv-x="311" 
d="M54 309c0 28 9.83301 52 29.5 72s43.5 30 71.5 30s52 -10 72 -30s30 -44 30 -72s-10 -51.833 -30 -71.5s-44 -29.5 -72 -29.5s-51.833 9.83301 -71.5 29.5s-29.5 43.5 -29.5 71.5z" />
    <glyph glyph-name="uni00AD" unicode="&#xad;" horiz-adv-x="310" 
d="M60 297h190c4 0 6 -2 6 -6v-3c0 -4 -2 -6 -6 -6h-190c-4 0 -6 2 -6 6v3c0 4 2 6 6 6z" />
    <glyph glyph-name="registered" unicode="&#xae;" horiz-adv-x="401" 
d="M340 591v-207c0 -64.667 -46 -97 -138 -97c-94 0 -141 32.333 -141 97v207c0 64.667 47 97 141 97c92 0 138 -32.333 138 -97zM325 383v208.998c0 54 -41 81 -123 81c-47.333 0 -80 -8.16699 -98 -24.5s-27 -35.166 -27 -56.499v-209c0 -21.333 9 -40.166 27 -56.499
s50.667 -24.5 98 -24.5c82 0 123 27 123 81zM201 598.998h-44v-130h44c36 0 54 15.333 54 46v38c0 30.667 -18 46 -54 46zM157 355.998c0 -2.66699 -1.33203 -4 -3.99902 -4h-8c-2.66699 0 -4 1.33301 -4 4v252c0 3.33301 1.66699 5 5 5h55c24.667 0 42.5 -5.66699 53.5 -17
s16.5 -25 16.5 -41v-42c0 -27.333 -13.333 -45.333 -40 -54l32 -103c1.33301 -2.66699 0 -4 -4 -4h-8c-2.66699 0 -4.66699 1.33301 -6 4l-30 100c-2.66699 -0.666992 -7.33398 -1 -14.001 -1h-44v-99z" />
    <glyph glyph-name="macron" unicode="&#xaf;" horiz-adv-x="306" 
d="M58 634h191c4 0 6 -2 6 -6v-3c0 -4 -2 -6 -6 -6h-191c-4 0 -6 2 -6 6v3c0 4 2 6 6 6z" />
    <glyph glyph-name="degree" unicode="&#xb0;" horiz-adv-x="277" 
d="M54 495v124c0 44.667 28.333 67 85 67c56 0 84 -22.333 84 -67v-124c0 -44.667 -28 -67 -84 -67c-56.667 0 -85 22.333 -85 67zM207 495v124c0 35.333 -22.667 53 -68 53c-46 0 -69 -17.667 -69 -53v-124c0 -35.333 23 -53 69 -53c45.333 0 68 17.667 68 53z" />
    <glyph glyph-name="plusminus" unicode="&#xb1;" horiz-adv-x="433" 
d="M208 223v149h-131c-4 0 -6 2 -6 6v3c0 4 2 6 6 6h131v147c0 4 2 6 6 6h3c4 0 6 -2 6 -6v-147h132c4 0 6 -2 6 -6v-3c0 -4 -2 -6 -6 -6h-132v-149c0 -4 -2 -6 -6 -6h-3c-4 0 -6 2 -6 6zM77 153h278c4 0 6 -2 6 -6v-3c0 -4 -2 -6 -6 -6h-278c-4 0 -6 2 -6 6v3c0 4 2 6 6 6z
" />
    <glyph glyph-name="twosuperior" unicode="&#xb2;" 
d="M54 470h134.002c2.66699 0 4 -1.33301 4 -4v-5c0 -3.33301 -1.33301 -5 -4 -5h-145c-3.33301 0 -5 1.66699 -5 5v109c0 24 16 43 48 57l57 24c22 8.66699 33 24 33 46v71c0 17.333 -4.33301 30.5 -13 39.5s-25.334 13.5 -50.001 13.5s-41.334 -4.5 -50.001 -13.5
s-13 -22.167 -13 -39.5v-38c0 -3.33301 -1.33301 -5 -4 -5h-6c-2.66699 0 -4 1.66699 -4 5v37c0 22 5.33301 38.667 16 50s31 17 61 17s50.5 -5.66699 61.5 -17s16.5 -28 16.5 -50v-71c0 -25.333 -13.667 -44.333 -41 -57l-58 -25c-25.333 -12 -38 -27.333 -38 -46v-98z" />
    <glyph glyph-name="threesuperior" unicode="&#xb3;" 
d="M172 517l-0.00292969 79.999c0 18 -4 31.333 -12 40s-24.667 13 -50 13h-34c-3.33301 0 -5 1.33301 -5 4v6c0 2.66699 1.66699 4 5 4h33c24 0 40 4.33301 48 13s12 22 12 40v53c0 16.667 -4.16699 29.334 -12.5 38.001s-24.166 13 -47.499 13
c-22.667 0 -38.334 -4.33301 -47.001 -13s-13 -21.334 -13 -38.001v-15c0 -3.33301 -1.33301 -5 -4 -5h-7c-2.66699 0 -4 1.66699 -4 5v14c0 21.333 5.33301 37.5 16 48.5s30.334 16.5 59.001 16.5s48.5 -5.33301 59.5 -16s16.5 -26.667 16.5 -48v-53
c0 -16.667 -2.83301 -29.834 -8.5 -39.501s-16.167 -16.5 -31.5 -20.5c16.667 -3.33301 27.834 -9.66602 33.501 -18.999s8.5 -22.666 8.5 -39.999v-82c0 -20.667 -5.66699 -36.5 -17 -47.5s-31.666 -16.5 -60.999 -16.5c-28.667 0 -48.667 5.66699 -60 17
s-17 27.333 -17 48v15c0 3.33301 1.33301 5 4 5h7c2.66699 0 4 -1.66699 4 -5v-15c0 -16.667 4.5 -29.5 13.5 -38.5s25.167 -13.5 48.5 -13.5c24 0 40.5 4.5 49.5 13.5s13.5 21.833 13.5 38.5z" />
    <glyph glyph-name="acute" unicode="&#xb4;" horiz-adv-x="254" 
d="M165 702l-61.999 -125c-0.666992 -2 -2.66699 -3 -6 -3h-7c-2.66699 0 -3.33398 1.66699 -2.00098 5l60 125c0.666992 2.66699 3 4 7 4h7c3.33301 0 4.33301 -2 3 -6z" />
    <glyph glyph-name="mu" unicode="&#xb5;" horiz-adv-x="363" 
d="M284 6l-1 36c-38.667 -33.333 -80 -50 -124 -50c-38 0 -64.667 12.333 -80 37l2 -221c0 -4 -2 -6 -6 -6h-4c-4 0 -6 2 -6 6v676c0 4 2 6 6 6h4c4 0 6 -2 6 -6v-400c0 -22.667 6.5 -41.167 19.5 -55.5s32.5 -21.5 58.5 -21.5c46.667 0 87.667 17.667 123 53v424
c0 4 2 6 6 6h4c4 0 6 -2 6 -6v-478c0 -4 -2 -6 -6 -6h-2c-4 0 -6 2 -6 6z" />
    <glyph glyph-name="paragraph" unicode="&#xb6;" horiz-adv-x="387" 
d="M318 674v-879c0 -4 -2 -6 -6 -6h-4c-4 0 -6 2 -6 6v879c0 4 2 6 6 6h4c4 0 6 -2 6 -6zM235 675v-880c0 -4 -2 -6 -6 -6h-4c-4 0 -6 2 -6 6v487h-37c-52.667 0 -89.667 10.333 -111 31s-32 49.667 -32 87v162c0 37.333 10.667 66.333 32 87s58.333 31 111 31h48
c3.33301 0 5 -1.66699 5 -5z" />
    <glyph glyph-name="periodcentered" unicode="&#xb7;" horiz-adv-x="141" 
d="M79 292v-75c0 -4 -2 -6 -6 -6h-4c-4 0 -6 2 -6 6v75c0 4 2 6 6 6h4c4 0 6 -2 6 -6z" />
    <glyph glyph-name="cedilla" unicode="&#xb8;" horiz-adv-x="90" 
d="M48 -56h17c19.333 0 36.5 -5.83301 51.5 -17.5s22.5 -31.5 22.5 -59.5s-8 -48 -24 -60s-33.667 -18 -53 -18h-71c-4 0 -6 2 -6 6v4c0 4 2 6 6 6h71c14 0 27.5 4.83301 40.5 14.5s19.5 25.5 19.5 47.5c0 22.667 -6 38.5 -18 47.5s-25 13.5 -39 13.5h-27
c-6 0 -8.33301 2.66699 -7 8l16 65c0.666992 4 3 5.33301 7 4l4 -1c4 -1.33301 5.33301 -3.33301 4 -6z" />
    <glyph glyph-name="onesuperior" unicode="&#xb9;" 
d="M41 808l79 22c4 1.33301 6 0 6 -4v-356h71c2.66699 0 4 -1.33301 4 -4v-5c0 -3.33301 -1.33301 -5 -4 -5h-157c-2.66699 0 -4 1.66699 -4 5v5c0 2.66699 1.33301 4 4 4h71v342l-70 -18c-3.33301 -0.666992 -5 0.333008 -5 3v5c0 3.33301 1.66699 5.33301 5 6z" />
    <glyph glyph-name="ordmasculine" unicode="&#xba;" horiz-adv-x="264" 
d="M58 442v188c0 38.667 24.667 58 74 58s74 -19.333 74 -58v-188c0 -38.667 -24.667 -58 -74 -58s-74 19.333 -74 58zM192 443v187c0 30.667 -20 46 -60 46s-60 -15.333 -60 -46v-187c0 -31.333 20 -47 60 -47s60 15.667 60 47z" />
    <glyph glyph-name="guillemotright" unicode="&#xbb;" horiz-adv-x="370" 
d="M199 120l122.999 133l-125 135c-2.66699 2.66699 -4 5.66699 -4 9v6c0 2 0.833008 3.16699 2.5 3.5s2.83398 -0.166992 3.50098 -1.5l133 -143c2.66699 -3.33301 4 -6 4 -8v-2c0 -2 -1.33301 -4.66699 -4 -8l-133 -143c-4 -4 -6 -3.66699 -6 1v7c0 3.33301 2 7 6 11z
M63.999 120l123.001 133l-125 135c-2.66699 2.66699 -4 5.66699 -4 9v6c0 2 0.666992 3.16699 2 3.5s2.66602 -0.166992 3.99902 -1.5l133 -143c2.66699 -3.33301 4 -6 4 -8v-2c0 -2 -1.33301 -4.66699 -4 -8l-133 -143c-4 -4 -6 -3.66699 -6 1v7c0 3.33301 2 7 6 11z" />
    <glyph glyph-name="onequarter" unicode="&#xbc;" horiz-adv-x="514" 
d="M409 682l-255 -684c-1.33301 -4 -4 -6 -8 -6h-5c-3.33301 0 -4.33301 2 -3 6l255 684c2 4 4.66699 6 8 6h4c4 0 5.33301 -2 4 -6zM51 658l79 22c4 1.33301 6 0 6 -4v-356h71c2.66699 0 4 -1.33301 4 -4v-5c0 -3.33301 -1.33301 -5 -4 -5h-157c-2.66699 0 -4 1.66699 -4 5
v5c0 2.66699 1.33301 4 4 4h71v342l-70 -18c-3.33301 -0.666992 -5 0.333008 -5 3v5c0 3.33301 1.66699 5.33301 5 6zM374 369l-60 -224h128v224c0 3.33301 1.33301 5 4 5h7c2.66699 0 4 -1.66699 4 -5v-364c0 -3.33301 -1.33301 -5 -4 -5h-7c-2.66699 0 -4 1.66699 -4 5
v125h-139c-4 0 -6 1.33301 -6 4v4c0 0.666992 0.666992 3.66699 2 9l60 222c0.666992 3.33301 2.66699 5 6 5h6c3.33301 0 4.33301 -1.66699 3 -5z" />
    <glyph glyph-name="onehalf" unicode="&#xbd;" horiz-adv-x="521" 
d="M407 682l-255 -684c-1.33301 -4 -4 -6 -8 -6h-5c-3.33301 0 -4.33301 2 -3 6l255 684c2 4 4.66699 6 8 6h4c4 0 5.33301 -2 4 -6zM51 658l79 22c4 1.33301 6 0 6 -4v-356h71c2.66699 0 4 -1.33301 4 -4v-5c0 -3.33301 -1.33301 -5 -4 -5h-157c-2.66699 0 -4 1.66699 -4 5
v5c0 2.66699 1.33301 4 4 4h71v342l-70 -18c-3.33301 -0.666992 -5 0.333008 -5 3v5c0 3.33301 1.66699 5.33301 5 6zM335 14h134.002c2.66699 0 4 -1.33301 4 -4v-5c0 -3.33301 -1.33301 -5 -4 -5h-145c-3.33301 0 -5 1.66699 -5 5v109c0 24 16 43 48 57l57 24
c22 8.66699 33 24 33 46v71c0 17.333 -4.33301 30.5 -13 39.5s-25.334 13.5 -50.001 13.5s-41.334 -4.5 -50.001 -13.5s-13 -22.167 -13 -39.5v-38c0 -3.33301 -1.33301 -5 -4 -5h-6c-2.66699 0 -4 1.66699 -4 5v37c0 22 5.33301 38.667 16 50s31 17 61 17
s50.5 -5.66699 61.5 -17s16.5 -28 16.5 -50v-71c0 -25.333 -13.667 -44.333 -41 -57l-58 -25c-25.333 -12 -38 -27.333 -38 -46v-98z" />
    <glyph glyph-name="threequarters" unicode="&#xbe;" horiz-adv-x="501" 
d="M391 682l-255 -684c-1.33301 -4 -4 -6 -8 -6h-5c-3.33301 0 -4.33301 2 -3 6l255 684c2 4 4.66699 6 8 6h4c4 0 5.33301 -2 4 -6zM187 367l-0.00292969 79.999c0 18 -4 31.333 -12 40s-24.667 13 -50 13h-34c-3.33301 0 -5 1.33301 -5 4v6c0 2.66699 1.66699 4 5 4h33
c24 0 40 4.33301 48 13s12 22 12 40v53c0 16.667 -4.16699 29.334 -12.5 38.001s-24.166 13 -47.499 13c-22.667 0 -38.334 -4.33301 -47.001 -13s-13 -21.334 -13 -38.001v-15c0 -3.33301 -1.33301 -5 -4 -5h-7c-2.66699 0 -4 1.66699 -4 5v14
c0 21.333 5.33301 37.5 16 48.5s30.334 16.5 59.001 16.5c29.333 0 49.333 -5.33301 60 -16s16 -26.667 16 -48v-53c0 -16.667 -2.83301 -29.834 -8.5 -39.501s-16.167 -16.5 -31.5 -20.5c16.667 -3.33301 27.834 -9.66602 33.501 -18.999s8.5 -22.666 8.5 -39.999v-82
c0 -20.667 -5.66699 -36.5 -17 -47.5s-31.666 -16.5 -60.999 -16.5c-28.667 0 -48.667 5.66699 -60 17s-17 27.333 -17 48v15c0 3.33301 1.33301 5 4 5h7c2.66699 0 4 -1.66699 4 -5v-15c0 -16.667 4.5 -29.5 13.5 -38.5s25.167 -13.5 48.5 -13.5c24 0 40.5 4.5 49.5 13.5
s13.5 21.833 13.5 38.5zM361.997 368.999l-60 -224h128v224c0 3.33301 1.33301 5 4 5h7c2.66699 0 4 -1.66699 4 -5v-364c0 -3.33301 -1.33301 -5 -4 -5h-7c-2.66699 0 -4 1.66699 -4 5v125h-139c-4 0 -6 1.33301 -6 4v4c0 0.666992 0.666992 3.66699 2 9l60 222
c0.666992 3.33301 2.66699 5 6 5h6c3.33301 0 4.33301 -1.66699 3 -5z" />
    <glyph glyph-name="questiondown" unicode="&#xbf;" horiz-adv-x="349" 
d="M172 409v75c0 4 2 6 6 6h4c4 0 6 -2 6 -6v-75c0 -4 -2 -6 -6 -6h-4c-4 0 -6 2 -6 6zM188 339v-111.999c0 -35.333 -15.667 -64.333 -47 -87l-42 -31c-27.333 -20 -41 -45 -41 -75v-114c0 -32.667 8.66699 -58 26 -76s48.666 -27 93.999 -27
c46.667 0 78.334 8.83301 95.001 26.5s25 43.167 25 76.5v67c0 4 2 6 6 6h4c4 0 6 -2 6 -6v-67c0 -38.667 -9.5 -68 -28.5 -88s-54.833 -30 -107.5 -30c-51.333 0 -86.833 10.167 -106.5 30.5s-29.5 49.5 -29.5 87.5v114c0 34.667 17.667 65 53 91l42 32
c23.333 17.333 35 40.666 35 69.999v112c0 4 2 6 6 6h4c4 0 6 -2 6 -6z" />
    <glyph glyph-name="Agrave" unicode="&#xc0;" horiz-adv-x="379" 
d="M181 747l-61 125c-2.66699 4 -1.66699 6 3 6h7c2.66699 0 5 -1.33301 7 -4l59 -125c2 -3.33301 1.33301 -5 -2 -5h-7c-3.33301 0 -5.33301 1 -6 3zM283 247l-79 340c-8 36 -12.667 59.333 -14 70c-4 -20 -9 -43 -15 -69l-79 -341h187zM187 680h4.99805
c4 0 6.66699 -2 8 -6l155 -668c0.666992 -4 -1 -6 -5 -6h-4c-4 0 -6.33301 2 -7 6l-52 226h-195l-52 -226c-1.33301 -4 -3.66602 -6 -6.99902 -6h-4c-4 0 -5.66699 2 -5 6l155 668c0.666992 4 3.33398 6 8.00098 6z" />
    <glyph glyph-name="Aacute" unicode="&#xc1;" horiz-adv-x="379" 
d="M261 872l-61 -125c-1.33301 -2 -3.33301 -3 -6 -3h-7c-3.33301 0 -4 1.66699 -2 5l59 125c2 2.66699 4.33301 4 7 4h7c4.66699 0 5.66699 -2 3 -6zM283 247l-79 340c-8 36 -12.667 59.333 -14 70c-4 -20 -9 -43 -15 -69l-79 -341h187zM187 680h4.99805
c4 0 6.66699 -2 8 -6l155 -668c0.666992 -4 -1 -6 -5 -6h-4c-4 0 -6.33301 2 -7 6l-52 226h-195l-52 -226c-1.33301 -4 -3.66602 -6 -6.99902 -6h-4c-4 0 -5.66699 2 -5 6l155 668c0.666992 4 3.33398 6 8.00098 6z" />
    <glyph glyph-name="Acircumflex" unicode="&#xc2;" horiz-adv-x="379" 
d="M189 864l-51 -114c-1.33301 -4 -4 -6 -8 -6h-4c-3.33301 0 -4.33301 2 -3 6l54 122c1.33301 4 4 6 8 6h7c4 0 6.66699 -1.66699 8 -5l55 -123c1.33301 -4 0.333008 -6 -3 -6h-4c-3.33301 0 -6 2 -8 6zM283 247l-79 340c-8 36 -12.667 59.333 -14 70
c-4 -20 -9 -43 -15 -69l-79 -341h187zM187 680h4.99805c4 0 6.66699 -2 8 -6l155 -668c0.666992 -4 -1 -6 -5 -6h-4c-4 0 -6.33301 2 -7 6l-52 226h-195l-52 -226c-1.33301 -4 -3.66602 -6 -6.99902 -6h-4c-4 0 -5.66699 2 -5 6l155 668c0.666992 4 3.33398 6 8.00098 6z
" />
    <glyph glyph-name="Atilde" unicode="&#xc3;" horiz-adv-x="379" 
d="M238 779c9.33301 0 15.666 3.66699 18.999 11s5 22 5 44v10c0 4 2 6 6 6h4c4 0 6 -2 6 -6v-10c0 -46.667 -13.667 -70 -41 -70c-12.667 0 -25.667 7.66699 -39 23l-29 32c-10.667 10.667 -19 16 -25 16c-9.33301 0 -15.666 -3.83301 -18.999 -11.5s-5 -22.167 -5 -43.5
v-10c0 -4 -2 -6 -6 -6h-4c-4 0 -6 2 -6 6v10c0 46.667 13.333 70 40 70c12.667 0 25.667 -7.66699 39 -23l29 -32c10 -10.667 18.667 -16 26 -16zM283 247l-79 340c-8 36 -12.667 59.333 -14 70c-4 -20 -9 -43 -15 -69l-79 -341h187zM187 680h4.99805c4 0 6.66699 -2 8 -6
l155 -668c0.666992 -4 -1 -6 -5 -6h-4c-4 0 -6.33301 2 -7 6l-52 226h-195l-52 -226c-1.33301 -4 -3.66602 -6 -6.99902 -6h-4c-4 0 -5.66699 2 -5 6l155 668c0.666992 4 3.33398 6 8.00098 6z" />
    <glyph glyph-name="Adieresis" unicode="&#xc4;" horiz-adv-x="379" 
d="M229 860v-100c0 -4 -2 -6 -6 -6h-4c-4 0 -6 2 -6 6v100c0 4 2 6 6 6h4c4 0 6 -2 6 -6zM167 860v-100c0 -4 -2 -6 -6 -6h-4c-4 0 -6 2 -6 6v100c0 4 2 6 6 6h4c4 0 6 -2 6 -6zM283 247l-79 340c-8 36 -12.667 59.333 -14 70c-4 -20 -9 -43 -15 -69l-79 -341h187zM187 680
h4.99805c4 0 6.66699 -2 8 -6l155 -668c0.666992 -4 -1 -6 -5 -6h-4c-4 0 -6.33301 2 -7 6l-52 226h-195l-52 -226c-1.33301 -4 -3.66602 -6 -6.99902 -6h-4c-4 0 -5.66699 2 -5 6l155 668c0.666992 4 3.33398 6 8.00098 6z" />
    <glyph glyph-name="Aring" unicode="&#xc5;" horiz-adv-x="379" 
d="M253 807v-7c0 -48 -20.667 -72 -62 -72c-40.667 0 -61 24 -61 72v7c0 48 20.333 72 61 72c41.333 0 62 -24 62 -72zM238 800v7c0 38.667 -15.667 58 -47 58c-30.667 0 -46 -19.333 -46 -58v-7c0 -38.667 15.333 -58 46 -58c31.333 0 47 19.333 47 58zM283 247l-79 340
c-8 36 -12.667 59.333 -14 70c-4 -20 -9 -43 -15 -69l-79 -341h187zM187 680h4.99805c4 0 6.66699 -2 8 -6l155 -668c0.666992 -4 -1 -6 -5 -6h-4c-4 0 -6.33301 2 -7 6l-52 226h-195l-52 -226c-1.33301 -4 -3.66602 -6 -6.99902 -6h-4c-4 0 -5.66699 2 -5 6l155 668
c0.666992 4 3.33398 6 8.00098 6z" />
    <glyph glyph-name="AE" unicode="&#xc6;" horiz-adv-x="600" 
d="M275 587l-142.001 -340h164v397c-5.33301 -18 -12.666 -37 -21.999 -57zM304.999 680h240c4 0 6 -2 6 -6v-3c0 -4 -2 -6 -6 -6h-232v-297h220c4 0 6 -2 6 -6v-3c0 -4 -2 -6 -6 -6h-220v-338h243c4 0 6 -2 6 -6v-3c0 -4 -2 -6 -6 -6h-248c-7.33301 0 -11 2 -11 6v226h-171
l-93 -226c-2 -4 -4.33301 -6 -7 -6h-4c-5.33301 0 -7 2 -5 6l279 668c1.33301 4 4.33301 6 9 6z" />
    <glyph glyph-name="Ccedilla" unicode="&#xc7;" horiz-adv-x="389" 
d="M282 -133c0 -28 -8 -48 -24 -60s-33.667 -18 -53 -18h-71c-4 0 -6 2 -6 6v4c0 4 2 6 6 6h71c14 0 27.5 4.83301 40.5 14.5s19.5 25.5 19.5 47.5c0 22.667 -6 38.5 -18 47.5s-25 13.5 -39 13.5h-27c-6 0 -8.33301 2.66699 -7 8l14 57c-44 2.66699 -74.833 14 -92.5 34
s-26.5 47.667 -26.5 83v460c0 37.333 10.167 66.333 30.5 87s55.833 31 106.5 31c51.333 0 87.166 -10.333 107.499 -31s30.5 -49.667 30.5 -87v-67c0 -4 -2 -6 -6 -6h-4c-4 0 -6 2 -6 6v67c0 32 -9 57.167 -27 75.5s-49.667 27.5 -95 27.5
c-44.667 0 -76 -9.16699 -94 -27.5s-27 -43.5 -27 -75.5v-460c0 -32 9 -57.167 27 -75.5s49.333 -27.5 94 -27.5c45.333 0 77 9.16699 95 27.5s27 43.5 27 75.5v78c0 4 2 6 6 6h4c4 0 6 -2 6 -6v-78c0 -37.333 -10.167 -66.333 -30.5 -87s-56.166 -31 -107.499 -31h-3
l-12 -48h17c19.333 0 36.5 -5.83301 51.5 -17.5s22.5 -31.5 22.5 -59.5z" />
    <glyph glyph-name="Egrave" unicode="&#xc8;" horiz-adv-x="380" 
d="M208 747l-61 125c-2.66699 4 -1.66699 6 3 6h7c2.66699 0 5 -1.33301 7 -4l59 -125c2 -3.33301 1.33301 -5 -2 -5h-7c-2.66699 0 -4.66699 1 -6 3zM335 0h-252c-3.33301 0 -5 2 -5 6v668c0 4 2 6 6 6h242c4 0 6 -2 6 -6v-3c0 -4 -2 -6 -6 -6h-232v-297h218c4 0 6 -2 6 -6
v-3c0 -4 -2 -6 -6 -6h-218v-338h241c4 0 6 -2 6 -6v-3c0 -4 -2 -6 -6 -6z" />
    <glyph glyph-name="Eacute" unicode="&#xc9;" horiz-adv-x="380" 
d="M273 872l-61 -125c-1.33301 -2 -3.33301 -3 -6 -3h-7c-3.33301 0 -4 1.66699 -2 5l59 125c2 2.66699 4.33301 4 7 4h7c4.66699 0 5.66699 -2 3 -6zM335 0h-252c-3.33301 0 -5 2 -5 6v668c0 4 2 6 6 6h242c4 0 6 -2 6 -6v-3c0 -4 -2 -6 -6 -6h-232v-297h218c4 0 6 -2 6 -6
v-3c0 -4 -2 -6 -6 -6h-218v-338h241c4 0 6 -2 6 -6v-3c0 -4 -2 -6 -6 -6z" />
    <glyph glyph-name="Ecircumflex" unicode="&#xca;" horiz-adv-x="380" 
d="M202 864l-51 -114c-1.33301 -4 -4 -6 -8 -6h-4c-3.33301 0 -4.33301 2 -3 6l54 122c1.33301 4 4 6 8 6h7c4 0 6.66699 -1.66699 8 -5l55 -123c1.33301 -4 0.333008 -6 -3 -6h-4c-3.33301 0 -6 2 -8 6zM335 0h-252c-3.33301 0 -5 2 -5 6v668c0 4 2 6 6 6h242
c4 0 6 -2 6 -6v-3c0 -4 -2 -6 -6 -6h-232v-297h218c4 0 6 -2 6 -6v-3c0 -4 -2 -6 -6 -6h-218v-338h241c4 0 6 -2 6 -6v-3c0 -4 -2 -6 -6 -6z" />
    <glyph glyph-name="Edieresis" unicode="&#xcb;" horiz-adv-x="380" 
d="M248 860v-100c0 -4 -2 -6 -6 -6h-4c-4 0 -6 2 -6 6v100c0 4 2 6 6 6h4c4 0 6 -2 6 -6zM186 860v-100c0 -4 -2 -6 -6 -6h-4c-4 0 -6 2 -6 6v100c0 4 2 6 6 6h4c4 0 6 -2 6 -6zM335 0h-252c-3.33301 0 -5 2 -5 6v668c0 4 2 6 6 6h242c4 0 6 -2 6 -6v-3c0 -4 -2 -6 -6 -6
h-232v-297h218c4 0 6 -2 6 -6v-3c0 -4 -2 -6 -6 -6h-218v-338h241c4 0 6 -2 6 -6v-3c0 -4 -2 -6 -6 -6z" />
    <glyph glyph-name="Igrave" unicode="&#xcc;" horiz-adv-x="172" 
d="M77 747l-61 125c-2.66699 4 -1.66699 6 3 6h7c2.66699 0 5 -1.33301 7 -4l59 -125c2 -3.33301 1.33301 -5 -2 -5h-7c-3.33301 0 -5.33301 1 -6 3zM94 674v-668c0 -4 -2 -6 -6 -6h-4c-4 0 -6 2 -6 6v668c0 4 2 6 6 6h4c4 0 6 -2 6 -6z" />
    <glyph glyph-name="Iacute" unicode="&#xcd;" horiz-adv-x="172" 
d="M156 872l-61 -125c-0.666992 -2 -2.66699 -3 -6 -3h-7c-3.33301 0 -4 1.66699 -2 5l59 125c2 2.66699 4.33301 4 7 4h7c4.66699 0 5.66699 -2 3 -6zM94 674v-668c0 -4 -2 -6 -6 -6h-4c-4 0 -6 2 -6 6v668c0 4 2 6 6 6h4c4 0 6 -2 6 -6z" />
    <glyph glyph-name="Icircumflex" unicode="&#xce;" horiz-adv-x="172" 
d="M86 864l-51 -114c-1.33301 -4 -4 -6 -8 -6h-4c-3.33301 0 -4.33301 2 -3 6l54 122c1.33301 4 4 6 8 6h7c4 0 6.66699 -1.66699 8 -5l55 -123c1.33301 -4 0.333008 -6 -3 -6h-4c-3.33301 0 -6 2 -8 6zM94 674v-668c0 -4 -2 -6 -6 -6h-4c-4 0 -6 2 -6 6v668c0 4 2 6 6 6h4
c4 0 6 -2 6 -6z" />
    <glyph glyph-name="Idieresis" unicode="&#xcf;" horiz-adv-x="172" 
d="M126 860v-100c0 -4 -2 -6 -6 -6h-4c-4 0 -6 2 -6 6v100c0 4 2 6 6 6h4c4 0 6 -2 6 -6zM64 860v-100c0 -4 -2 -6 -6 -6h-4c-4 0 -6 2 -6 6v100c0 4 2 6 6 6h4c4 0 6 -2 6 -6zM94 674v-668c0 -4 -2 -6 -6 -6h-4c-4 0 -6 2 -6 6v668c0 4 2 6 6 6h4c4 0 6 -2 6 -6z" />
    <glyph glyph-name="Eth" unicode="&#xd0;" horiz-adv-x="428" 
d="M219 0h-132c-4 0 -6 2 -6 6v332h-60c-4 0 -6 2 -6 6v3c0 4 2 6 6 6h60v321c0 4 1.66699 6 5 6h133c51.333 0 87.5 -10.333 108.5 -31s31.5 -49.667 31.5 -87v-444c0 -37.333 -10.5 -66.333 -31.5 -87s-57.167 -31 -108.5 -31zM97 15h122c46 0 78.167 9.16699 96.5 27.5
s27.5 43.5 27.5 75.5v444c0 32 -9.16699 57.167 -27.5 75.5s-50.5 27.5 -96.5 27.5h-122v-312h114c4 0 6 -2 6 -6v-3c0 -4 -2 -6 -6 -6h-114v-323z" />
    <glyph glyph-name="Ntilde" unicode="&#xd1;" horiz-adv-x="437" 
d="M266 779c9.33301 0 15.666 3.66699 18.999 11s5 22 5 44v10c0 4 2 6 6 6h4c4 0 6 -2 6 -6v-10c0 -46.667 -13.667 -70 -41 -70c-12.667 0 -25.667 7.66699 -39 23l-29 32c-10.667 10.667 -19 16 -25 16c-9.33301 0 -15.666 -3.83301 -18.999 -11.5s-5 -22.167 -5 -43.5
v-10c0 -4 -2 -6 -6 -6h-4c-4 0 -6 2 -6 6v10c0 46.667 13.333 70 40 70c12.667 0 25.667 -7.66699 39 -23l29 -32c10 -10.667 18.667 -16 26 -16zM359 674v-668.001c0 -4 -2 -6 -6 -6h-3c-2.66699 0 -4.66699 1 -6 3l-228 571c-9.33301 22.667 -17 44 -23 64v-632
c0 -4 -2 -6 -6 -6h-3c-4 0 -6 2 -6 6v668c0 4 2 6 6 6h3c2 0 3.66699 -1 5 -3l231 -578c12.667 -31.333 19.667 -50.666 21 -57.999v633c0 4 2 6 6 6h3c4 0 6 -2 6 -6z" />
    <glyph glyph-name="Ograve" unicode="&#xd2;" horiz-adv-x="418" 
d="M202 747l-61 125c-2.66699 4 -1.66699 6 3 6h7c2.66699 0 5 -1.33301 7 -4l59 -125c2 -3.33301 1.33301 -5 -2 -5h-7c-2.66699 0 -4.66699 1 -6 3zM69 110v460c0 37.333 10.5 66.333 31.5 87s56.833 31 107.5 31c51.333 0 87.5 -10.333 108.5 -31s31.5 -49.667 31.5 -87
v-460c0 -37.333 -10.5 -66.333 -31.5 -87s-57.167 -31 -108.5 -31c-50.667 0 -86.5 10.333 -107.5 31s-31.5 49.667 -31.5 87zM332 110v460c0 32.667 -9.16699 58 -27.5 76s-50.5 27 -96.5 27c-82 0 -123 -34.333 -123 -103v-460c0 -68.667 41 -103 123 -103
c46 0 78.167 9.16699 96.5 27.5s27.5 43.5 27.5 75.5z" />
    <glyph glyph-name="Oacute" unicode="&#xd3;" horiz-adv-x="418" 
d="M276 872l-61 -125c-0.666992 -2 -2.66699 -3 -6 -3h-7c-3.33301 0 -4 1.66699 -2 5l59 125c2 2.66699 4.33301 4 7 4h7c4.66699 0 5.66699 -2 3 -6zM69 110v460c0 37.333 10.5 66.333 31.5 87s56.833 31 107.5 31c51.333 0 87.5 -10.333 108.5 -31s31.5 -49.667 31.5 -87
v-460c0 -37.333 -10.5 -66.333 -31.5 -87s-57.167 -31 -108.5 -31c-50.667 0 -86.5 10.333 -107.5 31s-31.5 49.667 -31.5 87zM332 110v460c0 32.667 -9.16699 58 -27.5 76s-50.5 27 -96.5 27c-82 0 -123 -34.333 -123 -103v-460c0 -68.667 41 -103 123 -103
c46 0 78.167 9.16699 96.5 27.5s27.5 43.5 27.5 75.5z" />
    <glyph glyph-name="Ocircumflex" unicode="&#xd4;" horiz-adv-x="418" 
d="M209 864l-51 -114c-1.33301 -4 -4 -6 -8 -6h-4c-3.33301 0 -4.33301 2 -3 6l54 122c1.33301 4 4 6 8 6h7c4 0 6.66699 -1.66699 8 -5l55 -123c1.33301 -4 0.333008 -6 -3 -6h-4c-3.33301 0 -6 2 -8 6zM69 110v460c0 37.333 10.5 66.333 31.5 87s56.833 31 107.5 31
c51.333 0 87.5 -10.333 108.5 -31s31.5 -49.667 31.5 -87v-460c0 -37.333 -10.5 -66.333 -31.5 -87s-57.167 -31 -108.5 -31c-50.667 0 -86.5 10.333 -107.5 31s-31.5 49.667 -31.5 87zM332 110v460c0 32.667 -9.16699 58 -27.5 76s-50.5 27 -96.5 27
c-82 0 -123 -34.333 -123 -103v-460c0 -68.667 41 -103 123 -103c46 0 78.167 9.16699 96.5 27.5s27.5 43.5 27.5 75.5z" />
    <glyph glyph-name="Otilde" unicode="&#xd5;" horiz-adv-x="418" 
d="M256 779c9.33301 0 15.666 3.66699 18.999 11s5 22 5 44v10c0 4 2 6 6 6h4c4 0 6 -2 6 -6v-10c0 -46.667 -13.667 -70 -41 -70c-12.667 0 -25.667 7.66699 -39 23l-29 32c-10.667 10.667 -19 16 -25 16c-9.33301 0 -15.666 -3.83301 -18.999 -11.5s-5 -22.167 -5 -43.5
v-10c0 -4 -2 -6 -6 -6h-4c-4 0 -6 2 -6 6v10c0 46.667 13.333 70 40 70c12.667 0 25.667 -7.66699 39 -23l29 -32c10 -10.667 18.667 -16 26 -16zM69 110v460c0 37.333 10.5 66.333 31.5 87s56.833 31 107.5 31c51.333 0 87.5 -10.333 108.5 -31s31.5 -49.667 31.5 -87v-460
c0 -37.333 -10.5 -66.333 -31.5 -87s-57.167 -31 -108.5 -31c-50.667 0 -86.5 10.333 -107.5 31s-31.5 49.667 -31.5 87zM332 110v460c0 32.667 -9.16699 58 -27.5 76s-50.5 27 -96.5 27c-82 0 -123 -34.333 -123 -103v-460c0 -68.667 41 -103 123 -103
c46 0 78.167 9.16699 96.5 27.5s27.5 43.5 27.5 75.5z" />
    <glyph glyph-name="Odieresis" unicode="&#xd6;" horiz-adv-x="418" 
d="M249 860v-100c0 -4 -2 -6 -6 -6h-4c-4 0 -6 2 -6 6v100c0 4 2 6 6 6h4c4 0 6 -2 6 -6zM187 860v-100c0 -4 -2 -6 -6 -6h-4c-4 0 -6 2 -6 6v100c0 4 2 6 6 6h4c4 0 6 -2 6 -6zM69 110v460c0 37.333 10.5 66.333 31.5 87s56.833 31 107.5 31
c51.333 0 87.5 -10.333 108.5 -31s31.5 -49.667 31.5 -87v-460c0 -37.333 -10.5 -66.333 -31.5 -87s-57.167 -31 -108.5 -31c-50.667 0 -86.5 10.333 -107.5 31s-31.5 49.667 -31.5 87zM332 110v460c0 32.667 -9.16699 58 -27.5 76s-50.5 27 -96.5 27
c-82 0 -123 -34.333 -123 -103v-460c0 -68.667 41 -103 123 -103c46 0 78.167 9.16699 96.5 27.5s27.5 43.5 27.5 75.5z" />
    <glyph glyph-name="multiply" unicode="&#xd7;" horiz-adv-x="376" 
d="M301 215l-113.001 113l-113 -113c-3.33301 -3.33301 -6.33301 -3.33301 -9 0l-2 2c-2.66699 2.66699 -2.66699 5.33398 0 8.00098l114 114l-114 113c-2 2 -2 4.66699 0 8l2 3c2 4 5 4 9 0l113 -114l114 114c2.66699 2.66699 5.33398 2.66699 8.00098 0l2 -2
c2.66699 -2.66699 2.66699 -5.33398 0 -8.00098l-113 -114l113 -113c2.66699 -2.66699 2.66699 -5.66699 0 -9l-2 -2c-2.66699 -3.33301 -5.66699 -3.33301 -9 0z" />
    <glyph glyph-name="Oslash" unicode="&#xd8;" horiz-adv-x="418" 
d="M85 110c0 -29.333 7.33301 -52.333 22 -69l198 604c-20 18.667 -52.333 28 -97 28c-82 0 -123 -34.333 -123 -103v-460zM208 7c46 0 78.167 9.16699 96.5 27.5s27.5 43.5 27.5 75.5v460c0 26 -5 46.333 -15 61l-198 -601c19.333 -15.333 49 -23 89 -23zM104 -16
c-1.33301 -4 -3.66699 -5.99902 -7 -5.99902h-4c-4.66699 0 -6.33398 2 -5.00098 6l13 39c-21.333 18.667 -32 47.667 -32 87v460c0 37.333 10.5 66.333 31.5 87s56.833 31 107.5 31c44.667 0 79 -8.66699 103 -26l11 34c1.33301 4 4 6 8 6h3
c4.66699 0 6.33398 -2 5.00098 -6l-15 -46c16.667 -18.667 25 -45.334 25 -80.001v-460c0 -37.333 -10.5 -66.333 -31.5 -87s-57.167 -31 -108.5 -31c-40 0 -71.333 7 -94 21z" />
    <glyph glyph-name="Ugrave" unicode="&#xd9;" horiz-adv-x="430" 
d="M207 747l-61 125c-2.66699 4 -1.66699 6 3 6h7c2.66699 0 5 -1.33301 7 -4l59 -125c2 -3.33301 1.33301 -5 -2 -5h-7c-3.33301 0 -5.33301 1 -6 3zM91 674v-564c0 -68.667 41 -103 123 -103c46 0 78.167 9 96.5 27s27.5 43.333 27.5 76v564c0 4 2 6 6 6h4c4 0 6 -2 6 -6
v-564c0 -37.333 -10.5 -66.333 -31.5 -87s-57.167 -31 -108.5 -31c-50.667 0 -86.5 10.333 -107.5 31s-31.5 49.667 -31.5 87v564c0 4 2 6 6 6h4c4 0 6 -2 6 -6z" />
    <glyph glyph-name="Uacute" unicode="&#xda;" horiz-adv-x="430" 
d="M284 872l-61 -125c-0.666992 -2 -2.66699 -3 -6 -3h-7c-3.33301 0 -4 1.66699 -2 5l59 125c2 2.66699 4.33301 4 7 4h7c4.66699 0 5.66699 -2 3 -6zM91 674v-564c0 -68.667 41 -103 123 -103c46 0 78.167 9 96.5 27s27.5 43.333 27.5 76v564c0 4 2 6 6 6h4c4 0 6 -2 6 -6
v-564c0 -37.333 -10.5 -66.333 -31.5 -87s-57.167 -31 -108.5 -31c-50.667 0 -86.5 10.333 -107.5 31s-31.5 49.667 -31.5 87v564c0 4 2 6 6 6h4c4 0 6 -2 6 -6z" />
    <glyph glyph-name="Ucircumflex" unicode="&#xdb;" horiz-adv-x="430" 
d="M214 864l-51 -114c-1.33301 -4 -4 -6 -8 -6h-4c-3.33301 0 -4.33301 2 -3 6l54 122c1.33301 4 4 6 8 6h7c4 0 6.66699 -1.66699 8 -5l55 -123c1.33301 -4 0.333008 -6 -3 -6h-4c-3.33301 0 -6 2 -8 6zM91 674v-564c0 -68.667 41 -103 123 -103c46 0 78.167 9 96.5 27
s27.5 43.333 27.5 76v564c0 4 2 6 6 6h4c4 0 6 -2 6 -6v-564c0 -37.333 -10.5 -66.333 -31.5 -87s-57.167 -31 -108.5 -31c-50.667 0 -86.5 10.333 -107.5 31s-31.5 49.667 -31.5 87v564c0 4 2 6 6 6h4c4 0 6 -2 6 -6z" />
    <glyph glyph-name="Udieresis" unicode="&#xdc;" horiz-adv-x="430" 
d="M255 860v-100c0 -4 -2 -6 -6 -6h-4c-4 0 -6 2 -6 6v100c0 4 2 6 6 6h4c4 0 6 -2 6 -6zM193 860v-100c0 -4 -2 -6 -6 -6h-4c-4 0 -6 2 -6 6v100c0 4 2 6 6 6h4c4 0 6 -2 6 -6zM91 674v-564c0 -68.667 41 -103 123 -103c46 0 78.167 9 96.5 27s27.5 43.333 27.5 76v564
c0 4 2 6 6 6h4c4 0 6 -2 6 -6v-564c0 -37.333 -10.5 -66.333 -31.5 -87s-57.167 -31 -108.5 -31c-50.667 0 -86.5 10.333 -107.5 31s-31.5 49.667 -31.5 87v564c0 4 2 6 6 6h4c4 0 6 -2 6 -6z" />
    <glyph glyph-name="Yacute" unicode="&#xdd;" horiz-adv-x="363" 
d="M256 872l-61 -125c-0.666992 -2 -2.66699 -3 -6 -3h-7c-3.33301 0 -4 1.66699 -2 5l59 125c2 2.66699 4.33301 4 7 4h7c4.66699 0 5.66699 -2 3 -6zM37 674l135.999 -343.001c3.33301 -8 6.33301 -16.333 9 -25c2.66699 10.667 5.33398 19.334 8.00098 26.001l136 342
c1.33301 4 3.66602 6 6.99902 6h4c4.66699 0 6.33398 -2 5.00098 -6l-152 -382v-286c0 -4 -2 -6 -6 -6h-4c-4 0 -6 2 -6 6v285l-153 383c-1.33301 4 0 6 4 6h4c3.33301 0 6 -2 8 -6z" />
    <glyph glyph-name="Thorn" unicode="&#xde;" horiz-adv-x="408" 
d="M94 674v-184h115c54 0 92 -10.333 114 -31s33 -49.667 33 -87v-142c0 -37.333 -11 -66.333 -33 -87s-60 -31 -114 -31h-115v-106c0 -4 -2 -6 -6 -6h-4c-4 0 -6 2 -6 6v668c0 4 2 6 6 6h4c4 0 6 -2 6 -6zM209 475h-115v-348h115c87.333 0 131 34.333 131 103v142
c0 68.667 -43.667 103 -131 103z" />
    <glyph glyph-name="germandbls" unicode="&#xdf;" horiz-adv-x="416" 
d="M95 603l-0.00195312 -596.997c0 -4 -2 -6 -6 -6h-4c-4 0 -6 2 -6 6v468h-48c-4 0 -6 2 -6 6v1c0 4 2 6 6 6l37 2h11v114c0 65.333 41 98 123 98s123 -32.667 123 -98v-58c0 -34 -19.667 -57.667 -59 -71l-42 -14l-6 -2c-4 -1.33301 -6.83301 -2.33301 -8.5 -3
s-4.5 -1.83398 -8.5 -3.50098s-7 -3.33398 -9 -5.00098s-4.66699 -3.83398 -8 -6.50098s-5.66602 -5.5 -6.99902 -8.5s-2.66602 -6.66699 -3.99902 -11s-2 -8.83301 -2 -13.5v-27c0 -28.667 17 -50 51 -64l79 -36c49.333 -22 74 -51.333 74 -88v-101
c0 -32 -7.5 -56.5 -22.5 -73.5s-43.5 -25.5 -85.5 -25.5s-70.667 8.5 -86 25.5s-23 41.5 -23 73.5v29c0 4 2 6 6 6h4c4 0 6 -2 6 -6v-29c0 -26.667 6.5 -47.334 19.5 -62.001s37.5 -22 73.5 -22c35.333 0 59.5 7.33301 72.5 22s19.5 35.334 19.5 62.001v101
c0 32 -20 56 -60 72l-80 35c-42.667 18.667 -64 45.667 -64 81v27c0 32 21.667 55 65 69l40 13c32.667 10.667 49 29.667 49 57v57c0 55.333 -35.667 83 -107 83s-107 -27.667 -107 -83z" />
    <glyph glyph-name="agrave" unicode="&#xe0;" horiz-adv-x="354" 
d="M175 577l-61.999 125c-1.33301 4 -0.333008 6 3 6h7c4 0 6.33301 -1.33301 7 -4l60 -125c1.33301 -3.33301 0.666016 -5 -2.00098 -5h-7c-3.33301 0 -5.33301 1 -6 3zM152.001 7c44.667 0 84.667 17.666 120 52.999v194h-124c-26 0 -45.833 -7.66699 -59.5 -23
s-20.5 -35.333 -20.5 -60v-80c0 -25.333 7 -45.666 21 -60.999s35 -23 63 -23zM56.001 364.999l0.000976562 34c0 31.333 8.5 55.666 25.5 72.999s47.167 26 90.5 26s73.5 -8.66699 90.5 -26s25.5 -41.666 25.5 -72.999v-393c0 -4 -2 -6 -6 -6h-2c-4 0 -6 2 -6 6l-2 36
c-35.333 -33.333 -75.333 -50 -120 -50c-34 0 -59.167 9 -75.5 27s-24.5 42 -24.5 72v80c0 29.333 8.16699 53 24.5 71s40.166 27 71.499 27h124v130c0 26.667 -7.33301 47.334 -22 62.001s-40.667 22 -78 22s-63.333 -7.33301 -78 -22s-22 -35.334 -22 -62.001v-34
c0 -4 -2 -6 -6 -6h-4c-4 0 -6 2 -6 6z" />
    <glyph glyph-name="aacute" unicode="&#xe1;" horiz-adv-x="354" 
d="M235 702l-61.999 -125c-0.666992 -2 -2.66699 -3 -6 -3h-7c-2.66699 0 -3.33398 1.66699 -2.00098 5l60 125c0.666992 2.66699 3 4 7 4h7c3.33301 0 4.33301 -2 3 -6zM152.001 7c44.667 0 84.667 17.666 120 52.999v194h-124c-26 0 -45.833 -7.66699 -59.5 -23
s-20.5 -35.333 -20.5 -60v-80c0 -25.333 7 -45.666 21 -60.999s35 -23 63 -23zM56.001 364.999l0.000976562 34c0 31.333 8.5 55.666 25.5 72.999s47.167 26 90.5 26s73.5 -8.66699 90.5 -26s25.5 -41.666 25.5 -72.999v-393c0 -4 -2 -6 -6 -6h-2c-4 0 -6 2 -6 6l-2 36
c-35.333 -33.333 -75.333 -50 -120 -50c-34 0 -59.167 9 -75.5 27s-24.5 42 -24.5 72v80c0 29.333 8.16699 53 24.5 71s40.166 27 71.499 27h124v130c0 26.667 -7.33301 47.334 -22 62.001s-40.667 22 -78 22s-63.333 -7.33301 -78 -22s-22 -35.334 -22 -62.001v-34
c0 -4 -2 -6 -6 -6h-4c-4 0 -6 2 -6 6z" />
    <glyph glyph-name="acircumflex" unicode="&#xe2;" horiz-adv-x="354" 
d="M174 694l-51 -114c-1.33301 -4 -4 -6 -8 -6h-4c-3.33301 0 -4.33301 2 -3 6l54 122c1.33301 4 4 6 8 6h7c4 0 6.66699 -1.66699 8 -5l55 -123c1.33301 -4 0.333008 -6 -3 -6h-4c-3.33301 0 -6 2 -8 6zM152 7c44.667 0 84.667 17.666 120 52.999v194h-124
c-26 0 -45.833 -7.66699 -59.5 -23s-20.5 -35.333 -20.5 -60v-80c0 -25.333 7 -45.666 21 -60.999s35 -23 63 -23zM56 364.999l0.000976562 34c0 31.333 8.5 55.666 25.5 72.999s47.167 26 90.5 26s73.5 -8.66699 90.5 -26s25.5 -41.666 25.5 -72.999v-393c0 -4 -2 -6 -6 -6
h-2c-4 0 -6 2 -6 6l-2 36c-35.333 -33.333 -75.333 -50 -120 -50c-34 0 -59.167 9 -75.5 27s-24.5 42 -24.5 72v80c0 29.333 8.16699 53 24.5 71s40.166 27 71.499 27h124v130c0 26.667 -7.33301 47.334 -22 62.001s-40.667 22 -78 22s-63.333 -7.33301 -78 -22
s-22 -35.334 -22 -62.001v-34c0 -4 -2 -6 -6 -6h-4c-4 0 -6 2 -6 6z" />
    <glyph glyph-name="atilde" unicode="&#xe3;" horiz-adv-x="354" 
d="M220 597c-13.333 0 -26.668 7.66699 -40.001 23l-28 32c-9.33301 10.667 -17.666 16 -24.999 16c-9.33301 0 -15.833 -3.66699 -19.5 -11s-5.5 -22 -5.5 -44v-10c0 -4 -2 -6 -6 -6h-4c-4 0 -6 2 -6 6v10c0 46.667 13.667 70 41 70c12.667 0 25.667 -7.66699 39 -23
l28 -32c10 -10.667 19 -16 27 -16c8.66699 0 14.667 3.66699 18 11s5 22 5 44v10c0 4 2 6 6 6h4c4 0 6 -2 6 -6v-10c0 -26 -3.33301 -44.167 -10 -54.5s-16.667 -15.5 -30 -15.5zM151.998 7c44.667 0 84.667 17.666 120 52.999v194h-124c-26 0 -45.833 -7.66699 -59.5 -23
s-20.5 -35.333 -20.5 -60v-80c0 -25.333 7 -45.666 21 -60.999s35 -23 63 -23zM55.998 364.999l0.000976562 34c0 31.333 8.5 55.666 25.5 72.999s47.167 26 90.5 26s73.5 -8.66699 90.5 -26s25.5 -41.666 25.5 -72.999v-393c0 -4 -2 -6 -6 -6h-2c-4 0 -6 2 -6 6l-2 36
c-35.333 -33.333 -75.333 -50 -120 -50c-34 0 -59.167 9 -75.5 27s-24.5 42 -24.5 72v80c0 29.333 8.16699 53 24.5 71s40.166 27 71.499 27h124v130c0 26.667 -7.33301 47.334 -22 62.001s-40.667 22 -78 22s-63.333 -7.33301 -78 -22s-22 -35.334 -22 -62.001v-34
c0 -4 -2 -6 -6 -6h-4c-4 0 -6 2 -6 6z" />
    <glyph glyph-name="adieresis" unicode="&#xe4;" horiz-adv-x="354" 
d="M212 694v-100c0 -4 -2 -6 -6 -6h-4c-4 0 -6 2 -6 6v100c0 4 2 6 6 6h4c4 0 6 -2 6 -6zM151 694v-100c0 -4 -2 -6 -6 -6h-4c-4 0 -6 2 -6 6v100c0 4 2 6 6 6h4c4 0 6 -2 6 -6zM152 7c44.667 0 84.667 17.666 120 52.999v194h-124c-26 0 -45.833 -7.66699 -59.5 -23
s-20.5 -35.333 -20.5 -60v-80c0 -25.333 7 -45.666 21 -60.999s35 -23 63 -23zM56 364.999l0.000976562 34c0 31.333 8.5 55.666 25.5 72.999s47.167 26 90.5 26s73.5 -8.66699 90.5 -26s25.5 -41.666 25.5 -72.999v-393c0 -4 -2 -6 -6 -6h-2c-4 0 -6 2 -6 6l-2 36
c-35.333 -33.333 -75.333 -50 -120 -50c-34 0 -59.167 9 -75.5 27s-24.5 42 -24.5 72v80c0 29.333 8.16699 53 24.5 71s40.166 27 71.499 27h124v130c0 26.667 -7.33301 47.334 -22 62.001s-40.667 22 -78 22s-63.333 -7.33301 -78 -22s-22 -35.334 -22 -62.001v-34
c0 -4 -2 -6 -6 -6h-4c-4 0 -6 2 -6 6z" />
    <glyph glyph-name="aring" unicode="&#xe5;" horiz-adv-x="354" 
d="M236 640v-7c0 -48 -20.333 -72 -61 -72c-41.333 0 -62 24 -62 72v7c0 48 20.667 72 62 72c40.667 0 61 -24 61 -72zM221 633v7c0 38.667 -15.333 58 -46 58c-31.333 0 -47 -19.333 -47 -58v-7c0 -38.667 15.667 -58 47 -58c30.667 0 46 19.333 46 58zM152 7
c44.667 0 84.667 17.666 120 52.999v194h-124c-26 0 -45.833 -7.66699 -59.5 -23s-20.5 -35.333 -20.5 -60v-80c0 -25.333 7 -45.666 21 -60.999s35 -23 63 -23zM56 364.999l0.000976562 34c0 31.333 8.5 55.666 25.5 72.999s47.167 26 90.5 26s73.5 -8.66699 90.5 -26
s25.5 -41.666 25.5 -72.999v-393c0 -4 -2 -6 -6 -6h-2c-4 0 -6 2 -6 6l-2 36c-35.333 -33.333 -75.333 -50 -120 -50c-34 0 -59.167 9 -75.5 27s-24.5 42 -24.5 72v80c0 29.333 8.16699 53 24.5 71s40.166 27 71.499 27h124v130c0 26.667 -7.33301 47.334 -22 62.001
s-40.667 22 -78 22s-63.333 -7.33301 -78 -22s-22 -35.334 -22 -62.001v-34c0 -4 -2 -6 -6 -6h-4c-4 0 -6 2 -6 6z" />
    <glyph glyph-name="ae" unicode="&#xe6;" horiz-adv-x="565" 
d="M509 399l0.000976562 -138.998c0 -4 -2 -6 -6 -6h-215v-180c0 -44.667 34.333 -67 103 -67c68 0 102 25.667 102 77v49c0 4 2 6 6 6h4c4 0 6 -2 6 -6v-49c0 -61.333 -39.333 -92 -118 -92c-69.333 0 -108.333 20 -117 60c-37.333 -40 -78 -60 -122 -60
c-34 0 -59.167 8.33301 -75.5 25s-24.5 39 -24.5 67v87c0 29.333 8.16699 53 24.5 71s40.166 27 71.499 27h124v133c0 54 -33.333 81 -100 81c-37.333 0 -63.333 -7.33301 -78 -22s-22 -35.334 -22 -62.001v-34c0 -4 -2 -6 -6 -6h-4c-4 0 -6 2 -6 6v34
c0 31.333 8.5 55.666 25.5 72.999s47.167 26 90.5 26c58.667 0 94.667 -18 108 -54c14 36 51 54 111 54c78.667 0 118 -33 118 -99zM288.001 399.002v-130h205v130c0 56 -34 84 -102 84c-68.667 0 -103 -28 -103 -84zM152.001 7.00195c44 0 84 21 120 63v184h-124
c-26 0 -45.833 -7.66699 -59.5 -23s-20.5 -35.333 -20.5 -60v-87c0 -22.667 7 -41.167 21 -55.5s35 -21.5 63 -21.5z" />
    <glyph glyph-name="ccedilla" unicode="&#xe7;" horiz-adv-x="339" 
d="M257 -133c0 -28 -7.99902 -47.999 -23.999 -59.999s-33.667 -18 -53 -18h-71c-4 0 -6 2 -6 6v4c0 4 2 6 6 6h71c14 0 27.5 4.83301 40.5 14.5s19.5 25.5 19.5 47.5c0 22.667 -6 38.5 -18 47.5s-25 13.5 -39 13.5h-27c-6 0 -8.33301 2.66699 -7 8l14 56
c-38.667 2.66699 -65.334 12.667 -80.001 30s-22 41.333 -22 72v302c0 32.667 8.33301 57.834 25 75.501s47 26.5 91 26.5s74.5 -8.83301 91.5 -26.5s25.5 -42.834 25.5 -75.501v-31c0 -4 -2 -6 -6 -6h-4c-4 0 -6 2 -6 6v31c0 28 -7.16699 49.5 -21.5 64.5
s-40.833 22.5 -79.5 22.5s-65 -7.5 -79 -22.5s-21 -36.5 -21 -64.5v-302c0 -28 7 -49.5 21 -64.5s40.333 -22.5 79 -22.5c39.333 0 66 7.5 80 22.5s21 36.5 21 64.5v39c0 4 2 6 6 6h4c4 0 6 -2 6 -6v-39c0 -32.667 -8.5 -57.834 -25.5 -75.501s-47.167 -26.5 -90.5 -26.5
l-12 -48h17c19.333 0 36.5 -5.83301 51.5 -17.5s22.5 -31.5 22.5 -59.5z" />
    <glyph glyph-name="egrave" unicode="&#xe8;" horiz-adv-x="354" 
d="M176 577l-61.999 125c-1.33301 4 -0.333008 6 3 6h7c4 0 6.33301 -1.33301 7 -4l60 -125c1.33301 -3.33301 0.666016 -5 -2.00098 -5h-7c-2.66699 0 -4.66699 1 -6 3zM298.001 399v-138.998c0 -4 -2 -6 -6 -6h-215v-163c0 -56 34.333 -84 103 -84c68 0 102 28 102 84v42
c0 4 2 6 6 6h4c4 0 6 -2 6 -6v-42c0 -66 -39.333 -99 -118 -99c-43.333 0 -74 8.66699 -92 26s-27 41.666 -27 72.999v308c0 31.333 9 55.666 27 72.999s48.667 26 92 26c78.667 0 118 -33 118 -99zM77.001 399.002v-130h205v130c0 56 -34 84 -102 84
c-68.667 0 -103 -28 -103 -84z" />
    <glyph glyph-name="eacute" unicode="&#xe9;" horiz-adv-x="354" 
d="M246 702l-61.999 -125c-1.33301 -2 -3.33301 -3 -6 -3h-7c-2.66699 0 -3.33398 1.66699 -2.00098 5l60 125c0.666992 2.66699 3 4 7 4h7c3.33301 0 4.33301 -2 3 -6zM298.001 399v-138.998c0 -4 -2 -6 -6 -6h-215v-163c0 -56 34.333 -84 103 -84c68 0 102 28 102 84v42
c0 4 2 6 6 6h4c4 0 6 -2 6 -6v-42c0 -66 -39.333 -99 -118 -99c-43.333 0 -74 8.66699 -92 26s-27 41.666 -27 72.999v308c0 31.333 9 55.666 27 72.999s48.667 26 92 26c78.667 0 118 -33 118 -99zM77.001 399.002v-130h205v130c0 56 -34 84 -102 84
c-68.667 0 -103 -28 -103 -84z" />
    <glyph glyph-name="ecircumflex" unicode="&#xea;" horiz-adv-x="354" 
d="M180 694l-51 -114c-1.33301 -4 -4 -6 -8 -6h-4c-3.33301 0 -4.33301 2 -3 6l54 122c1.33301 4 4 6 8 6h7c4 0 6.66699 -1.66699 8 -5l55 -123c1.33301 -4 0.333008 -6 -3 -6h-4c-3.33301 0 -6 2 -8 6zM298 399v-138.998c0 -4 -2 -6 -6 -6h-215v-163
c0 -56 34.333 -84 103 -84c68 0 102 28 102 84v42c0 4 2 6 6 6h4c4 0 6 -2 6 -6v-42c0 -66 -39.333 -99 -118 -99c-43.333 0 -74 8.66699 -92 26s-27 41.666 -27 72.999v308c0 31.333 9 55.666 27 72.999s48.667 26 92 26c78.667 0 118 -33 118 -99zM77 399.002v-130h205
v130c0 56 -34 84 -102 84c-68.667 0 -103 -28 -103 -84z" />
    <glyph glyph-name="edieresis" unicode="&#xeb;" horiz-adv-x="354" 
d="M217 694v-100c0 -4 -2 -6 -6 -6h-4c-4 0 -6 2 -6 6v100c0 4 2 6 6 6h4c4 0 6 -2 6 -6zM156 694v-100c0 -4 -2 -6 -6 -6h-4c-4 0 -6 2 -6 6v100c0 4 2 6 6 6h4c4 0 6 -2 6 -6zM298 399v-138.998c0 -4 -2 -6 -6 -6h-215v-163c0 -56 34.333 -84 103 -84c68 0 102 28 102 84
v42c0 4 2 6 6 6h4c4 0 6 -2 6 -6v-42c0 -66 -39.333 -99 -118 -99c-43.333 0 -74 8.66699 -92 26s-27 41.666 -27 72.999v308c0 31.333 9 55.666 27 72.999s48.667 26 92 26c78.667 0 118 -33 118 -99zM77 399.002v-130h205v130c0 56 -34 84 -102 84
c-68.667 0 -103 -28 -103 -84z" />
    <glyph glyph-name="igrave" unicode="&#xec;" horiz-adv-x="153" 
d="M66 577l-61.999 125c-1.33301 4 -0.333008 6 3 6h7c4 0 6.33301 -1.33301 7 -4l60 -125c1.33301 -3.33301 0.666016 -5 -2.00098 -5h-7c-2.66699 0 -4.66699 1 -6 3zM84.001 484v-478c0 -4 -2 -6 -6 -6h-4c-4 0 -6 2 -6 6v478c0 4 2 6 6 6h4c4 0 6 -2 6 -6z" />
    <glyph glyph-name="iacute" unicode="&#xed;" horiz-adv-x="153" 
d="M146 702l-61.999 -125c-1.33301 -2 -3.33301 -3 -6 -3h-7c-2.66699 0 -3.33398 1.66699 -2.00098 5l60 125c0.666992 2.66699 3 4 7 4h7c3.33301 0 4.33301 -2 3 -6zM84.001 484v-478c0 -4 -2 -6 -6 -6h-4c-4 0 -6 2 -6 6v478c0 4 2 6 6 6h4c4 0 6 -2 6 -6z" />
    <glyph glyph-name="icircumflex" unicode="&#xee;" horiz-adv-x="153" 
d="M76 694l-51 -114c-1.33301 -4 -4 -6 -8 -6h-4c-3.33301 0 -4.33301 2 -3 6l54 122c1.33301 4 4 6 8 6h7c4 0 6.66699 -1.66699 8 -5l55 -123c1.33301 -4 0.333008 -6 -3 -6h-4c-3.33301 0 -6 2 -8 6zM84 484v-478c0 -4 -2 -6 -6 -6h-4c-4 0 -6 2 -6 6v478c0 4 2 6 6 6h4
c4 0 6 -2 6 -6z" />
    <glyph glyph-name="idieresis" unicode="&#xef;" horiz-adv-x="153" 
d="M116 694v-100c0 -4 -2 -6 -6 -6h-4c-4 0 -6 2 -6 6v100c0 4 2 6 6 6h4c4 0 6 -2 6 -6zM55 694v-100c0 -4 -2 -6 -6 -6h-4c-4 0 -6 2 -6 6v100c0 4 2 6 6 6h4c4 0 6 -2 6 -6zM84 484v-478c0 -4 -2 -6 -6 -6h-4c-4 0 -6 2 -6 6v478c0 4 2 6 6 6h4c4 0 6 -2 6 -6z" />
    <glyph glyph-name="eth" unicode="&#xf0;" horiz-adv-x="365" 
d="M197 606l72.001 42.001c-13.333 23.333 -42.333 35 -87 35h-58c-4 0 -6 2 -6 6v3c0 4 2 6 6 6h58c51.333 0 85.333 -13.667 102 -41l39 22c3.33301 2 5.66602 1.33301 6.99902 -2l2 -5c0.666992 -2.66699 -0.666016 -5 -3.99902 -7l-38 -22c5.33301 -12.667 8 -27 8 -43
v-496c0 -35.333 -8.83301 -62.833 -26.5 -82.5s-48.167 -29.5 -91.5 -29.5s-74 8.66699 -92 26s-27 41.666 -27 72.999v308c0 30 7.83301 54 23.5 72s39.167 27 70.5 27c47.333 0 89.666 -17 126.999 -51v153c0 12.667 -2 24 -6 34l-73 -42
c-4 -2.66699 -6.66699 -1.66699 -8 3l-1 3c-1.33301 3.33301 -0.333008 6 3 8zM282.001 104.001l-0.000976562 325.001c-36 36 -78.333 54 -127 54c-25.333 0 -44.666 -7.83301 -57.999 -23.5s-20 -35.834 -20 -60.501v-308c0 -56 34.333 -84 103 -84
c68 0 102 32.333 102 97z" />
    <glyph glyph-name="ntilde" unicode="&#xf1;" horiz-adv-x="372" 
d="M231 597c-13.333 0 -26.668 7.66699 -40.001 23l-28 32c-9.33301 10.667 -17.666 16 -24.999 16c-9.33301 0 -15.833 -3.66699 -19.5 -11s-5.5 -22 -5.5 -44v-10c0 -4 -2 -6 -6 -6h-4c-4 0 -6 2 -6 6v10c0 46.667 13.667 70 41 70c12.667 0 25.667 -7.66699 39 -23
l28 -32c10 -10.667 19 -16 27 -16c8.66699 0 14.667 3.66699 18 11s5 22 5 44v10c0 4 2 6 6 6h4c4 0 6 -2 6 -6v-10c0 -26 -3.33301 -44.167 -10 -54.5s-16.667 -15.5 -30 -15.5zM73.998 490h2c4 0 6 -2 6 -6l1 -37c39.333 34 82 51 128 51
c31.333 0 54.833 -8.33301 70.5 -25s23.5 -39 23.5 -67v-400c0 -4 -2 -6 -6 -6h-4c-4 0 -6 2 -6 6v400c0 22.667 -6.5 41.167 -19.5 55.5s-32.5 21.5 -58.5 21.5c-46.667 0 -89 -18 -127 -54v-423c0 -4 -2 -6 -6 -6h-4c-4 0 -6 2 -6 6v478c0 4 2 6 6 6z" />
    <glyph glyph-name="ograve" unicode="&#xf2;" horiz-adv-x="358" 
d="M168 577l-61.999 125c-1.33301 4 -0.333008 6 3 6h7c4 0 6.33301 -1.33301 7 -4l60 -125c1.33301 -3.33301 0.666016 -5 -2.00098 -5h-7c-2.66699 0 -4.66699 1 -6 3zM61.001 94v302c0 32 8.83301 57 26.5 75s48.167 27 91.5 27s73.833 -9 91.5 -27s26.5 -43 26.5 -75
v-302c0 -32 -8.83301 -57 -26.5 -75s-48.167 -27 -91.5 -27s-73.833 9 -91.5 27s-26.5 43 -26.5 75zM281.001 94v302c0 58 -34 87 -102 87s-102 -29 -102 -87v-302c0 -58 34 -87 102 -87s102 29 102 87z" />
    <glyph glyph-name="oacute" unicode="&#xf3;" horiz-adv-x="358" 
d="M243 702l-61.999 -125c-0.666992 -2 -2.66699 -3 -6 -3h-7c-2.66699 0 -3.33398 1.66699 -2.00098 5l60 125c0.666992 2.66699 3 4 7 4h7c3.33301 0 4.33301 -2 3 -6zM61.001 94v302c0 32 8.83301 57 26.5 75s48.167 27 91.5 27s73.833 -9 91.5 -27s26.5 -43 26.5 -75
v-302c0 -32 -8.83301 -57 -26.5 -75s-48.167 -27 -91.5 -27s-73.833 9 -91.5 27s-26.5 43 -26.5 75zM281.001 94v302c0 58 -34 87 -102 87s-102 -29 -102 -87v-302c0 -58 34 -87 102 -87s102 29 102 87z" />
    <glyph glyph-name="ocircumflex" unicode="&#xf4;" horiz-adv-x="358" 
d="M178 694l-51 -114c-1.33301 -4 -4 -6 -8 -6h-4c-3.33301 0 -4.33301 2 -3 6l54 122c1.33301 4 4 6 8 6h7c4 0 6.66699 -1.66699 8 -5l55 -123c1.33301 -4 0.333008 -6 -3 -6h-4c-3.33301 0 -6 2 -8 6zM61 94v302c0 32 8.83301 57 26.5 75s48.167 27 91.5 27
s73.833 -9 91.5 -27s26.5 -43 26.5 -75v-302c0 -32 -8.83301 -57 -26.5 -75s-48.167 -27 -91.5 -27s-73.833 9 -91.5 27s-26.5 43 -26.5 75zM281 94v302c0 58 -34 87 -102 87s-102 -29 -102 -87v-302c0 -58 34 -87 102 -87s102 29 102 87z" />
    <glyph glyph-name="otilde" unicode="&#xf5;" horiz-adv-x="358" 
d="M224 597c-13.333 0 -26.668 7.66699 -40.001 23l-28 32c-9.33301 10.667 -17.666 16 -24.999 16c-9.33301 0 -15.833 -3.66699 -19.5 -11s-5.5 -22 -5.5 -44v-10c0 -4 -2 -6 -6 -6h-4c-4 0 -6 2 -6 6v10c0 46.667 13.667 70 41 70c12.667 0 25.667 -7.66699 39 -23
l28 -32c10 -10.667 19 -16 27 -16c8.66699 0 14.667 3.66699 18 11s5 22 5 44v10c0 4 2 6 6 6h4c4 0 6 -2 6 -6v-10c0 -26 -3.33301 -44.167 -10 -54.5s-16.667 -15.5 -30 -15.5zM60.998 94v302c0 32 8.83301 57 26.5 75s48.167 27 91.5 27s73.833 -9 91.5 -27
s26.5 -43 26.5 -75v-302c0 -32 -8.83301 -57 -26.5 -75s-48.167 -27 -91.5 -27s-73.833 9 -91.5 27s-26.5 43 -26.5 75zM280.998 94v302c0 58 -34 87 -102 87s-102 -29 -102 -87v-302c0 -58 34 -87 102 -87s102 29 102 87z" />
    <glyph glyph-name="odieresis" unicode="&#xf6;" horiz-adv-x="358" 
d="M218 694v-100c0 -4 -2 -6 -6 -6h-4c-4 0 -6 2 -6 6v100c0 4 2 6 6 6h4c4 0 6 -2 6 -6zM157 694v-100c0 -4 -2 -6 -6 -6h-4c-4 0 -6 2 -6 6v100c0 4 2 6 6 6h4c4 0 6 -2 6 -6zM61 94v302c0 32 8.83301 57 26.5 75s48.167 27 91.5 27s73.833 -9 91.5 -27s26.5 -43 26.5 -75
v-302c0 -32 -8.83301 -57 -26.5 -75s-48.167 -27 -91.5 -27s-73.833 9 -91.5 27s-26.5 43 -26.5 75zM281 94v302c0 58 -34 87 -102 87s-102 -29 -102 -87v-302c0 -58 34 -87 102 -87s102 29 102 87z" />
    <glyph glyph-name="divide" unicode="&#xf7;" horiz-adv-x="419" 
d="M217 536v-75c0 -4 -2 -6 -6 -6h-4c-4 0 -6 2 -6 6v75c0 4 2 6 6 6h4c4 0 6 -2 6 -6zM70 347h278c4 0 6 -1.66699 6 -5v-4c0 -4 -2 -6 -6 -6h-277c-4 0 -6 2 -6 6v3c0 4 1.66699 6 5 6zM217 220v-75c0 -4 -2 -6 -6 -6h-4c-4 0 -6 2 -6 6v75c0 4 2 6 6 6h4c4 0 6 -2 6 -6z
" />
    <glyph glyph-name="oslash" unicode="&#xf8;" horiz-adv-x="358" 
d="M77 94c0 -20 3.66699 -36 11 -48l172 412c-16.667 16.667 -43.667 25 -81 25c-68 0 -102 -29 -102 -87v-302zM179 7c68 0 102 29 102 87v302c0 20.667 -3.66699 37 -11 49l-172 -413c16.667 -16.667 43.667 -25 81 -25zM71 -22h-5.00195c-4 0 -5.33301 2 -4 6l18 43
c-12.667 16 -19 38.333 -19 67v302c0 32 8.83301 57 26.5 75s48.167 27 91.5 27c38.667 0 68 -8 88 -24l14 35c2 4 4.66699 6 8 6h4c3.33301 0 4.33301 -2 3 -6l-19 -45c13.333 -16 20 -38.667 20 -68v-302c0 -32 -8.83301 -57 -26.5 -75s-48.167 -27 -91.5 -27
c-39.333 0 -68.666 8 -87.999 24l-13 -32c-1.33301 -4 -3.66602 -6 -6.99902 -6z" />
    <glyph glyph-name="ugrave" unicode="&#xf9;" horiz-adv-x="368" 
d="M181 577l-61.999 125c-1.33301 4 -0.333008 6 3 6h7c4 0 6.33301 -1.33301 7 -4l60 -125c1.33301 -3.33301 0.666016 -5 -2.00098 -5h-7c-3.33301 0 -5.33301 1 -6 3zM285.001 6l-1 36c-38.667 -33.333 -80 -50 -124 -50c-31.333 0 -54.833 8.33301 -70.5 25
s-23.5 39 -23.5 67v400c0 4 2 6 6 6h4c4 0 6 -2 6 -6v-400c0 -22.667 6.5 -41.167 19.5 -55.5s32.5 -21.5 58.5 -21.5c46.667 0 87.667 17.667 123 53v424c0 4 2 6 6 6h4c4 0 6 -2 6 -6v-478c0 -4 -2 -6 -6 -6h-2c-4 0 -6 2 -6 6z" />
    <glyph glyph-name="uacute" unicode="&#xfa;" horiz-adv-x="368" 
d="M251 702l-61.999 -125c-0.666992 -2 -2.66699 -3 -6 -3h-7c-2.66699 0 -3.33398 1.66699 -2.00098 5l60 125c0.666992 2.66699 3 4 7 4h7c3.33301 0 4.33301 -2 3 -6zM285.001 6l-1 36c-38.667 -33.333 -80 -50 -124 -50c-31.333 0 -54.833 8.33301 -70.5 25
s-23.5 39 -23.5 67v400c0 4 2 6 6 6h4c4 0 6 -2 6 -6v-400c0 -22.667 6.5 -41.167 19.5 -55.5s32.5 -21.5 58.5 -21.5c46.667 0 87.667 17.667 123 53v424c0 4 2 6 6 6h4c4 0 6 -2 6 -6v-478c0 -4 -2 -6 -6 -6h-2c-4 0 -6 2 -6 6z" />
    <glyph glyph-name="ucircumflex" unicode="&#xfb;" horiz-adv-x="368" 
d="M186 694l-51 -114c-1.33301 -4 -4 -6 -8 -6h-4c-3.33301 0 -4.33301 2 -3 6l54 122c1.33301 4 4 6 8 6h7c4 0 6.66699 -1.66699 8 -5l55 -123c1.33301 -4 0.333008 -6 -3 -6h-4c-3.33301 0 -6 2 -8 6zM285 6l-1 36c-38.667 -33.333 -80 -50 -124 -50
c-31.333 0 -54.833 8.33301 -70.5 25s-23.5 39 -23.5 67v400c0 4 2 6 6 6h4c4 0 6 -2 6 -6v-400c0 -22.667 6.5 -41.167 19.5 -55.5s32.5 -21.5 58.5 -21.5c46.667 0 87.667 17.667 123 53v424c0 4 2 6 6 6h4c4 0 6 -2 6 -6v-478c0 -4 -2 -6 -6 -6h-2c-4 0 -6 2 -6 6z" />
    <glyph glyph-name="udieresis" unicode="&#xfc;" horiz-adv-x="368" 
d="M224 694v-100c0 -4 -2 -6 -6 -6h-4c-4 0 -6 2 -6 6v100c0 4 2 6 6 6h4c4 0 6 -2 6 -6zM163 694v-100c0 -4 -2 -6 -6 -6h-4c-4 0 -6 2 -6 6v100c0 4 2 6 6 6h4c4 0 6 -2 6 -6zM285 6l-1 36c-38.667 -33.333 -80 -50 -124 -50c-31.333 0 -54.833 8.33301 -70.5 25
s-23.5 39 -23.5 67v400c0 4 2 6 6 6h4c4 0 6 -2 6 -6v-400c0 -22.667 6.5 -41.167 19.5 -55.5s32.5 -21.5 58.5 -21.5c46.667 0 87.667 17.667 123 53v424c0 4 2 6 6 6h4c4 0 6 -2 6 -6v-478c0 -4 -2 -6 -6 -6h-2c-4 0 -6 2 -6 6z" />
    <glyph glyph-name="yacute" unicode="&#xfd;" horiz-adv-x="304" 
d="M229 702l-61.999 -125c-0.666992 -2 -2.66699 -3 -6 -3h-7c-2.66699 0 -3.33398 1.66699 -2.00098 5l60 125c0.666992 2.66699 3 4 7 4h7c3.33301 0 4.33301 -2 3 -6zM43.001 484l103.001 -421c4.66699 -19.333 7.33398 -31.333 8.00098 -36c0 4 2.33301 16 7 36l100 421
c0.666992 4 2.66699 6 6 6h6c3.33301 0 4.66602 -2 3.99902 -6l-163 -676c-1.33301 -4 -3.33301 -6 -6 -6h-6c-4 0 -5.33301 2 -4 6l47 193l-118 483c-0.666992 4 0.666016 6 3.99902 6h6c3.33301 0 5.33301 -2 6 -6z" />
    <glyph glyph-name="thorn" unicode="&#xfe;" horiz-adv-x="366" 
d="M289 84v322c0 22.667 -6.5 41.167 -19.5 55.5s-32.5 21.5 -58.5 21.5c-46.667 0 -89 -18 -127 -54v-369c40 -35.333 82.333 -53 127 -53c26 0 45.5 7.16699 58.5 21.5s19.5 32.833 19.5 55.5zM84 688v-240c36.667 33.333 79 50 127 50c30.667 0 54 -8.33301 70 -25
s24 -39 24 -67v-322c0 -28 -8 -50.333 -24 -67s-39.333 -25 -70 -25c-48 0 -90.333 16.667 -127 50v-234c0 -4 -2 -6 -6 -6h-4c-4 0 -6 2 -6 6v880c0 4 2 6 6 6h4c4 0 6 -2 6 -6z" />
    <glyph glyph-name="ydieresis" unicode="&#xff;" horiz-adv-x="304" 
d="M194 694v-100c0 -4 -2 -6 -6 -6h-4c-4 0 -6 2 -6 6v100c0 4 2 6 6 6h4c4 0 6 -2 6 -6zM133 694v-100c0 -4 -2 -6 -6 -6h-4c-4 0 -6 2 -6 6v100c0 4 2 6 6 6h4c4 0 6 -2 6 -6zM43 484l103.001 -421c4.66699 -19.333 7.33398 -31.333 8.00098 -36c0 4 2.33301 16 7 36
l100 421c0.666992 4 2.66699 6 6 6h6c3.33301 0 4.66602 -2 3.99902 -6l-163 -676c-1.33301 -4 -3.33301 -6 -6 -6h-6c-4 0 -5.33301 2 -4 6l47 193l-118 483c-0.666992 4 0.666016 6 3.99902 6h6c3.33301 0 5.33301 -2 6 -6z" />
    <glyph glyph-name="Amacron" unicode="&#x100;" horiz-adv-x="379" 
d="M94 807h191c4 0 6 -2 6 -6v-3c0 -4 -2 -6 -6 -6h-191c-4 0 -6 2 -6 6v3c0 4 2 6 6 6zM283 247l-79 340c-8 36 -12.667 59.333 -14 70c-4 -20 -9 -43 -15 -69l-79 -341h187zM187 680h4.99805c4 0 6.66699 -2 8 -6l155 -668c0.666992 -4 -1 -6 -5 -6h-4
c-4 0 -6.33301 2 -7 6l-52 226h-195l-52 -226c-1.33301 -4 -3.66602 -6 -6.99902 -6h-4c-4 0 -5.66699 2 -5 6l155 668c0.666992 4 3.33398 6 8.00098 6z" />
    <glyph glyph-name="amacron" unicode="&#x101;" horiz-adv-x="354" 
d="M80 634h191c4 0 6 -2 6 -6v-3c0 -4 -2 -6 -6 -6h-191c-4 0 -6 2 -6 6v3c0 4 2 6 6 6zM152 7c44.667 0 84.667 17.666 120 52.999v194h-124c-26 0 -45.833 -7.66699 -59.5 -23s-20.5 -35.333 -20.5 -60v-80c0 -25.333 7 -45.666 21 -60.999s35 -23 63 -23zM56 364.999
l0.000976562 34c0 31.333 8.5 55.666 25.5 72.999s47.167 26 90.5 26s73.5 -8.66699 90.5 -26s25.5 -41.666 25.5 -72.999v-393c0 -4 -2 -6 -6 -6h-2c-4 0 -6 2 -6 6l-2 36c-35.333 -33.333 -75.333 -50 -120 -50c-34 0 -59.167 9 -75.5 27s-24.5 42 -24.5 72v80
c0 29.333 8.16699 53 24.5 71s40.166 27 71.499 27h124v130c0 26.667 -7.33301 47.334 -22 62.001s-40.667 22 -78 22s-63.333 -7.33301 -78 -22s-22 -35.334 -22 -62.001v-34c0 -4 -2 -6 -6 -6h-4c-4 0 -6 2 -6 6z" />
    <glyph glyph-name="Abreve" unicode="&#x102;" horiz-adv-x="379" 
d="M128 872v-17.999c0 -28.667 4.16699 -50.334 12.5 -65.001s25.166 -22 50.499 -22c24.667 0 41.334 7.5 50.001 22.5s13 36.5 13 64.5v18c0 4 2 6 6 6h4c4 0 6 -2 6 -6v-18c0 -33.333 -5.5 -58.666 -16.5 -75.999s-31.833 -26 -62.5 -26
c-31.333 0 -52.333 8.66699 -63 26s-16 42.666 -16 75.999v18c0 4 2 6 6 6h4c4 0 6 -2 6 -6zM283 247.001l-79 340c-8 36 -12.667 59.333 -14 70c-4 -20 -9 -43 -15 -69l-79 -341h187zM187 680.001h4.99805c4 0 6.66699 -2 8 -6l155 -668c0.666992 -4 -1 -6 -5 -6h-4
c-4 0 -6.33301 2 -7 6l-52 226h-195l-52 -226c-1.33301 -4 -3.66602 -6 -6.99902 -6h-4c-4 0 -5.66699 2 -5 6l155 668c0.666992 4 3.33398 6 8.00098 6z" />
    <glyph glyph-name="abreve" unicode="&#x103;" horiz-adv-x="354" 
d="M111 682v-17.999c0 -28.667 4.16699 -50.334 12.5 -65.001s25.166 -22 50.499 -22c24.667 0 41.334 7.5 50.001 22.5s13 36.5 13 64.5v18c0 4 2 6 6 6h4c4 0 6 -2 6 -6v-18c0 -33.333 -5.5 -58.666 -16.5 -75.999s-31.833 -26 -62.5 -26
c-31.333 0 -52.333 8.66699 -63 26s-16 42.666 -16 75.999v18c0 4 2 6 6 6h4c4 0 6 -2 6 -6zM152 7.00098c44.667 0 84.667 17.666 120 52.999v194h-124c-26 0 -45.833 -7.66699 -59.5 -23s-20.5 -35.333 -20.5 -60v-80c0 -25.333 7 -45.666 21 -60.999s35 -23 63 -23z
M56 365l0.000976562 34c0 31.333 8.5 55.666 25.5 72.999s47.167 26 90.5 26s73.5 -8.66699 90.5 -26s25.5 -41.666 25.5 -72.999v-393c0 -4 -2 -6 -6 -6h-2c-4 0 -6 2 -6 6l-2 36c-35.333 -33.333 -75.333 -50 -120 -50c-34 0 -59.167 9 -75.5 27s-24.5 42 -24.5 72v80
c0 29.333 8.16699 53 24.5 71s40.166 27 71.499 27h124v130c0 26.667 -7.33301 47.334 -22 62.001s-40.667 22 -78 22s-63.333 -7.33301 -78 -22s-22 -35.334 -22 -62.001v-34c0 -4 -2 -6 -6 -6h-4c-4 0 -6 2 -6 6z" />
    <glyph glyph-name="Aogonek" unicode="&#x104;" horiz-adv-x="380" 
d="M188 680l4.99902 -0.000976562c4.66699 0 7.33398 -2 8.00098 -6l155 -668c1.33301 -4 -0.333984 -6 -5.00098 -6h-1c-20 -8 -34.833 -19.833 -44.5 -35.5s-14.5 -30.5 -14.5 -44.5c0 -29.333 15.333 -44 46 -44h9c4 0 6 -2 6 -6v-3c0 -4 -2 -6 -6 -6h-9
c-41.333 0 -62 20 -62 60c0 15.333 5.33301 31.333 16 48s26.667 30.334 48 41.001l-52 222h-194l-53 -226c-1.33301 -4 -3.66602 -6 -6.99902 -6h-4c-4 0 -5.66699 2 -5 6l156 668c1.33301 4 4 6 8 6zM283.999 246.999l-78.999 340c-8.66699 38 -13.667 61.333 -15 70
c-2.66699 -16.667 -7.33398 -39.667 -14.001 -69l-80 -341h188z" />
    <glyph glyph-name="aogonek" unicode="&#x105;" horiz-adv-x="354" 
d="M56 365l0.000976562 34c0 31.333 8.5 55.666 25.5 72.999s47.167 26 90.5 26s73.5 -8.66699 90.5 -26s25.5 -41.666 25.5 -72.999v-393c0 -4 -2 -6 -6 -6h-1c-38.667 -22 -58 -50.667 -58 -86c0 -25.333 15.333 -38 46 -38h9c4 0 6 -2 6 -6v-3c0 -4 -2 -6 -6 -6h-9
c-41.333 0 -62 18 -62 54c0 34.667 22.333 67 67 97l-2 30c-35.333 -33.333 -75.333 -50 -120 -50c-34 0 -59.167 9 -75.5 27s-24.5 42 -24.5 72v80c0 29.333 8.16699 53 24.5 71s40.166 27 71.499 27h124v130c0 26.667 -7.33301 47.334 -22 62.001s-40.667 22 -78 22
s-63.333 -7.33301 -78 -22s-22 -35.334 -22 -62.001v-34c0 -4 -2 -6 -6 -6h-4c-4 0 -6 2 -6 6zM152.001 7c44.667 0 84.667 17.666 120 52.999v194h-124c-26 0 -45.833 -7.66699 -59.5 -23s-20.5 -35.333 -20.5 -60v-80c0 -25.333 7 -45.666 21 -60.999s35 -23 63 -23z" />
    <glyph glyph-name="Cacute" unicode="&#x106;" horiz-adv-x="389" 
d="M269 872l-61 -125c-1.33301 -2 -3.33301 -3 -6 -3h-7c-3.33301 0 -4 1.66699 -2 5l59 125c2 2.66699 4.33301 4 7 4h7c4.66699 0 5.66699 -2 3 -6zM344 188v-78c0 -37.333 -10.167 -66.333 -30.5 -87s-56.166 -31 -107.499 -31c-50.667 0 -86.167 10.333 -106.5 31
s-30.5 49.667 -30.5 87v460c0 37.333 10.167 66.333 30.5 87s55.833 31 106.5 31c51.333 0 87.166 -10.333 107.499 -31s30.5 -49.667 30.5 -87v-67c0 -4 -2 -6 -6 -6h-4c-4 0 -6 2 -6 6v67c0 32 -9 57.167 -27 75.5s-49.667 27.5 -95 27.5
c-44.667 0 -76 -9.16699 -94 -27.5s-27 -43.5 -27 -75.5v-460c0 -32 9 -57.167 27 -75.5s49.333 -27.5 94 -27.5c45.333 0 77 9.16699 95 27.5s27 43.5 27 75.5v78c0 4 2 6 6 6h4c4 0 6 -2 6 -6z" />
    <glyph glyph-name="cacute" unicode="&#x107;" horiz-adv-x="339" 
d="M243 702l-61.999 -125c-0.666992 -2 -2.66699 -3 -6 -3h-7c-2.66699 0 -3.33398 1.66699 -2.00098 5l60 125c0.666992 2.66699 3 4 7 4h7c3.33301 0 4.33301 -2 3 -6zM177.001 498c44 0 74.499 -8.83301 91.499 -26.5s25.5 -42.834 25.5 -75.501v-31c0 -4 -2 -6 -6 -6h-4
c-4 0 -6 2 -6 6v31c0 28 -7.16699 49.5 -21.5 64.5s-40.833 22.5 -79.5 22.5s-65 -7.5 -79 -22.5s-21 -36.5 -21 -64.5v-302c0 -28 7 -49.5 21 -64.5s40.333 -22.5 79 -22.5c39.333 0 66 7.5 80 22.5s21 36.5 21 64.5v39c0 4 2 6 6 6h4c4 0 6 -2 6 -6v-39
c0 -32.667 -8.66699 -57.834 -26 -75.501s-47.666 -26.5 -90.999 -26.5c-44 0 -74.333 8.83301 -91 26.5s-25 42.834 -25 75.501v302c0 32.667 8.33301 57.834 25 75.501s47 26.5 91 26.5z" />
    <glyph glyph-name="Ccircumflex" unicode="&#x108;" horiz-adv-x="389" 
d="M196 864l-51 -114c-1.33301 -4 -4 -6 -8 -6h-4c-3.33301 0 -4.33301 2 -3 6l54 122c1.33301 4 4 6 8 6h7c4 0 6.66699 -1.66699 8 -5l55 -123c1.33301 -4 0.333008 -6 -3 -6h-4c-3.33301 0 -6 2 -8 6zM344 188v-78c0 -37.333 -10.167 -66.333 -30.5 -87
s-56.166 -31 -107.499 -31c-50.667 0 -86.167 10.333 -106.5 31s-30.5 49.667 -30.5 87v460c0 37.333 10.167 66.333 30.5 87s55.833 31 106.5 31c51.333 0 87.166 -10.333 107.499 -31s30.5 -49.667 30.5 -87v-67c0 -4 -2 -6 -6 -6h-4c-4 0 -6 2 -6 6v67
c0 32 -9 57.167 -27 75.5s-49.667 27.5 -95 27.5c-44.667 0 -76 -9.16699 -94 -27.5s-27 -43.5 -27 -75.5v-460c0 -32 9 -57.167 27 -75.5s49.333 -27.5 94 -27.5c45.333 0 77 9.16699 95 27.5s27 43.5 27 75.5v78c0 4 2 6 6 6h4c4 0 6 -2 6 -6z" />
    <glyph glyph-name="ccircumflex" unicode="&#x109;" horiz-adv-x="339" 
d="M172 694l-51 -114c-1.33301 -4 -4 -6 -8 -6h-4c-3.33301 0 -4.33301 2 -3 6l54 122c1.33301 4 4 6 8 6h7c4 0 6.66699 -1.66699 8 -5l55 -123c1.33301 -4 0.333008 -6 -3 -6h-4c-3.33301 0 -6 2 -8 6zM177 498c44 0 74.499 -8.83301 91.499 -26.5
s25.5 -42.834 25.5 -75.501v-31c0 -4 -2 -6 -6 -6h-4c-4 0 -6 2 -6 6v31c0 28 -7.16699 49.5 -21.5 64.5s-40.833 22.5 -79.5 22.5s-65 -7.5 -79 -22.5s-21 -36.5 -21 -64.5v-302c0 -28 7 -49.5 21 -64.5s40.333 -22.5 79 -22.5c39.333 0 66 7.5 80 22.5s21 36.5 21 64.5v39
c0 4 2 6 6 6h4c4 0 6 -2 6 -6v-39c0 -32.667 -8.66699 -57.834 -26 -75.501s-47.666 -26.5 -90.999 -26.5c-44 0 -74.333 8.83301 -91 26.5s-25 42.834 -25 75.501v302c0 32.667 8.33301 57.834 25 75.501s47 26.5 91 26.5z" />
    <glyph glyph-name="Cdotaccent" unicode="&#x10a;" horiz-adv-x="389" 
d="M206 838v-75c0 -4 -2 -6 -6 -6h-4c-4 0 -6 2 -6 6v75c0 4 2 6 6 6h4c4 0 6 -2 6 -6zM344 188v-78c0 -37.333 -10.167 -66.333 -30.5 -87s-56.166 -31 -107.499 -31c-50.667 0 -86.167 10.333 -106.5 31s-30.5 49.667 -30.5 87v460c0 37.333 10.167 66.333 30.5 87
s55.833 31 106.5 31c51.333 0 87.166 -10.333 107.499 -31s30.5 -49.667 30.5 -87v-67c0 -4 -2 -6 -6 -6h-4c-4 0 -6 2 -6 6v67c0 32 -9 57.167 -27 75.5s-49.667 27.5 -95 27.5c-44.667 0 -76 -9.16699 -94 -27.5s-27 -43.5 -27 -75.5v-460c0 -32 9 -57.167 27 -75.5
s49.333 -27.5 94 -27.5c45.333 0 77 9.16699 95 27.5s27 43.5 27 75.5v78c0 4 2 6 6 6h4c4 0 6 -2 6 -6z" />
    <glyph glyph-name="cdotaccent" unicode="&#x10b;" horiz-adv-x="339" 
d="M181 674v-75c0 -4 -2 -6 -6 -6h-4c-4 0 -6 2 -6 6v75c0 4 2 6 6 6h4c4 0 6 -2 6 -6zM177 498c44 0 74.499 -8.83301 91.499 -26.5s25.5 -42.834 25.5 -75.501v-31c0 -4 -2 -6 -6 -6h-4c-4 0 -6 2 -6 6v31c0 28 -7.16699 49.5 -21.5 64.5s-40.833 22.5 -79.5 22.5
s-65 -7.5 -79 -22.5s-21 -36.5 -21 -64.5v-302c0 -28 7 -49.5 21 -64.5s40.333 -22.5 79 -22.5c39.333 0 66 7.5 80 22.5s21 36.5 21 64.5v39c0 4 2 6 6 6h4c4 0 6 -2 6 -6v-39c0 -32.667 -8.66699 -57.834 -26 -75.501s-47.666 -26.5 -90.999 -26.5
c-44 0 -74.333 8.83301 -91 26.5s-25 42.834 -25 75.501v302c0 32.667 8.33301 57.834 25 75.501s47 26.5 91 26.5z" />
    <glyph glyph-name="Ccaron" unicode="&#x10c;" horiz-adv-x="389" 
d="M146 872l51 -114l51 114c2 4 4.66699 6 8 6h4c3.33301 0 4.33301 -2 3 -6l-55 -123c-1.33301 -3.33301 -4 -5 -8 -5h-7c-4 0 -6.66699 2 -8 6l-54 122c-1.33301 4 -0.333008 6 3 6h4c4 0 6.66699 -2 8 -6zM344 188v-78c0 -37.333 -10.167 -66.333 -30.5 -87
s-56.166 -31 -107.499 -31c-50.667 0 -86.167 10.333 -106.5 31s-30.5 49.667 -30.5 87v460c0 37.333 10.167 66.333 30.5 87s55.833 31 106.5 31c51.333 0 87.166 -10.333 107.499 -31s30.5 -49.667 30.5 -87v-67c0 -4 -2 -6 -6 -6h-4c-4 0 -6 2 -6 6v67
c0 32 -9 57.167 -27 75.5s-49.667 27.5 -95 27.5c-44.667 0 -76 -9.16699 -94 -27.5s-27 -43.5 -27 -75.5v-460c0 -32 9 -57.167 27 -75.5s49.333 -27.5 94 -27.5c45.333 0 77 9.16699 95 27.5s27 43.5 27 75.5v78c0 4 2 6 6 6h4c4 0 6 -2 6 -6z" />
    <glyph glyph-name="ccaron" unicode="&#x10d;" horiz-adv-x="339" 
d="M121 702l51 -114l51 114c2 4 4.66699 6 8 6h4c3.33301 0 4.33301 -2 3 -6l-55 -123c-1.33301 -3.33301 -4 -5 -8 -5h-7c-4 0 -6.66699 2 -8 6l-54 122c-1.33301 4 -0.333008 6 3 6h4c4 0 6.66699 -2 8 -6zM177 498c44 0 74.499 -8.83301 91.499 -26.5
s25.5 -42.834 25.5 -75.501v-31c0 -4 -2 -6 -6 -6h-4c-4 0 -6 2 -6 6v31c0 28 -7.16699 49.5 -21.5 64.5s-40.833 22.5 -79.5 22.5s-65 -7.5 -79 -22.5s-21 -36.5 -21 -64.5v-302c0 -28 7 -49.5 21 -64.5s40.333 -22.5 79 -22.5c39.333 0 66 7.5 80 22.5s21 36.5 21 64.5v39
c0 4 2 6 6 6h4c4 0 6 -2 6 -6v-39c0 -32.667 -8.66699 -57.834 -26 -75.501s-47.666 -26.5 -90.999 -26.5c-44 0 -74.333 8.83301 -91 26.5s-25 42.834 -25 75.501v302c0 32.667 8.33301 57.834 25 75.501s47 26.5 91 26.5z" />
    <glyph glyph-name="Dcaron" unicode="&#x10e;" horiz-adv-x="425" 
d="M156 872l51 -114l51 114c2 4 4.66699 6 8 6h4c3.33301 0 4.33301 -2 3 -6l-55 -123c-1.33301 -3.33301 -4 -5 -8 -5h-7c-4 0 -6.66699 2 -8 6l-54 122c-1.33301 4 -0.333008 6 3 6h4c4 0 6.66699 -2 8 -6zM216 0h-132c-4 0 -6 2 -6 6v668c0 4 1.66699 6 5 6h133
c51.333 0 87.5 -10.333 108.5 -31s31.5 -49.667 31.5 -87v-444c0 -37.333 -10.5 -66.333 -31.5 -87s-57.167 -31 -108.5 -31zM216 665h-122v-650h122c46 0 78.167 9.16699 96.5 27.5s27.5 43.5 27.5 75.5v444c0 32 -9.16699 57.167 -27.5 75.5s-50.5 27.5 -96.5 27.5z" />
    <glyph glyph-name="dcaron" unicode="&#x10f;" horiz-adv-x="374" 
d="M369 668l0.00195312 25c0 4 2 6 6 6h4c4 0 6 -2 6 -6v-25c0 -28.667 -9.66699 -63.667 -29 -105c-2.66699 -3.33301 -5.33398 -4.33301 -8.00098 -3l-4 2c-2.66699 1.33301 -3.33398 4 -2.00098 8c1.33301 3.33301 3.5 8.33301 6.5 15s5.16699 11.334 6.5 14.001
s3 6.66699 5 12s3.33301 9.66602 4 12.999l2.5 12.5c1 5 1.66699 10 2 15s0.5 10.5 0.5 16.5zM77.002 406v-322c0 -22.667 6.66699 -41.167 20 -55.5s32.666 -21.5 57.999 -21.5c46.667 0 89 17.667 127 53v369c-36 36 -78.333 54 -127 54
c-25.333 0 -44.666 -7.16699 -57.999 -21.5s-20 -32.833 -20 -55.5zM284.002 6l-0.999023 36c-38.667 -33.333 -81.334 -50 -128.001 -50c-30.667 0 -54 8.33301 -70 25s-24 39 -24 67v322c0 28 8 50.333 24 67s39.333 25 70 25c48 0 90.333 -16.667 127 -50v240
c0 4 2 6 6 6h4c4 0 6 -2 6 -6v-682c0 -4 -2 -6 -6 -6h-2c-4 0 -6 2 -6 6z" />
    <glyph glyph-name="Dcroat" unicode="&#x110;" horiz-adv-x="428" 
d="M219 0h-132c-4 0 -6 2 -6 6v332h-60c-4 0 -6 2 -6 6v3c0 4 2 6 6 6h60v321c0 4 1.66699 6 5 6h133c51.333 0 87.5 -10.333 108.5 -31s31.5 -49.667 31.5 -87v-444c0 -37.333 -10.5 -66.333 -31.5 -87s-57.167 -31 -108.5 -31zM97 15h122c46 0 78.167 9.16699 96.5 27.5
s27.5 43.5 27.5 75.5v444c0 32 -9.16699 57.167 -27.5 75.5s-50.5 27.5 -96.5 27.5h-122v-312h115c4 0 6 -2 6 -6v-3c0 -4 -2 -6 -6 -6h-115v-323z" />
    <glyph glyph-name="dcroat" unicode="&#x111;" horiz-adv-x="366" 
d="M77 406v-322c0 -22.667 6.66699 -41.167 20 -55.5s32.666 -21.5 57.999 -21.5c46.667 0 89 17.667 127 53v369c-36 36 -78.333 54 -127 54c-25.333 0 -44.666 -7.16699 -57.999 -21.5s-20 -32.833 -20 -55.5zM283 42c-38.667 -33.333 -81.333 -50 -128 -50
c-30.667 0 -54 8.33301 -70 25s-24 39 -24 67v322c0 28 8 50.333 24 67s39.333 25 70 25c48 0 90.333 -16.667 127 -50v127h-144c-4 0 -6 2 -6 6v3c0 4 2 6 6 6h144v98c0 4 2 6 6 6h4c4 0 6 -2 6 -6v-98h30c4 0 6 -2 6 -6v-3c0 -4 -2 -6 -6 -6h-30v-569c0 -4 -2 -6 -6 -6h-2
c-4 0 -6 2 -6 6z" />
    <glyph glyph-name="Emacron" unicode="&#x112;" horiz-adv-x="380" 
d="M107 807h191c4 0 6 -2 6 -6v-3c0 -4 -2 -6 -6 -6h-191c-4 0 -6 2 -6 6v3c0 4 2 6 6 6zM335 0h-252c-3.33301 0 -5 2 -5 6v668c0 4 2 6 6 6h242c4 0 6 -2 6 -6v-3c0 -4 -2 -6 -6 -6h-232v-297h218c4 0 6 -2 6 -6v-3c0 -4 -2 -6 -6 -6h-218v-338h241c4 0 6 -2 6 -6v-3
c0 -4 -2 -6 -6 -6z" />
    <glyph glyph-name="emacron" unicode="&#x113;" horiz-adv-x="354" 
d="M82 634h191c4 0 6 -2 6 -6v-3c0 -4 -2 -6 -6 -6h-191c-4 0 -6 2 -6 6v3c0 4 2 6 6 6zM298 399v-138.998c0 -4 -2 -6 -6 -6h-215v-163c0 -56 34.333 -84 103 -84c68 0 102 28 102 84v42c0 4 2 6 6 6h4c4 0 6 -2 6 -6v-42c0 -66 -39.333 -99 -118 -99
c-43.333 0 -74 8.66699 -92 26s-27 41.666 -27 72.999v308c0 31.333 9 55.666 27 72.999s48.667 26 92 26c78.667 0 118 -33 118 -99zM77 399.002v-130h205v130c0 56 -34 84 -102 84c-68.667 0 -103 -28 -103 -84z" />
    <glyph glyph-name="Ebreve" unicode="&#x114;" horiz-adv-x="380" 
d="M140 872v-17.999c0 -28.667 4.16699 -50.334 12.5 -65.001s25.166 -22 50.499 -22c24.667 0 41.334 7.5 50.001 22.5s13 36.5 13 64.5v18c0 4 2 6 6 6h4c4 0 6 -2 6 -6v-18c0 -33.333 -5.5 -58.666 -16.5 -75.999s-31.833 -26 -62.5 -26
c-31.333 0 -52.333 8.66699 -63 26s-16 42.666 -16 75.999v18c0 4 2 6 6 6h4c4 0 6 -2 6 -6zM335 0.000976562h-252c-3.33301 0 -5 2 -5 6v668c0 4 2 6 6 6h242c4 0 6 -2 6 -6v-3c0 -4 -2 -6 -6 -6h-232v-297h218c4 0 6 -2 6 -6v-3c0 -4 -2 -6 -6 -6h-218v-338h241
c4 0 6 -2 6 -6v-3c0 -4 -2 -6 -6 -6z" />
    <glyph glyph-name="ebreve" unicode="&#x115;" horiz-adv-x="354" 
d="M113 682v-17.999c0 -28.667 4.16699 -50.334 12.5 -65.001s25.166 -22 50.499 -22c24.667 0 41.334 7.5 50.001 22.5s13 36.5 13 64.5v18c0 4 2 6 6 6h4c4 0 6 -2 6 -6v-18c0 -33.333 -5.5 -58.666 -16.5 -75.999s-31.833 -26 -62.5 -26
c-31.333 0 -52.333 8.66699 -63 26s-16 42.666 -16 75.999v18c0 4 2 6 6 6h4c4 0 6 -2 6 -6zM298 399.001v-138.998c0 -4 -2 -6 -6 -6h-215v-163c0 -56 34.333 -84 103 -84c68 0 102 28 102 84v42c0 4 2 6 6 6h4c4 0 6 -2 6 -6v-42c0 -66 -39.333 -99 -118 -99
c-43.333 0 -74 8.66699 -92 26s-27 41.666 -27 72.999v308c0 31.333 9 55.666 27 72.999s48.667 26 92 26c78.667 0 118 -33 118 -99zM77 399.003v-130h205v130c0 56 -34 84 -102 84c-68.667 0 -103 -28 -103 -84z" />
    <glyph glyph-name="Edotaccent" unicode="&#x116;" horiz-adv-x="380" 
d="M215 838v-75c0 -4 -2 -6 -6 -6h-4c-4 0 -6 2 -6 6v75c0 4 2 6 6 6h4c4 0 6 -2 6 -6zM335 0h-252c-3.33301 0 -5 2 -5 6v668c0 4 2 6 6 6h242c4 0 6 -2 6 -6v-3c0 -4 -2 -6 -6 -6h-232v-297h218c4 0 6 -2 6 -6v-3c0 -4 -2 -6 -6 -6h-218v-338h241c4 0 6 -2 6 -6v-3
c0 -4 -2 -6 -6 -6z" />
    <glyph glyph-name="edotaccent" unicode="&#x117;" horiz-adv-x="354" 
d="M188 674v-75c0 -4 -2 -6 -6 -6h-4c-4 0 -6 2 -6 6v75c0 4 2 6 6 6h4c4 0 6 -2 6 -6zM298 399v-138.998c0 -4 -2 -6 -6 -6h-215v-163c0 -56 34.333 -84 103 -84c68 0 102 28 102 84v42c0 4 2 6 6 6h4c4 0 6 -2 6 -6v-42c0 -66 -39.333 -99 -118 -99
c-43.333 0 -74 8.66699 -92 26s-27 41.666 -27 72.999v308c0 31.333 9 55.666 27 72.999s48.667 26 92 26c78.667 0 118 -33 118 -99zM77 399.002v-130h205v130c0 56 -34 84 -102 84c-68.667 0 -103 -28 -103 -84z" />
    <glyph glyph-name="Eogonek" unicode="&#x118;" horiz-adv-x="380" 
d="M335 0h-10c-20.667 0 -36.167 -8.5 -46.5 -25.5s-15.5 -34.5 -15.5 -52.5c0 -30.667 15.333 -46 46 -46h12c4 0 6 -2 6 -6v-3c0 -4 -2 -6 -6 -6h-12c-41.333 0 -62 20.667 -62 62c0 14 3.33301 28.5 10 43.5s15.667 26.167 27 33.5h-201c-3.33301 0 -5 2 -5 6v668
c0 4 2 6 6 6h242c4 0 6 -2 6 -6v-3c0 -4 -2 -6 -6 -6h-232v-297h218c4 0 6 -2 6 -6v-3c0 -4 -2 -6 -6 -6h-218v-338h241c4 0 6 -2 6 -6v-3c0 -4 -2 -6 -6 -6z" />
    <glyph glyph-name="eogonek" unicode="&#x119;" horiz-adv-x="354" 
d="M298 399l-0.000976562 -138.998c0 -4 -2 -6 -6 -6h-215v-163c0 -56 34.333 -84 103 -84c68 0 102 28 102 84v42c0 4 2 6 6 6h4c4 0 6 -2 6 -6v-42c0 -34.667 -11.333 -61 -34 -79c-11.333 -9.33301 -21.166 -22 -29.499 -38s-12.5 -31.667 -12.5 -47
c0 -34 17.333 -51 52 -51h12c4 0 6 -2 6 -6v-3c0 -4 -2 -6 -6 -6h-12c-45.333 0 -68 22 -68 66c0 26 8 49.333 24 70c-15.333 -3.33301 -32 -5 -50 -5c-43.333 0 -74 8.66699 -92 26s-27 41.666 -27 72.999v308c0 31.333 9 55.666 27 72.999s48.667 26 92 26
c78.667 0 118 -33 118 -99zM76.999 399.002v-130h205v130c0 56 -34 84 -102 84c-68.667 0 -103 -28 -103 -84z" />
    <glyph glyph-name="Ecaron" unicode="&#x11a;" horiz-adv-x="380" 
d="M151 872l51 -114l51 114c2 4 4.66699 6 8 6h4c3.33301 0 4.33301 -2 3 -6l-55 -123c-1.33301 -3.33301 -4 -5 -8 -5h-7c-4 0 -6.66699 2 -8 6l-54 122c-1.33301 4 -0.333008 6 3 6h4c4 0 6.66699 -2 8 -6zM335 0h-252c-3.33301 0 -5 2 -5 6v668c0 4 2 6 6 6h242
c4 0 6 -2 6 -6v-3c0 -4 -2 -6 -6 -6h-232v-297h218c4 0 6 -2 6 -6v-3c0 -4 -2 -6 -6 -6h-218v-338h241c4 0 6 -2 6 -6v-3c0 -4 -2 -6 -6 -6z" />
    <glyph glyph-name="ecaron" unicode="&#x11b;" horiz-adv-x="354" 
d="M127 702l51 -114l51 114c2 4 4.66699 6 8 6h4c3.33301 0 4.33301 -2 3 -6l-55 -123c-1.33301 -3.33301 -4 -5 -8 -5h-7c-4 0 -6.66699 2 -8 6l-54 122c-1.33301 4 -0.333008 6 3 6h4c4 0 6.66699 -2 8 -6zM298 399v-138.998c0 -4 -2 -6 -6 -6h-215v-163
c0 -56 34.333 -84 103 -84c68 0 102 28 102 84v42c0 4 2 6 6 6h4c4 0 6 -2 6 -6v-42c0 -66 -39.333 -99 -118 -99c-43.333 0 -74 8.66699 -92 26s-27 41.666 -27 72.999v308c0 31.333 9 55.666 27 72.999s48.667 26 92 26c78.667 0 118 -33 118 -99zM77 399.002v-130h205
v130c0 56 -34 84 -102 84c-68.667 0 -103 -28 -103 -84z" />
    <glyph glyph-name="Gcircumflex" unicode="&#x11c;" horiz-adv-x="406" 
d="M203 864l-51 -114c-1.33301 -4 -4 -6 -8 -6h-4c-3.33301 0 -4.33301 2 -3 6l54 122c1.33301 4 4 6 8 6h7c4 0 6.66699 -1.66699 8 -5l55 -123c1.33301 -4 0.333008 -6 -3 -6h-4c-3.33301 0 -6 2 -8 6zM216 301h122c4 0 6 -2 6 -6v-185
c0 -37.333 -10.167 -66.333 -30.5 -87s-56.166 -31 -107.499 -31c-50.667 0 -86.167 10.333 -106.5 31s-30.5 49.667 -30.5 87v460c0 37.333 10.167 66.333 30.5 87s55.833 31 106.5 31c51.333 0 87.166 -10.333 107.499 -31s30.5 -49.667 30.5 -87v-67c0 -4 -2 -6 -6 -6h-4
c-4 0 -6 2 -6 6v67c0 32.667 -9 58 -27 76s-49.667 27 -95 27c-44.667 0 -76 -9 -94 -27s-27 -43.333 -27 -76v-460c0 -32 9 -57.167 27 -75.5s49.333 -27.5 94 -27.5c81.333 0 122 33.667 122 101v178h-112c-4 0 -6 2 -6 6v3c0 4 2 6 6 6z" />
    <glyph glyph-name="gcircumflex" unicode="&#x11d;" horiz-adv-x="366" 
d="M184 694l-51 -114c-1.33301 -4 -4 -6 -8 -6h-4c-3.33301 0 -4.33301 2 -3 6l54 122c1.33301 4 4 6 8 6h7c4 0 6.66699 -1.66699 8 -5l55 -123c1.33301 -4 0.333008 -6 -3 -6h-4c-3.33301 0 -6 2 -8 6zM155 -8c-30.667 0 -54 8.33105 -70 24.998s-24 39 -24 67v322
c0 28 7.83301 50.333 23.5 67s39.167 25 70.5 25c47.333 0 90 -17 128 -51l1 37c0 4 2 6 6 6h2c4 0 6 -2 6 -6v-583c0 -31.333 -8.66699 -55.666 -26 -72.999s-47.333 -26 -90 -26h-94c-4 0 -6 2 -6 6v3c0 4 2 6 6 6h94c38.667 0 65 7.33301 79 22s21 35.334 21 62.001v141
c-36.667 -33.333 -79 -50 -127 -50zM77 405.998l-0.000976562 -322c0 -22 6.5 -40.333 19.5 -55s32.5 -22 58.5 -22c46.667 0 89 17.667 127 53v369c-36 36 -78.333 54 -127 54c-25.333 0 -44.666 -7.16699 -57.999 -21.5s-20 -32.833 -20 -55.5z" />
    <glyph glyph-name="Gbreve" unicode="&#x11e;" horiz-adv-x="406" 
d="M139 872v-17.999c0 -28.667 4.16699 -50.334 12.5 -65.001s25.166 -22 50.499 -22c24.667 0 41.334 7.5 50.001 22.5s13 36.5 13 64.5v18c0 4 2 6 6 6h4c4 0 6 -2 6 -6v-18c0 -33.333 -5.5 -58.666 -16.5 -75.999s-31.833 -26 -62.5 -26
c-31.333 0 -52.333 8.66699 -63 26s-16 42.666 -16 75.999v18c0 4 2 6 6 6h4c4 0 6 -2 6 -6zM216 301.001h122c4 0 6 -2 6 -6v-185c0 -37.333 -10.167 -66.333 -30.5 -87s-56.166 -31 -107.499 -31c-50.667 0 -86.167 10.333 -106.5 31s-30.5 49.667 -30.5 87v460
c0 37.333 10.167 66.333 30.5 87s55.833 31 106.5 31c51.333 0 87.166 -10.333 107.499 -31s30.5 -49.667 30.5 -87v-67c0 -4 -2 -6 -6 -6h-4c-4 0 -6 2 -6 6v67c0 32.667 -9 58 -27 76s-49.667 27 -95 27c-44.667 0 -76 -9 -94 -27s-27 -43.333 -27 -76v-460
c0 -32 9 -57.167 27 -75.5s49.333 -27.5 94 -27.5c81.333 0 122 33.667 122 101v178h-112c-4 0 -6 2 -6 6v3c0 4 2 6 6 6z" />
    <glyph glyph-name="gbreve" unicode="&#x11f;" horiz-adv-x="366" 
d="M118 682v-17.999c0 -28.667 4.16699 -50.334 12.5 -65.001s25.166 -22 50.499 -22c24.667 0 41.334 7.5 50.001 22.5s13 36.5 13 64.5v18c0 4 2 6 6 6h4c4 0 6 -2 6 -6v-18c0 -33.333 -5.5 -58.666 -16.5 -75.999s-31.833 -26 -62.5 -26
c-31.333 0 -52.333 8.66699 -63 26s-16 42.666 -16 75.999v18c0 4 2 6 6 6h4c4 0 6 -2 6 -6zM155 -7.99902c-30.667 0 -54 8.33105 -70 24.998s-24 39 -24 67v322c0 28 7.83301 50.333 23.5 67s39.167 25 70.5 25c47.333 0 90 -17 128 -51l1 37c0 4 2 6 6 6h2c4 0 6 -2 6 -6
v-583c0 -31.333 -8.66699 -55.666 -26 -72.999s-47.333 -26 -90 -26h-94c-4 0 -6 2 -6 6v3c0 4 2 6 6 6h94c38.667 0 65 7.33301 79 22s21 35.334 21 62.001v141c-36.667 -33.333 -79 -50 -127 -50zM77 405.999l-0.000976562 -322c0 -22 6.5 -40.333 19.5 -55
s32.5 -22 58.5 -22c46.667 0 89 17.667 127 53v369c-36 36 -78.333 54 -127 54c-25.333 0 -44.666 -7.16699 -57.999 -21.5s-20 -32.833 -20 -55.5z" />
    <glyph glyph-name="Gdotaccent" unicode="&#x120;" horiz-adv-x="406" 
d="M211 835v-75c0 -4 -2 -6 -6 -6h-4c-4 0 -6 2 -6 6v75c0 4 2 6 6 6h4c4 0 6 -2 6 -6zM216 301h122c4 0 6 -2 6 -6v-185c0 -37.333 -10.167 -66.333 -30.5 -87s-56.166 -31 -107.499 -31c-50.667 0 -86.167 10.333 -106.5 31s-30.5 49.667 -30.5 87v460
c0 37.333 10.167 66.333 30.5 87s55.833 31 106.5 31c51.333 0 87.166 -10.333 107.499 -31s30.5 -49.667 30.5 -87v-67c0 -4 -2 -6 -6 -6h-4c-4 0 -6 2 -6 6v67c0 32.667 -9 58 -27 76s-49.667 27 -95 27c-44.667 0 -76 -9 -94 -27s-27 -43.333 -27 -76v-460
c0 -32 9 -57.167 27 -75.5s49.333 -27.5 94 -27.5c81.333 0 122 33.667 122 101v178h-112c-4 0 -6 2 -6 6v3c0 4 2 6 6 6z" />
    <glyph glyph-name="gdotaccent" unicode="&#x121;" horiz-adv-x="366" 
d="M187 674v-75c0 -4 -2 -6 -6 -6h-4c-4 0 -6 2 -6 6v75c0 4 2 6 6 6h4c4 0 6 -2 6 -6zM155 -8c-30.667 0 -54 8.33105 -70 24.998s-24 39 -24 67v322c0 28 7.83301 50.333 23.5 67s39.167 25 70.5 25c47.333 0 90 -17 128 -51l1 37c0 4 2 6 6 6h2c4 0 6 -2 6 -6v-583
c0 -31.333 -8.66699 -55.666 -26 -72.999s-47.333 -26 -90 -26h-94c-4 0 -6 2 -6 6v3c0 4 2 6 6 6h94c38.667 0 65 7.33301 79 22s21 35.334 21 62.001v141c-36.667 -33.333 -79 -50 -127 -50zM77 405.998l-0.000976562 -322c0 -22 6.5 -40.333 19.5 -55s32.5 -22 58.5 -22
c46.667 0 89 17.667 127 53v369c-36 36 -78.333 54 -127 54c-25.333 0 -44.666 -7.16699 -57.999 -21.5s-20 -32.833 -20 -55.5z" />
    <glyph glyph-name="Gcommaaccent" unicode="&#x122;" horiz-adv-x="406" 
d="M216 301h122c4 0 6 -2 6 -6v-185c0 -37.333 -10.167 -66.333 -30.5 -87s-56.166 -31 -107.499 -31c-50.667 0 -86.167 10.333 -106.5 31s-30.5 49.667 -30.5 87v460c0 37.333 10.167 66.333 30.5 87s55.833 31 106.5 31c51.333 0 87.166 -10.333 107.499 -31
s30.5 -49.667 30.5 -87v-67c0 -4 -2 -6 -6 -6h-4c-4 0 -6 2 -6 6v67c0 32.667 -9 58 -27 76s-49.667 27 -95 27c-44.667 0 -76 -9 -94 -27s-27 -43.333 -27 -76v-460c0 -32 9 -57.167 27 -75.5s49.333 -27.5 94 -27.5c81.333 0 122 33.667 122 101v178h-112c-4 0 -6 2 -6 6
v3c0 4 2 6 6 6zM200 -81l0.000976562 25c0 4 2 6 6 6h4c4 0 6 -2 6 -6v-25c0 -28.667 -9.66699 -63.667 -29 -105c-2 -3.33301 -4.66699 -4.33301 -8 -3l-4 2c-2.66699 1.33301 -3.33398 4 -2.00098 8c1.33301 3.33301 3.5 8.33301 6.5 15s5.16699 11.334 6.5 14.001
s3 6.66699 5 12s3.33301 9.66602 4 12.999l2.5 12.5c1 5 1.66699 10 2 15s0.5 10.5 0.5 16.5z" />
    <glyph glyph-name="gcommaaccent" unicode="&#x123;" horiz-adv-x="366" 
d="M185 607l-0.00195312 -25c0 -4 -2 -6 -6 -6h-4c-4 0 -6 2 -6 6v25c0 28.667 9.66699 63.667 29 105c2.66699 3.33301 5.33398 4.33301 8.00098 3l4 -2c2.66699 -1.33301 3.33398 -4 2.00098 -8c-1.33301 -3.33301 -3.5 -8.33301 -6.5 -15s-5.16699 -11.334 -6.5 -14.001
s-3 -6.66699 -5 -12s-3.33301 -9.66602 -4 -12.999l-2.5 -12.5c-1 -5 -1.66699 -10 -2 -15s-0.5 -10.5 -0.5 -16.5zM154.998 -8c-30.667 0 -54 8.33105 -70 24.998s-24 39 -24 67v322c0 28 7.83301 50.333 23.5 67s39.167 25 70.5 25c47.333 0 90 -17 128 -51l1 37
c0 4 2 6 6 6h2c4 0 6 -2 6 -6v-583c0 -31.333 -8.66699 -55.666 -26 -72.999s-47.333 -26 -90 -26h-94c-4 0 -6 2 -6 6v3c0 4 2 6 6 6h94c38.667 0 65 7.33301 79 22s21 35.334 21 62.001v141c-36.667 -33.333 -79 -50 -127 -50zM76.998 405.998l-0.000976562 -322
c0 -22 6.5 -40.333 19.5 -55s32.5 -22 58.5 -22c46.667 0 89 17.667 127 53v369c-36 36 -78.333 54 -127 54c-25.333 0 -44.666 -7.16699 -57.999 -21.5s-20 -32.833 -20 -55.5z" />
    <glyph glyph-name="Hcircumflex" unicode="&#x124;" horiz-adv-x="434" 
d="M218 864l-51 -114c-1.33301 -4 -4 -6 -8 -6h-4c-3.33301 0 -4.33301 2 -3 6l54 122c1.33301 4 4 6 8 6h7c4 0 6.66699 -1.66699 8 -5l55 -123c1.33301 -4 0.333008 -6 -3 -6h-4c-3.33301 0 -6 2 -8 6zM94 674v-297h246v297c0 4 2 6 6 6h4c4 0 6 -2 6 -6v-668
c0 -4 -2 -6 -6 -6h-4c-4 0 -6 2 -6 6v356h-246v-356c0 -4 -2 -6 -6 -6h-4c-4 0 -6 2 -6 6v668c0 4 2 6 6 6h4c4 0 6 -2 6 -6z" />
    <glyph glyph-name="hcircumflex" unicode="&#x125;" horiz-adv-x="372" 
d="M77 864l-51 -114c-1.33301 -4 -4 -6 -8 -6h-4c-3.33301 0 -4.33301 2 -3 6l54 122c1.33301 4 4 6 8 6h7c4 0 6.66699 -1.66699 8 -5l55 -123c1.33301 -4 0.333008 -6 -3 -6h-4c-3.33301 0 -6 2 -8 6zM84 688v-240c36.667 33.333 79 50 127 50
c31.333 0 54.833 -8.33301 70.5 -25s23.5 -39 23.5 -67v-400c0 -4 -2 -6 -6 -6h-4c-4 0 -6 2 -6 6v400c0 22.667 -6.5 41.167 -19.5 55.5s-32.5 21.5 -58.5 21.5c-46.667 0 -89 -18 -127 -54v-423c0 -4 -2 -6 -6 -6h-4c-4 0 -6 2 -6 6v682c0 4 2 6 6 6h4c4 0 6 -2 6 -6z" />
    <glyph glyph-name="Hbar" unicode="&#x126;" horiz-adv-x="434" 
d="M94 377h246v136h-246v-136zM94 6c0 -4 -2 -6 -6 -6h-4c-4 0 -6 2 -6 6v507h-28c-4 0 -6 2 -6 6v3c0 4 2 6 6 6h28v146c0 4 2 6 6 6h4c4 0 6 -2 6 -6v-146h246v146c0 4 2 6 6 6h4c4 0 6 -2 6 -6v-146h29c4 0 6 -2 6 -6v-3c0 -4 -2 -6 -6 -6h-29v-507c0 -4 -2 -6 -6 -6h-4
c-4 0 -6 2 -6 6v356h-246v-356z" />
    <glyph glyph-name="hbar" unicode="&#x127;" horiz-adv-x="372" 
d="M84 6c0 -4 -2 -6 -6 -6h-4c-4 0 -6 2 -6 6v569h-46c-4 0 -6 2 -6 6v3c0 4 2 6 6 6h46v98c0 4 2 6 6 6h4c4 0 6 -2 6 -6v-98h128c4 0 6 -2 6 -6v-3c0 -4 -2 -6 -6 -6h-128v-127c36.667 33.333 79 50 127 50c31.333 0 54.833 -8.33301 70.5 -25s23.5 -39 23.5 -67v-400
c0 -4 -2 -6 -6 -6h-4c-4 0 -6 2 -6 6v400c0 22.667 -6.5 41.167 -19.5 55.5s-32.5 21.5 -58.5 21.5c-46.667 0 -89 -18 -127 -54v-423z" />
    <glyph glyph-name="Itilde" unicode="&#x128;" horiz-adv-x="172" 
d="M134 779c9.33301 0 15.666 3.66699 18.999 11s5 22 5 44v10c0 4 2 6 6 6h4c4 0 6 -2 6 -6v-10c0 -46.667 -13.667 -70 -41 -70c-12.667 0 -25.667 7.66699 -39 23l-29 32c-10.667 10.667 -19 16 -25 16c-9.33301 0 -15.666 -3.83301 -18.999 -11.5s-5 -22.167 -5 -43.5
v-10c0 -4 -2 -6 -6 -6h-4c-4 0 -6 2 -6 6v10c-0 46.667 13.333 70 40 70c12.667 0 25.667 -7.66699 39 -23l29 -32c10 -10.667 18.667 -16 26 -16zM94 674v-668c0 -4 -2 -6 -6 -6h-4c-4 0 -6 2 -6 6v668c0 4 2 6 6 6h4c4 0 6 -2 6 -6z" />
    <glyph glyph-name="itilde" unicode="&#x129;" horiz-adv-x="153" 
d="M123 597c-13.333 0 -26.668 7.66699 -40.001 23l-28 32c-9.33301 10.667 -17.666 16 -24.999 16c-9.33301 0 -15.833 -3.66699 -19.5 -11s-5.5 -22 -5.5 -44v-10c0 -4 -2 -6 -6 -6h-4c-4 0 -6 2 -6 6v10c0 46.667 13.667 70 41 70c12.667 0 25.667 -7.66699 39 -23
l28 -32c10 -10.667 19 -16 27 -16c8.66699 0 14.667 3.66699 18 11s5 22 5 44v10c0 4 2 6 6 6h4c4 0 6 -2 6 -6v-10c0 -26 -3.33301 -44.167 -10 -54.5s-16.667 -15.5 -30 -15.5zM83.998 484v-478c0 -4 -2 -6 -6 -6h-4c-4 0 -6 2 -6 6v478c0 4 2 6 6 6h4c4 0 6 -2 6 -6z" />
    <glyph glyph-name="Imacron" unicode="&#x12a;" horiz-adv-x="172" 
d="M-9 807h191c4 0 6 -2 6 -6v-3c0 -4 -2 -6 -6 -6h-191c-4 0 -6 2 -6 6v3c0 4 2 6 6 6zM94 674v-668c0 -4 -2 -6 -6 -6h-4c-4 0 -6 2 -6 6v668c0 4 2 6 6 6h4c4 0 6 -2 6 -6z" />
    <glyph glyph-name="imacron" unicode="&#x12b;" horiz-adv-x="153" 
d="M-18 634h191c4 0 6 -2 6 -6v-3c0 -4 -2 -6 -6 -6h-191c-4 0 -6 2 -6 6v3c0 4 2 6 6 6zM84 484v-478c0 -4 -2 -6 -6 -6h-4c-4 0 -6 2 -6 6v478c0 4 2 6 6 6h4c4 0 6 -2 6 -6z" />
    <glyph glyph-name="Ibreve" unicode="&#x12c;" horiz-adv-x="172" 
d="M24 872v-17.999c0 -28.667 4.16699 -50.334 12.5 -65.001s25.166 -22 50.499 -22c24.667 0 41.334 7.5 50.001 22.5s13 36.5 13 64.5v18c0 4 2 6 6 6h4c4 0 6 -2 6 -6v-18c0 -33.333 -5.5 -58.666 -16.5 -75.999s-31.833 -26 -62.5 -26c-31.333 0 -52.333 8.66699 -63 26
s-16 42.666 -16 75.999v18c0 4 2 6 6 6h4c4 0 6 -2 6 -6zM94 674.001v-668c0 -4 -2 -6 -6 -6h-4c-4 0 -6 2 -6 6v668c0 4 2 6 6 6h4c4 0 6 -2 6 -6z" />
    <glyph glyph-name="ibreve" unicode="&#x12d;" horiz-adv-x="153" 
d="M14 682v-17.999c0 -28.667 4.16699 -50.334 12.5 -65.001s25.166 -22 50.499 -22c24.667 0 41.334 7.5 50.001 22.5s13 36.5 13 64.5v18c0 4 2 6 6 6h4c4 0 6 -2 6 -6v-18c0 -33.333 -5.5 -58.666 -16.5 -75.999s-31.833 -26 -62.5 -26c-31.333 0 -52.333 8.66699 -63 26
s-16 42.666 -16 75.999v18c0 4 2 6 6 6h4c4 0 6 -2 6 -6zM84 484.001v-478c0 -4 -2 -6 -6 -6h-4c-4 0 -6 2 -6 6v478c0 4 2 6 6 6h4c4 0 6 -2 6 -6z" />
    <glyph glyph-name="Iogonek" unicode="&#x12e;" horiz-adv-x="172" 
d="M94 674l-0.000976562 -668.001c0 -4 -2 -6 -6 -6h-2c-18.667 -8.66699 -32.5 -20.667 -41.5 -36s-13.5 -30 -13.5 -44c0 -29.333 15.333 -44 46 -44h9c4 0 6 -2 6 -6v-3c0 -4 -2 -6 -6 -6h-9c-41.333 0 -62 20 -62 60c0 17.333 5.83301 34.333 17.5 51
s26.834 30.334 45.501 41.001v661c0 4 2 6 6 6h4c4 0 6 -2 6 -6z" />
    <glyph glyph-name="iogonek" unicode="&#x12f;" horiz-adv-x="153" 
d="M85 688v-99c0 -4 -2 -6 -6 -6h-4c-4 0 -6 2 -6 6v99c0 4 2 6 6 6h4c4 0 6 -2 6 -6zM80 -139h-8c-42 0 -63 18 -63 54c0 35.333 20 67.333 60 96v473c0 4 2 6 6 6h4c4 0 6 -2 6 -6v-478c0 -4 -2 -6 -6 -6h-1c-35.333 -22 -53 -50.667 -53 -86c0 -25.333 15.667 -38 47 -38
h8c4 0 6 -2 6 -6v-3c0 -4 -2 -6 -6 -6z" />
    <glyph glyph-name="Idotaccent" unicode="&#x130;" horiz-adv-x="172" 
d="M94 838v-75c0 -4 -2 -6 -6 -6h-4c-4 0 -6 2 -6 6v75c0 4 2 6 6 6h4c4 0 6 -2 6 -6zM94 674v-668c0 -4 -2 -6 -6 -6h-4c-4 0 -6 2 -6 6v668c0 4 2 6 6 6h4c4 0 6 -2 6 -6z" />
    <glyph glyph-name="dotlessi" unicode="&#x131;" horiz-adv-x="153" 
d="M84 484v-478c0 -4 -2 -6 -6 -6h-4c-4 0 -6 2 -6 6v478c0 4 2 6 6 6h4c4 0 6 -2 6 -6z" />
    <glyph glyph-name="IJ" unicode="&#x132;" horiz-adv-x="517" 
d="M94 674v-668c0 -4 -2 -6 -6 -6h-4c-4 0 -6 2 -6 6v668c0 4 2 6 6 6h4c4 0 6 -2 6 -6zM214 155v-45c0 -32.667 7.5 -58 22.5 -76s42.833 -27 83.5 -27c40 0 67.5 8.83301 82.5 26.5s22.5 43.167 22.5 76.5v564c0 4 2 6 6 6h4c4 0 6 -2 6 -6v-564
c0 -38 -8.83301 -67.167 -26.5 -87.5s-49.167 -30.5 -94.5 -30.5c-46 0 -77.833 10.167 -95.5 30.5s-26.5 49.5 -26.5 87.5v45c0 4 2 6 6 6h4c4 0 6 -2 6 -6z" />
    <glyph glyph-name="ij" unicode="&#x133;" horiz-adv-x="301" 
d="M232 688v-99c0 -4 -2 -6 -6 -6h-4c-4 0 -6 2 -6 6v99c0 4 2 6 6 6h4c4 0 6 -2 6 -6zM84 688v-99c0 -4 -2 -6 -6 -6h-4c-4 0 -6 2 -6 6v99c0 4 2 6 6 6h4c4 0 6 -2 6 -6zM232 484l-0.000976562 -583c0 -31.333 -8.5 -55.666 -25.5 -72.999s-46.833 -26 -89.5 -26h-3
c-4 0 -6 2 -6 6v3c0 4 2 6 6 6h3c36.667 0 62.334 7.16699 77.001 21.5s22 35.166 22 62.499v583c0 4 2 6 6 6h4c4 0 6 -2 6 -6zM83.999 484v-478c0 -4 -2 -6 -6 -6h-4c-4 0 -6 2 -6 6v478c0 4 2 6 6 6h4c4 0 6 -2 6 -6z" />
    <glyph glyph-name="Jcircumflex" unicode="&#x134;" horiz-adv-x="347" 
d="M263 864l-51 -114c-1.33301 -4 -4 -6 -8 -6h-4c-3.33301 0 -4.33301 2 -3 6l54 122c1.33301 4 4 6 8 6h7c4 0 6.66699 -1.66699 8 -5l55 -123c1.33301 -4 0.333008 -6 -3 -6h-4c-3.33301 0 -6 2 -8 6zM44 155v-45c0 -32.667 7.5 -58 22.5 -76s42.833 -27 83.5 -27
c40 0 67.5 8.83301 82.5 26.5s22.5 43.167 22.5 76.5v564c0 4 2 6 6 6h4c4 0 6 -2 6 -6v-564c0 -38 -8.83301 -67.167 -26.5 -87.5s-49.167 -30.5 -94.5 -30.5c-46 0 -77.833 10.167 -95.5 30.5s-26.5 49.5 -26.5 87.5v45c0 4 2 6 6 6h4c4 0 6 -2 6 -6z" />
    <glyph glyph-name="jcircumflex" unicode="&#x135;" horiz-adv-x="153" 
d="M76 694l-51 -114c-1.33301 -4 -4 -6 -8 -6h-4c-3.33301 0 -4.33301 2 -3 6l54 122c1.33301 4 4 6 8 6h7c4 0 6.66699 -1.66699 8 -5l55 -123c1.33301 -4 0.333008 -6 -3 -6h-4c-3.33301 0 -6 2 -8 6zM84 484v-583c0 -31.333 -8.5 -55.666 -25.5 -72.999
s-47.167 -26 -90.5 -26h-3c-4 0 -6 2 -6 6v3c0 4 2 6 6 6h3c37.333 0 63.333 7.16699 78 21.5s22 35.166 22 62.499v583c0 4 2 6 6 6h4c4 0 6 -2 6 -6z" />
    <glyph glyph-name="Kcommaaccent" unicode="&#x136;" horiz-adv-x="379" 
d="M134 344l224.001 -338c2.66699 -4 1.66699 -6 -3 -6h-6c-4.66699 0 -8.33398 2 -11.001 6l-219 329h-25v-329c0 -4 -2 -6 -6 -6h-4c-4 0 -6 2 -6 6v668c0 4 2 6 6 6h4c4 0 6 -2 6 -6v-324h25l203 326c2 2.66699 5 4 9 4h5c4.66699 0 6 -2 4 -6zM187.001 -81
l0.00195312 25c0 4 2 6 6 6h4c4 0 6 -2 6 -6v-25c0 -28.667 -9.66699 -63.667 -29 -105c-2.66699 -3.33301 -5.33398 -4.33301 -8.00098 -3l-4 2c-2.66699 1.33301 -3.33398 4 -2.00098 8c1.33301 3.33301 3.5 8.33301 6.5 15s5.16699 11.334 6.5 14.001s3 6.66699 5 12
s3.33301 9.66602 4 12.999l2.5 12.5c1 5 1.66699 10 2 15s0.5 10.5 0.5 16.5z" />
    <glyph glyph-name="kcommaaccent" unicode="&#x137;" horiz-adv-x="317" 
d="M127 278l175 -272c2.66699 -4 2 -6 -2 -6h-6c-4 0 -7.66699 2 -11 6l-170 263h-29v-263c0 -4 -2 -6 -6 -6h-4c-4 0 -6 2 -6 6v682c0 4 2 6 6 6h4c4 0 6 -2 6 -6v-404h29l155 201c2.66699 3.33301 6 5 10 5h5c6 0 7.33301 -2 4 -6zM156 -81l0.000976562 25c0 4 2 6 6 6h4
c4 0 6 -2 6 -6v-25c0 -28.667 -9.66699 -63.667 -29 -105c-2 -3.33301 -4.66699 -4.33301 -8 -3l-4 2c-2.66699 1.33301 -3.33398 4 -2.00098 8c1.33301 3.33301 3.5 8.33301 6.5 15s5.16699 11.334 6.5 14.001s3 6.66699 5 12s3.33301 9.66602 4 12.999l2.5 12.5
c1 5 1.66699 10 2 15s0.5 10.5 0.5 16.5z" />
    <glyph glyph-name="kgreenlandic" unicode="&#x138;" horiz-adv-x="316" 
d="M124 276l180 -270c2.66699 -4 2 -6 -2 -6h-5c-6 0 -10.333 2 -13 6l-174 261h-26v-261c0 -4 -2 -6 -6 -6h-4c-4 0 -6 2 -6 6v478c0 4 2 6 6 6h4c4 0 6 -2 6 -6v-202h25l152 203c2 3.33301 5.33301 5 10 5h6c4.66699 0 5.66699 -2 3 -6z" />
    <glyph glyph-name="Lacute" unicode="&#x139;" horiz-adv-x="348" 
d="M155 872l-61 -125c-1.33301 -2 -3.33301 -3 -6 -3h-7c-3.33301 0 -4 1.66699 -2 5l59 125c2 2.66699 4.33301 4 7 4h7c4.66699 0 5.66699 -2 3 -6zM94 674v-659h230c4 0 6 -2 6 -6v-3c0 -4 -2 -6 -6 -6h-241c-3.33301 0 -5 2 -5 6v668c0 4 2 6 6 6h4c4 0 6 -2 6 -6z" />
    <glyph glyph-name="lacute" unicode="&#x13a;" horiz-adv-x="153" 
d="M146 872l-61 -125c-0.666992 -2 -2.66699 -3 -6 -3h-7c-3.33301 0 -4 1.66699 -2 5l59 125c2 2.66699 4.33301 4 7 4h7c4.66699 0 5.66699 -2 3 -6zM84 688v-682c0 -4 -2 -6 -6 -6h-4c-4 0 -6 2 -6 6v682c0 4 2 6 6 6h4c4 0 6 -2 6 -6z" />
    <glyph glyph-name="Lcommaaccent" unicode="&#x13b;" horiz-adv-x="348" 
d="M94 674v-659h230c4 0 6 -2 6 -6v-3c0 -4 -2 -6 -6 -6h-241c-3.33301 0 -5 2 -5 6v668c0 4 2 6 6 6h4c4 0 6 -2 6 -6zM190 -81l0.000976562 25c0 4 2 6 6 6h4c4 0 6 -2 6 -6v-25c0 -28.667 -9.66699 -63.667 -29 -105c-2 -3.33301 -4.66699 -4.33301 -8 -3l-4 2
c-2.66699 1.33301 -3.33398 4 -2.00098 8c1.33301 3.33301 3.5 8.33301 6.5 15s5.16699 11.334 6.5 14.001s3 6.66699 5 12s3.33301 9.66602 4 12.999l2.5 12.5c1 5 1.66699 10 2 15s0.5 10.5 0.5 16.5z" />
    <glyph glyph-name="lcommaaccent" unicode="&#x13c;" horiz-adv-x="153" 
d="M84 688v-682c0 -4 -2 -6 -6 -6h-4c-4 0 -6 2 -6 6v682c0 4 2 6 6 6h4c4 0 6 -2 6 -6zM69 -81l0.00195312 25c0 4 2 6 6 6h4c4 0 6 -2 6 -6v-25c0 -28.667 -9.66699 -63.667 -29 -105c-2.66699 -3.33301 -5.33398 -4.33301 -8.00098 -3l-4 2
c-2.66699 1.33301 -3.33398 4 -2.00098 8c1.33301 3.33301 3.5 8.33301 6.5 15s5.16699 11.334 6.5 14.001s3 6.66699 5 12s3.33301 9.66602 4 12.999l2.5 12.5c1 5 1.66699 10 2 15s0.5 10.5 0.5 16.5z" />
    <glyph glyph-name="Lcaron" unicode="&#x13d;" horiz-adv-x="348" 
d="M94 674v-659h230c4 0 6 -2 6 -6v-3c0 -4 -2 -6 -6 -6h-241c-3.33301 0 -5 2 -5 6v668c0 4 2 6 6 6h4c4 0 6 -2 6 -6zM239 649l0.00195312 25c0 4 2 6 6 6h4c4 0 6 -2 6 -6v-25c0 -28.667 -9.66699 -63.667 -29 -105c-2.66699 -3.33301 -5.33398 -4.33301 -8.00098 -3
l-4 2c-2.66699 1.33301 -3.33398 4 -2.00098 8c1.33301 3.33301 3.5 8.33301 6.5 15s5.16699 11.334 6.5 14.001s3 6.66699 5 12s3.33301 9.66602 4 12.999l2.5 12.5c1 5 1.66699 10 2 15s0.5 10.5 0.5 16.5z" />
    <glyph glyph-name="lcaron" unicode="&#x13e;" horiz-adv-x="160" 
d="M151 668l0.00195312 25c0 4 2 6 6 6h4c4 0 6 -2 6 -6v-25c0 -28.667 -9.66699 -63.667 -29 -105c-2.66699 -3.33301 -5.33398 -4.33301 -8.00098 -3l-4 2c-2.66699 1.33301 -3.33398 4 -2.00098 8c1.33301 3.33301 3.5 8.33301 6.5 15s5.16699 11.334 6.5 14.001
s3 6.66699 5 12s3.33301 9.66602 4 12.999l2.5 12.5c1 5 1.66699 10 2 15s0.5 10.5 0.5 16.5zM84.002 688v-682c0 -4 -2 -6 -6 -6h-4c-4 0 -6 2 -6 6v682c0 4 2 6 6 6h4c4 0 6 -2 6 -6z" />
    <glyph glyph-name="Ldot" unicode="&#x13f;" horiz-adv-x="349" 
d="M94 674v-659h230c4 0 6 -2 6 -6v-3c0 -4 -2 -6 -6 -6h-241c-3.33301 0 -5 2 -5 6v668c0 4 2 6 6 6h4c4 0 6 -2 6 -6zM277 392v-75c0 -4 -2 -6 -6 -6h-4c-4 0 -6 2 -6 6v75c0 4 2 6 6 6h4c4 0 6 -2 6 -6z" />
    <glyph glyph-name="ldot" unicode="&#x140;" horiz-adv-x="156" 
d="M84 688v-682c0 -4 -2 -6 -6 -6h-4c-4 0 -6 2 -6 6v682c0 4 2 6 6 6h4c4 0 6 -2 6 -6zM162 392v-75c0 -4 -2 -6 -6 -6h-4c-4 0 -6 2 -6 6v75c0 4 2 6 6 6h4c4 0 6 -2 6 -6z" />
    <glyph glyph-name="Lslash" unicode="&#x141;" horiz-adv-x="350" 
d="M326 0l-241 0.000976562c-3.33301 0 -5 2 -5 6v318l-47 -27c-3.33301 -2.66699 -6 -2.33398 -8 0.999023l-2 4c-1.33301 3.33301 -0.333008 6 3 8l54 31v333c0 4 2 6 6 6h4c4 0 6 -2 6 -6v-323l54 31c3.33301 2 5.66602 1.33301 6.99902 -2l2 -5
c0.666992 -2.66699 -0.666016 -5 -3.99902 -7l-59 -34v-319h230c4 0 6 -2 6 -6v-3c0 -4 -2 -6 -6 -6z" />
    <glyph glyph-name="lslash" unicode="&#x142;" horiz-adv-x="170" 
d="M86 0l-4 0.000976562c-4 0 -6 2 -6 6v320l-49 -29c-3.33301 -2.66699 -6 -2.33398 -8 0.999023l-2 4c-1.33301 4 -0.333008 6.66699 3 8l56 33v345c0 4 2 6 6 6h4c4 0 6 -2 6 -6v-336l52 30c3.33301 2 5.66602 1.33301 6.99902 -2l2 -5
c0.666992 -2.66699 -0.666016 -5 -3.99902 -7l-57 -33v-329c0 -4 -2 -6 -6 -6z" />
    <glyph glyph-name="Nacute" unicode="&#x143;" horiz-adv-x="437" 
d="M292 872l-61 -125c-0.666992 -2 -2.66699 -3 -6 -3h-7c-3.33301 0 -4 1.66699 -2 5l59 125c2 2.66699 4.33301 4 7 4h7c4.66699 0 5.66699 -2 3 -6zM359 674v-668.001c0 -4 -2 -6 -6 -6h-3c-2.66699 0 -4.66699 1 -6 3l-228 571c-9.33301 22.667 -17 44 -23 64v-632
c0 -4 -2 -6 -6 -6h-3c-4 0 -6 2 -6 6v668c0 4 2 6 6 6h3c2 0 3.66699 -1 5 -3l231 -578c12.667 -31.333 19.667 -50.666 21 -57.999v633c0 4 2 6 6 6h3c4 0 6 -2 6 -6z" />
    <glyph glyph-name="nacute" unicode="&#x144;" horiz-adv-x="372" 
d="M259 702l-61.999 -125c-0.666992 -2 -2.66699 -3 -6 -3h-7c-2.66699 0 -3.33398 1.66699 -2.00098 5l60 125c0.666992 2.66699 3 4 7 4h7c3.33301 0 4.33301 -2 3 -6zM74.001 490h2c4 0 6 -2 6 -6l1 -37c39.333 34 82 51 128 51c31.333 0 54.833 -8.33301 70.5 -25
s23.5 -39 23.5 -67v-400c0 -4 -2 -6 -6 -6h-4c-4 0 -6 2 -6 6v400c0 22.667 -6.5 41.167 -19.5 55.5s-32.5 21.5 -58.5 21.5c-46.667 0 -89 -18 -127 -54v-423c0 -4 -2 -6 -6 -6h-4c-4 0 -6 2 -6 6v478c0 4 2 6 6 6z" />
    <glyph glyph-name="Ncommaaccent" unicode="&#x145;" horiz-adv-x="437" 
d="M359 674v-668.001c0 -4 -2 -6 -6 -6h-3c-2.66699 0 -4.66699 1 -6 3l-228 571c-9.33301 22.667 -17 44 -23 64v-632c0 -4 -2 -6 -6 -6h-3c-4 0 -6 2 -6 6v668c0 4 2 6 6 6h3c2 0 3.66699 -1 5 -3l231 -578c12.667 -31.333 19.667 -50.666 21 -57.999v633c0 4 2 6 6 6h3
c4 0 6 -2 6 -6zM215 -81.001l0.00195312 25c0 4 2 6 6 6h4c4 0 6 -2 6 -6v-25c0 -28.667 -9.66699 -63.667 -29 -105c-2.66699 -3.33301 -5.33398 -4.33301 -8.00098 -3l-4 2c-2.66699 1.33301 -3.33398 4 -2.00098 8c1.33301 3.33301 3.5 8.33301 6.5 15
s5.16699 11.334 6.5 14.001s3 6.66699 5 12s3.33301 9.66602 4 12.999l2.5 12.5c1 5 1.66699 10 2 15s0.5 10.5 0.5 16.5z" />
    <glyph glyph-name="ncommaaccent" unicode="&#x146;" horiz-adv-x="372" 
d="M74 490h2c4 0 6 -2 6 -6l1 -37c39.333 34 82 51 128 51c31.333 0 54.833 -8.33301 70.5 -25s23.5 -39 23.5 -67v-400c0 -4 -2 -6 -6 -6h-4c-4 0 -6 2 -6 6v400c0 22.667 -6.5 41.167 -19.5 55.5s-32.5 21.5 -58.5 21.5c-46.667 0 -89 -18 -127 -54v-423c0 -4 -2 -6 -6 -6
h-4c-4 0 -6 2 -6 6v478c0 4 2 6 6 6zM179 -80l0.00195312 25c0 4 2 6 6 6h4c4 0 6 -2 6 -6v-25c0 -28.667 -9.66699 -63.667 -29 -105c-2.66699 -3.33301 -5.33398 -4.33301 -8.00098 -3l-4 2c-2.66699 1.33301 -3.33398 4 -2.00098 8c1.33301 3.33301 3.5 8.33301 6.5 15
s5.16699 11.334 6.5 14.001s3 6.66699 5 12s3.33301 9.66602 4 12.999l2.5 12.5c1 5 1.66699 10 2 15s0.5 10.5 0.5 16.5z" />
    <glyph glyph-name="Ncaron" unicode="&#x147;" horiz-adv-x="437" 
d="M173 872l51 -114l51 114c2 4 4.66699 6 8 6h4c3.33301 0 4.33301 -2 3 -6l-55 -123c-1.33301 -3.33301 -4 -5 -8 -5h-7c-4 0 -6.66699 2 -8 6l-54 122c-1.33301 4 -0.333008 6 3 6h4c4 0 6.66699 -2 8 -6zM359 674v-668.001c0 -4 -2 -6 -6 -6h-3
c-2.66699 0 -4.66699 1 -6 3l-228 571c-9.33301 22.667 -17 44 -23 64v-632c0 -4 -2 -6 -6 -6h-3c-4 0 -6 2 -6 6v668c0 4 2 6 6 6h3c2 0 3.66699 -1 5 -3l231 -578c12.667 -31.333 19.667 -50.666 21 -57.999v633c0 4 2 6 6 6h3c4 0 6 -2 6 -6z" />
    <glyph glyph-name="ncaron" unicode="&#x148;" horiz-adv-x="372" 
d="M134 702l51 -114l51 114c2 4 4.66699 6 8 6h4c3.33301 0 4.33301 -2 3 -6l-55 -123c-1.33301 -3.33301 -4 -5 -8 -5h-7c-4 0 -6.66699 2 -8 6l-54 122c-1.33301 4 -0.333008 6 3 6h4c4 0 6.66699 -2 8 -6zM74 490h2c4 0 6 -2 6 -6l1 -37c39.333 34 82 51 128 51
c31.333 0 54.833 -8.33301 70.5 -25s23.5 -39 23.5 -67v-400c0 -4 -2 -6 -6 -6h-4c-4 0 -6 2 -6 6v400c0 22.667 -6.5 41.167 -19.5 55.5s-32.5 21.5 -58.5 21.5c-46.667 0 -89 -18 -127 -54v-423c0 -4 -2 -6 -6 -6h-4c-4 0 -6 2 -6 6v478c0 4 2 6 6 6z" />
    <glyph glyph-name="napostrophe" unicode="&#x149;" horiz-adv-x="372" 
d="M64 668l0.000976562 25c0 4 2 6 6 6h4c4 0 6 -2 6 -6v-25c0 -28.667 -9.66699 -63.667 -29 -105c-2 -3.33301 -4.66699 -4.33301 -8 -3l-4 2c-2.66699 1.33301 -3.33398 4 -2.00098 8c1.33301 3.33301 3.5 8.33301 6.5 15s5.16699 11.334 6.5 14.001s3 6.66699 5 12
s3.33301 9.66602 4 12.999l2.5 12.5c1 5 1.66699 10 2 15s0.5 10.5 0.5 16.5zM74.001 490h2c4 0 6 -2 6 -6l1 -37c39.333 34 82 51 128 51c31.333 0 54.833 -8.33301 70.5 -25s23.5 -39 23.5 -67v-400c0 -4 -2 -6 -6 -6h-4c-4 0 -6 2 -6 6v400
c0 22.667 -6.5 41.167 -19.5 55.5s-32.5 21.5 -58.5 21.5c-46.667 0 -89 -18 -127 -54v-423c0 -4 -2 -6 -6 -6h-4c-4 0 -6 2 -6 6v478c0 4 2 6 6 6z" />
    <glyph glyph-name="Eng" unicode="&#x14a;" horiz-adv-x="437" 
d="M359 674l0.000976562 -773.002c0 -31.333 -8.5 -55.666 -25.5 -72.999s-46.833 -26 -89.5 -26h-3c-4 0 -6 2 -6 6v3c0 4 2 6 6 6h3c37.333 0 63.333 7.33301 78 22s22 35.334 22 62.001v102l-228 571c-8.66699 20.667 -16.334 41.667 -23.001 63v-631c0 -4 -2 -6 -6 -6
h-3c-4 0 -6 2 -6 6v668c0 4 2 6 6 6h3c2 0 3.66699 -1 5 -3l231 -578c11.333 -28.667 18.333 -48 21 -58v633c0 4 2 6 6 6h3c4 0 6 -2 6 -6z" />
    <glyph glyph-name="eng" unicode="&#x14b;" horiz-adv-x="372" 
d="M76 490c4 0 6 -2.00195 6 -6.00195l1 -37c39.333 34 82 51 128 51c31.333 0 54.833 -8.33301 70.5 -25s23.5 -39 23.5 -67v-505c0 -31.333 -8.5 -55.666 -25.5 -72.999s-47.167 -26 -90.5 -26h-3c-4 0 -6 2 -6 6v3c0 4 2 6 6 6h3c37.333 0 63.333 7.33301 78 22
s22 35.334 22 62.001v505c0 22.667 -6.5 41.167 -19.5 55.5s-32.5 21.5 -58.5 21.5c-46.667 0 -89 -18 -127 -54v-423c0 -4 -2 -6 -6 -6h-4c-4 0 -6 2 -6 6v478c0 4 2 6 6 6h2z" />
    <glyph glyph-name="Omacron" unicode="&#x14c;" horiz-adv-x="418" 
d="M114 807h191c4 0 6 -2 6 -6v-3c0 -4 -2 -6 -6 -6h-191c-4 0 -6 2 -6 6v3c0 4 2 6 6 6zM69 110v460c0 37.333 10.5 66.333 31.5 87s56.833 31 107.5 31c51.333 0 87.5 -10.333 108.5 -31s31.5 -49.667 31.5 -87v-460c0 -37.333 -10.5 -66.333 -31.5 -87
s-57.167 -31 -108.5 -31c-50.667 0 -86.5 10.333 -107.5 31s-31.5 49.667 -31.5 87zM332 110v460c0 32.667 -9.16699 58 -27.5 76s-50.5 27 -96.5 27c-82 0 -123 -34.333 -123 -103v-460c0 -68.667 41 -103 123 -103c46 0 78.167 9.16699 96.5 27.5s27.5 43.5 27.5 75.5z
" />
    <glyph glyph-name="omacron" unicode="&#x14d;" horiz-adv-x="358" 
d="M84 634h191c4 0 6 -2 6 -6v-3c0 -4 -2 -6 -6 -6h-191c-4 0 -6 2 -6 6v3c0 4 2 6 6 6zM61 94v302c0 32 8.83301 57 26.5 75s48.167 27 91.5 27s73.833 -9 91.5 -27s26.5 -43 26.5 -75v-302c0 -32 -8.83301 -57 -26.5 -75s-48.167 -27 -91.5 -27s-73.833 9 -91.5 27
s-26.5 43 -26.5 75zM281 94v302c0 58 -34 87 -102 87s-102 -29 -102 -87v-302c0 -58 34 -87 102 -87s102 29 102 87z" />
    <glyph glyph-name="Obreve" unicode="&#x14e;" horiz-adv-x="418" 
d="M145 872v-17.999c0 -28.667 4.16699 -50.334 12.5 -65.001s25.166 -22 50.499 -22c24.667 0 41.334 7.5 50.001 22.5s13 36.5 13 64.5v18c0 4 2 6 6 6h4c4 0 6 -2 6 -6v-18c0 -33.333 -5.5 -58.666 -16.5 -75.999s-31.833 -26 -62.5 -26
c-31.333 0 -52.333 8.66699 -63 26s-16 42.666 -16 75.999v18c0 4 2 6 6 6h4c4 0 6 -2 6 -6zM69 110.001v460c0 37.333 10.5 66.333 31.5 87s56.833 31 107.5 31c51.333 0 87.5 -10.333 108.5 -31s31.5 -49.667 31.5 -87v-460c0 -37.333 -10.5 -66.333 -31.5 -87
s-57.167 -31 -108.5 -31c-50.667 0 -86.5 10.333 -107.5 31s-31.5 49.667 -31.5 87zM332 110.001v460c0 32.667 -9.16699 58 -27.5 76s-50.5 27 -96.5 27c-82 0 -123 -34.333 -123 -103v-460c0 -68.667 41 -103 123 -103c46 0 78.167 9.16699 96.5 27.5s27.5 43.5 27.5 75.5
z" />
    <glyph glyph-name="obreve" unicode="&#x14f;" horiz-adv-x="358" 
d="M116 682v-17.999c0 -28.667 4.16699 -50.334 12.5 -65.001s25.166 -22 50.499 -22c24.667 0 41.334 7.5 50.001 22.5s13 36.5 13 64.5v18c0 4 2 6 6 6h4c4 0 6 -2 6 -6v-18c0 -33.333 -5.5 -58.666 -16.5 -75.999s-31.833 -26 -62.5 -26
c-31.333 0 -52.333 8.66699 -63 26s-16 42.666 -16 75.999v18c0 4 2 6 6 6h4c4 0 6 -2 6 -6zM61 94.001v302c0 32 8.83301 57 26.5 75s48.167 27 91.5 27s73.833 -9 91.5 -27s26.5 -43 26.5 -75v-302c0 -32 -8.83301 -57 -26.5 -75s-48.167 -27 -91.5 -27
s-73.833 9 -91.5 27s-26.5 43 -26.5 75zM281 94.001v302c0 58 -34 87 -102 87s-102 -29 -102 -87v-302c0 -58 34 -87 102 -87s102 29 102 87z" />
    <glyph glyph-name="Ohungarumlaut" unicode="&#x150;" horiz-adv-x="418" 
d="M245 872l-56.999 -124c-0.666992 -2.66699 -2.66699 -4 -6 -4h-7c-0.666992 0 -1.33398 0.666992 -2.00098 2s-0.666992 2.33301 0 3l54 124c1.33301 3.33301 4 5 8 5h6c4 0 5.33301 -2 4 -6zM307.001 872l-67.999 -125c-0.666992 -2 -3 -3 -7 -3h-6
c-2.66699 0 -3.33398 1.66699 -2.00098 5l65 124c2 3.33301 4.66699 5 8 5h7c4.66699 0 5.66699 -2 3 -6zM69.002 110v460c0 37.333 10.5 66.333 31.5 87s56.833 31 107.5 31c51.333 0 87.5 -10.333 108.5 -31s31.5 -49.667 31.5 -87v-460
c0 -37.333 -10.5 -66.333 -31.5 -87s-57.167 -31 -108.5 -31c-50.667 0 -86.5 10.333 -107.5 31s-31.5 49.667 -31.5 87zM332.002 110v460c0 32.667 -9.16699 58 -27.5 76s-50.5 27 -96.5 27c-82 0 -123 -34.333 -123 -103v-460c0 -68.667 41 -103 123 -103
c46 0 78.167 9.16699 96.5 27.5s27.5 43.5 27.5 75.5z" />
    <glyph glyph-name="ohungarumlaut" unicode="&#x151;" horiz-adv-x="358" 
d="M209 702l-56.999 -124c-0.666992 -2.66699 -2.66699 -4 -6 -4h-7c-0.666992 0 -1.33398 0.666992 -2.00098 2s-0.666992 2.33301 0 3l54 124c1.33301 3.33301 4 5 8 5h6c4 0 5.33301 -2 4 -6zM271.001 702l-67.999 -125c-0.666992 -2 -3 -3 -7 -3h-6
c-2.66699 0 -3.33398 1.66699 -2.00098 5l65 124c2 3.33301 4.66699 5 8 5h7c4.66699 0 5.66699 -2 3 -6zM61.002 94v302c0 32 8.83301 57 26.5 75s48.167 27 91.5 27s73.833 -9 91.5 -27s26.5 -43 26.5 -75v-302c0 -32 -8.83301 -57 -26.5 -75s-48.167 -27 -91.5 -27
s-73.833 9 -91.5 27s-26.5 43 -26.5 75zM281.002 94v302c0 58 -34 87 -102 87s-102 -29 -102 -87v-302c0 -58 34 -87 102 -87s102 29 102 87z" />
    <glyph glyph-name="OE" unicode="&#x152;" horiz-adv-x="634" 
d="M332 110v460c0 32.667 -9.16699 58 -27.5 76s-50.5 27 -96.5 27c-82 0 -123 -34.333 -123 -103v-460c0 -68.667 41 -103 123 -103c46 0 78.167 9.16699 96.5 27.5s27.5 43.5 27.5 75.5zM332 6v39c-19.333 -35.333 -60.666 -53 -123.999 -53
c-50.667 0 -86.5 10.333 -107.5 31s-31.5 49.667 -31.5 87v460c0 37.333 10.5 66.333 31.5 87s56.833 31 107.5 31c63.333 0 104.666 -17.667 123.999 -53v39c0 4 2 6 6 6h242c4 0 6 -2 6 -6v-3c0 -4 -2 -6 -6 -6h-232v-297h218c4 0 6 -2 6 -6v-3c0 -4 -2 -6 -6 -6h-218
v-338h242c4 0 6 -2 6 -6v-3c0 -4 -2 -6 -6 -6h-253c-3.33301 0 -5 2 -5 6z" />
    <glyph glyph-name="oe" unicode="&#x153;" horiz-adv-x="574" 
d="M400 -8c-60.667 0 -97.667 19.667 -111 59c-13.333 -39.333 -50 -59 -110 -59c-43.333 0 -73.833 9 -91.5 27s-26.5 43 -26.5 75v302c0 32 8.83301 57 26.5 75s48.167 27 91.5 27c60 0 96.667 -19.667 110 -59c13.333 39.333 50.333 59 111 59c78.667 0 118 -33 118 -99
v-139c0 -4 -2 -6 -6 -6h-215v-163c0 -56 34.333 -84 103 -84c68 0 102 28 102 84v42c0 4 2 6 6 6h4c4 0 6 -2 6 -6v-42c0 -66 -39.333 -99 -118 -99zM297 399v-130h205v130c0 56 -34 84 -102 84c-68.667 0 -103 -28 -103 -84zM281 94v302c0 58 -34 87 -102 87
s-102 -29 -102 -87v-302c0 -58 34 -87 102 -87s102 29 102 87z" />
    <glyph glyph-name="Racute" unicode="&#x154;" horiz-adv-x="417" 
d="M270 872l-61 -125c-0.666992 -2 -2.66699 -3 -6 -3h-7c-3.33301 0 -4 1.66699 -2 5l59 125c2 2.66699 4.33301 4 7 4h7c4.66699 0 5.66699 -2 3 -6zM216 665h-122v-358h122c46 0 78.167 9.16699 96.5 27.5s27.5 43.5 27.5 75.5v152c0 32 -9.16699 57.167 -27.5 75.5
s-50.5 27.5 -96.5 27.5zM94 6c0 -4 -2 -6 -6 -6h-4c-4 0 -6 2 -6 6v668c0 4 1.66699 6 5 6h133c51.333 0 87.5 -10.333 108.5 -31s31.5 -49.667 31.5 -87v-152c0 -66 -32.667 -104.333 -98 -115l108 -289c2 -4 0.333008 -6 -5 -6h-5c-5.33301 0 -8.33301 2 -9 6l-105 287
c-5.33301 -0.666992 -14 -1 -26 -1h-122v-286z" />
    <glyph glyph-name="racute" unicode="&#x155;" horiz-adv-x="232" 
d="M191 702l-61.999 -125c-0.666992 -2 -2.66699 -3 -6 -3h-7c-2.66699 0 -3.33398 1.66699 -2.00098 5l60 125c0.666992 2.66699 3 4 7 4h7c3.33301 0 4.33301 -2 3 -6zM209.001 497c4.66699 0 7 -1.66797 7 -5.00098v-6c0 -3.33301 -2.33301 -5 -7 -5
c-23.333 0 -46.5 -7 -69.5 -21s-41.5 -28.333 -55.5 -43v-411c0 -4 -2 -6 -6 -6h-4c-4 0 -6 2 -6 6v478c0 4 2 6 6 6h3c3.33301 0 5 -2 5 -6l2 -50c14 14.667 32.333 28.834 55 42.501s46 20.5 70 20.5z" />
    <glyph glyph-name="Rcommaaccent" unicode="&#x156;" horiz-adv-x="417" 
d="M216 665h-122v-358h122c46 0 78.167 9.16699 96.5 27.5s27.5 43.5 27.5 75.5v152c0 32 -9.16699 57.167 -27.5 75.5s-50.5 27.5 -96.5 27.5zM94 6c0 -4 -2 -6 -6 -6h-4c-4 0 -6 2 -6 6v668c0 4 1.66699 6 5 6h133c51.333 0 87.5 -10.333 108.5 -31s31.5 -49.667 31.5 -87
v-152c0 -66 -32.667 -104.333 -98 -115l108 -289c2 -4 0.333008 -6 -5 -6h-5c-5.33301 0 -8.33301 2 -9 6l-105 287c-5.33301 -0.666992 -14 -1 -26 -1h-122v-286zM201 -80l0.00195312 25c0 4 2 6 6 6h4c4 0 6 -2 6 -6v-25c0 -28.667 -9.66699 -63.667 -29 -105
c-2.66699 -3.33301 -5.33398 -4.33301 -8.00098 -3l-4 2c-2.66699 1.33301 -3.33398 4 -2.00098 8c1.33301 3.33301 3.5 8.33301 6.5 15s5.16699 11.334 6.5 14.001s3 6.66699 5 12s3.33301 9.66602 4 12.999l2.5 12.5c1 5 1.66699 10 2 15s0.5 10.5 0.5 16.5z" />
    <glyph glyph-name="rcommaaccent" unicode="&#x157;" horiz-adv-x="232" 
d="M209 497c4.66699 0 7 -1.66797 7 -5.00098v-6c0 -3.33301 -2.33301 -5 -7 -5c-23.333 0 -46.5 -7 -69.5 -21s-41.5 -28.333 -55.5 -43v-411c0 -4 -2 -6 -6 -6h-4c-4 0 -6 2 -6 6v478c0 4 2 6 6 6h3c3.33301 0 5 -2 5 -6l2 -50c14 14.667 32.333 28.834 55 42.501
s46 20.5 70 20.5zM69 -81.001l0.00195312 25c0 4 2 6 6 6h4c4 0 6 -2 6 -6v-25c0 -28.667 -9.66699 -63.667 -29 -105c-2.66699 -3.33301 -5.33398 -4.33301 -8.00098 -3l-4 2c-2.66699 1.33301 -3.33398 4 -2.00098 8c1.33301 3.33301 3.5 8.33301 6.5 15
s5.16699 11.334 6.5 14.001s3 6.66699 5 12s3.33301 9.66602 4 12.999l2.5 12.5c1 5 1.66699 10 2 15s0.5 10.5 0.5 16.5z" />
    <glyph glyph-name="Rcaron" unicode="&#x158;" horiz-adv-x="417" 
d="M149 872l51 -114l51 114c2 4 4.66699 6 8 6h4c3.33301 0 4.33301 -2 3 -6l-55 -123c-1.33301 -3.33301 -4 -5 -8 -5h-7c-4 0 -6.66699 2 -8 6l-54 122c-1.33301 4 -0.333008 6 3 6h4c4 0 6.66699 -2 8 -6zM216 665h-122v-358h122c46 0 78.167 9.16699 96.5 27.5
s27.5 43.5 27.5 75.5v152c0 32 -9.16699 57.167 -27.5 75.5s-50.5 27.5 -96.5 27.5zM94 6c0 -4 -2 -6 -6 -6h-4c-4 0 -6 2 -6 6v668c0 4 1.66699 6 5 6h133c51.333 0 87.5 -10.333 108.5 -31s31.5 -49.667 31.5 -87v-152c0 -66 -32.667 -104.333 -98 -115l108 -289
c2 -4 0.333008 -6 -5 -6h-5c-5.33301 0 -8.33301 2 -9 6l-105 287c-5.33301 -0.666992 -14 -1 -26 -1h-122v-286z" />
    <glyph glyph-name="rcaron" unicode="&#x159;" horiz-adv-x="232" 
d="M70 702l51 -114l51 114c2 4 4.66699 6 8 6h4c3.33301 0 4.33301 -2 3 -6l-55 -123c-1.33301 -3.33301 -4 -5 -8 -5h-7c-4 0 -6.66699 2 -8 6l-54 122c-1.33301 4 -0.333008 6 3 6h4c4 0 6.66699 -2 8 -6zM209 497c4.66699 0 7 -1.66797 7 -5.00098v-6
c0 -3.33301 -2.33301 -5 -7 -5c-23.333 0 -46.5 -7 -69.5 -21s-41.5 -28.333 -55.5 -43v-411c0 -4 -2 -6 -6 -6h-4c-4 0 -6 2 -6 6v478c0 4 2 6 6 6h3c3.33301 0 5 -2 5 -6l2 -50c14 14.667 32.333 28.834 55 42.501s46 20.5 70 20.5z" />
    <glyph glyph-name="Sacute" unicode="&#x15a;" horiz-adv-x="391" 
d="M255 872l-61 -125c-1.33301 -2 -3.33301 -3 -6 -3h-7c-3.33301 0 -4 1.66699 -2 5l59 125c2 2.66699 4.33301 4 7 4h7c4.66699 0 5.66699 -2 3 -6zM314 504l-0.00195312 65.999c0 32.667 -8.66699 58 -26 76s-48.333 27 -93 27c-45.333 0 -76.666 -9 -93.999 -27
s-26 -43.333 -26 -76v-67c0 -50.667 20.667 -86.334 62 -107.001l118 -61c52 -27.333 78 -66.666 78 -117.999v-107c0 -37.333 -10.5 -66.333 -31.5 -87s-57.167 -31 -108.5 -31s-87.333 10.333 -108 31s-31 49.667 -31 87v60c0 4 2 6 6 6h4c4 0 6 -2 6 -6v-60
c0 -32 9 -57.167 27 -75.5s50 -27.5 96 -27.5s78.167 9.16699 96.5 27.5s27.5 43.5 27.5 75.5v107c0 44.667 -23.333 79.334 -70 104.001l-119 61c-46 24 -69 64.333 -69 121v67c0 38 9.83301 67.167 29.5 87.5s55.167 30.5 106.5 30.5
c50.667 0 85.834 -10.167 105.501 -30.5s29.5 -49.5 29.5 -87.5v-66c0 -4 -2 -6 -6 -6h-4c-4 0 -6 2 -6 6z" />
    <glyph glyph-name="sacute" unicode="&#x15b;" horiz-adv-x="337" 
d="M239 702l-61.999 -125c-0.666992 -2 -2.66699 -3 -6 -3h-7c-2.66699 0 -3.33398 1.66699 -2.00098 5l60 125c0.666992 2.66699 3 4 7 4h7c3.33301 0 4.33301 -2 3 -6zM265.001 364l0.00195312 47.001c0 48.667 -33 73 -99 73c-64.667 0 -97 -24.333 -97 -73v-50
c0 -34 18.667 -59 56 -75l97 -41c43.333 -18.667 65 -46.334 65 -83.001v-82c0 -26.667 -9.83301 -48 -29.5 -64s-49.5 -24 -89.5 -24c-38.667 0 -68 8.16699 -88 24.5s-30 37.5 -30 63.5v41c0 3.33301 2 5 6 5h5c3.33301 0 5 -1.66699 5 -5v-40
c0 -22 8.66699 -39.833 26 -53.5s42.666 -20.5 75.999 -20.5c34.667 0 60.5 6.83301 77.5 20.5s25.5 31.5 25.5 53.5v78c0 32 -17.667 55.333 -53 70l-99 42c-16.667 7.33301 -31.834 18.5 -45.501 33.5s-20.5 33.5 -20.5 55.5v51c0 26.667 9.16699 47.834 27.5 63.501
s46.833 23.5 85.5 23.5s67.5 -7.83301 86.5 -23.5s28.5 -36.834 28.5 -63.501v-47c0 -3.33301 -1.66699 -5 -5 -5h-5c-4 0 -6 1.66699 -6 5z" />
    <glyph glyph-name="Scircumflex" unicode="&#x15c;" horiz-adv-x="391" 
d="M192 864l-51 -114c-1.33301 -4 -4 -6 -8 -6h-4c-3.33301 0 -4.33301 2 -3 6l54 122c1.33301 4 4 6 8 6h7c4 0 6.66699 -1.66699 8 -5l55 -123c1.33301 -4 0.333008 -6 -3 -6h-4c-3.33301 0 -6 2 -8 6zM314 504l-0.00195312 65.999c0 32.667 -8.66699 58 -26 76
s-48.333 27 -93 27c-45.333 0 -76.666 -9 -93.999 -27s-26 -43.333 -26 -76v-67c0 -50.667 20.667 -86.334 62 -107.001l118 -61c52 -27.333 78 -66.666 78 -117.999v-107c0 -37.333 -10.5 -66.333 -31.5 -87s-57.167 -31 -108.5 -31s-87.333 10.333 -108 31
s-31 49.667 -31 87v60c0 4 2 6 6 6h4c4 0 6 -2 6 -6v-60c0 -32 9 -57.167 27 -75.5s50 -27.5 96 -27.5s78.167 9.16699 96.5 27.5s27.5 43.5 27.5 75.5v107c0 44.667 -23.333 79.334 -70 104.001l-119 61c-46 24 -69 64.333 -69 121v67c0 38 9.83301 67.167 29.5 87.5
s55.167 30.5 106.5 30.5c50.667 0 85.834 -10.167 105.501 -30.5s29.5 -49.5 29.5 -87.5v-66c0 -4 -2 -6 -6 -6h-4c-4 0 -6 2 -6 6z" />
    <glyph glyph-name="scircumflex" unicode="&#x15d;" horiz-adv-x="337" 
d="M166 694l-51 -114c-1.33301 -4 -4 -6 -8 -6h-4c-3.33301 0 -4.33301 2 -3 6l54 122c1.33301 4 4 6 8 6h7c4 0 6.66699 -1.66699 8 -5l55 -123c1.33301 -4 0.333008 -6 -3 -6h-4c-3.33301 0 -6 2 -8 6zM265 364l0.00195312 47.001c0 48.667 -33 73 -99 73
c-64.667 0 -97 -24.333 -97 -73v-50c0 -34 18.667 -59 56 -75l97 -41c43.333 -18.667 65 -46.334 65 -83.001v-82c0 -26.667 -9.83301 -48 -29.5 -64s-49.5 -24 -89.5 -24c-38.667 0 -68 8.16699 -88 24.5s-30 37.5 -30 63.5v41c0 3.33301 2 5 6 5h5
c3.33301 0 5 -1.66699 5 -5v-40c0 -22 8.66699 -39.833 26 -53.5s42.666 -20.5 75.999 -20.5c34.667 0 60.5 6.83301 77.5 20.5s25.5 31.5 25.5 53.5v78c0 32 -17.667 55.333 -53 70l-99 42c-16.667 7.33301 -31.834 18.5 -45.501 33.5s-20.5 33.5 -20.5 55.5v51
c0 26.667 9.16699 47.834 27.5 63.501s46.833 23.5 85.5 23.5s67.5 -7.83301 86.5 -23.5s28.5 -36.834 28.5 -63.501v-47c0 -3.33301 -1.66699 -5 -5 -5h-5c-4 0 -6 1.66699 -6 5z" />
    <glyph glyph-name="Scedilla" unicode="&#x15e;" horiz-adv-x="391" 
d="M198 -211l-71.002 -0.000976562c-4 0 -6 2 -6 6v4c0 4 2 6 6 6h71c14 0 27.5 4.83301 40.5 14.5s19.5 25.5 19.5 47.5c0 22.667 -6 38.5 -18 47.5s-25 13.5 -39 13.5h-27c-6 0 -8.33301 2.66699 -7 8l14 56c-46.667 2 -79.5 13.333 -98.5 34s-28.5 48.667 -28.5 84v60
c0 4 2 6 6 6h4c4 0 6 -2 6 -6v-60c0 -32 9 -57.167 27 -75.5s50 -27.5 96 -27.5s78.167 9.16699 96.5 27.5s27.5 43.5 27.5 75.5v107c0 44.667 -23.333 79.334 -70 104.001l-119 61c-46 24 -69 64.333 -69 121v67c0 38 9.83301 67.167 29.5 87.5s55.167 30.5 106.5 30.5
c50.667 0 85.834 -10.167 105.501 -30.5s29.5 -49.5 29.5 -87.5v-66c0 -4 -2 -6 -6 -6h-4c-4 0 -6 2 -6 6v66c0 32.667 -8.66699 58 -26 76s-48.333 27 -93 27c-45.333 0 -76.666 -9 -93.999 -27s-26 -43.333 -26 -76v-67c0 -50.667 20.667 -86.334 62 -107.001l118 -61
c52 -27.333 78 -66.666 78 -117.999v-107c0 -37.333 -10.333 -66.333 -31 -87s-56 -31 -106 -31l-12 -48h17c19.333 0 36.5 -5.83301 51.5 -17.5s22.5 -31.5 22.5 -59.5s-8 -48 -24 -60s-33.667 -18 -53 -18z" />
    <glyph glyph-name="scedilla" unicode="&#x15f;" horiz-adv-x="337" 
d="M173 -211l-70.998 0.000976562c-4 0 -6 2 -6 6v4c0 4 2 6 6 6h71c14 0 27.5 4.83301 40.5 14.5s19.5 25.5 19.5 47.5c0 22.667 -6 38.5 -18 47.5s-25 13.5 -39 13.5h-27c-6 0 -8.33301 2.66699 -7 8l14 56c-34.667 2 -61 11 -79 27s-27 36.333 -27 61v41
c0 3.33301 2 5 6 5h5c3.33301 0 5 -1.66699 5 -5v-40c0 -22 8.66699 -39.833 26 -53.5s42.666 -20.5 75.999 -20.5c34.667 0 60.5 6.83301 77.5 20.5s25.5 31.5 25.5 53.5v78c0 32 -17.667 55.333 -53 70l-99 42c-16.667 7.33301 -31.834 18.5 -45.501 33.5
s-20.5 33.5 -20.5 55.5v51c0 26.667 9.16699 47.834 27.5 63.501s46.833 23.5 85.5 23.5s67.5 -7.83301 86.5 -23.5s28.5 -36.834 28.5 -63.501v-47c0 -3.33301 -1.66699 -5 -5 -5h-5c-4 0 -6 1.66699 -6 5v47c0 48.667 -33 73 -99 73c-64.667 0 -97 -24.333 -97 -73v-50
c0 -34 18.667 -59 56 -75l97 -41c43.333 -18.667 65 -46.334 65 -83.001v-82c0 -26.667 -9.66699 -48 -29 -64s-48.333 -24 -87 -24l-12 -48h17c19.333 0 36.5 -5.83301 51.5 -17.5s22.5 -31.5 22.5 -59.5s-8 -48 -24 -60s-33.667 -18 -53 -18z" />
    <glyph glyph-name="Scaron" unicode="&#x160;" horiz-adv-x="391" 
d="M144 872l51 -114l51 114c2 4 4.66699 6 8 6h4c3.33301 0 4.33301 -2 3 -6l-55 -123c-1.33301 -3.33301 -4 -5 -8 -5h-7c-4 0 -6.66699 2 -8 6l-54 122c-1.33301 4 -0.333008 6 3 6h4c4 0 6.66699 -2 8 -6zM314 504l-0.00195312 65.999c0 32.667 -8.66699 58 -26 76
s-48.333 27 -93 27c-45.333 0 -76.666 -9 -93.999 -27s-26 -43.333 -26 -76v-67c0 -50.667 20.667 -86.334 62 -107.001l118 -61c52 -27.333 78 -66.666 78 -117.999v-107c0 -37.333 -10.5 -66.333 -31.5 -87s-57.167 -31 -108.5 -31s-87.333 10.333 -108 31
s-31 49.667 -31 87v60c0 4 2 6 6 6h4c4 0 6 -2 6 -6v-60c0 -32 9 -57.167 27 -75.5s50 -27.5 96 -27.5s78.167 9.16699 96.5 27.5s27.5 43.5 27.5 75.5v107c0 44.667 -23.333 79.334 -70 104.001l-119 61c-46 24 -69 64.333 -69 121v67c0 38 9.83301 67.167 29.5 87.5
s55.167 30.5 106.5 30.5c50.667 0 85.834 -10.167 105.501 -30.5s29.5 -49.5 29.5 -87.5v-66c0 -4 -2 -6 -6 -6h-4c-4 0 -6 2 -6 6z" />
    <glyph glyph-name="scaron" unicode="&#x161;" horiz-adv-x="337" 
d="M116 702l51 -114l51 114c2 4 4.66699 6 8 6h4c3.33301 0 4.33301 -2 3 -6l-55 -123c-1.33301 -3.33301 -4 -5 -8 -5h-7c-4 0 -6.66699 2 -8 6l-54 122c-1.33301 4 -0.333008 6 3 6h4c4 0 6.66699 -2 8 -6zM265 364l0.00195312 47.001c0 48.667 -33 73 -99 73
c-64.667 0 -97 -24.333 -97 -73v-50c0 -34 18.667 -59 56 -75l97 -41c43.333 -18.667 65 -46.334 65 -83.001v-82c0 -26.667 -9.83301 -48 -29.5 -64s-49.5 -24 -89.5 -24c-38.667 0 -68 8.16699 -88 24.5s-30 37.5 -30 63.5v41c0 3.33301 2 5 6 5h5
c3.33301 0 5 -1.66699 5 -5v-40c0 -22 8.66699 -39.833 26 -53.5s42.666 -20.5 75.999 -20.5c34.667 0 60.5 6.83301 77.5 20.5s25.5 31.5 25.5 53.5v78c0 32 -17.667 55.333 -53 70l-99 42c-16.667 7.33301 -31.834 18.5 -45.501 33.5s-20.5 33.5 -20.5 55.5v51
c0 26.667 9.16699 47.834 27.5 63.501s46.833 23.5 85.5 23.5s67.5 -7.83301 86.5 -23.5s28.5 -36.834 28.5 -63.501v-47c0 -3.33301 -1.66699 -5 -5 -5h-5c-4 0 -6 1.66699 -6 5z" />
    <glyph glyph-name="Tcommaaccent" unicode="&#x162;" horiz-adv-x="347" 
d="M26 680h295c4 0 6 -2 6 -6v-3c0 -4 -2 -6 -6 -6h-139v-659c0 -4 -2 -6 -6 -6h-4c-4 0 -6 2 -6 6v659h-140c-4 0 -6 2 -6 6v3c0 4 2 6 6 6zM166 -81l0.000976562 25c0 4 2 6 6 6h4c4 0 6 -2 6 -6v-25c0 -28.667 -9.66699 -63.667 -29 -105
c-2 -3.33301 -4.66699 -4.33301 -8 -3l-4 2c-2.66699 1.33301 -3.33398 4 -2.00098 8c1.33301 3.33301 3.5 8.33301 6.5 15s5.16699 11.334 6.5 14.001s3 6.66699 5 12s3.33301 9.66602 4 12.999l2.5 12.5c1 5 1.66699 10 2 15s0.5 10.5 0.5 16.5z" />
    <glyph glyph-name="tcommaaccent" unicode="&#x163;" horiz-adv-x="218" 
d="M93 489l89 0.000976562c4 0 6 -2 6 -6v-3c0 -4 -2 -6 -6 -6h-89v-375c0 -56 32.333 -84 97 -84h13c4 0 6 -2 6 -6v-3c0 -4 -2 -6 -6 -6h-13c-42 0 -71.333 8.66699 -88 26s-25 41.666 -25 72.999v375h-48c-4 0 -6 2 -6 6v1c0 4 2 6 6 6l38 2h10v114c0 4 2 6 6 6h4
c4 0 6 -2 6 -6v-114zM84 -80.999l0.000976562 25c0 4 2 6 6 6h4c4 0 6 -2 6 -6v-25c0 -28.667 -9.66699 -63.667 -29 -105c-2 -3.33301 -4.66699 -4.33301 -8 -3l-4 2c-2.66699 1.33301 -3.33398 4 -2.00098 8c1.33301 3.33301 3.5 8.33301 6.5 15
s5.16699 11.334 6.5 14.001s3 6.66699 5 12s3.33301 9.66602 4 12.999l2.5 12.5c1 5 1.66699 10 2 15s0.5 10.5 0.5 16.5z" />
    <glyph glyph-name="Tcaron" unicode="&#x164;" horiz-adv-x="347" 
d="M123 872l51 -114l51 114c2 4 4.66699 6 8 6h4c3.33301 0 4.33301 -2 3 -6l-55 -123c-1.33301 -3.33301 -4 -5 -8 -5h-7c-4 0 -6.66699 2 -8 6l-54 122c-1.33301 4 -0.333008 6 3 6h4c4 0 6.66699 -2 8 -6zM26 680h295c4 0 6 -2 6 -6v-3c0 -4 -2 -6 -6 -6h-139v-659
c0 -4 -2 -6 -6 -6h-4c-4 0 -6 2 -6 6v659h-140c-4 0 -6 2 -6 6v3c0 4 2 6 6 6z" />
    <glyph glyph-name="tcaron" unicode="&#x165;" horiz-adv-x="218" 
d="M165 657l0.00195312 25c0 4 2 6 6 6h4c4 0 6 -2 6 -6v-25c0 -28.667 -9.66699 -63.667 -29 -105c-2.66699 -3.33301 -5.33398 -4.33301 -8.00098 -3l-4 2c-2.66699 1.33301 -3.33398 4 -2.00098 8c1.33301 3.33301 3.5 8.33301 6.5 15s5.16699 11.334 6.5 14.001
s3 6.66699 5 12s3.33301 9.66602 4 12.999l2.5 12.5c1 5 1.66699 10 2 15s0.5 10.5 0.5 16.5zM93.002 489l89 0.000976562c4 0 6 -2 6 -6v-3c0 -4 -2 -6 -6 -6h-89v-375c0 -56 32.333 -84 97 -84h13c4 0 6 -2 6 -6v-3c0 -4 -2 -6 -6 -6h-13c-42 0 -71.333 8.66699 -88 26
s-25 41.666 -25 72.999v375h-48c-4 0 -6 2 -6 6v1c0 4 2 6 6 6l38 2h10v114c0 4 2 6 6 6h4c4 0 6 -2 6 -6v-114z" />
    <glyph glyph-name="Tbar" unicode="&#x166;" horiz-adv-x="377" 
d="M197 6c0 -4 -2 -6 -6 -6h-4c-4 0 -6 2 -6 6v447h-123c-4 0 -6 2 -6 6v3c0 4 2 6 6 6h123v197h-140c-4 0 -6 2 -6 6v3c0 4 2 6 6 6h295c4 0 6 -2 6 -6v-3c0 -4 -2 -6 -6 -6h-139v-197h124c4 0 6 -2 6 -6v-3c0 -4 -2 -6 -6 -6h-124v-447z" />
    <glyph glyph-name="tbar" unicode="&#x167;" horiz-adv-x="222" 
d="M212 6c0 -4 -2 -5.99902 -6 -5.99902h-13c-42 0 -71.333 8.66699 -88 26s-25 41.666 -25 72.999v224h-47c-4 0 -6 2 -6 6v3c0 4 2 6 6 6h47v136h-48c-4 0 -6 2 -6 6v1c0 4 2 6 6 6l38 2h10v114c0 4 2 6 6 6h4c4 0 6 -2 6 -6v-114h89c4 0 6 -2 6 -6v-3c0 -4 -2 -6 -6 -6
h-89v-136h90c4 0 6 -2 6 -6v-3c0 -4 -2 -6 -6 -6h-90v-224c0 -56 32.333 -84 97 -84h13c4 0 6 -2 6 -6v-3z" />
    <glyph glyph-name="Utilde" unicode="&#x168;" horiz-adv-x="430" 
d="M262 779c9.33301 0 15.666 3.66699 18.999 11s5 22 5 44v10c0 4 2 6 6 6h4c4 0 6 -2 6 -6v-10c0 -46.667 -13.667 -70 -41 -70c-12.667 0 -25.667 7.66699 -39 23l-29 32c-10.667 10.667 -19 16 -25 16c-9.33301 0 -15.666 -3.83301 -18.999 -11.5s-5 -22.167 -5 -43.5
v-10c0 -4 -2 -6 -6 -6h-4c-4 0 -6 2 -6 6v10c0 46.667 13.333 70 40 70c12.667 0 25.667 -7.66699 39 -23l29 -32c10 -10.667 18.667 -16 26 -16zM91 674v-564c0 -68.667 41 -103 123 -103c46 0 78.167 9 96.5 27s27.5 43.333 27.5 76v564c0 4 2 6 6 6h4c4 0 6 -2 6 -6v-564
c0 -37.333 -10.5 -66.333 -31.5 -87s-57.167 -31 -108.5 -31c-50.667 0 -86.5 10.333 -107.5 31s-31.5 49.667 -31.5 87v564c0 4 2 6 6 6h4c4 0 6 -2 6 -6z" />
    <glyph glyph-name="utilde" unicode="&#x169;" horiz-adv-x="368" 
d="M232 597c-13.333 0 -26.668 7.66699 -40.001 23l-28 32c-9.33301 10.667 -17.666 16 -24.999 16c-9.33301 0 -15.833 -3.66699 -19.5 -11s-5.5 -22 -5.5 -44v-10c0 -4 -2 -6 -6 -6h-4c-4 0 -6 2 -6 6v10c0 46.667 13.667 70 41 70c12.667 0 25.667 -7.66699 39 -23
l28 -32c10 -10.667 19 -16 27 -16c8.66699 0 14.667 3.66699 18 11s5 22 5 44v10c0 4 2 6 6 6h4c4 0 6 -2 6 -6v-10c0 -26 -3.33301 -44.167 -10 -54.5s-16.667 -15.5 -30 -15.5zM284.998 6l-1 36c-38.667 -33.333 -80 -50 -124 -50c-31.333 0 -54.833 8.33301 -70.5 25
s-23.5 39 -23.5 67v400c0 4 2 6 6 6h4c4 0 6 -2 6 -6v-400c0 -22.667 6.5 -41.167 19.5 -55.5s32.5 -21.5 58.5 -21.5c46.667 0 87.667 17.667 123 53v424c0 4 2 6 6 6h4c4 0 6 -2 6 -6v-478c0 -4 -2 -6 -6 -6h-2c-4 0 -6 2 -6 6z" />
    <glyph glyph-name="Umacron" unicode="&#x16a;" horiz-adv-x="430" 
d="M119 807h191c4 0 6 -2 6 -6v-3c0 -4 -2 -6 -6 -6h-191c-4 0 -6 2 -6 6v3c0 4 2 6 6 6zM91 674v-564c0 -68.667 41 -103 123 -103c46 0 78.167 9 96.5 27s27.5 43.333 27.5 76v564c0 4 2 6 6 6h4c4 0 6 -2 6 -6v-564c0 -37.333 -10.5 -66.333 -31.5 -87
s-57.167 -31 -108.5 -31c-50.667 0 -86.5 10.333 -107.5 31s-31.5 49.667 -31.5 87v564c0 4 2 6 6 6h4c4 0 6 -2 6 -6z" />
    <glyph glyph-name="umacron" unicode="&#x16b;" horiz-adv-x="368" 
d="M89 634h191c4 0 6 -2 6 -6v-3c0 -4 -2 -6 -6 -6h-191c-4 0 -6 2 -6 6v3c0 4 2 6 6 6zM285 6l-1 36c-38.667 -33.333 -80 -50 -124 -50c-31.333 0 -54.833 8.33301 -70.5 25s-23.5 39 -23.5 67v400c0 4 2 6 6 6h4c4 0 6 -2 6 -6v-400c0 -22.667 6.5 -41.167 19.5 -55.5
s32.5 -21.5 58.5 -21.5c46.667 0 87.667 17.667 123 53v424c0 4 2 6 6 6h4c4 0 6 -2 6 -6v-478c0 -4 -2 -6 -6 -6h-2c-4 0 -6 2 -6 6z" />
    <glyph glyph-name="Ubreve" unicode="&#x16c;" horiz-adv-x="430" 
d="M151 872v-17.999c0 -28.667 4.16699 -50.334 12.5 -65.001s25.166 -22 50.499 -22c24.667 0 41.334 7.5 50.001 22.5s13 36.5 13 64.5v18c0 4 2 6 6 6h4c4 0 6 -2 6 -6v-18c0 -33.333 -5.5 -58.666 -16.5 -75.999s-31.833 -26 -62.5 -26
c-31.333 0 -52.333 8.66699 -63 26s-16 42.666 -16 75.999v18c0 4 2 6 6 6h4c4 0 6 -2 6 -6zM91 674.001v-564c0 -68.667 41 -103 123 -103c46 0 78.167 9 96.5 27s27.5 43.333 27.5 76v564c0 4 2 6 6 6h4c4 0 6 -2 6 -6v-564c0 -37.333 -10.5 -66.333 -31.5 -87
s-57.167 -31 -108.5 -31c-50.667 0 -86.5 10.333 -107.5 31s-31.5 49.667 -31.5 87v564c0 4 2 6 6 6h4c4 0 6 -2 6 -6z" />
    <glyph glyph-name="ubreve" unicode="&#x16d;" horiz-adv-x="368" 
d="M121 682v-17.999c0 -28.667 4.16699 -50.334 12.5 -65.001s25.166 -22 50.499 -22c24.667 0 41.334 7.5 50.001 22.5s13 36.5 13 64.5v18c0 4 2 6 6 6h4c4 0 6 -2 6 -6v-18c0 -33.333 -5.5 -58.666 -16.5 -75.999s-31.833 -26 -62.5 -26
c-31.333 0 -52.333 8.66699 -63 26s-16 42.666 -16 75.999v18c0 4 2 6 6 6h4c4 0 6 -2 6 -6zM285 6.00098l-1 36c-38.667 -33.333 -80 -50 -124 -50c-31.333 0 -54.833 8.33301 -70.5 25s-23.5 39 -23.5 67v400c0 4 2 6 6 6h4c4 0 6 -2 6 -6v-400
c0 -22.667 6.5 -41.167 19.5 -55.5s32.5 -21.5 58.5 -21.5c46.667 0 87.667 17.667 123 53v424c0 4 2 6 6 6h4c4 0 6 -2 6 -6v-478c0 -4 -2 -6 -6 -6h-2c-4 0 -6 2 -6 6z" />
    <glyph glyph-name="Uring" unicode="&#x16e;" horiz-adv-x="430" 
d="M276 807v-7c0 -48 -20.667 -72 -62 -72c-40.667 0 -61 24 -61 72v7c0 48 20.333 72 61 72c41.333 0 62 -24 62 -72zM261 800v7c0 38.667 -15.667 58 -47 58c-30.667 0 -46 -19.333 -46 -58v-7c0 -38.667 15.333 -58 46 -58c31.333 0 47 19.333 47 58zM91 674v-564
c0 -68.667 41 -103 123 -103c46 0 78.167 9 96.5 27s27.5 43.333 27.5 76v564c0 4 2 6 6 6h4c4 0 6 -2 6 -6v-564c0 -37.333 -10.5 -66.333 -31.5 -87s-57.167 -31 -108.5 -31c-50.667 0 -86.5 10.333 -107.5 31s-31.5 49.667 -31.5 87v564c0 4 2 6 6 6h4c4 0 6 -2 6 -6z
" />
    <glyph glyph-name="uring" unicode="&#x16f;" horiz-adv-x="368" 
d="M245 640v-7c0 -48 -20.333 -72 -61 -72c-41.333 0 -62 24 -62 72v7c0 48 20.667 72 62 72c40.667 0 61 -24 61 -72zM230 633v7c0 38.667 -15.333 58 -46 58c-31.333 0 -47 -19.333 -47 -58v-7c0 -38.667 15.667 -58 47 -58c30.667 0 46 19.333 46 58zM285 6l-1 36
c-38.667 -33.333 -80 -50 -124 -50c-31.333 0 -54.833 8.33301 -70.5 25s-23.5 39 -23.5 67v400c0 4 2 6 6 6h4c4 0 6 -2 6 -6v-400c0 -22.667 6.5 -41.167 19.5 -55.5s32.5 -21.5 58.5 -21.5c46.667 0 87.667 17.667 123 53v424c0 4 2 6 6 6h4c4 0 6 -2 6 -6v-478
c0 -4 -2 -6 -6 -6h-2c-4 0 -6 2 -6 6z" />
    <glyph glyph-name="Uhungarumlaut" unicode="&#x170;" horiz-adv-x="430" 
d="M250 872l-56.999 -124c-0.666992 -2.66699 -2.66699 -4 -6 -4h-7c-2.66699 0 -3.33398 1.66699 -2.00098 5l54 124c1.33301 3.33301 4 5 8 5h6c4 0 5.33301 -2 4 -6zM312.001 872l-68 -125c-1.33301 -2 -3.66602 -3 -6.99902 -3h-6
c-2.66699 0 -3.33398 1.66699 -2.00098 5l65 124c2 3.33301 4.66699 5 8 5h7c4.66699 0 5.66699 -2 3 -6zM91.001 674v-564c0 -68.667 41 -103 123 -103c46 0 78.167 9 96.5 27s27.5 43.333 27.5 76v564c0 4 2 6 6 6h4c4 0 6 -2 6 -6v-564
c0 -37.333 -10.5 -66.333 -31.5 -87s-57.167 -31 -108.5 -31c-50.667 0 -86.5 10.333 -107.5 31s-31.5 49.667 -31.5 87v564c0 4 2 6 6 6h4c4 0 6 -2 6 -6z" />
    <glyph glyph-name="uhungarumlaut" unicode="&#x171;" horiz-adv-x="368" 
d="M218 702l-56.999 -124c-0.666992 -2.66699 -2.66699 -4 -6 -4h-7c-2.66699 0 -3.33398 1.66699 -2.00098 5l54 124c1.33301 3.33301 4 5 8 5h6c4 0 5.33301 -2 4 -6zM280.001 702l-68 -125c-1.33301 -2 -3.66602 -3 -6.99902 -3h-6
c-2.66699 0 -3.33398 1.66699 -2.00098 5l65 124c2 3.33301 4.66699 5 8 5h7c4.66699 0 5.66699 -2 3 -6zM285.001 6l-1 36c-38.667 -33.333 -80 -50 -124 -50c-31.333 0 -54.833 8.33301 -70.5 25s-23.5 39 -23.5 67v400c0 4 2 6 6 6h4c4 0 6 -2 6 -6v-400
c0 -22.667 6.5 -41.167 19.5 -55.5s32.5 -21.5 58.5 -21.5c46.667 0 87.667 17.667 123 53v424c0 4 2 6 6 6h4c4 0 6 -2 6 -6v-478c0 -4 -2 -6 -6 -6h-2c-4 0 -6 2 -6 6z" />
    <glyph glyph-name="Uogonek" unicode="&#x172;" horiz-adv-x="430" 
d="M91 674v-563.999c0 -68.667 41 -103 123 -103c46 0 78.167 9 96.5 27s27.5 43.333 27.5 76v564c0 4 2 6 6 6h4c4 0 6 -2 6 -6v-564c0 -42.667 -13.333 -74.334 -40 -95.001c-30.667 -22.667 -46 -52 -46 -88c0 -34 17.333 -51 52 -51h15c4 0 6 -2 6 -6v-3
c0 -4 -2 -6 -6 -6h-15c-45.333 0 -68 22.333 -68 67c0 25.333 8.33301 49.333 25 72c-19.333 -5.33301 -40.333 -8 -63 -8c-50.667 0 -86.5 10.333 -107.5 31s-31.5 49.667 -31.5 87v564c0 4 2 6 6 6h4c4 0 6 -2 6 -6z" />
    <glyph glyph-name="uogonek" unicode="&#x173;" horiz-adv-x="368" 
d="M289 -139h-9c-41.333 0 -62 18 -62 54c0 34.667 22.333 67 67 97l-1 30c-38.667 -33.333 -80 -50 -124 -50c-31.333 0 -54.833 8.33301 -70.5 25s-23.5 39 -23.5 67v400c0 4 2 6 6 6h4c4 0 6 -2 6 -6v-400c0 -22.667 6.5 -41.167 19.5 -55.5s32.5 -21.5 58.5 -21.5
c46.667 0 87.667 17.667 123 53v424c0 4 2 6 6 6h4c4 0 6 -2 6 -6v-478c0 -4 -2 -6 -6 -6h-1c-38.667 -22 -58 -50.667 -58 -86c0 -25.333 15.333 -38 46 -38h9c4 0 6 -2 6 -6v-3c0 -4 -2 -6 -6 -6z" />
    <glyph glyph-name="Wcircumflex" unicode="&#x174;" horiz-adv-x="573" 
d="M286 864l-51 -114c-1.33301 -4 -4 -6 -8 -6h-4c-3.33301 0 -4.33301 2 -3 6l54 122c1.33301 4 4 6 8 6h7c4 0 6.66699 -1.66699 8 -5l55 -123c1.33301 -4 0.333008 -6 -3 -6h-4c-3.33301 0 -6 2 -8 6zM296 674l103.999 -579c6.66699 -33.333 10.334 -56.333 11.001 -69
c0.666992 12 4.33398 35 11.001 69l105 579c0.666992 4 3 6 7 6h4c4 0 5.66699 -2 5 -6l-121 -668c-1.33301 -4 -4 -6 -8 -6h-5c-4.66699 0 -7.33398 2 -8.00098 6l-108 597c-3.33301 22 -5.66602 37 -6.99902 45c-1.33301 -14.667 -3.33301 -30 -6 -46l-108 -596
c-1.33301 -4 -4 -6 -8 -6h-5c-4.66699 0 -7.33398 2 -8.00098 6l-122 668c-0.666992 4 1.33301 6 6 6h4c3.33301 0 5.33301 -2 6 -6l105 -579c6 -34 9.66699 -57.333 11 -70c0.666992 8.66699 4.66699 32 12 70l104 579c0.666992 4 3 6 7 6h5c4 0 6.33301 -2 7 -6z" />
    <glyph glyph-name="wcircumflex" unicode="&#x175;" horiz-adv-x="459" 
d="M230 694l-51 -114c-1.33301 -4 -4 -6 -8 -6h-4c-3.33301 0 -4.33301 2 -3 6l54 122c1.33301 4 4 6 8 6h7c4 0 6.66699 -1.66699 8 -5l55 -123c1.33301 -4 0.333008 -6 -3 -6h-4c-3.33301 0 -6 2 -8 6zM431 484l-94.999 -478.001c-1.33301 -4 -3.66602 -6 -6.99902 -6h-4
c-3.33301 0 -5.66602 2 -6.99902 6l-82 420c-2 10 -4 22.333 -6 37c-2.66699 -16 -5 -28.333 -7 -37l-82 -420c-0.666992 -4 -3 -6 -7 -6h-4c-4 0 -6.33301 2 -7 6l-94 478c-0.666992 4 0.666016 6 3.99902 6h6c3.33301 0 5.33301 -2 6 -6l81 -421
c3.33301 -15.333 5.66602 -27.333 6.99902 -36c0.666992 8 2.66699 20 6 36l81 421c0.666992 4 2.66699 6 6 6h8c3.33301 0 5.33301 -2 6 -6l81 -421l7 -35c0.666992 8.66699 2.66699 20.334 6 35.001l81 421c0.666992 4 2.66699 6 6 6h6c3.33301 0 4.66602 -2 3.99902 -6z
" />
    <glyph glyph-name="Ycircumflex" unicode="&#x176;" horiz-adv-x="363" 
d="M181 864l-51 -114c-1.33301 -4 -4 -6 -8 -6h-4c-3.33301 0 -4.33301 2 -3 6l54 122c1.33301 4 4 6 8 6h7c4 0 6.66699 -1.66699 8 -5l55 -123c1.33301 -4 0.333008 -6 -3 -6h-4c-3.33301 0 -6 2 -8 6zM37 674l135.999 -343.001c3.33301 -8 6.33301 -16.333 9 -25
c2.66699 10.667 5.33398 19.334 8.00098 26.001l136 342c1.33301 4 3.66602 6 6.99902 6h4c4.66699 0 6.33398 -2 5.00098 -6l-152 -382v-286c0 -4 -2 -6 -6 -6h-4c-4 0 -6 2 -6 6v285l-153 383c-1.33301 4 0 6 4 6h4c3.33301 0 6 -2 8 -6z" />
    <glyph glyph-name="ycircumflex" unicode="&#x177;" horiz-adv-x="304" 
d="M154 694l-51 -114c-1.33301 -4 -4 -6 -8 -6h-4c-3.33301 0 -4.33301 2 -3 6l54 122c1.33301 4 4 6 8 6h7c4 0 6.66699 -1.66699 8 -5l55 -123c1.33301 -4 0.333008 -6 -3 -6h-4c-3.33301 0 -6 2 -8 6zM43 484l103.001 -421c4.66699 -19.333 7.33398 -31.333 8.00098 -36
c0 4 2.33301 16 7 36l100 421c0.666992 4 2.66699 6 6 6h6c3.33301 0 4.66602 -2 3.99902 -6l-163 -676c-1.33301 -4 -3.33301 -6 -6 -6h-6c-4 0 -5.33301 2 -4 6l47 193l-118 483c-0.666992 4 0.666016 6 3.99902 6h6c3.33301 0 5.33301 -2 6 -6z" />
    <glyph glyph-name="Ydieresis" unicode="&#x178;" horiz-adv-x="363" 
d="M220 860v-100c0 -4 -2 -6 -6 -6h-4c-4 0 -6 2 -6 6v100c0 4 2 6 6 6h4c4 0 6 -2 6 -6zM158 860v-100c0 -4 -2 -6 -6 -6h-4c-4 0 -6 2 -6 6v100c0 4 2 6 6 6h4c4 0 6 -2 6 -6zM37 674l135.999 -343.001c3.33301 -8 6.33301 -16.333 9 -25
c2.66699 10.667 5.33398 19.334 8.00098 26.001l136 342c1.33301 4 3.66602 6 6.99902 6h4c4.66699 0 6.33398 -2 5.00098 -6l-152 -382v-286c0 -4 -2 -6 -6 -6h-4c-4 0 -6 2 -6 6v285l-153 383c-1.33301 4 0 6 4 6h4c3.33301 0 6 -2 8 -6z" />
    <glyph glyph-name="Zacute" unicode="&#x179;" horiz-adv-x="331" 
d="M234 872l-61 -125c-0.666992 -2 -2.66699 -3 -6 -3h-7c-3.33301 0 -4 1.66699 -2 5l59 125c2 2.66699 4.33301 4 7 4h7c4.66699 0 5.66699 -2 3 -6zM45 680h244c4 0 6 -2 6 -6v-1c0 -1.33301 -0.666992 -4 -2 -8l-249 -650h255c4 0 6 -2 6 -6v-3c0 -4 -2 -6 -6 -6h-268
c-4 0 -6 2 -6 6v1c0 1.33301 0.666992 4 2 8l248 650h-230c-4 0 -6 2 -6 6v3c0 4 2 6 6 6z" />
    <glyph glyph-name="zacute" unicode="&#x17a;" horiz-adv-x="298" 
d="M216 702l-61.999 -125c-1.33301 -2 -3.33301 -3 -6 -3h-7c-2.66699 0 -3.33398 1.66699 -2.00098 5l60 125c0.666992 2.66699 3 4 7 4h7c3.33301 0 4.33301 -2 3 -6zM44.001 490h210c4 0 6 -1.66699 6 -5v-2c0 -2.66699 -0.666992 -5.33398 -2 -8.00098l-209 -460h213
c4 0 6 -2 6 -6v-3c0 -4 -2 -6 -6 -6h-226c-4 0 -6 1.66699 -6 5v2c0 2.66699 0.666992 5.33398 2 8.00098l209 460h-197c-4 0 -6 2 -6 6v3c0 4 2 6 6 6z" />
    <glyph glyph-name="Zdotaccent" unicode="&#x17b;" horiz-adv-x="331" 
d="M172 838v-75c0 -4 -2 -6 -6 -6h-4c-4 0 -6 2 -6 6v75c0 4 2 6 6 6h4c4 0 6 -2 6 -6zM45 680h244c4 0 6 -2 6 -6v-1c0 -1.33301 -0.666992 -4 -2 -8l-249 -650h255c4 0 6 -2 6 -6v-3c0 -4 -2 -6 -6 -6h-268c-4 0 -6 2 -6 6v1c0 1.33301 0.666992 4 2 8l248 650h-230
c-4 0 -6 2 -6 6v3c0 4 2 6 6 6z" />
    <glyph glyph-name="zdotaccent" unicode="&#x17c;" horiz-adv-x="298" 
d="M161 674v-75c0 -4 -2 -6 -6 -6h-4c-4 0 -6 2 -6 6v75c0 4 2 6 6 6h4c4 0 6 -2 6 -6zM44 490h210c4 0 6 -1.66699 6 -5v-2c0 -2.66699 -0.666992 -5.33398 -2 -8.00098l-209 -460h213c4 0 6 -2 6 -6v-3c0 -4 -2 -6 -6 -6h-226c-4 0 -6 1.66699 -6 5v2
c0 2.66699 0.666992 5.33398 2 8.00098l209 460h-197c-4 0 -6 2 -6 6v3c0 4 2 6 6 6z" />
    <glyph glyph-name="Zcaron" unicode="&#x17d;" horiz-adv-x="331" 
d="M115 892l51 -114l51 114c2 4 4.66699 6 8 6h4c3.33301 0 4.33301 -2 3 -6l-55 -123c-1.33301 -3.33301 -4 -5 -8 -5h-7c-4 0 -6.66699 2 -8 6l-54 122c-1.33301 4 -0.333008 6 3 6h4c4 0 6.66699 -2 8 -6zM45 680h244c4 0 6 -2 6 -6v-1c0 -1.33301 -0.666992 -4 -2 -8
l-249 -650h255c4 0 6 -2 6 -6v-3c0 -4 -2 -6 -6 -6h-268c-4 0 -6 2 -6 6v1c0 1.33301 0.666992 4 2 8l248 650h-230c-4 0 -6 2 -6 6v3c0 4 2 6 6 6z" />
    <glyph glyph-name="zcaron" unicode="&#x17e;" horiz-adv-x="298" 
d="M100 702l51 -114l51 114c2 4 4.66699 6 8 6h4c3.33301 0 4.33301 -2 3 -6l-55 -123c-1.33301 -3.33301 -4 -5 -8 -5h-7c-4 0 -6.66699 2 -8 6l-54 122c-1.33301 4 -0.333008 6 3 6h4c4 0 6.66699 -2 8 -6zM44 490h210c4 0 6 -1.66699 6 -5v-2
c0 -2.66699 -0.666992 -5.33398 -2 -8.00098l-209 -460h213c4 0 6 -2 6 -6v-3c0 -4 -2 -6 -6 -6h-226c-4 0 -6 1.66699 -6 5v2c0 2.66699 0.666992 5.33398 2 8.00098l209 460h-197c-4 0 -6 2 -6 6v3c0 4 2 6 6 6z" />
    <glyph glyph-name="longs" unicode="&#x17f;" horiz-adv-x="178" 
d="M68 489h11v111c0 65.333 38.667 98 116 98h3c4 0 6 -2 6 -6v-3c0 -4 -2 -6 -6 -6h-3c-37.333 0 -63.333 -7.33301 -78 -22s-22 -35 -22 -61v-594c0 -4 -2 -6 -6 -6h-4c-4 0 -6 2 -6 6v468h-48c-4 0 -6 2 -6 6v1c0 4 2 6 6 6z" />
    <glyph glyph-name="florin" unicode="&#x192;" horiz-adv-x="295" 
d="M286 693h-4c-38 0 -65.333 -8.5 -82 -25.5s-26.667 -40.833 -30 -71.5l-21 -196h82c4 0 6 -2 6 -6v-3c0 -4 -2 -6 -6 -6h-84l-53 -491c-4 -36 -15.5 -63.667 -34.5 -83s-50.5 -29 -94.5 -29h-3c-4 0 -6 2 -6 6v3c0 4 2 6 6 6h4c38 0 65.333 8.5 82 25.5
s26.667 40.833 30 71.5l54 491h-78c-4 0 -6 2 -6 6v3c0 4 2 6 6 6h80l20 196c4 36 15.5 63.667 34.5 83s50.5 29 94.5 29h3c4 0 6 -2 6 -6v-3c0 -4 -2 -6 -6 -6z" />
    <glyph glyph-name="Aringacute" unicode="&#x1fa;" horiz-adv-x="379" 
d="M191 728c-40.667 0 -61 24.001 -61 72.001v7c0 48 19 72 57 72l53 81c2.66699 2.66699 5 4 7 4h7c4.66699 0 5.66699 -2 3 -6l-54 -80c33.333 -4.66699 50 -28.334 50 -71.001v-7c0 -48 -20.667 -72 -62 -72zM238 800.001v7c0 38.667 -15.667 58 -47 58
c-30.667 0 -46 -19.333 -46 -58v-7c0 -38.667 15.333 -58 46 -58c31.333 0 47 19.333 47 58zM283 247.001l-79 340c-8 36 -12.667 59.333 -14 70c-4 -20 -9 -43 -15 -69l-79 -341h187zM187 680.001h4.99805c4 0 6.66699 -2 8 -6l155 -668c0.666992 -4 -1 -6 -5 -6h-4
c-4 0 -6.33301 2 -7 6l-52 226h-195l-52 -226c-1.33301 -4 -3.66602 -6 -6.99902 -6h-4c-4 0 -5.66699 2 -5 6l155 668c0.666992 4 3.33398 6 8.00098 6z" />
    <glyph glyph-name="aringacute" unicode="&#x1fb;" horiz-adv-x="354" 
d="M175 561c-41.333 0 -62 24.001 -62 72.001v7c0 48 19.333 72 58 72l56 117c0.666992 2.66699 3 4 7 4h7c3.33301 0 4.33301 -2 3 -6l-57 -116c32.667 -4.66699 49 -28.334 49 -71.001v-7c0 -48 -20.333 -72 -61 -72zM221 633.001v7c0 38.667 -15.333 58 -46 58
c-31.333 0 -47 -19.333 -47 -58v-7c0 -38.667 15.667 -58 47 -58c30.667 0 46 19.333 46 58zM152 7.00098c44.667 0 84.667 17.666 120 52.999v194h-124c-26 0 -45.833 -7.66699 -59.5 -23s-20.5 -35.333 -20.5 -60v-80c0 -25.333 7 -45.666 21 -60.999s35 -23 63 -23z
M56 365l0.000976562 34c0 31.333 8.5 55.666 25.5 72.999s47.167 26 90.5 26s73.5 -8.66699 90.5 -26s25.5 -41.666 25.5 -72.999v-393c0 -4 -2 -6 -6 -6h-2c-4 0 -6 2 -6 6l-2 36c-35.333 -33.333 -75.333 -50 -120 -50c-34 0 -59.167 9 -75.5 27s-24.5 42 -24.5 72v80
c0 29.333 8.16699 53 24.5 71s40.166 27 71.499 27h124v130c0 26.667 -7.33301 47.334 -22 62.001s-40.667 22 -78 22s-63.333 -7.33301 -78 -22s-22 -35.334 -22 -62.001v-34c0 -4 -2 -6 -6 -6h-4c-4 0 -6 2 -6 6z" />
    <glyph glyph-name="AEacute" unicode="&#x1fc;" horiz-adv-x="600" 
d="M401 872l-61 -125c-1.33301 -2 -3.33301 -3 -6 -3h-7c-3.33301 0 -4 1.66699 -2 5l59 125c2 2.66699 4.33301 4 7 4h7c4.66699 0 5.66699 -2 3 -6zM275 587l-142.001 -340h164v397c-5.33301 -18 -12.666 -37 -21.999 -57zM304.999 680h240c4 0 6 -2 6 -6v-3
c0 -4 -2 -6 -6 -6h-232v-297h220c4 0 6 -2 6 -6v-3c0 -4 -2 -6 -6 -6h-220v-338h243c4 0 6 -2 6 -6v-3c0 -4 -2 -6 -6 -6h-248c-7.33301 0 -11 2 -11 6v226h-171l-93 -226c-2 -4 -4.33301 -6 -7 -6h-4c-5.33301 0 -7 2 -5 6l279 668c1.33301 4 4.33301 6 9 6z" />
    <glyph glyph-name="aeacute" unicode="&#x1fd;" horiz-adv-x="565" 
d="M357 702l-61.999 -125c-0.666992 -2 -2.66699 -3 -6 -3h-7c-2.66699 0 -3.33398 1.66699 -2.00098 5l60 125c0.666992 2.66699 3 4 7 4h7c3.33301 0 4.33301 -2 3 -6zM509.001 399l0.000976562 -138.998c0 -4 -2 -6 -6 -6h-215v-180c0 -44.667 34.333 -67 103 -67
c68 0 102 25.667 102 77v49c0 4 2 6 6 6h4c4 0 6 -2 6 -6v-49c0 -61.333 -39.333 -92 -118 -92c-69.333 0 -108.333 20 -117 60c-37.333 -40 -78 -60 -122 -60c-34 0 -59.167 8.33301 -75.5 25s-24.5 39 -24.5 67v87c0 29.333 8.16699 53 24.5 71s40.166 27 71.499 27h124
v133c0 54 -33.333 81 -100 81c-37.333 0 -63.333 -7.33301 -78 -22s-22 -35.334 -22 -62.001v-34c0 -4 -2 -6 -6 -6h-4c-4 0 -6 2 -6 6v34c0 31.333 8.5 55.666 25.5 72.999s47.167 26 90.5 26c58.667 0 94.667 -18 108 -54c14 36 51 54 111 54c78.667 0 118 -33 118 -99z
M288.002 399.002v-130h205v130c0 56 -34 84 -102 84c-68.667 0 -103 -28 -103 -84zM152.002 7.00195c44 0 84 21 120 63v184h-124c-26 0 -45.833 -7.66699 -59.5 -23s-20.5 -35.333 -20.5 -60v-87c0 -22.667 7 -41.167 21 -55.5s35 -21.5 63 -21.5z" />
    <glyph glyph-name="Oslashacute" unicode="&#x1fe;" horiz-adv-x="418" 
d="M283 872l-61 -125c-1.33301 -2 -3.33301 -3 -6 -3h-7c-3.33301 0 -4 1.66699 -2 5l59 125c2 2.66699 4.33301 4 7 4h7c4.66699 0 5.66699 -2 3 -6zM85 110c0 -29.333 7.33301 -52.333 22 -69l198 604c-20 18.667 -52.333 28 -97 28c-82 0 -123 -34.333 -123 -103v-460z
M208 7c46 0 78.167 9.16699 96.5 27.5s27.5 43.5 27.5 75.5v460c0 26 -5 46.333 -15 61l-198 -601c19.333 -15.333 49 -23 89 -23zM104 -16c-1.33301 -4 -3.66699 -5.99902 -7 -5.99902h-4c-4.66699 0 -6.33398 2 -5.00098 6l13 39c-21.333 18.667 -32 47.667 -32 87v460
c0 37.333 10.5 66.333 31.5 87s56.833 31 107.5 31c44.667 0 79 -8.66699 103 -26l11 34c1.33301 4 4 6 8 6h3c4.66699 0 6.33398 -2 5.00098 -6l-15 -46c16.667 -18.667 25 -45.334 25 -80.001v-460c0 -37.333 -10.5 -66.333 -31.5 -87s-57.167 -31 -108.5 -31
c-40 0 -71.333 7 -94 21z" />
    <glyph glyph-name="oslashacute" unicode="&#x1ff;" horiz-adv-x="358" 
d="M249 702l-61.999 -125c-0.666992 -2 -2.66699 -3 -6 -3h-7c-2.66699 0 -3.33398 1.66699 -2.00098 5l60 125c0.666992 2.66699 3 4 7 4h7c3.33301 0 4.33301 -2 3 -6zM77.001 94c0 -20 3.66699 -36 11 -48l172 412c-16.667 16.667 -43.667 25 -81 25
c-68 0 -102 -29 -102 -87v-302zM179.001 7c68 0 102 29 102 87v302c0 20.667 -3.66699 37 -11 49l-172 -413c16.667 -16.667 43.667 -25 81 -25zM71.001 -22h-5.00195c-4 0 -5.33301 2 -4 6l18 43c-12.667 16 -19 38.333 -19 67v302c0 32 8.83301 57 26.5 75
s48.167 27 91.5 27c38.667 0 68 -8 88 -24l14 35c2 4 4.66699 6 8 6h4c3.33301 0 4.33301 -2 3 -6l-19 -45c13.333 -16 20 -38.667 20 -68v-302c0 -32 -8.83301 -57 -26.5 -75s-48.167 -27 -91.5 -27c-39.333 0 -68.666 8 -87.999 24l-13 -32
c-1.33301 -4 -3.66602 -6 -6.99902 -6z" />
    <glyph glyph-name="Scommaaccent" unicode="&#x218;" horiz-adv-x="391" 
d="M314 504l-0.00195312 65.999c0 32.667 -8.66699 58 -26 76s-48.333 27 -93 27c-45.333 0 -76.666 -9 -93.999 -27s-26 -43.333 -26 -76v-67c0 -50.667 20.667 -86.334 62 -107.001l118 -61c52 -27.333 78 -66.666 78 -117.999v-107c0 -37.333 -10.5 -66.333 -31.5 -87
s-57.167 -31 -108.5 -31s-87.333 10.333 -108 31s-31 49.667 -31 87v60c0 4 2 6 6 6h4c4 0 6 -2 6 -6v-60c0 -32 9 -57.167 27 -75.5s50 -27.5 96 -27.5s78.167 9.16699 96.5 27.5s27.5 43.5 27.5 75.5v107c0 44.667 -23.333 79.334 -70 104.001l-119 61
c-46 24 -69 64.333 -69 121v67c0 38 9.83301 67.167 29.5 87.5s55.167 30.5 106.5 30.5c50.667 0 85.834 -10.167 105.501 -30.5s29.5 -49.5 29.5 -87.5v-66c0 -4 -2 -6 -6 -6h-4c-4 0 -6 2 -6 6zM190.998 -82.001l0.00195312 25c0 4 2 6 6 6h4c4 0 6 -2 6 -6v-25
c0 -28.667 -9.66699 -63.667 -29 -105c-2.66699 -3.33301 -5.33398 -4.33301 -8.00098 -3l-4 2c-2.66699 1.33301 -3.33398 4 -2.00098 8c1.33301 3.33301 3.5 8.33301 6.5 15s5.16699 11.334 6.5 14.001s3 6.66699 5 12s3.33301 9.66602 4 12.999l2.5 12.5
c1 5 1.66699 10 2 15s0.5 10.5 0.5 16.5z" />
    <glyph glyph-name="scommaaccent" unicode="&#x219;" horiz-adv-x="337" 
d="M265 364l0.00195312 47.001c0 48.667 -33 73 -99 73c-64.667 0 -97 -24.333 -97 -73v-50c0 -34 18.667 -59 56 -75l97 -41c43.333 -18.667 65 -46.334 65 -83.001v-82c0 -26.667 -9.83301 -48 -29.5 -64s-49.5 -24 -89.5 -24c-38.667 0 -68 8.16699 -88 24.5
s-30 37.5 -30 63.5v41c0 3.33301 2 5 6 5h5c3.33301 0 5 -1.66699 5 -5v-40c0 -22 8.66699 -39.833 26 -53.5s42.666 -20.5 75.999 -20.5c34.667 0 60.5 6.83301 77.5 20.5s25.5 31.5 25.5 53.5v78c0 32 -17.667 55.333 -53 70l-99 42
c-16.667 7.33301 -31.834 18.5 -45.501 33.5s-20.5 33.5 -20.5 55.5v51c0 26.667 9.16699 47.834 27.5 63.501s46.833 23.5 85.5 23.5s67.5 -7.83301 86.5 -23.5s28.5 -36.834 28.5 -63.501v-47c0 -3.33301 -1.66699 -5 -5 -5h-5c-4 0 -6 1.66699 -6 5zM161.002 -81.999
l0.00195312 25c0 4 2 6 6 6h4c4 0 6 -2 6 -6v-25c0 -28.667 -9.66699 -63.667 -29 -105c-2.66699 -3.33301 -5.33398 -4.33301 -8.00098 -3l-4 2c-2.66699 1.33301 -3.33398 4 -2.00098 8c1.33301 3.33301 3.5 8.33301 6.5 15s5.16699 11.334 6.5 14.001s3 6.66699 5 12
s3.33301 9.66602 4 12.999l2.5 12.5c1 5 1.66699 10 2 15s0.5 10.5 0.5 16.5z" />
    <glyph glyph-name="dotlessj" unicode="&#x237;" horiz-adv-x="153" 
d="M84 484v-583c0 -31.333 -8.5 -55.666 -25.5 -72.999s-47.167 -26 -90.5 -26h-3c-4 0 -6 2 -6 6v3c0 4 2 6 6 6h3c37.333 0 63.333 7.16699 78 21.5s22 35.166 22 62.499v583c0 4 2 6 6 6h4c4 0 6 -2 6 -6z" />
    <glyph glyph-name="circumflex" unicode="&#x2c6;" horiz-adv-x="243" 
d="M121 694l-51 -114c-1.33301 -4 -4 -6 -8 -6h-4c-3.33301 0 -4.33301 2 -3 6l54 122c1.33301 4 4 6 8 6h7c4 0 6.66699 -1.66699 8 -5l55 -123c1.33301 -4 0.333008 -6 -3 -6h-4c-3.33301 0 -6 2 -8 6z" />
    <glyph glyph-name="caron" unicode="&#x2c7;" horiz-adv-x="243" 
d="M70 702l51 -114l51 114c2 4 4.66699 6 8 6h4c3.33301 0 4.33301 -2 3 -6l-55 -123c-1.33301 -3.33301 -4 -5 -8 -5h-7c-4 0 -6.66699 2 -8 6l-54 122c-1.33301 4 -0.333008 6 3 6h4c4 0 6.66699 -2 8 -6z" />
    <glyph glyph-name="breve" unicode="&#x2d8;" horiz-adv-x="286" 
d="M80 682v-17.999c0 -28.667 4.16699 -50.334 12.5 -65.001s25.166 -22 50.499 -22c24.667 0 41.334 7.5 50.001 22.5s13 36.5 13 64.5v18c0 4 2 6 6 6h4c4 0 6 -2 6 -6v-18c0 -33.333 -5.5 -58.666 -16.5 -75.999s-31.833 -26 -62.5 -26c-31.333 0 -52.333 8.66699 -63 26
s-16 42.666 -16 75.999v18c0 4 2 6 6 6h4c4 0 6 -2 6 -6z" />
    <glyph glyph-name="dotaccent" unicode="&#x2d9;" horiz-adv-x="172" 
d="M94 674v-75c0 -4 -2 -6 -6 -6h-4c-4 0 -6 2 -6 6v75c0 4 2 6 6 6h4c4 0 6 -2 6 -6z" />
    <glyph glyph-name="ring" unicode="&#x2da;" horiz-adv-x="279" 
d="M201 640v-7c0 -48 -20.333 -72 -61 -72c-41.333 0 -62 24 -62 72v7c0 48 20.667 72 62 72c40.667 0 61 -24 61 -72zM186 633v7c0 38.667 -15.333 58 -46 58c-31.333 0 -47 -19.333 -47 -58v-7c0 -38.667 15.667 -58 47 -58c30.667 0 46 19.333 46 58z" />
    <glyph glyph-name="ogonek" unicode="&#x2db;" horiz-adv-x="164" 
d="M111 -139h-9c-41.333 0 -62 20 -62 60c0 16 5.16699 32.667 15.5 50s25.833 31.666 46.5 42.999c4 2.66699 7.33301 2.66699 10 0l4 -4c3.33301 -3.33301 3 -5.66602 -1 -6.99902c-20 -8.66699 -34.833 -21 -44.5 -37s-14.5 -31.333 -14.5 -46
c0 -29.333 15.333 -44 46 -44h9c4 0 6 -2 6 -6v-3c0 -4 -2 -6 -6 -6z" />
    <glyph glyph-name="tilde" unicode="&#x2dc;" horiz-adv-x="313" 
d="M203 597c-13.333 0 -26.668 7.66699 -40.001 23l-28 32c-9.33301 10.667 -17.666 16 -24.999 16c-9.33301 0 -15.833 -3.66699 -19.5 -11s-5.5 -22 -5.5 -44v-10c0 -4 -2 -6 -6 -6h-4c-4 0 -6 2 -6 6v10c0 46.667 13.667 70 41 70c12.667 0 25.667 -7.66699 39 -23
l28 -32c10 -10.667 19 -16 27 -16c8.66699 0 14.667 3.66699 18 11s5 22 5 44v10c0 4 2 6 6 6h4c4 0 6 -2 6 -6v-10c0 -26 -3.33301 -44.167 -10 -54.5s-16.667 -15.5 -30 -15.5z" />
    <glyph glyph-name="hungarumlaut" unicode="&#x2dd;" horiz-adv-x="259" 
d="M134 702l-56.999 -124c-0.666992 -2.66699 -2.66699 -4 -6 -4h-7c-2.66699 0 -3.33398 1.66699 -2.00098 5l54 124c1.33301 3.33301 4 5 8 5h6c4 0 5.33301 -2 4 -6zM196.001 702l-68 -125c-1.33301 -2 -3.66602 -3 -6.99902 -3h-6
c-2.66699 0 -3.33398 1.66699 -2.00098 5l65 124c2 3.33301 4.66699 5 8 5h7c4.66699 0 5.66699 -2 3 -6z" />
    <glyph glyph-name="pi" unicode="&#x3c0;" horiz-adv-x="325" 
d="M52 415h220.999c6.66699 0 10.5 -3.16699 11.5 -9.5s-0.5 -12.5 -4.5 -18.5l-103 -167c-3.33301 -5.33301 -8 -8 -14 -8s-10.667 2.66699 -14 8l-103 167c-4 6 -5.66699 12.167 -5 18.5s4.33398 9.5 11.001 9.5z" />
    <glyph glyph-name="Wgrave" unicode="&#x1e80;" horiz-adv-x="573" 
d="M276 747l-61 125c-2.66699 4 -1.66699 6 3 6h7c2.66699 0 5 -1.33301 7 -4l59 -125c2 -3.33301 1.33301 -5 -2 -5h-7c-2.66699 0 -4.66699 1 -6 3zM296 674l103.999 -579c6.66699 -33.333 10.334 -56.333 11.001 -69c0.666992 12 4.33398 35 11.001 69l105 579
c0.666992 4 3 6 7 6h4c4 0 5.66699 -2 5 -6l-121 -668c-1.33301 -4 -4 -6 -8 -6h-5c-4.66699 0 -7.33398 2 -8.00098 6l-108 597c-3.33301 22 -5.66602 37 -6.99902 45c-1.33301 -14.667 -3.33301 -30 -6 -46l-108 -596c-1.33301 -4 -4 -6 -8 -6h-5
c-4.66699 0 -7.33398 2 -8.00098 6l-122 668c-0.666992 4 1.33301 6 6 6h4c3.33301 0 5.33301 -2 6 -6l105 -579c6 -34 9.66699 -57.333 11 -70c0.666992 8.66699 4.66699 32 12 70l104 579c0.666992 4 3 6 7 6h5c4 0 6.33301 -2 7 -6z" />
    <glyph glyph-name="wgrave" unicode="&#x1e81;" horiz-adv-x="459" 
d="M224 577l-61.999 125c-1.33301 4 -0.333008 6 3 6h7c4 0 6.33301 -1.33301 7 -4l60 -125c1.33301 -3.33301 0.666016 -5 -2.00098 -5h-7c-2.66699 0 -4.66699 1 -6 3zM431.001 484l-94.999 -478.001c-1.33301 -4 -3.66602 -6 -6.99902 -6h-4
c-3.33301 0 -5.66602 2 -6.99902 6l-82 420c-2 10 -4 22.333 -6 37c-2.66699 -16 -5 -28.333 -7 -37l-82 -420c-0.666992 -4 -3 -6 -7 -6h-4c-4 0 -6.33301 2 -7 6l-94 478c-0.666992 4 0.666016 6 3.99902 6h6c3.33301 0 5.33301 -2 6 -6l81 -421
c3.33301 -15.333 5.66602 -27.333 6.99902 -36c0.666992 8 2.66699 20 6 36l81 421c0.666992 4 2.66699 6 6 6h8c3.33301 0 5.33301 -2 6 -6l81 -421l7 -35c0.666992 8.66699 2.66699 20.334 6 35.001l81 421c0.666992 4 2.66699 6 6 6h6c3.33301 0 4.66602 -2 3.99902 -6z
" />
    <glyph glyph-name="Wacute" unicode="&#x1e82;" horiz-adv-x="573" 
d="M358 872l-61 -125c-0.666992 -2 -2.66699 -3 -6 -3h-7c-3.33301 0 -4 1.66699 -2 5l59 125c2 2.66699 4.33301 4 7 4h7c4.66699 0 5.66699 -2 3 -6zM296 674l103.999 -579c6.66699 -33.333 10.334 -56.333 11.001 -69c0.666992 12 4.33398 35 11.001 69l105 579
c0.666992 4 3 6 7 6h4c4 0 5.66699 -2 5 -6l-121 -668c-1.33301 -4 -4 -6 -8 -6h-5c-4.66699 0 -7.33398 2 -8.00098 6l-108 597c-3.33301 22 -5.66602 37 -6.99902 45c-1.33301 -14.667 -3.33301 -30 -6 -46l-108 -596c-1.33301 -4 -4 -6 -8 -6h-5
c-4.66699 0 -7.33398 2 -8.00098 6l-122 668c-0.666992 4 1.33301 6 6 6h4c3.33301 0 5.33301 -2 6 -6l105 -579c6 -34 9.66699 -57.333 11 -70c0.666992 8.66699 4.66699 32 12 70l104 579c0.666992 4 3 6 7 6h5c4 0 6.33301 -2 7 -6z" />
    <glyph glyph-name="wacute" unicode="&#x1e83;" horiz-adv-x="459" 
d="M306 702l-61.999 -125c-1.33301 -2 -3.33301 -3 -6 -3h-7c-2.66699 0 -3.33398 1.66699 -2.00098 5l60 125c0.666992 2.66699 3 4 7 4h7c3.33301 0 4.33301 -2 3 -6zM431.001 484l-94.999 -478.001c-1.33301 -4 -3.66602 -6 -6.99902 -6h-4
c-3.33301 0 -5.66602 2 -6.99902 6l-82 420c-2 10 -4 22.333 -6 37c-2.66699 -16 -5 -28.333 -7 -37l-82 -420c-0.666992 -4 -3 -6 -7 -6h-4c-4 0 -6.33301 2 -7 6l-94 478c-0.666992 4 0.666016 6 3.99902 6h6c3.33301 0 5.33301 -2 6 -6l81 -421
c3.33301 -15.333 5.66602 -27.333 6.99902 -36c0.666992 8 2.66699 20 6 36l81 421c0.666992 4 2.66699 6 6 6h8c3.33301 0 5.33301 -2 6 -6l81 -421l7 -35c0.666992 8.66699 2.66699 20.334 6 35.001l81 421c0.666992 4 2.66699 6 6 6h6c3.33301 0 4.66602 -2 3.99902 -6z
" />
    <glyph glyph-name="Wdieresis" unicode="&#x1e84;" horiz-adv-x="573" 
d="M325 860v-100c0 -4 -2 -6 -6 -6h-4c-4 0 -6 2 -6 6v100c0 4 2 6 6 6h4c4 0 6 -2 6 -6zM263 860v-100c0 -4 -2 -6 -6 -6h-4c-4 0 -6 2 -6 6v100c0 4 2 6 6 6h4c4 0 6 -2 6 -6zM296 674l103.999 -579c6.66699 -33.333 10.334 -56.333 11.001 -69
c0.666992 12 4.33398 35 11.001 69l105 579c0.666992 4 3 6 7 6h4c4 0 5.66699 -2 5 -6l-121 -668c-1.33301 -4 -4 -6 -8 -6h-5c-4.66699 0 -7.33398 2 -8.00098 6l-108 597c-3.33301 22 -5.66602 37 -6.99902 45c-1.33301 -14.667 -3.33301 -30 -6 -46l-108 -596
c-1.33301 -4 -4 -6 -8 -6h-5c-4.66699 0 -7.33398 2 -8.00098 6l-122 668c-0.666992 4 1.33301 6 6 6h4c3.33301 0 5.33301 -2 6 -6l105 -579c6 -34 9.66699 -57.333 11 -70c0.666992 8.66699 4.66699 32 12 70l104 579c0.666992 4 3 6 7 6h5c4 0 6.33301 -2 7 -6z" />
    <glyph glyph-name="wdieresis" unicode="&#x1e85;" horiz-adv-x="459" 
d="M268 694v-100c0 -4 -2 -6 -6 -6h-4c-4 0 -6 2 -6 6v100c0 4 2 6 6 6h4c4 0 6 -2 6 -6zM207 694v-100c0 -4 -2 -6 -6 -6h-4c-4 0 -6 2 -6 6v100c0 4 2 6 6 6h4c4 0 6 -2 6 -6zM431 484l-94.999 -478.001c-1.33301 -4 -3.66602 -6 -6.99902 -6h-4
c-3.33301 0 -5.66602 2 -6.99902 6l-82 420c-2 10 -4 22.333 -6 37c-2.66699 -16 -5 -28.333 -7 -37l-82 -420c-0.666992 -4 -3 -6 -7 -6h-4c-4 0 -6.33301 2 -7 6l-94 478c-0.666992 4 0.666016 6 3.99902 6h6c3.33301 0 5.33301 -2 6 -6l81 -421
c3.33301 -15.333 5.66602 -27.333 6.99902 -36c0.666992 8 2.66699 20 6 36l81 421c0.666992 4 2.66699 6 6 6h8c3.33301 0 5.33301 -2 6 -6l81 -421l7 -35c0.666992 8.66699 2.66699 20.334 6 35.001l81 421c0.666992 4 2.66699 6 6 6h6c3.33301 0 4.66602 -2 3.99902 -6z
" />
    <glyph glyph-name="Ygrave" unicode="&#x1ef2;" horiz-adv-x="363" 
d="M172 747l-61 125c-2.66699 4 -1.66699 6 3 6h7c2.66699 0 5 -1.33301 7 -4l59 -125c2 -3.33301 1.33301 -5 -2 -5h-7c-2.66699 0 -4.66699 1 -6 3zM37 674l135.999 -343.001c3.33301 -8 6.33301 -16.333 9 -25c2.66699 10.667 5.33398 19.334 8.00098 26.001l136 342
c1.33301 4 3.66602 6 6.99902 6h4c4.66699 0 6.33398 -2 5.00098 -6l-152 -382v-286c0 -4 -2 -6 -6 -6h-4c-4 0 -6 2 -6 6v285l-153 383c-1.33301 4 0 6 4 6h4c3.33301 0 6 -2 8 -6z" />
    <glyph glyph-name="ygrave" unicode="&#x1ef3;" horiz-adv-x="304" 
d="M144 577l-61.999 125c-1.33301 4 -0.333008 6 3 6h7c4 0 6.33301 -1.33301 7 -4l60 -125c1.33301 -3.33301 0.666016 -5 -2.00098 -5h-7c-2.66699 0 -4.66699 1 -6 3zM43.001 484l103.001 -421c4.66699 -19.333 7.33398 -31.333 8.00098 -36c0 4 2.33301 16 7 36l100 421
c0.666992 4 2.66699 6 6 6h6c3.33301 0 4.66602 -2 3.99902 -6l-163 -676c-1.33301 -4 -3.33301 -6 -6 -6h-6c-4 0 -5.33301 2 -4 6l47 193l-118 483c-0.666992 4 0.666016 6 3.99902 6h6c3.33301 0 5.33301 -2 6 -6z" />
    <glyph glyph-name="endash" unicode="&#x2013;" horiz-adv-x="370" 
d="M60 297h250c4 0 6 -2 6 -6v-3c0 -4 -2 -6 -6 -6h-250c-4 0 -6 2 -6 6v3c0 4 2 6 6 6z" />
    <glyph glyph-name="emdash" unicode="&#x2014;" horiz-adv-x="592" 
d="M60 297h472c4 0 6 -2 6 -6v-3c0 -4 -2 -6 -6 -6h-472c-4 0 -6 2 -6 6v3c0 4 2 6 6 6z" />
    <glyph glyph-name="quoteleft" unicode="&#x2018;" horiz-adv-x="142" 
d="M67 610v-54.999c0 -4 -2 -6 -6 -6h-4c-4 0 -6 2 -6 6v55c0 50.667 16.333 83 49 97c4 1.33301 6.66699 0.666016 8 -2.00098l2 -4c1.33301 -3.33301 0.333008 -6 -3 -8c-15.333 -9.33301 -25.833 -20 -31.5 -32s-8.5 -29 -8.5 -51z" />
    <glyph glyph-name="quoteright" unicode="&#x2019;" horiz-adv-x="148" 
d="M86 647v54.999c0 4 2 6 6 6h4c4 0 6 -2 6 -6v-55c0 -50.667 -16.333 -83 -49 -97c-4 -1.33301 -6.66699 -0.666016 -8 2.00098l-2 4c-1.33301 3.33301 -0.333008 6 3 8c15.333 9.33301 25.833 20 31.5 32s8.5 29 8.5 51z" />
    <glyph glyph-name="quotesinglbase" unicode="&#x201a;" horiz-adv-x="98" 
d="M42 26v54.999c0 4 2 6 6 6h4c4 0 6 -2 6 -6v-55c0 -50.667 -16.333 -83 -49 -97c-4 -1.33301 -6.66699 -0.666016 -8 2.00098l-2 4c-1.33301 3.33301 -0.333008 6 3 8c15.333 9.33301 25.833 20 31.5 32s8.5 29 8.5 51z" />
    <glyph glyph-name="quotedblleft" unicode="&#x201c;" horiz-adv-x="218" 
d="M143 610v-54.999c0 -4 -2 -6 -6 -6h-4c-4 0 -6 2 -6 6v55c0 50.667 16.333 83 49 97c4 1.33301 6.66699 0.666016 8 -2.00098l2 -4c1.33301 -3.33301 0.333008 -6 -3 -8c-15.333 -9.33301 -25.833 -20 -31.5 -32s-8.5 -29 -8.5 -51zM67 610.001v-54.999c0 -4 -2 -6 -6 -6
h-4c-4 0 -6 2 -6 6v55c0 50.667 16.333 83 49 97c4 1.33301 6.66699 0.666016 8 -2.00098l2 -4c1.33301 -3.33301 0.333008 -6 -3 -8c-15.333 -9.33301 -25.833 -20 -31.5 -32s-8.5 -29 -8.5 -51z" />
    <glyph glyph-name="quotedblright" unicode="&#x201d;" horiz-adv-x="224" 
d="M162 647v54.999c0 4 2 6 6 6h4c4 0 6 -2 6 -6v-55c0 -50.667 -16.333 -83 -49 -97c-4 -1.33301 -6.66699 -0.666016 -8 2.00098l-2 4c-1.33301 3.33301 -0.333008 6 3 8c15.333 9.33301 25.833 20 31.5 32s8.5 29 8.5 51zM86 646.999v54.999c0 4 2 6 6 6h4c4 0 6 -2 6 -6
v-55c0 -50.667 -16.333 -83 -49 -97c-4 -1.33301 -6.66699 -0.666016 -8 2.00098l-2 4c-1.33301 3.33301 -0.333008 6 3 8c15.333 9.33301 25.833 20 31.5 32s8.5 29 8.5 51z" />
    <glyph glyph-name="quotedblbase" unicode="&#x201e;" horiz-adv-x="174" 
d="M118 26v54.999c0 4 2 6 6 6h4c4 0 6 -2 6 -6v-55c0 -50.667 -16.333 -83 -49 -97c-4 -1.33301 -6.66699 -0.666016 -8 2.00098l-2 4c-1.33301 3.33301 -0.333008 6 3 8c15.333 9.33301 25.833 20 31.5 32s8.5 29 8.5 51zM42 25.999v54.999c0 4 2 6 6 6h4c4 0 6 -2 6 -6
v-55c0 -50.667 -16.333 -83 -49 -97c-4 -1.33301 -6.66699 -0.666016 -8 2.00098l-2 4c-1.33301 3.33301 -0.333008 6 3 8c15.333 9.33301 25.833 20 31.5 32s8.5 29 8.5 51z" />
    <glyph glyph-name="dagger" unicode="&#x2020;" horiz-adv-x="274" 
d="M145 693v-687c0 -4 -2 -6 -6 -6h-4c-4 0 -6 2 -6 6v687c0 4 2 6 6 6h4c4 0 6 -2 6 -6zM167 490h71c4 0 6 -2 6 -6v-3c0 -4 -2 -6 -6 -6h-71c-4 0 -6 2 -6 6v3c0 4 2 6 6 6zM36 490h71c4 0 6 -2 6 -6v-3c0 -4 -2 -6 -6 -6h-71c-4 0 -6 2 -6 6v3c0 4 2 6 6 6z" />
    <glyph glyph-name="daggerdbl" unicode="&#x2021;" horiz-adv-x="274" 
d="M145 693v-687c0 -4 -2 -6 -6 -6h-4c-4 0 -6 2 -6 6v687c0 4 2 6 6 6h4c4 0 6 -2 6 -6zM167 490h71c4 0 6 -2 6 -6v-3c0 -4 -2 -6 -6 -6h-71c-4 0 -6 2 -6 6v3c0 4 2 6 6 6zM36 490h71c4 0 6 -2 6 -6v-3c0 -4 -2 -6 -6 -6h-71c-4 0 -6 2 -6 6v3c0 4 2 6 6 6zM167 226h71
c4 0 6 -2 6 -6v-3c0 -4 -2 -6 -6 -6h-71c-4 0 -6 2 -6 6v3c0 4 2 6 6 6zM36 226h71c4 0 6 -2 6 -6v-3c0 -4 -2 -6 -6 -6h-71c-4 0 -6 2 -6 6v3c0 4 2 6 6 6z" />
    <glyph glyph-name="bullet" unicode="&#x2022;" horiz-adv-x="187" 
d="M107 299v-89c0 -4 -2 -6 -6 -6h-16c-4 0 -6 2 -6 6v89c0 4 2 6 6 6h16c4 0 6 -2 6 -6z" />
    <glyph glyph-name="ellipsis" unicode="&#x2026;" horiz-adv-x="490" 
d="M254 81v-75c0 -4 -2 -6 -6 -6h-4c-4 0 -6 2 -6 6v75c0 4 2 6 6 6h4c4 0 6 -2 6 -6zM431 81v-75c0 -4 -2 -6 -6 -6h-4c-4 0 -6 2 -6 6v75c0 4 2 6 6 6h4c4 0 6 -2 6 -6zM75 81v-75c0 -4 -2 -6 -6 -6h-4c-4 0 -6 2 -6 6v75c0 4 2 6 6 6h4c4 0 6 -2 6 -6z" />
    <glyph glyph-name="perthousand" unicode="&#x2030;" horiz-adv-x="711" 
d="M391 682l-255 -684c-1.33301 -4 -4 -6 -8 -6h-5c-3.33301 0 -4.33301 2 -3 6l255 684c2 4 4.66699 6 8 6h4c4 0 5.33301 -2 4 -6zM51 379v238c0 22 5.5 38.667 16.5 50s31.5 17 61.5 17s50.667 -5.83301 62 -17.5s17 -28.167 17 -49.5v-238
c0 -21.333 -5.66699 -37.833 -17 -49.5s-32 -17.5 -62 -17.5s-50.5 5.66699 -61.5 17s-16.5 28 -16.5 50zM193 378v240c0 16.667 -4.5 29.5 -13.5 38.5s-25.833 13.5 -50.5 13.5c-24 0 -40.5 -4.5 -49.5 -13.5s-13.5 -21.833 -13.5 -38.5v-240
c0 -16.667 4.5 -29.5 13.5 -38.5s25.5 -13.5 49.5 -13.5c24.667 0 41.5 4.5 50.5 13.5s13.5 21.833 13.5 38.5zM505 63v238c0 22 5.5 38.667 16.5 50s31.5 17 61.5 17s50.667 -5.66699 62 -17s17 -28 17 -50v-238c0 -22 -5.66699 -38.667 -17 -50s-32 -17 -62 -17
s-50.5 5.66699 -61.5 17s-16.5 28 -16.5 50zM302 63v238c0 22 5.5 38.667 16.5 50s31.5 17 61.5 17s50.667 -5.66699 62 -17s17 -28 17 -50v-238c0 -22 -5.66699 -38.667 -17 -50s-32 -17 -62 -17s-50.5 5.66699 -61.5 17s-16.5 28 -16.5 50zM647 62v240
c0 16.667 -4.5 29.5 -13.5 38.5s-25.833 13.5 -50.5 13.5c-24 0 -40.5 -4.5 -49.5 -13.5s-13.5 -21.833 -13.5 -38.5v-240c0 -16.667 4.5 -29.5 13.5 -38.5s25.5 -13.5 49.5 -13.5c24.667 0 41.5 4.5 50.5 13.5s13.5 21.833 13.5 38.5zM444 62v240
c0 16.667 -4.5 29.5 -13.5 38.5s-25.833 13.5 -50.5 13.5c-24 0 -40.5 -4.5 -49.5 -13.5s-13.5 -21.833 -13.5 -38.5v-240c0 -16.667 4.5 -29.5 13.5 -38.5s25.5 -13.5 49.5 -13.5c24.667 0 41.5 4.5 50.5 13.5s13.5 21.833 13.5 38.5z" />
    <glyph glyph-name="guilsinglleft" unicode="&#x2039;" horiz-adv-x="235" 
d="M170 378l-123.001 -133l125 -135c2.66699 -2.66699 4 -5.66699 4 -9v-6c0 -2 -0.666992 -3.16699 -2 -3.5s-2.66602 0.166992 -3.99902 1.5l-133 143c-2.66699 3.33301 -4 6 -4 8v2c0 2 1.33301 4.66699 4 8l133 143c4 4 6 3.66699 6 -1v-7c0 -3.33301 -2 -7 -6 -11z" />
    <glyph glyph-name="guilsinglright" unicode="&#x203a;" horiz-adv-x="235" 
d="M188 245l-123 133c-4 4 -6 7.66699 -6 11v7c0 4.66699 2 5 6 1l133 -143c2.66699 -3.33301 4 -6 4 -8v-2c0 -2 -1.33301 -4.66699 -4 -8l-133 -143c-2.66699 -2.66699 -4.66699 -2 -6 2v6c0 3.33301 1.33301 6.33301 4 9z" />
    <glyph glyph-name="fraction" unicode="&#x2044;" horiz-adv-x="53" 
d="M162 682l-254.999 -684c-0.666992 -4 -3.33398 -6 -8.00098 -6h-5c-3.33301 0 -4.33301 2 -3 6l255 684c2 4 4.66699 6 8 6h4c4 0 5.33301 -2 4 -6z" />
    <glyph glyph-name="zero.superior" unicode="&#x2070;" 
d="M34 519v248c0 22 5.5 38.667 16.5 50s31.5 17 61.5 17s50.667 -5.66699 62 -17s17 -28 17 -50v-248c0 -22 -5.66699 -38.667 -17 -50s-32 -17 -62 -17s-50.5 5.66699 -61.5 17s-16.5 28 -16.5 50zM176 518v250c0 16.667 -4.5 29.5 -13.5 38.5s-25.833 13.5 -50.5 13.5
c-24 0 -40.5 -4.5 -49.5 -13.5s-13.5 -21.833 -13.5 -38.5v-250c0 -16.667 4.5 -29.5 13.5 -38.5s25.5 -13.5 49.5 -13.5c24.667 0 41.5 4.5 50.5 13.5s13.5 21.833 13.5 38.5z" />
    <glyph glyph-name="four.superior" unicode="&#x2074;" 
d="M99 825l-60 -224h128v224c0 3.33301 1.33301 5 4 5h7c2.66699 0 4 -1.66699 4 -5v-364c0 -3.33301 -1.33301 -5 -4 -5h-7c-2.66699 0 -4 1.66699 -4 5v125h-139c-4 0 -6 1.33301 -6 4v4c0 0.666992 0.666992 3.66699 2 9l60 222c0.666992 3.33301 2.66699 5 6 5h6
c3.33301 0 4.33301 -1.66699 3 -5z" />
    <glyph glyph-name="five.superior" unicode="&#x2075;" 
d="M47 830h129.998c3.33301 0 5 -1.66699 5 -5v-5c0 -2.66699 -1.66699 -4 -5 -4h-120v-140h55c51.333 0 77 -19 77 -57v-102c0 -21.333 -5.16699 -37.5 -15.5 -48.5s-30.5 -16.5 -60.5 -16.5c-29.333 0 -49.333 5.5 -60 16.5s-16 27.167 -16 48.5v15
c0 2.66699 1.66699 4 5 4h6c3.33301 0 5 -1.33301 5 -4v-15c0 -17.333 3.83301 -30.333 11.5 -39s23.834 -13 48.501 -13s40.834 4.33301 48.501 13s11.5 21.667 11.5 39v102c0 28.667 -20.667 43 -62 43h-64c-3.33301 0 -5 1.33301 -5 4v159c0 3.33301 1.66699 5 5 5z" />
    <glyph glyph-name="six.superior" unicode="&#x2076;" 
d="M37 519v253c0 41.333 25.667 62 77 62c50 0 75 -20.667 75 -62v-14c0 -3.33301 -1.33301 -5 -4 -5h-6c-3.33301 0 -5 1.66699 -5 5v14c0 32.667 -20 49 -60 49c-41.333 0 -62 -16.333 -62 -49v-124c8 18 29.333 27 64 27c30 0 50.333 -5.66699 61 -17s16 -28 16 -50v-89
c0 -22 -5.5 -38.667 -16.5 -50s-31.5 -17 -61.5 -17s-50.5 5.66699 -61.5 17s-16.5 28 -16.5 50zM178 518l-0.000976562 91c0 16.667 -4.33301 29.5 -13 38.5s-25.334 13.5 -50.001 13.5c-42 0 -63 -15.667 -63 -47v-96c0 -17.333 4.33301 -30.5 13 -39.5
s25.334 -13.5 50.001 -13.5s41.334 4.5 50.001 13.5s13 22.167 13 39.5z" />
    <glyph glyph-name="seven.superior" unicode="&#x2077;" 
d="M32 830h162c4 0 6 -1.66699 6 -5v-3c0 -2 -0.666992 -5 -2 -9l-109 -352c-1.33301 -3.33301 -3 -5 -5 -5h-8c-2.66699 0 -3.66699 1.66699 -3 5l109 355h-150c-2.66699 0 -4 1.33301 -4 4v5c0 3.33301 1.33301 5 4 5z" />
    <glyph glyph-name="eight.superior" unicode="&#x2078;" 
d="M38 718l0.000976562 49c0 22 5 38.667 15 50s29.667 17 59 17c30 0 50 -5.66699 60 -17s15 -28 15 -50v-49c0 -17.333 -2.83301 -31 -8.5 -41s-17.167 -16.333 -34.5 -19c30.667 -5.33301 46 -25.333 46 -60v-79c0 -22 -5.5 -38.667 -16.5 -50s-31.5 -17 -61.5 -17
s-50.333 5.66699 -61 17s-16 28 -16 50v79c0 34.667 15 54.667 45 60c-16.667 2.66699 -27.834 9 -33.501 19s-8.5 23.667 -8.5 41zM172.001 717v51c0 17.333 -4 30.5 -12 39.5s-24 13.5 -48 13.5c-23.333 0 -39.166 -4.5 -47.499 -13.5s-12.5 -22.167 -12.5 -39.5v-51
c0 -16.667 4.16699 -29.5 12.5 -38.5s24.166 -13.5 47.499 -13.5c24 0 40 4.33301 48 13s12 21.667 12 39zM175.001 518v81c0 16.667 -4.33301 29.5 -13 38.5s-25.334 13.5 -50.001 13.5s-41.334 -4.5 -50.001 -13.5s-13 -21.833 -13 -38.5v-81
c0 -17.333 4.33301 -30.5 13 -39.5s25.334 -13.5 50.001 -13.5s41.334 4.5 50.001 13.5s13 22.167 13 39.5z" />
    <glyph glyph-name="nine.superior" unicode="&#x2079;" 
d="M47 768v-91c0 -16.667 4.33301 -29.5 13 -38.5s25.334 -13.5 50.001 -13.5c42.667 0 64 15.667 64 47v96c0 16.667 -4.5 29.667 -13.5 39s-25.833 14 -50.5 14s-41.334 -4.5 -50.001 -13.5s-13 -22.167 -13 -39.5zM189 767l0.000976562 -253
c0 -41.333 -25.667 -62 -77 -62c-50.667 0 -76 20.667 -76 62v14c0 3.33301 1.33301 5 4 5h7c2.66699 0 4 -1.66699 4 -5v-14c0 -32.667 20.333 -49 61 -49c41.333 0 62 16.333 62 49v124c-8.66699 -18 -30.334 -27 -65.001 -27c-29.333 0 -49.5 5.66699 -60.5 17
s-16.5 28 -16.5 50v89c0 22 5.5 38.667 16.5 50s31.5 17 61.5 17s50.667 -5.66699 62 -17s17 -28 17 -50z" />
    <glyph glyph-name="parenleft.superior" unicode="&#x207d;" horiz-adv-x="140" 
d="M42 445v397c0 37.333 23 56 69 56h2c2.66699 0 4 -1.33301 4 -4v-5c0 -3.33301 -1.33301 -5 -4 -5h-2c-36 0 -54 -14 -54 -42v-396c0 -28.667 18 -43 54 -43h2c2.66699 0 4 -1.33301 4 -4v-5c0 -3.33301 -1.33301 -5 -4 -5h-2c-46 0 -69 18.667 -69 56z" />
    <glyph glyph-name="parenright.superior" unicode="&#x207e;" horiz-adv-x="140" 
d="M83 842c0 28 -18 42 -54 42h-1c-3.33301 0 -5 1.66699 -5 5v5c0 2.66699 1.66699 4 5 4h2c45.333 0 68 -18.667 68 -56v-397c0 -37.333 -22.667 -56 -68 -56h-2c-3.33301 0 -5 1.66699 -5 5v5c0 2.66699 1.66699 4 5 4h1c36 0 54 14.333 54 43v396z" />
    <glyph glyph-name="zero.inferior" unicode="&#x2080;" 
d="M34 -87v248c0 22 5.5 38.667 16.5 50s31.5 17 61.5 17s50.667 -5.66699 62 -17s17 -28 17 -50v-248c0 -22 -5.66699 -38.667 -17 -50s-32 -17 -62 -17s-50.5 5.66699 -61.5 17s-16.5 28 -16.5 50zM176 -88v250c0 16.667 -4.5 29.5 -13.5 38.5s-25.833 13.5 -50.5 13.5
c-24 0 -40.5 -4.5 -49.5 -13.5s-13.5 -21.833 -13.5 -38.5v-250c0 -16.667 4.5 -29.5 13.5 -38.5s25.5 -13.5 49.5 -13.5c24.667 0 41.5 4.5 50.5 13.5s13.5 21.833 13.5 38.5z" />
    <glyph glyph-name="one.inferior" unicode="&#x2081;" 
d="M41 202l79 22c4 1.33301 6 0 6 -4v-356h71c2.66699 0 4 -1.33301 4 -4v-5c0 -3.33301 -1.33301 -5 -4 -5h-157c-2.66699 0 -4 1.66699 -4 5v5c0 2.66699 1.33301 4 4 4h71v342l-70 -18c-3.33301 -0.666992 -5 0.333008 -5 3v5c0 3.33301 1.66699 5.33301 5 6z" />
    </font>
</defs>
</svg>
