<?xml version="1.0" encoding="UTF-8"?>
<svg width="24px" height="24px" viewBox="0 0 24 24" version="1.1" xmlns="http://www.w3.org/2000/svg" xmlns:xlink="http://www.w3.org/1999/xlink">
    <!-- Generator: Sketch 52.5 (67469) - http://www.bohemiancoding.com/sketch -->
    <title>Facebook_color_icon</title>
    <desc>Created with Sketch.</desc>
    <g id="UI-Design" stroke="none" stroke-width="1" fill="none" fill-rule="evenodd">
        <g id="Facebook_color_icon">
            <rect id="Rectangle" fill="#FFFFFF" x="6" y="1" width="15" height="23"></rect>
            <g id="Facebook_Icon_(Single_Path_-_Transparent__f_)" fill="#3B5998">
                <path d="M16.5596526,24 L22.6754774,24 C23.4068843,24 24,23.4068889 24,22.6753014 L24,1.32460548 C24,0.592924852 23.4069774,0 22.6754774,0 L1.32461576,0 C0.592929454,0 0,0.592924852 0,1.32460548 L0,22.6753014 C0,23.4067958 0.592836328,24 1.32461576,24 L12.8191776,24 L12.8191776,14.7075536 L9.6915609,14.7075536 L9.6915609,11.0854691 L12.8191776,11.0854691 L12.8191776,8.41428067 C12.8191776,5.31443937 14.7124171,3.62646138 17.477776,3.62646138 C18.8023918,3.62646138 19.940943,3.72508042 20.2726557,3.76922152 L20.2726557,7.00884296 L18.3546448,7.00968109 C16.8508558,7.00968109 16.5596526,7.7243199 16.5596526,8.77299695 L16.5596526,11.0854691 L20.1463776,11.0854691 L19.6792606,14.7075536 L16.5596526,14.7075536 L16.5596526,24 Z" id="facebook-icon"></path>
            </g>
        </g>
    </g>
</svg>