<svg xmlns="http://www.w3.org/2000/svg" width="229.97" height="230" viewBox="0 0 229.97 230">
  <metadata><?xpacket begin="﻿" id="W5M0MpCehiHzreSzNTczkc9d"?>
<x:xmpmeta xmlns:x="adobe:ns:meta/" x:xmptk="Adobe XMP Core 5.6-c142 79.160924, 2017/07/13-01:06:39        ">
   <rdf:RDF xmlns:rdf="http://www.w3.org/1999/02/22-rdf-syntax-ns#">
      <rdf:Description rdf:about=""/>
   </rdf:RDF>
</x:xmpmeta>
                                                                                                    
                                                                                                    
                                                                                                    
                                                                                                    
                                                                                                    
                                                                                                    
                                                                                                    
                                                                                                    
                                                                                                    
                                                                                                    
                                                                                                    
                                                                                                    
                                                                                                    
                                                                                                    
                                                                                                    
                                                                                                    
                                                                                                    
                                                                                                    
                                                                                                    
                                                                                                    
                           
<?xpacket end="w"?></metadata>
<defs>
    <style>
      .cls-1 {
        fill: #fff;
        fill-opacity: 0.03;
        fill-rule: evenodd;
      }
    </style>
  </defs>
  <path id="Forma_1" data-name="Forma 1" class="cls-1" d="M1055.66,963.286l-39-39.01a31.4,31.4,0,0,0-43.954-43.957l-39-39.007a4.492,4.492,0,0,0-7.257,1.3L862.905,980.728l-24.854,24.852a37.734,37.734,0,1,0,53.357,53.37L908,1042.36l26.325,26.32a4.481,4.481,0,0,0,6.352,0l16.406-16.4a4.5,4.5,0,0,0,0-6.36l-20.965-20.96,118.245-54.417A4.485,4.485,0,0,0,1055.66,963.286Zm-64.151-80.231a22.425,22.425,0,0,1,18.711,34.779l-31.071-31.072A22.261,22.261,0,0,1,991.509,883.055Zm-94.2,157.295-16.6-16.61a4.491,4.491,0,1,0-6.353,6.35l16.6,16.61-5.9,5.9a28.748,28.748,0,0,1-40.653-40.66l22.246-22.251L907.3,1030.35Zm50.247,8.75L937.5,1059.15,914.35,1036l1.912-1.91,11.153-5.13Zm-32.933-24.14-42.582-42.588,49.929-108.528,20.527,20.53a4.492,4.492,0,0,0,6.353-6.353l-22.877-22.88,5.942-12.916L1044.75,965.077Zm44.117-40.388-16.958-60.933a4.492,4.492,0,1,0-8.654,2.409l16.958,60.933A4.492,4.492,0,1,0,958.736,984.572Zm28.822-43.629a16.058,16.058,0,1,0,4.7,11.355A15.947,15.947,0,0,0,987.558,940.943ZM981.206,957.3a7.074,7.074,0,1,1,0-10A7.025,7.025,0,0,1,981.206,957.3ZM927.473,938a16.057,16.057,0,1,0,4.7,11.354A15.948,15.948,0,0,0,927.473,938Zm-6.352,16.355a7.074,7.074,0,1,1,2.071-5A7.022,7.022,0,0,1,921.121,954.358Zm134.539-113.04a4.491,4.491,0,0,0-6.35,0l-24.26,24.258a4.493,4.493,0,0,0,3.18,7.669,4.452,4.452,0,0,0,3.17-1.316l24.26-24.257A4.5,4.5,0,0,0,1055.66,841.318Zm-3.18,59.666h-19.31a4.492,4.492,0,0,0,0,8.984h19.31A4.492,4.492,0,0,0,1052.48,900.984ZM991.547,840a4.492,4.492,0,0,0-4.492,4.492v19.317a4.492,4.492,0,1,0,8.983,0V844.5A4.492,4.492,0,0,0,991.547,840ZM868.812,1011.85a4.492,4.492,0,0,0-7.668,3.18A4.492,4.492,0,1,0,868.812,1011.85Zm91.92-111.94a4.49,4.49,0,1,0,1.316,3.176A4.526,4.526,0,0,0,960.732,899.91Z" transform="translate(-827 -840)"/>
</svg>
