<svg xmlns="http://www.w3.org/2000/svg" width="87" height="87" viewBox="0 0 87 87">
  <metadata><?xpacket begin="﻿" id="W5M0MpCehiHzreSzNTczkc9d"?>
<x:xmpmeta xmlns:x="adobe:ns:meta/" x:xmptk="Adobe XMP Core 5.6-c142 79.160924, 2017/07/13-01:06:39        ">
   <rdf:RDF xmlns:rdf="http://www.w3.org/1999/02/22-rdf-syntax-ns#">
      <rdf:Description rdf:about=""/>
   </rdf:RDF>
</x:xmpmeta>
                                                                                                    
                                                                                                    
                                                                                                    
                                                                                                    
                                                                                                    
                                                                                                    
                                                                                                    
                                                                                                    
                                                                                                    
                                                                                                    
                                                                                                    
                                                                                                    
                                                                                                    
                                                                                                    
                                                                                                    
                                                                                                    
                                                                                                    
                                                                                                    
                                                                                                    
                                                                                                    
                           
<?xpacket end="w"?></metadata>
<defs>
    <style>
      .cls-1 {
        fill: #fff;
      }

      .cls-1, .cls-2 {
        fill-rule: evenodd;
      }

      .cls-2 {
        fill: #fbe31b;
      }
    </style>
  </defs>
  <path id="Forma_1_copy_4" data-name="Forma 1 copy 4" class="cls-1" d="M693.5,889.443a1.7,1.7,0,0,0-1.7,1.7v3.512a1.7,1.7,0,1,0,3.4,0v-3.512A1.7,1.7,0,0,0,693.5,889.443Zm0,45.2a1.7,1.7,0,0,0-1.7,1.7v3.511a1.7,1.7,0,1,0,3.4,0v-3.511A1.7,1.7,0,0,0,693.5,934.647ZM717.857,913.8h-3.512a1.7,1.7,0,0,0,0,3.4h3.512A1.7,1.7,0,1,0,717.857,913.8Zm-45.2,0h-3.511a1.7,1.7,0,1,0,0,3.4h3.511A1.7,1.7,0,1,0,672.652,913.8Zm62.649,0H724.7a1.7,1.7,0,0,0-1.7,1.7v0.071a29.572,29.572,0,0,1-57.627,9.345c-0.255-.767-0.482-1.555-0.673-2.34a1.7,1.7,0,0,0-3.3.8c0.213,0.877.466,1.755,0.75,2.611a32.972,32.972,0,0,0,64.211-8.79h7.212a40.1,40.1,0,1,1-68.424-30.055,40.23,40.23,0,0,1,56.411-.295,1.7,1.7,0,0,0,2.39-.013l0.482-.482v9.209h-9.208l1.208-1.208a1.7,1.7,0,0,0-.006-2.409l-0.02-.019A32.969,32.969,0,0,0,673.51,889.3,33.215,33.215,0,0,0,661.8,906.243a1.7,1.7,0,1,0,3.26.96A29.73,29.73,0,0,1,693.428,886a29.39,29.39,0,0,1,19.34,7.2l-2.855,2.855a1.7,1.7,0,0,0,1.2,2.9h15.011a1.7,1.7,0,0,0,1.7-1.7v-15.01a1.7,1.7,0,0,0-2.9-1.2l-2.216,2.217A43.5,43.5,0,1,0,737,915.5,1.7,1.7,0,0,0,735.3,913.8Zm-73.139.046a1.7,1.7,0,0,0-1.7,1.7v0.025a1.7,1.7,0,0,0,3.4,0v-0.025A1.7,1.7,0,0,0,662.162,913.847Z" transform="translate(-650 -872)"/>
  <path id="_30" data-name="30" class="cls-2" d="M687.833,909.323a0.86,0.86,0,0,1,.572-0.143h0.884a0.862,0.862,0,0,1,.572.143,0.756,0.756,0,0,1,.156.559v3.3a0.756,0.756,0,0,1-.156.559,0.862,0.862,0,0,1-.572.143h-2v2.184h2a0.8,0.8,0,0,1,.585.156,0.862,0.862,0,0,1,.143.572v3.51a0.756,0.756,0,0,1-.156.559,0.862,0.862,0,0,1-.572.143h-0.884a0.86,0.86,0,0,1-.572-0.143,0.756,0.756,0,0,1-.156-0.559v-2.184h-2.99v2.6q0,2.574,2.834,2.574h2.626q2.833,0,2.834-2.574v-3.9a1.724,1.724,0,0,0-1.092-1.872,1.809,1.809,0,0,0,1.092-1.976v-3.51q0-2.574-2.834-2.574h-2.626q-2.835,0-2.834,2.574v2.626h2.99v-2.21A0.756,0.756,0,0,1,687.833,909.323Zm14.3-2.431h-3.016q-2.833,0-2.834,2.574v11.258q0,2.574,2.834,2.574h3.016q2.835,0,2.834-2.574V909.466q0-2.574-2.834-2.574h0Zm-0.312,13.975a0.912,0.912,0,0,1-.6.143h-1.2a0.862,0.862,0,0,1-.572-0.143,0.756,0.756,0,0,1-.156-0.559V909.882a0.756,0.756,0,0,1,.156-0.559,0.862,0.862,0,0,1,.572-0.143h1.2a0.912,0.912,0,0,1,.6.143,0.756,0.756,0,0,1,.156.559v10.426A0.756,0.756,0,0,1,701.82,920.867Z" transform="translate(-650 -872)"/>
</svg>
