<svg xmlns="http://www.w3.org/2000/svg" width="230" height="230" viewBox="0 0 230 230">
  <metadata><?xpacket begin="﻿" id="W5M0MpCehiHzreSzNTczkc9d"?>
<x:xmpmeta xmlns:x="adobe:ns:meta/" x:xmptk="Adobe XMP Core 5.6-c142 79.160924, 2017/07/13-01:06:39        ">
   <rdf:RDF xmlns:rdf="http://www.w3.org/1999/02/22-rdf-syntax-ns#">
      <rdf:Description rdf:about=""/>
   </rdf:RDF>
</x:xmpmeta>
                                                                                                    
                                                                                                    
                                                                                                    
                                                                                                    
                                                                                                    
                                                                                                    
                                                                                                    
                                                                                                    
                                                                                                    
                                                                                                    
                                                                                                    
                                                                                                    
                                                                                                    
                                                                                                    
                                                                                                    
                                                                                                    
                                                                                                    
                                                                                                    
                                                                                                    
                                                                                                    
                           
<?xpacket end="w"?></metadata>
<defs>
    <style>
      .cls-1 {
        fill: #fff;
        fill-rule: evenodd;
        opacity: 0.03;
      }
    </style>
  </defs>
  <path id="Forma_1" data-name="Forma 1" class="cls-1" d="M586,864.114a4.492,4.492,0,0,0-4.492,4.492v9.284a4.492,4.492,0,0,0,8.984,0v-9.284A4.492,4.492,0,0,0,586,864.114Zm0,119.5a4.492,4.492,0,0,0-4.492,4.492v9.284a4.492,4.492,0,1,0,8.984,0V988.11A4.492,4.492,0,0,0,586,983.618Zm64.4-55.11h-9.284a4.492,4.492,0,1,0,0,8.984h9.284A4.492,4.492,0,0,0,650.393,928.508Zm-119.507,0H521.6a4.492,4.492,0,0,0,0,8.984h9.285A4.492,4.492,0,1,0,530.886,928.508Zm165.622,0H668.469A4.492,4.492,0,0,0,663.976,933v0.187a78.18,78.18,0,0,1-152.348,24.7c-0.675-2.027-1.273-4.108-1.778-6.186a4.492,4.492,0,0,0-8.731,2.121c0.564,2.318,1.231,4.641,1.984,6.9a87.165,87.165,0,0,0,169.753-23.238h19.067a106.018,106.018,0,1,1-180.892-79.456c40.908-40.906,107.807-41.257,149.131-.781a4.493,4.493,0,0,0,6.32-.032l1.275-1.275v24.345H643.413l3.192-3.193a4.493,4.493,0,0,0-.015-6.369c-0.01-.009-0.043-0.041-0.052-0.051a87.165,87.165,0,0,0-113.385-6.94A87.8,87.8,0,0,0,502.2,908.529a4.492,4.492,0,0,0,8.618,2.538,78.593,78.593,0,0,1,74.993-56.044,77.7,77.7,0,0,1,51.129,19.036l-7.549,7.549a4.492,4.492,0,0,0,3.177,7.669h39.682a4.493,4.493,0,0,0,4.492-4.493V845.1a4.492,4.492,0,0,0-7.668-3.176l-5.859,5.859A114.992,114.992,0,1,0,701,933,4.492,4.492,0,0,0,696.508,928.509Zm-193.356.121a4.492,4.492,0,0,0-4.493,4.492v0.066a4.493,4.493,0,0,0,8.985,0v-0.066A4.492,4.492,0,0,0,503.152,928.63Z" transform="translate(-471 -818)"/>
</svg>
