<svg xmlns="http://www.w3.org/2000/svg" width="76.03" height="76" viewBox="0 0 76.03 76">
  <metadata><?xpacket begin="﻿" id="W5M0MpCehiHzreSzNTczkc9d"?>
<x:xmpmeta xmlns:x="adobe:ns:meta/" x:xmptk="Adobe XMP Core 5.6-c142 79.160924, 2017/07/13-01:06:39        ">
   <rdf:RDF xmlns:rdf="http://www.w3.org/1999/02/22-rdf-syntax-ns#">
      <rdf:Description rdf:about=""/>
   </rdf:RDF>
</x:xmpmeta>
                                                                                                    
                                                                                                    
                                                                                                    
                                                                                                    
                                                                                                    
                                                                                                    
                                                                                                    
                                                                                                    
                                                                                                    
                                                                                                    
                                                                                                    
                                                                                                    
                                                                                                    
                                                                                                    
                                                                                                    
                                                                                                    
                                                                                                    
                                                                                                    
                                                                                                    
                                                                                                    
                           
<?xpacket end="w"?></metadata>
<defs>
    <style>
      .cls-1 {
        fill: #fff;
      }

      .cls-1, .cls-2 {
        fill-rule: evenodd;
      }

      .cls-2 {
        fill: #fbe31b;
      }
    </style>
  </defs>
  <path id="Forma_1_copy_2" data-name="Forma 1 copy 2" class="cls-1" d="M1097.57,920.738l-12.89-12.89a10.38,10.38,0,0,0-14.53-14.525l-12.89-12.889a1.478,1.478,0,0,0-1.31-.412,1.5,1.5,0,0,0-1.09.841L1033.87,926.5l-8.22,8.214a12.467,12.467,0,1,0,17.63,17.633l5.49-5.482,8.7,8.7a1.458,1.458,0,0,0,1.05.435,1.492,1.492,0,0,0,1.05-.435l5.42-5.422a1.484,1.484,0,0,0,0-2.1l-6.93-6.928,39.08-17.98A1.486,1.486,0,0,0,1097.57,920.738Zm-21.21-26.511a7.413,7.413,0,0,1,6.19,11.492l-10.27-10.267A7.35,7.35,0,0,1,1076.36,894.227ZM1045.23,946.2l-5.48-5.487a1.485,1.485,0,0,0-2.1,2.1l5.48,5.486-1.94,1.949a9.5,9.5,0,0,1-13.44-13.435l7.35-7.351,13.44,13.434Zm16.61,2.893-3.32,3.322-7.65-7.649,0.63-.632,3.68-1.7Zm-10.88-7.977-14.08-14.073,16.5-35.861,6.79,6.784a1.485,1.485,0,0,0,2.1-2.1l-7.56-7.561,1.96-4.268,37.29,37.29Zm46.6-60.681a1.485,1.485,0,0,0-2.1,0l-8.01,8.015a1.485,1.485,0,0,0,2.1,2.1l8.01-8.015A1.484,1.484,0,0,0,1097.56,880.436Zm-1.05,19.715h-6.38a1.485,1.485,0,0,0,0,2.969h6.38A1.485,1.485,0,1,0,1096.51,900.151ZM1076.38,880a1.489,1.489,0,0,0-1.49,1.484v6.383a1.485,1.485,0,0,0,2.97,0v-6.383A1.481,1.481,0,0,0,1076.38,880Zm-40.56,56.785a1.485,1.485,0,1,0,0,2.1A1.5,1.5,0,0,0,1035.82,936.786Zm30.37-36.99a1.473,1.473,0,0,0-2.09,0,1.472,1.472,0,0,0,0,2.1,1.473,1.473,0,0,0,2.09,0A1.472,1.472,0,0,0,1066.19,899.8Z" transform="translate(-1022 -880)"/>
  <path id="_1M" data-name="1M" class="cls-2" d="M1050.35,908.892v2.288h2.03V925.3h2.99V908.892h-5.02Zm11.2,4.914,2.19,7.93h2.42l2.18-7.956V925.3h2.63V908.892h-3.28l-2.76,9.75-2.75-9.75h-3.28V925.3h2.65V913.806Z" transform="translate(-1022 -880)"/>
</svg>
