<svg xmlns="http://www.w3.org/2000/svg" width="77" height="77" viewBox="0 0 77 77">
  <metadata><?xpacket begin="﻿" id="W5M0MpCehiHzreSzNTczkc9d"?>
<x:xmpmeta xmlns:x="adobe:ns:meta/" x:xmptk="Adobe XMP Core 5.6-c142 79.160924, 2017/07/13-01:06:39        ">
   <rdf:RDF xmlns:rdf="http://www.w3.org/1999/02/22-rdf-syntax-ns#">
      <rdf:Description rdf:about=""/>
   </rdf:RDF>
</x:xmpmeta>
                                                                                                    
                                                                                                    
                                                                                                    
                                                                                                    
                                                                                                    
                                                                                                    
                                                                                                    
                                                                                                    
                                                                                                    
                                                                                                    
                                                                                                    
                                                                                                    
                                                                                                    
                                                                                                    
                                                                                                    
                                                                                                    
                                                                                                    
                                                                                                    
                                                                                                    
                                                                                                    
                           
<?xpacket end="w"?></metadata>
<defs>
    <style>
      .cls-1 {
        fill: #fff;
      }

      .cls-1, .cls-2 {
        fill-rule: evenodd;
      }

      .cls-2 {
        fill: #fbe31b;
      }
    </style>
  </defs>
  <path id="Forma_1_copy_3" data-name="Forma 1 copy 3" class="cls-1" d="M364.652,944.305h-1.078V904.953a1.348,1.348,0,0,0-1.348-1.348H351.445a1.348,1.348,0,0,0-1.347,1.348v14.42a1.348,1.348,0,1,0,2.695,0V906.3h8.086v38h-8.086V932.578a1.348,1.348,0,1,0-2.695,0v11.727h-3.235V913.848a1.347,1.347,0,0,0-1.348-1.348H334.734a1.347,1.347,0,0,0-1.347,1.348v30.457h-3.774V922.2a1.348,1.348,0,0,0-1.347-1.348H317.484a1.348,1.348,0,0,0-1.347,1.348v22.1H312.9V930.828a1.348,1.348,0,0,0-1.347-1.348H300.773a1.348,1.348,0,0,0-1.347,1.348v13.477h-1.078a1.348,1.348,0,1,0,0,2.7h66.3A1.348,1.348,0,1,0,364.652,944.305Zm-54.445,0h-8.086V932.176h8.086v12.129Zm16.711,0h-8.086V923.551h8.086v20.754Zm17.25,0h-8.086V915.2h8.086v29.11Zm8.23-19.566a1.348,1.348,0,1,0,.395.954A1.359,1.359,0,0,0,352.4,924.739Zm-7.422-29.305H339.7a1.348,1.348,0,0,0,0,2.7h2.023l-14.409,14.409-7.321-7.32a1.348,1.348,0,0,0-1.906,0l-14.656,14.656a1.348,1.348,0,1,0,1.906,1.906l13.7-13.7,7.321,7.32a1.347,1.347,0,0,0,1.906,0l15.362-15.362v2.023a1.348,1.348,0,0,0,2.695,0v-5.276A1.348,1.348,0,0,0,344.976,895.434Zm-43.143,27.944a1.347,1.347,0,1,0,.395.953A1.363,1.363,0,0,0,301.833,923.378Z" transform="translate(-297 -870)"/>
  <path id="Forma_1_copy" data-name="Forma 1 copy" class="cls-2" d="M359.989,870A14.011,14.011,0,1,0,374,884.011,14.026,14.026,0,0,0,359.989,870Zm0,19.374a1.937,1.937,0,0,1-2.09-1.727,1.844,1.844,0,1,0-3.687,0,5.465,5.465,0,0,0,3.934,5.13v1.389a10.321,10.321,0,0,1,0-20.311v1.521a5.465,5.465,0,0,0-3.934,5.13,5.611,5.611,0,0,0,5.777,5.414A1.759,1.759,0,1,1,359.989,889.374Zm1.844,4.792v-1.389a5.466,5.466,0,0,0,3.934-5.13,5.611,5.611,0,0,0-5.778-5.414,1.759,1.759,0,1,1,2.091-1.727,1.844,1.844,0,0,0,3.687,0,5.466,5.466,0,0,0-3.934-5.13v-1.521A10.321,10.321,0,0,1,361.833,894.166Z" transform="translate(-297 -870)"/>
</svg>
