<svg xmlns="http://www.w3.org/2000/svg" width="227" height="169" viewBox="0 0 227 169">
  <metadata><?xpacket begin="﻿" id="W5M0MpCehiHzreSzNTczkc9d"?>
<x:xmpmeta xmlns:x="adobe:ns:meta/" x:xmptk="Adobe XMP Core 5.6-c142 79.160924, 2017/07/13-01:06:39        ">
   <rdf:RDF xmlns:rdf="http://www.w3.org/1999/02/22-rdf-syntax-ns#">
      <rdf:Description rdf:about=""/>
   </rdf:RDF>
</x:xmpmeta>
                                                                                                    
                                                                                                    
                                                                                                    
                                                                                                    
                                                                                                    
                                                                                                    
                                                                                                    
                                                                                                    
                                                                                                    
                                                                                                    
                                                                                                    
                                                                                                    
                                                                                                    
                                                                                                    
                                                                                                    
                                                                                                    
                                                                                                    
                                                                                                    
                                                                                                    
                                                                                                    
                           
<?xpacket end="w"?></metadata>
<defs>
    <style>
      .cls-1 {
        fill: #fff;
        fill-rule: evenodd;
        opacity: 0.03;
      }
    </style>
  </defs>
  <path id="Forma_1" data-name="Forma 1" class="cls-1" d="M341.566,1000.17h-3.547V871.188a4.425,4.425,0,0,0-4.433-4.417H298.117a4.426,4.426,0,0,0-4.434,4.417v47.263a4.434,4.434,0,0,0,8.867,0V875.605h26.6V1000.17h-26.6V961.731a4.434,4.434,0,0,0-8.867,0v38.439h-10.64V900.341a4.425,4.425,0,0,0-4.434-4.417H243.14a4.425,4.425,0,0,0-4.433,4.417v99.829H226.293V927.726a4.426,4.426,0,0,0-4.434-4.417H186.391a4.426,4.426,0,0,0-4.434,4.417v72.444H171.316V956a4.425,4.425,0,0,0-4.433-4.417H131.414A4.425,4.425,0,0,0,126.98,956v44.174h-3.546a4.415,4.415,0,1,0,0,8.83H341.566A4.415,4.415,0,1,0,341.566,1000.17Zm-179.117,0h-26.6V960.412h26.6v39.758Zm54.977,0h-26.6V932.144h26.6v68.026Zm56.75,0h-26.6V904.758h26.6v95.412Zm27.075-64.131a4.408,4.408,0,1,0,1.3,3.127A4.471,4.471,0,0,0,301.251,936.039Zm-24.416-96.05H259.477a4.417,4.417,0,1,0,0,8.834h6.654l-47.4,47.227-24.083-23.994a4.448,4.448,0,0,0-6.271,0l-48.217,48.037a4.425,4.425,0,0,0,6.27,6.247l45.082-44.914,24.084,23.994a4.445,4.445,0,0,0,6.27,0L272.4,855.07V861.7a4.434,4.434,0,0,0,8.867,0V844.406A4.425,4.425,0,0,0,276.835,839.989ZM134.9,931.578a4.4,4.4,0,1,0,1.3,3.123A4.48,4.48,0,0,0,134.9,931.578Z" transform="translate(-119 -840)"/>
</svg>
