<svg xmlns="http://www.w3.org/2000/svg" width="52.5" height="52.21" viewBox="0 0 52.5 52.21">
  <metadata><?xpacket begin="﻿" id="W5M0MpCehiHzreSzNTczkc9d"?>
<x:xmpmeta xmlns:x="adobe:ns:meta/" x:xmptk="Adobe XMP Core 5.6-c142 79.160924, 2017/07/13-01:06:39        ">
   <rdf:RDF xmlns:rdf="http://www.w3.org/1999/02/22-rdf-syntax-ns#">
      <rdf:Description rdf:about=""/>
   </rdf:RDF>
</x:xmpmeta>
                                                                                                    
                                                                                                    
                                                                                                    
                                                                                                    
                                                                                                    
                                                                                                    
                                                                                                    
                                                                                                    
                                                                                                    
                                                                                                    
                                                                                                    
                                                                                                    
                                                                                                    
                                                                                                    
                                                                                                    
                                                                                                    
                                                                                                    
                                                                                                    
                                                                                                    
                                                                                                    
                           
<?xpacket end="w"?></metadata>
<defs>
    <style>
      .cls-1 {
        fill: #fff;
        fill-rule: evenodd;
      }
    </style>
  </defs>
  <path id="Forma_1_copy_6" data-name="Forma 1 copy 6" class="cls-1" d="M906.749,1705.59a1.025,1.025,0,0,0-1.025,1.02v2.11a1.026,1.026,0,0,0,2.051,0v-2.11A1.025,1.025,0,0,0,906.749,1705.59Zm0,27.15a1.018,1.018,0,0,0-1.025,1.02v2.1a1.026,1.026,0,1,0,2.051,0v-2.1A1.019,1.019,0,0,0,906.749,1732.74Zm14.7-12.52h-2.119a1.02,1.02,0,1,0,0,2.04h2.119A1.02,1.02,0,1,0,921.448,1720.22Zm-27.278,0h-2.12a1.02,1.02,0,1,0,0,2.04h2.12A1.02,1.02,0,1,0,894.17,1720.22Zm37.8,0h-6.4a1.025,1.025,0,0,0-1.025,1.02v0.04a17.856,17.856,0,0,1-34.775,5.61c-0.154-.46-0.291-0.93-0.406-1.4a1.025,1.025,0,0,0-1.993.48c0.129,0.53.281,1.05,0.453,1.57a19.913,19.913,0,0,0,38.748-5.28h4.352a23.867,23.867,0,0,1-7.067,16.01,24.142,24.142,0,1,1-.183-34.23,1.036,1.036,0,0,0,1.443-.01l0.291-.29v5.53h-5.557l0.729-.73a1.009,1.009,0,0,0,0-1.44,0.011,0.011,0,0,0-.012-0.01,19.923,19.923,0,0,0-32.947,8.59,1.026,1.026,0,0,0,1.968.58,17.89,17.89,0,0,1,28.788-8.41l-1.723,1.72a1.013,1.013,0,0,0-.222,1.11,1.028,1.028,0,0,0,.947.63h9.058a1.025,1.025,0,0,0,1.026-1.02v-9.01a1.025,1.025,0,0,0-.633-0.95,1.048,1.048,0,0,0-1.118.22l-1.337,1.34a26.337,26.337,0,0,0-36.188.88,26.031,26.031,0,0,0,0,36.94,26.344,26.344,0,0,0,37.124,0A25.874,25.874,0,0,0,933,1721.24,1.025,1.025,0,0,0,931.974,1720.22Zm-44.135.03a1.019,1.019,0,0,0-1.026,1.02v0.01a1.026,1.026,0,0,0,2.051,0v-0.01A1.018,1.018,0,0,0,887.839,1720.25Z" transform="translate(-880.5 -1695.13)"/>
</svg>
