<svg xmlns="http://www.w3.org/2000/svg" width="50.969" height="50.75" viewBox="0 0 50.969 50.75">
  <metadata><?xpacket begin="﻿" id="W5M0MpCehiHzreSzNTczkc9d"?>
<x:xmpmeta xmlns:x="adobe:ns:meta/" x:xmptk="Adobe XMP Core 5.6-c142 79.160924, 2017/07/13-01:06:39        ">
   <rdf:RDF xmlns:rdf="http://www.w3.org/1999/02/22-rdf-syntax-ns#">
      <rdf:Description rdf:about=""/>
   </rdf:RDF>
</x:xmpmeta>
                                                                                                    
                                                                                                    
                                                                                                    
                                                                                                    
                                                                                                    
                                                                                                    
                                                                                                    
                                                                                                    
                                                                                                    
                                                                                                    
                                                                                                    
                                                                                                    
                                                                                                    
                                                                                                    
                                                                                                    
                                                                                                    
                                                                                                    
                                                                                                    
                                                                                                    
                                                                                                    
                           
<?xpacket end="w"?></metadata>
<defs>
    <style>
      .cls-1 {
        fill: #fff;
        fill-rule: evenodd;
      }
    </style>
  </defs>
  <path id="Forma_1_copy_7" data-name="Forma 1 copy 7" class="cls-1" d="M929.688,1833.46l-8.647-8.61a6.948,6.948,0,0,0-9.742-9.7l-8.646-8.61a0.987,0.987,0,0,0-.88-0.27,1.012,1.012,0,0,0-.729.56l-14.085,30.47-5.509,5.49a8.293,8.293,0,0,0,0,11.77,8.386,8.386,0,0,0,11.827,0l3.678-3.66,5.835,5.81a1,1,0,0,0,1.408,0l3.637-3.62a0.986,0.986,0,0,0,0-1.4l-4.647-4.63,26.212-12a1.009,1.009,0,0,0,.564-0.73A0.971,0.971,0,0,0,929.688,1833.46Zm-14.221-17.71a4.953,4.953,0,0,1,4.147,7.68l-6.887-6.86A4.972,4.972,0,0,1,915.467,1815.75Zm-20.883,34.71-3.68-3.67a1.012,1.012,0,0,0-1.408,0,1,1,0,0,0,0,1.41l3.68,3.66-1.307,1.3a6.357,6.357,0,1,1-9.011-8.97l4.931-4.91,9.011,8.97Zm11.139,1.93-2.229,2.22-5.131-5.11,0.424-.42,2.472-1.14Zm-7.3-5.33-9.439-9.39,11.068-23.95,4.55,4.53a1,1,0,0,0,1.408,0,0.986,0.986,0,0,0,0-1.4l-5.071-5.05,1.318-2.85,25.013,24.9Zm31.265-40.52a1.013,1.013,0,0,0-1.409,0l-5.376,5.36a0.986,0.986,0,0,0,0,1.4,1,1,0,0,0,1.408,0l5.377-5.35A1,1,0,0,0,929.687,1806.54Zm-0.7,13.17H924.7a0.99,0.99,0,1,0,0,1.98h4.282A0.99,0.99,0,1,0,928.983,1819.71Zm-13.508-13.46a1,1,0,0,0-1,1v4.26a1,1,0,0,0,1.992,0v-4.26A1,1,0,0,0,915.475,1806.25Zm-27.207,37.92a1,1,0,0,0-1.408,0,1.006,1.006,0,0,0-.291.7,1,1,0,0,0,1.991,0A1,1,0,0,0,888.268,1844.17Zm20.376-24.7a1,1,0,0,0-1.408,0,1.006,1.006,0,0,0-.291.7,1,1,0,0,0,1.991,0A1,1,0,0,0,908.644,1819.47Z" transform="translate(-879 -1806.25)"/>
</svg>
