<svg xmlns="http://www.w3.org/2000/svg" width="51.75" height="38.47" viewBox="0 0 51.75 38.47">
  <metadata><?xpacket begin="﻿" id="W5M0MpCehiHzreSzNTczkc9d"?>
<x:xmpmeta xmlns:x="adobe:ns:meta/" x:xmptk="Adobe XMP Core 5.6-c142 79.160924, 2017/07/13-01:06:39        ">
   <rdf:RDF xmlns:rdf="http://www.w3.org/1999/02/22-rdf-syntax-ns#">
      <rdf:Description rdf:about=""/>
   </rdf:RDF>
</x:xmpmeta>
                                                                                                    
                                                                                                    
                                                                                                    
                                                                                                    
                                                                                                    
                                                                                                    
                                                                                                    
                                                                                                    
                                                                                                    
                                                                                                    
                                                                                                    
                                                                                                    
                                                                                                    
                                                                                                    
                                                                                                    
                                                                                                    
                                                                                                    
                                                                                                    
                                                                                                    
                                                                                                    
                           
<?xpacket end="w"?></metadata>
<defs>
    <style>
      .cls-1 {
        fill: #fff;
        fill-rule: evenodd;
      }
    </style>
  </defs>
  <path id="Forma_1_copy_5" data-name="Forma 1 copy 5" class="cls-1" d="M931.239,1615.47h-0.808V1586.1a1.007,1.007,0,0,0-1.011-1h-8.086a1.007,1.007,0,0,0-1.011,1v10.76a1.011,1.011,0,0,0,2.022,0v-9.75h6.064v28.36h-6.064v-8.75a1.011,1.011,0,0,0-2.022,0v8.75H917.9v-22.73a1.008,1.008,0,0,0-1.01-1.01H908.8a1.009,1.009,0,0,0-1.011,1.01v22.73h-2.83v-16.5a1.007,1.007,0,0,0-1.011-1h-8.086a1.006,1.006,0,0,0-1.01,1v16.5h-2.426v-10.06a1.009,1.009,0,0,0-1.011-1.01H883.33a1.009,1.009,0,0,0-1.011,1.01v10.06h-0.808a1.005,1.005,0,1,0,0,2.01h49.728A1.005,1.005,0,1,0,931.239,1615.47Zm-40.834,0h-6.064v-9.05h6.064v9.05Zm12.533,0h-6.064v-15.49h6.064v15.49Zm12.938,0h-6.065v-21.73h6.065v21.73Zm6.173-14.6a1,1,0,0,0-1.43,0,0.986,0.986,0,0,0-.3.71,1.021,1.021,0,0,0,.3.71,1.026,1.026,0,0,0,1.43,0,1.026,1.026,0,0,0,.3-0.71A0.991,0.991,0,0,0,922.049,1600.87ZM916.482,1579h-3.957a1.005,1.005,0,1,0,0,2.01h1.517l-10.807,10.75-5.49-5.46a1.02,1.02,0,0,0-1.43,0l-10.992,10.94a1,1,0,0,0,0,1.42,1.025,1.025,0,0,0,1.429,0l10.278-10.23,5.49,5.46a1,1,0,0,0,1.43,0l11.521-11.46v1.51a1.011,1.011,0,0,0,2.022,0V1580A1.007,1.007,0,0,0,916.482,1579Zm-32.357,20.85a1.026,1.026,0,0,0-1.43,0,1.021,1.021,0,0,0-.3.71,0.986,0.986,0,0,0,.3.71,1,1,0,0,0,1.43,0,0.991,0.991,0,0,0,.3-0.71A1.026,1.026,0,0,0,884.125,1599.85Z" transform="translate(-880.5 -1579)"/>
</svg>
